<?xml version="1.0" encoding="UTF-8" standalone="no"?>
<!DOCTYPE svg PUBLIC "-//W3C//DTD SVG 1.1//EN"
 "http://www.w3.org/Graphics/SVG/1.1/DTD/svg11.dtd">
<!-- Generated by graphviz version 14.0.0 (20250921.2048)
 -->
<!-- Title: clear Pages: 1 -->
<svg width="728pt" height="170pt"
 viewBox="0.00 0.00 728.00 170.00" xmlns="http://www.w3.org/2000/svg" xmlns:xlink="http://www.w3.org/1999/xlink">
<g id="graph0" class="graph" transform="scale(1 1) rotate(0) translate(4 165.62)">
<title>clear</title>
<!-- Node1 -->
<g id="Node000001" class="node">
<title>Node1</title>
<g id="a_Node000001"><a xlink:title="Clears the terminal screen and moves the cursor to the home position.">
<polygon fill="#999999" stroke="#666666" points="37,-95.25 0,-95.25 0,-76 37,-76 37,-95.25"/>
<text xml:space="preserve" text-anchor="middle" x="18.5" y="-81.75" font-family="Helvetica,sans-Serif" font-size="10.00">clear</text>
</a>
</g>
</g>
<!-- Node2 -->
<g id="Node000002" class="node">
<title>Node2</title>
<g id="a_Node000002"><a xlink:href="printf_8c.html#a0aff7311d684a0e0ef33125616a73385" target="_top" xlink:title="Kernel printf implementation using UART output.">
<polygon fill="white" stroke="#666666" points="110.75,-95.25 73,-95.25 73,-76 110.75,-76 110.75,-95.25"/>
<text xml:space="preserve" text-anchor="middle" x="91.88" y="-81.75" font-family="Helvetica,sans-Serif" font-size="10.00">printf</text>
</a>
</g>
</g>
<!-- Node1&#45;&gt;Node2 -->
<g id="edge1_Node000001_Node000002" class="edge">
<title>Node1&#45;&gt;Node2</title>
<g id="a_edge1_Node000001_Node000002"><a xlink:title=" ">
<path fill="none" stroke="#63b8ff" d="M37.14,-85.62C44.55,-85.62 53.37,-85.62 61.69,-85.62"/>
<polygon fill="#63b8ff" stroke="#63b8ff" points="61.43,-89.13 71.43,-85.63 61.43,-82.13 61.43,-89.13"/>
</a>
</g>
</g>
<!-- Node3 -->
<g id="Node000003" class="node">
<title>Node3</title>
<g id="a_Node000003"><a xlink:href="printf_8c.html#ac3154a3597888cf112e4e7bf6a5f1846" target="_top" xlink:title="Format and print an integer based on format control.">
<polygon fill="white" stroke="#666666" points="216,-57.25 146.75,-57.25 146.75,-38 216,-38 216,-57.25"/>
<text xml:space="preserve" text-anchor="middle" x="181.38" y="-43.75" font-family="Helvetica,sans-Serif" font-size="10.00">put_integers</text>
</a>
</g>
</g>
<!-- Node2&#45;&gt;Node3 -->
<g id="edge2_Node000002_Node000003" class="edge">
<title>Node2&#45;&gt;Node3</title>
<g id="a_edge2_Node000002_Node000003"><a xlink:title=" ">
<path fill="none" stroke="#63b8ff" d="M111.01,-77.75C121.38,-73.25 134.73,-67.45 146.93,-62.15"/>
<polygon fill="#63b8ff" stroke="#63b8ff" points="148.1,-65.46 155.88,-58.26 145.31,-59.04 148.1,-65.46"/>
</a>
</g>
</g>
<!-- Node5 -->
<g id="Node000005" class="node">
<title>Node5</title>
<g id="a_Node000005"><a xlink:href="printf_8c.html#ab97c3c9e783c1402d4007ceafdb197c1" target="_top" xlink:title="Print an unsigned integer in the given base.">
<polygon fill="white" stroke="#666666" points="425,-19.25 351.25,-19.25 351.25,0 425,0 425,-19.25"/>
<text xml:space="preserve" text-anchor="middle" x="388.12" y="-5.75" font-family="Helvetica,sans-Serif" font-size="10.00">put_unsigned</text>
</a>
</g>
</g>
<!-- Node2&#45;&gt;Node5 -->
<g id="edge12_Node000002_Node000005" class="edge">
<title>Node2&#45;&gt;Node5</title>
<g id="a_edge12_Node000002_Node000005"><a xlink:title=" ">
<path fill="none" stroke="#63b8ff" d="M99.13,-75.63C107.98,-62.45 125.47,-39.64 146.75,-28.62 207.63,2.88 288.97,1.86 339.69,-2.97"/>
<polygon fill="#63b8ff" stroke="#63b8ff" points="339.15,-6.44 349.46,-4 339.88,0.53 339.15,-6.44"/>
</a>
</g>
</g>
<!-- Node9 -->
<g id="Node000009" class="node">
<title>Node9</title>
<g id="a_Node000009"><a xlink:href="printf_8c.html#a9bdf0418571456c566aa2f329b5f8350" target="_top" xlink:title="Send a single character over UART, waiting if the FIFO is full.">
<polygon fill="white" stroke="#666666" points="504.75,-76.25 470,-76.25 470,-57 504.75,-57 504.75,-76.25"/>
<text xml:space="preserve" text-anchor="middle" x="487.38" y="-62.75" font-family="Helvetica,sans-Serif" font-size="10.00">putc</text>
</a>
</g>
</g>
<!-- Node2&#45;&gt;Node9 -->
<g id="edge13_Node000002_Node000009" class="edge">
<title>Node2&#45;&gt;Node9</title>
<g id="a_edge13_Node000002_Node000009"><a xlink:title=" ">
<path fill="none" stroke="#63b8ff" d="M110.89,-85.11C160.82,-83.64 305.19,-79.03 425,-71.62 435.89,-70.95 447.85,-70.02 458.3,-69.14"/>
<polygon fill="#63b8ff" stroke="#63b8ff" points="458.55,-72.64 468.21,-68.29 457.94,-65.66 458.55,-72.64"/>
</a>
</g>
</g>
<!-- Node10 -->
<g id="Node000010" class="node">
<title>Node10</title>
<g id="a_Node000010"><a xlink:href="printf_8c.html#a299d0f9cb9e7b14e1278a4ed21e4d76f" target="_top" xlink:title="Transmit a null&#45;terminated string.">
<polygon fill="white" stroke="#666666" points="301,-133.25 266.25,-133.25 266.25,-114 301,-114 301,-133.25"/>
<text xml:space="preserve" text-anchor="middle" x="283.62" y="-119.75" font-family="Helvetica,sans-Serif" font-size="10.00">puts</text>
</a>
</g>
</g>
<!-- Node2&#45;&gt;Node10 -->
<g id="edge14_Node000002_Node000010" class="edge">
<title>Node2&#45;&gt;Node10</title>
<g id="a_edge14_Node000002_Node000010"><a xlink:title=" ">
<path fill="none" stroke="#63b8ff" d="M111.24,-90.78C121.62,-93.6 134.85,-97.03 146.75,-99.62 183.86,-107.71 227.11,-114.99 254.67,-119.35"/>
<polygon fill="#63b8ff" stroke="#63b8ff" points="253.89,-122.77 264.31,-120.86 254.97,-115.86 253.89,-122.77"/>
</a>
</g>
</g>
<!-- Node4 -->
<g id="Node000004" class="node">
<title>Node4</title>
<g id="a_Node000004"><a xlink:href="printf_8c.html#a2e8c688dfa078a9a7f1f02d4126f466a" target="_top" xlink:title="Print a signed integer in decimal form.">
<polygon fill="white" stroke="#666666" points="315.25,-57.25 252,-57.25 252,-38 315.25,-38 315.25,-57.25"/>
<text xml:space="preserve" text-anchor="middle" x="283.62" y="-43.75" font-family="Helvetica,sans-Serif" font-size="10.00">put_signed</text>
</a>
</g>
</g>
<!-- Node3&#45;&gt;Node4 -->
<g id="edge3_Node000003_Node000004" class="edge">
<title>Node3&#45;&gt;Node4</title>
<g id="a_edge3_Node000003_Node000004"><a xlink:title=" ">
<path fill="none" stroke="#63b8ff" d="M216.32,-47.62C224.02,-47.62 232.31,-47.62 240.31,-47.62"/>
<polygon fill="#63b8ff" stroke="#63b8ff" points="240.24,-51.13 250.24,-47.63 240.24,-44.13 240.24,-51.13"/>
</a>
</g>
</g>
<!-- Node3&#45;&gt;Node5 -->
<g id="edge11_Node000003_Node000005" class="edge">
<title>Node3&#45;&gt;Node5</title>
<g id="a_edge11_Node000003_Node000005"><a xlink:title=" ">
<path fill="none" stroke="#63b8ff" d="M215.81,-37.58C227.22,-34.4 240.1,-31.08 252,-28.62 280.77,-22.7 313.38,-18.06 339.35,-14.84"/>
<polygon fill="#63b8ff" stroke="#63b8ff" points="339.77,-18.32 349.28,-13.65 338.93,-11.37 339.77,-18.32"/>
</a>
</g>
</g>
<!-- Node4&#45;&gt;Node5 -->
<g id="edge4_Node000004_Node000005" class="edge">
<title>Node4&#45;&gt;Node5</title>
<g id="a_edge4_Node000004_Node000005"><a xlink:title=" ">
<path fill="none" stroke="#63b8ff" d="M311.82,-37.54C323.38,-33.26 337.05,-28.19 349.55,-23.55"/>
<polygon fill="#63b8ff" stroke="#63b8ff" points="350.58,-26.91 358.74,-20.15 348.14,-20.34 350.58,-26.91"/>
</a>
</g>
</g>
<!-- Node4&#45;&gt;Node9 -->
<g id="edge10_Node000004_Node000009" class="edge">
<title>Node4&#45;&gt;Node9</title>
<g id="a_edge10_Node000004_Node000009"><a xlink:title=" ">
<path fill="none" stroke="#63b8ff" d="M315.71,-50.55C354.7,-54.22 421,-60.47 458.45,-64"/>
<polygon fill="#63b8ff" stroke="#63b8ff" points="457.73,-67.44 468.02,-64.9 458.39,-60.47 457.73,-67.44"/>
</a>
</g>
</g>
<!-- Node6 -->
<g id="Node000006" class="node">
<title>Node6</title>
<g id="a_Node000006"><a xlink:href="printf_8c.html#a96a30e819fcbfa9a0251f71f14ff79bc" target="_top" xlink:title="Perform division and return quotient and remainder.">
<polygon fill="white" stroke="#666666" points="513.75,-39.25 461,-39.25 461,-20 513.75,-20 513.75,-39.25"/>
<text xml:space="preserve" text-anchor="middle" x="487.38" y="-25.75" font-family="Helvetica,sans-Serif" font-size="10.00">_divmod</text>
</a>
</g>
</g>
<!-- Node5&#45;&gt;Node6 -->
<g id="edge5_Node000005_Node000006" class="edge">
<title>Node5&#45;&gt;Node6</title>
<g id="a_edge5_Node000005_Node000006"><a xlink:title=" ">
<path fill="none" stroke="#63b8ff" d="M425.34,-17.07C433.25,-18.7 441.63,-20.42 449.56,-22.05"/>
<polygon fill="#63b8ff" stroke="#63b8ff" points="448.77,-25.47 459.27,-24.05 450.18,-18.61 448.77,-25.47"/>
</a>
</g>
</g>
<!-- Node5&#45;&gt;Node9 -->
<g id="edge9_Node000005_Node000009" class="edge">
<title>Node5&#45;&gt;Node9</title>
<g id="a_edge9_Node000005_Node000009"><a xlink:title=" ">
<path fill="none" stroke="#63b8ff" d="M406.06,-19.55C420.99,-28.3 442.96,-41.18 460.15,-51.25"/>
<polygon fill="#63b8ff" stroke="#63b8ff" points="457.93,-54.01 468.32,-56.04 461.47,-47.97 457.93,-54.01"/>
</a>
</g>
</g>
<!-- Node7 -->
<g id="Node000007" class="node">
<title>Node7</title>
<g id="a_Node000007"><a xlink:href="panic_8c.html#ac3d3e7674c5f1ad62a44afce2ff9a0ca" target="_top" xlink:title="Print a panic message and halt the CPU.">
<polygon fill="white" stroke="#666666" points="620.5,-114.25 549.75,-114.25 549.75,-95 620.5,-95 620.5,-114.25"/>
<text xml:space="preserve" text-anchor="middle" x="585.12" y="-100.75" font-family="Helvetica,sans-Serif" font-size="10.00">kernel_panic</text>
</a>
</g>
</g>
<!-- Node6&#45;&gt;Node7 -->
<g id="edge6_Node000006_Node000007" class="edge">
<title>Node6&#45;&gt;Node7</title>
<g id="a_edge6_Node000006_Node000007"><a xlink:title=" ">
<path fill="none" stroke="#63b8ff" d="M502.98,-39.75C506.54,-42.28 510.31,-45.01 513.75,-47.62 530.75,-60.52 549.5,-75.76 563.37,-87.23"/>
<polygon fill="#63b8ff" stroke="#63b8ff" points="561.02,-89.83 570.94,-93.53 565.49,-84.45 561.02,-89.83"/>
</a>
</g>
</g>
<!-- Node7&#45;&gt;Node2 -->
<g id="edge8_Node000007_Node000002" class="edge">
<title>Node7&#45;&gt;Node2</title>
<g id="a_edge8_Node000007_Node000002"><a xlink:title=" ">
<path fill="none" stroke="#63b8ff" d="M563.92,-114.68C529.12,-131.05 455.26,-161.62 389.12,-161.62 719.75,-8.62 719.75,-8.62 282.62,-161.62 218.67,-161.62 150.73,-123.96 116.11,-101.66"/>
<polygon fill="#63b8ff" stroke="#63b8ff" points="118.4,-98.98 108.12,-96.39 114.54,-104.83 118.4,-98.98"/>
</a>
</g>
</g>
<!-- Node8 -->
<g id="Node000008" class="node">
<title>Node8</title>
<g id="a_Node000008"><a xlink:href="panic_8c.html#a830ea0b31f5cecec34c74c8a4c2f8192" target="_top" xlink:title="Halt the CPU indefinitely.">
<polygon fill="white" stroke="#666666" points="719.75,-114.25 656.5,-114.25 656.5,-95 719.75,-95 719.75,-114.25"/>
<text xml:space="preserve" text-anchor="middle" x="688.12" y="-100.75" font-family="Helvetica,sans-Serif" font-size="10.00">kernel_halt</text>
</a>
</g>
</g>
<!-- Node7&#45;&gt;Node8 -->
<g id="edge7_Node000007_Node000008" class="edge">
<title>Node7&#45;&gt;Node8</title>
<g id="a_edge7_Node000007_Node000008"><a xlink:title=" ">
<path fill="none" stroke="#63b8ff" d="M620.88,-104.62C628.55,-104.62 636.76,-104.62 644.69,-104.62"/>
<polygon fill="#63b8ff" stroke="#63b8ff" points="644.51,-108.13 654.51,-104.63 644.51,-101.13 644.51,-108.13"/>
</a>
</g>
</g>
<!-- Node10&#45;&gt;Node9 -->
<g id="edge15_Node000010_Node000009" class="edge">
<title>Node10&#45;&gt;Node9</title>
<g id="a_edge15_Node000010_Node000009"><a xlink:title=" ">
<path fill="none" stroke="#63b8ff" d="M301.48,-122.51C328.28,-120.35 381.98,-114.42 425,-99.62 437.66,-95.27 450.84,-88.52 461.73,-82.25"/>
<polygon fill="#63b8ff" stroke="#63b8ff" points="463.28,-85.4 470.07,-77.26 459.69,-79.39 463.28,-85.4"/>
</a>
</g>
</g>
</g>
</svg>
