<?xml version="1.0" encoding="UTF-8" standalone="no"?>
<!DOCTYPE svg PUBLIC "-//W3C//DTD SVG 1.1//EN"
 "http://www.w3.org/Graphics/SVG/1.1/DTD/svg11.dtd">
<!-- Generated by graphviz version 14.0.0 (20250921.2048)
 -->
<!-- Title: include/datetime.h Pages: 1 -->
<svg width="222pt" height="83pt"
 viewBox="0.00 0.00 222.00 83.00" xmlns="http://www.w3.org/2000/svg" xmlns:xlink="http://www.w3.org/1999/xlink">
<g id="graph0" class="graph" transform="scale(1 1) rotate(0) translate(4 78.5)">
<title>include/datetime.h</title>
<!-- Node1 -->
<g id="Node000001" class="node">
<title>Node1</title>
<g id="a_Node000001"><a xlink:title=" ">
<polygon fill="#999999" stroke="#666666" points="153.88,-74.5 58.38,-74.5 58.38,-55.25 153.88,-55.25 153.88,-74.5"/>
<text xml:space="preserve" text-anchor="middle" x="106.12" y="-61" font-family="Helvetica,sans-Serif" font-size="10.00">include/datetime.h</text>
</a>
</g>
</g>
<!-- Node2 -->
<g id="Node000002" class="node">
<title>Node2</title>
<g id="a_Node000002"><a xlink:href="kernel_8c.html" target="_top" xlink:title=" ">
<polygon fill="white" stroke="#666666" points="96.25,-19.25 0,-19.25 0,0 96.25,0 96.25,-19.25"/>
<text xml:space="preserve" text-anchor="middle" x="48.12" y="-5.75" font-family="Helvetica,sans-Serif" font-size="10.00">src/kernel/kernel.c</text>
</a>
</g>
</g>
<!-- Node1&#45;&gt;Node2 -->
<g id="edge1_Node000001_Node000002" class="edge">
<title>Node1&#45;&gt;Node2</title>
<g id="a_edge1_Node000001_Node000002"><a xlink:title=" ">
<path fill="none" stroke="#63b8ff" d="M87.86,-47.11C77.91,-37.97 65.99,-27.03 57.82,-19.52"/>
<polygon fill="#63b8ff" stroke="#63b8ff" points="85.44,-49.63 95.17,-53.82 90.17,-44.48 85.44,-49.63"/>
</a>
</g>
</g>
<!-- Node3 -->
<g id="Node000003" class="node">
<title>Node3</title>
<g id="a_Node000003"><a xlink:href="datetime_8c.html" target="_top" xlink:title=" ">
<polygon fill="white" stroke="#666666" points="214.12,-19.25 114.12,-19.25 114.12,0 214.12,0 214.12,-19.25"/>
<text xml:space="preserve" text-anchor="middle" x="164.12" y="-5.75" font-family="Helvetica,sans-Serif" font-size="10.00">src/user/datetime.c</text>
</a>
</g>
</g>
<!-- Node1&#45;&gt;Node3 -->
<g id="edge2_Node000001_Node000003" class="edge">
<title>Node1&#45;&gt;Node3</title>
<g id="a_edge2_Node000001_Node000003"><a xlink:title=" ">
<path fill="none" stroke="#63b8ff" d="M124.39,-47.11C134.34,-37.97 146.26,-27.03 154.43,-19.52"/>
<polygon fill="#63b8ff" stroke="#63b8ff" points="122.08,-44.48 117.08,-53.82 126.81,-49.63 122.08,-44.48"/>
</a>
</g>
</g>
</g>
</svg>
