<?xml version="1.0" encoding="UTF-8" standalone="no"?>
<!DOCTYPE svg PUBLIC "-//W3C//DTD SVG 1.1//EN"
 "http://www.w3.org/Graphics/SVG/1.1/DTD/svg11.dtd">
<!-- Generated by graphviz version 14.0.0 (20250921.2048)
 -->
<!-- Title: src/user/datetime.c Pages: 1 -->
<svg width="178pt" height="138pt"
 viewBox="0.00 0.00 178.00 138.00" xmlns="http://www.w3.org/2000/svg" xmlns:xlink="http://www.w3.org/1999/xlink">
<g id="graph0" class="graph" transform="scale(1 1) rotate(0) translate(4 133.75)">
<title>src/user/datetime.c</title>
<!-- Node1 -->
<g id="Node000001" class="node">
<title>Node1</title>
<g id="a_Node000001"><a xlink:title=" ">
<polygon fill="#999999" stroke="#666666" points="129.62,-129.75 29.62,-129.75 29.62,-110.5 129.62,-110.5 129.62,-129.75"/>
<text xml:space="preserve" text-anchor="middle" x="79.62" y="-116.25" font-family="Helvetica,sans-Serif" font-size="10.00">src/user/datetime.c</text>
</a>
</g>
</g>
<!-- Node2 -->
<g id="Node000002" class="node">
<title>Node2</title>
<g id="a_Node000002"><a xlink:title=" ">
<polygon fill="#e0e0e0" stroke="#999999" points="51.25,-74.5 0,-74.5 0,-55.25 51.25,-55.25 51.25,-74.5"/>
<text xml:space="preserve" text-anchor="middle" x="25.62" y="-61" font-family="Helvetica,sans-Serif" font-size="10.00">stddef.h</text>
</a>
</g>
</g>
<!-- Node1&#45;&gt;Node2 -->
<g id="edge1_Node000001_Node000002" class="edge">
<title>Node1&#45;&gt;Node2</title>
<g id="a_edge1_Node000001_Node000002"><a xlink:title=" ">
<path fill="none" stroke="#63b8ff" d="M70.71,-110.33C63.17,-102.9 52.16,-92.04 42.9,-82.91"/>
<polygon fill="#63b8ff" stroke="#63b8ff" points="45.39,-80.45 35.81,-75.92 40.48,-85.44 45.39,-80.45"/>
</a>
</g>
</g>
<!-- Node3 -->
<g id="Node000003" class="node">
<title>Node3</title>
<g id="a_Node000003"><a xlink:title=" ">
<polygon fill="#e0e0e0" stroke="#999999" points="132.75,-19.25 84.5,-19.25 84.5,0 132.75,0 132.75,-19.25"/>
<text xml:space="preserve" text-anchor="middle" x="108.62" y="-5.75" font-family="Helvetica,sans-Serif" font-size="10.00">stdint.h</text>
</a>
</g>
</g>
<!-- Node1&#45;&gt;Node3 -->
<g id="edge2_Node000001_Node000003" class="edge">
<title>Node1&#45;&gt;Node3</title>
<g id="a_edge2_Node000001_Node000003"><a xlink:title=" ">
<path fill="none" stroke="#63b8ff" d="M82,-110.25C86.63,-92.92 96.97,-54.23 103.32,-30.49"/>
<polygon fill="#63b8ff" stroke="#63b8ff" points="106.63,-31.65 105.83,-21.09 99.86,-29.85 106.63,-31.65"/>
</a>
</g>
</g>
<!-- Node4 -->
<g id="Node000004" class="node">
<title>Node4</title>
<g id="a_Node000004"><a xlink:href="datetime_8h.html" target="_top" xlink:title=" ">
<polygon fill="white" stroke="#666666" points="169.5,-74.5 107.75,-74.5 107.75,-55.25 169.5,-55.25 169.5,-74.5"/>
<text xml:space="preserve" text-anchor="middle" x="138.62" y="-61" font-family="Helvetica,sans-Serif" font-size="10.00">datetime.h</text>
</a>
</g>
</g>
<!-- Node1&#45;&gt;Node4 -->
<g id="edge3_Node000001_Node000004" class="edge">
<title>Node1&#45;&gt;Node4</title>
<g id="a_edge3_Node000001_Node000004"><a xlink:title=" ">
<path fill="none" stroke="#63b8ff" d="M89.63,-110.09C97.99,-102.55 110.12,-91.6 120.23,-82.48"/>
<polygon fill="#63b8ff" stroke="#63b8ff" points="122.56,-85.09 127.64,-75.79 117.87,-79.89 122.56,-85.09"/>
</a>
</g>
</g>
<!-- Node4&#45;&gt;Node3 -->
<g id="edge4_Node000004_Node000003" class="edge">
<title>Node4&#45;&gt;Node3</title>
<g id="a_edge4_Node000004_Node000003"><a xlink:title=" ">
<path fill="none" stroke="#63b8ff" d="M133.67,-55.08C129.74,-48.11 124.11,-38.12 119.19,-29.37"/>
<polygon fill="#63b8ff" stroke="#63b8ff" points="122.39,-27.92 114.43,-20.93 116.29,-31.36 122.39,-27.92"/>
</a>
</g>
</g>
</g>
</svg>
