<?xml version="1.0" encoding="UTF-8" standalone="no"?>
<!DOCTYPE svg PUBLIC "-//W3C//DTD SVG 1.1//EN"
 "http://www.w3.org/Graphics/SVG/1.1/DTD/svg11.dtd">
<!-- Generated by graphviz version 14.0.0 (20250921.2048)
 -->
<!-- Title: irq_enable Pages: 1 -->
<svg width="194pt" height="64pt"
 viewBox="0.00 0.00 194.00 64.00" xmlns="http://www.w3.org/2000/svg" xmlns:xlink="http://www.w3.org/1999/xlink">
<g id="graph0" class="graph" transform="scale(1 1) rotate(0) translate(4 60.25)">
<title>irq_enable</title>
<!-- Node1 -->
<g id="Node000001" class="node">
<title>Node1</title>
<g id="a_Node000001"><a xlink:title=" ">
<polygon fill="#999999" stroke="#666666" points="185.75,-37.25 125.5,-37.25 125.5,-18 185.75,-18 185.75,-37.25"/>
<text xml:space="preserve" text-anchor="middle" x="155.62" y="-23.75" font-family="Helvetica,sans-Serif" font-size="10.00">irq_enable</text>
</a>
</g>
</g>
<!-- Node2 -->
<g id="Node000002" class="node">
<title>Node2</title>
<g id="a_Node000002"><a xlink:href="kernel_8c.html#a7e3f35a711eee12e3d4bbc0a276fcf0c" target="_top" xlink:title=" ">
<polygon fill="white" stroke="#666666" points="89.5,-56.25 0,-56.25 0,-37 89.5,-37 89.5,-56.25"/>
<text xml:space="preserve" text-anchor="middle" x="44.75" y="-42.75" font-family="Helvetica,sans-Serif" font-size="10.00">irq_sanity_check</text>
</a>
</g>
</g>
<!-- Node1&#45;&gt;Node2 -->
<g id="edge1_Node000001_Node000002" class="edge">
<title>Node1&#45;&gt;Node2</title>
<g id="a_edge1_Node000001_Node000002"><a xlink:title=" ">
<path fill="none" stroke="#63b8ff" d="M114.04,-34.71C106.19,-36.08 97.93,-37.52 89.97,-38.91"/>
<polygon fill="#63b8ff" stroke="#63b8ff" points="114.42,-38.19 123.67,-33.03 113.22,-31.3 114.42,-38.19"/>
</a>
</g>
</g>
<!-- Node3 -->
<g id="Node000003" class="node">
<title>Node3</title>
<g id="a_Node000003"><a xlink:href="kernel_8c.html#a8a11654fcf5bd5fcf10f118ad5f79904" target="_top" xlink:title=" ">
<polygon fill="white" stroke="#666666" points="72.62,-19.25 16.88,-19.25 16.88,0 72.62,0 72.62,-19.25"/>
<text xml:space="preserve" text-anchor="middle" x="44.75" y="-5.75" font-family="Helvetica,sans-Serif" font-size="10.00">not_main</text>
</a>
</g>
</g>
<!-- Node1&#45;&gt;Node3 -->
<g id="edge2_Node000001_Node000003" class="edge">
<title>Node1&#45;&gt;Node3</title>
<g id="a_edge2_Node000001_Node000003"><a xlink:title=" ">
<path fill="none" stroke="#63b8ff" d="M114.04,-20.91C100.35,-18.65 85.4,-16.18 72.99,-14.13"/>
<polygon fill="#63b8ff" stroke="#63b8ff" points="113.23,-24.33 123.67,-22.51 114.37,-17.42 113.23,-24.33"/>
</a>
</g>
</g>
</g>
</svg>
