<?xml version="1.0" encoding="UTF-8" standalone="no"?>
<!DOCTYPE svg PUBLIC "-//W3C//DTD SVG 1.1//EN"
 "http://www.w3.org/Graphics/SVG/1.1/DTD/svg11.dtd">
<!-- Generated by graphviz version 14.0.0 (20250921.2048)
 -->
<!-- Title: src/kernel/interrupt.c Pages: 1 -->
<svg width="182pt" height="138pt"
 viewBox="0.00 0.00 182.00 138.00" xmlns="http://www.w3.org/2000/svg" xmlns:xlink="http://www.w3.org/1999/xlink">
<g id="graph0" class="graph" transform="scale(1 1) rotate(0) translate(4 133.75)">
<title>src/kernel/interrupt.c</title>
<!-- Node1 -->
<g id="Node000001" class="node">
<title>Node1</title>
<g id="a_Node000001"><a xlink:title=" ">
<polygon fill="#999999" stroke="#666666" points="140.38,-129.75 35.12,-129.75 35.12,-110.5 140.38,-110.5 140.38,-129.75"/>
<text xml:space="preserve" text-anchor="middle" x="87.75" y="-116.25" font-family="Helvetica,sans-Serif" font-size="10.00">src/kernel/interrupt.c</text>
</a>
</g>
</g>
<!-- Node2 -->
<g id="Node000002" class="node">
<title>Node2</title>
<g id="a_Node000002"><a xlink:href="interrupt_8h.html" target="_top" xlink:title=" ">
<polygon fill="white" stroke="#666666" points="59.5,-74.5 0,-74.5 0,-55.25 59.5,-55.25 59.5,-74.5"/>
<text xml:space="preserve" text-anchor="middle" x="29.75" y="-61" font-family="Helvetica,sans-Serif" font-size="10.00">interrupt.h</text>
</a>
</g>
</g>
<!-- Node1&#45;&gt;Node2 -->
<g id="edge1_Node000001_Node000002" class="edge">
<title>Node1&#45;&gt;Node2</title>
<g id="a_edge1_Node000001_Node000002"><a xlink:title=" ">
<path fill="none" stroke="#63b8ff" d="M77.91,-110.09C69.7,-102.55 57.77,-91.6 47.84,-82.48"/>
<polygon fill="#63b8ff" stroke="#63b8ff" points="50.29,-79.98 40.56,-75.8 45.56,-85.14 50.29,-79.98"/>
</a>
</g>
</g>
<!-- Node3 -->
<g id="Node000003" class="node">
<title>Node3</title>
<g id="a_Node000003"><a xlink:title=" ">
<polygon fill="#e0e0e0" stroke="#999999" points="106.88,-19.25 58.62,-19.25 58.62,0 106.88,0 106.88,-19.25"/>
<text xml:space="preserve" text-anchor="middle" x="82.75" y="-5.75" font-family="Helvetica,sans-Serif" font-size="10.00">stdint.h</text>
</a>
</g>
</g>
<!-- Node1&#45;&gt;Node3 -->
<g id="edge6_Node000001_Node000003" class="edge">
<title>Node1&#45;&gt;Node3</title>
<g id="a_edge6_Node000001_Node000003"><a xlink:title=" ">
<path fill="none" stroke="#63b8ff" d="M87.34,-110.25C86.55,-93 84.78,-54.58 83.68,-30.81"/>
<polygon fill="#63b8ff" stroke="#63b8ff" points="87.19,-30.97 83.23,-21.14 80.2,-31.29 87.19,-30.97"/>
</a>
</g>
</g>
<!-- Node4 -->
<g id="Node000004" class="node">
<title>Node4</title>
<g id="a_Node000004"><a xlink:href="math_8h.html" target="_top" xlink:title=" ">
<polygon fill="white" stroke="#666666" points="174.12,-74.5 115.38,-74.5 115.38,-55.25 174.12,-55.25 174.12,-74.5"/>
<text xml:space="preserve" text-anchor="middle" x="144.75" y="-61" font-family="Helvetica,sans-Serif" font-size="10.00">lib/math.h</text>
</a>
</g>
</g>
<!-- Node1&#45;&gt;Node4 -->
<g id="edge3_Node000001_Node000004" class="edge">
<title>Node1&#45;&gt;Node4</title>
<g id="a_edge3_Node000001_Node000004"><a xlink:title=" ">
<path fill="none" stroke="#63b8ff" d="M97.42,-110.09C105.49,-102.55 117.22,-91.6 126.97,-82.48"/>
<polygon fill="#63b8ff" stroke="#63b8ff" points="129.2,-85.19 134.12,-75.81 124.42,-80.08 129.2,-85.19"/>
</a>
</g>
</g>
<!-- Node2&#45;&gt;Node3 -->
<g id="edge2_Node000002_Node000003" class="edge">
<title>Node2&#45;&gt;Node3</title>
<g id="a_edge2_Node000002_Node000003"><a xlink:title=" ">
<path fill="none" stroke="#63b8ff" d="M38.5,-55.08C45.9,-47.65 56.71,-36.79 65.8,-27.66"/>
<polygon fill="#63b8ff" stroke="#63b8ff" points="68.17,-30.24 72.74,-20.68 63.21,-25.3 68.17,-30.24"/>
</a>
</g>
</g>
<!-- Node4&#45;&gt;Node3 -->
<g id="edge4_Node000004_Node000003" class="edge">
<title>Node4&#45;&gt;Node3</title>
<g id="a_edge4_Node000004_Node000003"><a xlink:title=" ">
<path fill="none" stroke="#63b8ff" d="M134.23,-54.84C125.36,-47.22 112.44,-36.12 101.76,-26.95"/>
<polygon fill="#63b8ff" stroke="#63b8ff" points="104.13,-24.37 94.26,-20.51 99.57,-29.68 104.13,-24.37"/>
</a>
</g>
</g>
<!-- Node5 -->
<g id="Node000005" class="node">
<title>Node5</title>
<g id="a_Node000005"><a xlink:href="panic_8h.html" target="_top" xlink:title="Kernel panic and halt routines.">
<polygon fill="white" stroke="#666666" points="172.5,-19.25 125,-19.25 125,0 172.5,0 172.5,-19.25"/>
<text xml:space="preserve" text-anchor="middle" x="148.75" y="-5.75" font-family="Helvetica,sans-Serif" font-size="10.00">panic.h</text>
</a>
</g>
</g>
<!-- Node4&#45;&gt;Node5 -->
<g id="edge5_Node000004_Node000005" class="edge">
<title>Node4&#45;&gt;Node5</title>
<g id="a_edge5_Node000004_Node000005"><a xlink:title=" ">
<path fill="none" stroke="#63b8ff" d="M145.41,-55.08C145.91,-48.49 146.6,-39.21 147.23,-30.82"/>
<polygon fill="#63b8ff" stroke="#63b8ff" points="150.7,-31.35 147.96,-21.12 143.72,-30.83 150.7,-31.35"/>
</a>
</g>
</g>
</g>
</svg>
