<?xml version="1.0" encoding="UTF-8" standalone="no"?>
<!DOCTYPE svg PUBLIC "-//W3C//DTD SVG 1.1//EN"
 "http://www.w3.org/Graphics/SVG/1.1/DTD/svg11.dtd">
<!-- Generated by graphviz version 14.0.0 (20250921.2048)
 -->
<!-- Title: interrupts_init_timer0 Pages: 1 -->
<svg width="876pt" height="185pt"
 viewBox="0.00 0.00 876.00 185.00" xmlns="http://www.w3.org/2000/svg" xmlns:xlink="http://www.w3.org/1999/xlink">
<g id="graph0" class="graph" transform="scale(1 1) rotate(0) translate(4 180.62)">
<title>interrupts_init_timer0</title>
<!-- Node1 -->
<g id="Node000001" class="node">
<title>Node1</title>
<g id="a_Node000001"><a xlink:title="VersatilePB SP804 timer clock is typically 1 MHz (can be overridden)">
<polygon fill="#999999" stroke="#666666" points="106.75,-57.62 0,-57.62 0,-38.38 106.75,-38.38 106.75,-57.62"/>
<text xml:space="preserve" text-anchor="middle" x="53.38" y="-44.12" font-family="Helvetica,sans-Serif" font-size="10.00">interrupts_init_timer0</text>
</a>
</g>
</g>
<!-- Node2 -->
<g id="Node000002" class="node">
<title>Node2</title>
<g id="a_Node000002"><a xlink:href="math_8h.html#a97fbf4adb8a31d415775bdbd5c30c468" target="_top" xlink:title="Unsigned 32&#45;bit integer division: n / d.">
<polygon fill="white" stroke="#666666" points="225.5,-94.62 175.75,-94.62 175.75,-75.38 225.5,-75.38 225.5,-94.62"/>
<text xml:space="preserve" text-anchor="middle" x="200.62" y="-81.12" font-family="Helvetica,sans-Serif" font-size="10.00">_udiv32</text>
</a>
</g>
</g>
<!-- Node1&#45;&gt;Node2 -->
<g id="edge1_Node000001_Node000002" class="edge">
<title>Node1&#45;&gt;Node2</title>
<g id="a_edge1_Node000001_Node000002"><a xlink:title=" ">
<path fill="none" stroke="#63b8ff" d="M94.07,-58.11C116.04,-63.71 143.11,-70.6 164.33,-76.01"/>
<polygon fill="#63b8ff" stroke="#63b8ff" points="163.44,-79.39 173.99,-78.47 165.16,-72.61 163.44,-79.39"/>
</a>
</g>
</g>
<!-- Node12 -->
<g id="Node000012" class="node">
<title>Node12</title>
<g id="a_Node000012"><a xlink:href="interrupt_8h.html#a6b1cda18aba744c0a2580c0833a96d9d" target="_top" xlink:title=" ">
<polygon fill="white" stroke="#666666" points="254,-57.62 147.25,-57.62 147.25,-38.38 254,-38.38 254,-57.62"/>
<text xml:space="preserve" text-anchor="middle" x="200.62" y="-44.12" font-family="Helvetica,sans-Serif" font-size="10.00">timer0_start_periodic</text>
</a>
</g>
</g>
<!-- Node1&#45;&gt;Node12 -->
<g id="edge17_Node000001_Node000012" class="edge">
<title>Node1&#45;&gt;Node12</title>
<g id="a_edge17_Node000001_Node000012"><a xlink:title=" ">
<path fill="none" stroke="#63b8ff" d="M107.22,-48C116.45,-48 126.14,-48 135.63,-48"/>
<polygon fill="#63b8ff" stroke="#63b8ff" points="135.54,-51.5 145.54,-48 135.54,-44.5 135.54,-51.5"/>
</a>
</g>
</g>
<!-- Node13 -->
<g id="Node000013" class="node">
<title>Node13</title>
<g id="a_Node000013"><a xlink:href="interrupt_8h.html#a18b76150ed04c0d5d19456bf30970fdd" target="_top" xlink:title=" ">
<polygon fill="white" stroke="#666666" points="258.5,-20.62 142.75,-20.62 142.75,-1.38 258.5,-1.38 258.5,-20.62"/>
<text xml:space="preserve" text-anchor="middle" x="200.62" y="-7.12" font-family="Helvetica,sans-Serif" font-size="10.00">vic_enable_timer01_irq</text>
</a>
</g>
</g>
<!-- Node1&#45;&gt;Node13 -->
<g id="edge18_Node000001_Node000013" class="edge">
<title>Node1&#45;&gt;Node13</title>
<g id="a_edge18_Node000001_Node000013"><a xlink:title=" ">
<path fill="none" stroke="#63b8ff" d="M94.07,-37.89C111.04,-33.57 131.05,-28.47 149.07,-23.88"/>
<polygon fill="#63b8ff" stroke="#63b8ff" points="149.69,-27.33 158.52,-21.47 147.96,-20.55 149.69,-27.33"/>
</a>
</g>
</g>
<!-- Node3 -->
<g id="Node000003" class="node">
<title>Node3</title>
<g id="a_Node000003"><a xlink:href="panic_8c.html#ac3d3e7674c5f1ad62a44afce2ff9a0ca" target="_top" xlink:title="Print a panic message and halt the CPU.">
<polygon fill="white" stroke="#666666" points="365.25,-94.62 294.5,-94.62 294.5,-75.38 365.25,-75.38 365.25,-94.62"/>
<text xml:space="preserve" text-anchor="middle" x="329.88" y="-81.12" font-family="Helvetica,sans-Serif" font-size="10.00">kernel_panic</text>
</a>
</g>
</g>
<!-- Node2&#45;&gt;Node3 -->
<g id="edge2_Node000002_Node000003" class="edge">
<title>Node2&#45;&gt;Node3</title>
<g id="a_edge2_Node000002_Node000003"><a xlink:title=" ">
<path fill="none" stroke="#63b8ff" d="M225.86,-85C241.94,-85 263.55,-85 282.83,-85"/>
<polygon fill="#63b8ff" stroke="#63b8ff" points="282.64,-88.5 292.64,-85 282.64,-81.5 282.64,-88.5"/>
</a>
</g>
</g>
<!-- Node4 -->
<g id="Node000004" class="node">
<title>Node4</title>
<g id="a_Node000004"><a xlink:href="panic_8c.html#a830ea0b31f5cecec34c74c8a4c2f8192" target="_top" xlink:title="Halt the CPU indefinitely.">
<polygon fill="white" stroke="#666666" points="464.5,-131.62 401.25,-131.62 401.25,-112.38 464.5,-112.38 464.5,-131.62"/>
<text xml:space="preserve" text-anchor="middle" x="432.88" y="-118.12" font-family="Helvetica,sans-Serif" font-size="10.00">kernel_halt</text>
</a>
</g>
</g>
<!-- Node3&#45;&gt;Node4 -->
<g id="edge3_Node000003_Node000004" class="edge">
<title>Node3&#45;&gt;Node4</title>
<g id="a_edge3_Node000003_Node000004"><a xlink:title=" ">
<path fill="none" stroke="#63b8ff" d="M358.47,-95.11C369.27,-99.07 381.85,-103.67 393.5,-107.94"/>
<polygon fill="#63b8ff" stroke="#63b8ff" points="392.29,-111.23 402.89,-111.38 394.7,-104.65 392.29,-111.23"/>
</a>
</g>
</g>
<!-- Node5 -->
<g id="Node000005" class="node">
<title>Node5</title>
<g id="a_Node000005"><a xlink:href="printf_8c.html#a0aff7311d684a0e0ef33125616a73385" target="_top" xlink:title="Kernel printf implementation using UART output.">
<polygon fill="white" stroke="#666666" points="451.75,-94.62 414,-94.62 414,-75.38 451.75,-75.38 451.75,-94.62"/>
<text xml:space="preserve" text-anchor="middle" x="432.88" y="-81.12" font-family="Helvetica,sans-Serif" font-size="10.00">printf</text>
</a>
</g>
</g>
<!-- Node3&#45;&gt;Node5 -->
<g id="edge4_Node000003_Node000005" class="edge">
<title>Node3&#45;&gt;Node5</title>
<g id="a_edge4_Node000003_Node000005"><a xlink:title=" ">
<path fill="none" stroke="#63b8ff" d="M365.63,-85C377.58,-85 390.82,-85 402.31,-85"/>
<polygon fill="#63b8ff" stroke="#63b8ff" points="402.01,-88.5 412.01,-85 402.01,-81.5 402.01,-88.5"/>
</a>
</g>
</g>
<!-- Node6 -->
<g id="Node000006" class="node">
<title>Node6</title>
<g id="a_Node000006"><a xlink:href="printf_8c.html#ac3154a3597888cf112e4e7bf6a5f1846" target="_top" xlink:title="Format and print an integer based on format control.">
<polygon fill="white" stroke="#666666" points="569.75,-94.62 500.5,-94.62 500.5,-75.38 569.75,-75.38 569.75,-94.62"/>
<text xml:space="preserve" text-anchor="middle" x="535.12" y="-81.12" font-family="Helvetica,sans-Serif" font-size="10.00">put_integers</text>
</a>
</g>
</g>
<!-- Node5&#45;&gt;Node6 -->
<g id="edge5_Node000005_Node000006" class="edge">
<title>Node5&#45;&gt;Node6</title>
<g id="a_edge5_Node000005_Node000006"><a xlink:title=" ">
<path fill="none" stroke="#63b8ff" d="M451.8,-85C462.16,-85 475.72,-85 488.83,-85"/>
<polygon fill="#63b8ff" stroke="#63b8ff" points="488.63,-88.5 498.63,-85 488.63,-81.5 488.63,-88.5"/>
</a>
</g>
</g>
<!-- Node8 -->
<g id="Node000008" class="node">
<title>Node8</title>
<g id="a_Node000008"><a xlink:href="printf_8c.html#ab97c3c9e783c1402d4007ceafdb197c1" target="_top" xlink:title="Print an unsigned integer in the given base.">
<polygon fill="white" stroke="#666666" points="778.75,-84.62 705,-84.62 705,-65.38 778.75,-65.38 778.75,-84.62"/>
<text xml:space="preserve" text-anchor="middle" x="741.88" y="-71.12" font-family="Helvetica,sans-Serif" font-size="10.00">put_unsigned</text>
</a>
</g>
</g>
<!-- Node5&#45;&gt;Node8 -->
<g id="edge13_Node000005_Node000008" class="edge">
<title>Node5&#45;&gt;Node8</title>
<g id="a_edge13_Node000005_Node000008"><a xlink:title=" ">
<path fill="none" stroke="#63b8ff" d="M452.24,-78.27C465.46,-73.8 483.82,-68.33 500.5,-66 566.98,-56.71 644.75,-62.63 693.42,-68.33"/>
<polygon fill="#63b8ff" stroke="#63b8ff" points="692.98,-71.8 703.34,-69.54 693.83,-64.85 692.98,-71.8"/>
</a>
</g>
</g>
<!-- Node10 -->
<g id="Node000010" class="node">
<title>Node10</title>
<g id="a_Node000010"><a xlink:href="printf_8c.html#a9bdf0418571456c566aa2f329b5f8350" target="_top" xlink:title="Send a single character over UART, waiting if the FIFO is full.">
<polygon fill="white" stroke="#666666" points="858.5,-141.62 823.75,-141.62 823.75,-122.38 858.5,-122.38 858.5,-141.62"/>
<text xml:space="preserve" text-anchor="middle" x="841.12" y="-128.12" font-family="Helvetica,sans-Serif" font-size="10.00">putc</text>
</a>
</g>
</g>
<!-- Node5&#45;&gt;Node10 -->
<g id="edge14_Node000005_Node000010" class="edge">
<title>Node5&#45;&gt;Node10</title>
<g id="a_edge14_Node000005_Node000010"><a xlink:title=" ">
<path fill="none" stroke="#63b8ff" d="M451.96,-95.04C456.15,-97.53 460.54,-100.27 464.5,-103 481.4,-114.68 482.59,-121.93 500.5,-132 543.85,-156.38 556.76,-161.43 605.75,-170 681.77,-183.3 703.92,-173.88 778.75,-155 790.09,-152.14 802.22,-147.86 812.68,-143.78"/>
<polygon fill="#63b8ff" stroke="#63b8ff" points="813.9,-147.06 821.85,-140.06 811.27,-140.57 813.9,-147.06"/>
</a>
</g>
</g>
<!-- Node11 -->
<g id="Node000011" class="node">
<title>Node11</title>
<g id="a_Node000011"><a xlink:href="printf_8c.html#a299d0f9cb9e7b14e1278a4ed21e4d76f" target="_top" xlink:title="Transmit a null&#45;terminated string.">
<polygon fill="white" stroke="#666666" points="654.75,-160.62 620,-160.62 620,-141.38 654.75,-141.38 654.75,-160.62"/>
<text xml:space="preserve" text-anchor="middle" x="637.38" y="-147.12" font-family="Helvetica,sans-Serif" font-size="10.00">puts</text>
</a>
</g>
</g>
<!-- Node5&#45;&gt;Node11 -->
<g id="edge15_Node000005_Node000011" class="edge">
<title>Node5&#45;&gt;Node11</title>
<g id="a_edge15_Node000005_Node000011"><a xlink:title=" ">
<path fill="none" stroke="#63b8ff" d="M452.2,-90.97C487.89,-102.6 566.87,-128.35 608.87,-142.03"/>
<polygon fill="#63b8ff" stroke="#63b8ff" points="607.63,-145.31 618.23,-145.08 609.8,-138.66 607.63,-145.31"/>
</a>
</g>
</g>
<!-- Node7 -->
<g id="Node000007" class="node">
<title>Node7</title>
<g id="a_Node000007"><a xlink:href="printf_8c.html#a2e8c688dfa078a9a7f1f02d4126f466a" target="_top" xlink:title="Print a signed integer in decimal form.">
<polygon fill="white" stroke="#666666" points="669,-123.62 605.75,-123.62 605.75,-104.38 669,-104.38 669,-123.62"/>
<text xml:space="preserve" text-anchor="middle" x="637.38" y="-110.12" font-family="Helvetica,sans-Serif" font-size="10.00">put_signed</text>
</a>
</g>
</g>
<!-- Node6&#45;&gt;Node7 -->
<g id="edge6_Node000006_Node000007" class="edge">
<title>Node6&#45;&gt;Node7</title>
<g id="a_edge6_Node000006_Node000007"><a xlink:title=" ">
<path fill="none" stroke="#63b8ff" d="M570.07,-94.82C577.95,-97.1 586.44,-99.56 594.62,-101.92"/>
<polygon fill="#63b8ff" stroke="#63b8ff" points="593.47,-105.23 604.05,-104.65 595.42,-98.51 593.47,-105.23"/>
</a>
</g>
</g>
<!-- Node6&#45;&gt;Node8 -->
<g id="edge12_Node000006_Node000008" class="edge">
<title>Node6&#45;&gt;Node8</title>
<g id="a_edge12_Node000006_Node000008"><a xlink:title=" ">
<path fill="none" stroke="#63b8ff" d="M569.94,-83.35C603.6,-81.7 655.56,-79.17 693.36,-77.32"/>
<polygon fill="#63b8ff" stroke="#63b8ff" points="693.27,-80.83 703.09,-76.85 692.93,-73.84 693.27,-80.83"/>
</a>
</g>
</g>
<!-- Node7&#45;&gt;Node8 -->
<g id="edge7_Node000007_Node000008" class="edge">
<title>Node7&#45;&gt;Node8</title>
<g id="a_edge7_Node000007_Node000008"><a xlink:title=" ">
<path fill="none" stroke="#63b8ff" d="M664.77,-103.96C676.73,-99.41 691.06,-93.95 704.05,-89.01"/>
<polygon fill="#63b8ff" stroke="#63b8ff" points="705.05,-92.38 713.15,-85.55 702.56,-85.83 705.05,-92.38"/>
</a>
</g>
</g>
<!-- Node7&#45;&gt;Node10 -->
<g id="edge11_Node000007_Node000010" class="edge">
<title>Node7&#45;&gt;Node10</title>
<g id="a_edge11_Node000007_Node000010"><a xlink:title=" ">
<path fill="none" stroke="#63b8ff" d="M669.46,-116.77C708.45,-120.25 774.75,-126.17 812.2,-129.51"/>
<polygon fill="#63b8ff" stroke="#63b8ff" points="811.5,-132.96 821.77,-130.36 812.12,-125.99 811.5,-132.96"/>
</a>
</g>
</g>
<!-- Node9 -->
<g id="Node000009" class="node">
<title>Node9</title>
<g id="a_Node000009"><a xlink:href="printf_8c.html#a96a30e819fcbfa9a0251f71f14ff79bc" target="_top" xlink:title="Perform division and return quotient and remainder.">
<polygon fill="white" stroke="#666666" points="867.5,-47.62 814.75,-47.62 814.75,-28.38 867.5,-28.38 867.5,-47.62"/>
<text xml:space="preserve" text-anchor="middle" x="841.12" y="-34.12" font-family="Helvetica,sans-Serif" font-size="10.00">_divmod</text>
</a>
</g>
</g>
<!-- Node8&#45;&gt;Node9 -->
<g id="edge8_Node000008_Node000009" class="edge">
<title>Node8&#45;&gt;Node9</title>
<g id="a_edge8_Node000008_Node000009"><a xlink:title=" ">
<path fill="none" stroke="#63b8ff" d="M769.45,-64.89C780.02,-60.87 792.35,-56.18 803.73,-51.85"/>
<polygon fill="#63b8ff" stroke="#63b8ff" points="804.74,-55.21 812.84,-48.38 802.25,-48.67 804.74,-55.21"/>
</a>
</g>
</g>
<!-- Node8&#45;&gt;Node10 -->
<g id="edge10_Node000008_Node000010" class="edge">
<title>Node8&#45;&gt;Node10</title>
<g id="a_edge10_Node000008_Node000010"><a xlink:title=" ">
<path fill="none" stroke="#63b8ff" d="M759.81,-84.93C774.74,-93.67 796.71,-106.55 813.9,-116.63"/>
<polygon fill="#63b8ff" stroke="#63b8ff" points="811.68,-119.38 822.07,-121.42 815.22,-113.34 811.68,-119.38"/>
</a>
</g>
</g>
<!-- Node9&#45;&gt;Node3 -->
<g id="edge9_Node000009_Node000003" class="edge">
<title>Node9&#45;&gt;Node3</title>
<g id="a_edge9_Node000009_Node000003"><a xlink:title=" ">
<path fill="none" stroke="#63b8ff" d="M814.3,-29.94C776.21,-18.79 702.53,0 638.38,0 867.5,-36 867.5,-36 534.12,0 463.85,0 389.76,-43.78 353.52,-68.5"/>
<polygon fill="#63b8ff" stroke="#63b8ff" points="351.78,-65.45 345.58,-74.05 355.79,-71.19 351.78,-65.45"/>
</a>
</g>
</g>
<!-- Node11&#45;&gt;Node10 -->
<g id="edge16_Node000011_Node000010" class="edge">
<title>Node11&#45;&gt;Node10</title>
<g id="a_edge16_Node000011_Node000010"><a xlink:title=" ">
<path fill="none" stroke="#63b8ff" d="M655.23,-149.41C689.88,-146.15 769.43,-138.66 812.01,-134.65"/>
<polygon fill="#63b8ff" stroke="#63b8ff" points="812.33,-138.13 821.95,-133.71 811.67,-131.16 812.33,-138.13"/>
</a>
</g>
</g>
</g>
</svg>
