<?xml version="1.0" encoding="UTF-8" standalone="no"?>
<!DOCTYPE svg PUBLIC "-//W3C//DTD SVG 1.1//EN"
 "http://www.w3.org/Graphics/SVG/1.1/DTD/svg11.dtd">
<!-- Generated by graphviz version 14.0.0 (20250921.2048)
 -->
<!-- Title: include/interrupt.h Pages: 1 -->
<svg width="228pt" height="83pt"
 viewBox="0.00 0.00 228.00 83.00" xmlns="http://www.w3.org/2000/svg" xmlns:xlink="http://www.w3.org/1999/xlink">
<g id="graph0" class="graph" transform="scale(1 1) rotate(0) translate(4 78.5)">
<title>include/interrupt.h</title>
<!-- Node1 -->
<g id="Node000001" class="node">
<title>Node1</title>
<g id="a_Node000001"><a xlink:title=" ">
<polygon fill="#999999" stroke="#666666" points="158.25,-74.5 65,-74.5 65,-55.25 158.25,-55.25 158.25,-74.5"/>
<text xml:space="preserve" text-anchor="middle" x="111.62" y="-61" font-family="Helvetica,sans-Serif" font-size="10.00">include/interrupt.h</text>
</a>
</g>
</g>
<!-- Node2 -->
<g id="Node000002" class="node">
<title>Node2</title>
<g id="a_Node000002"><a xlink:href="interrupt_8c.html" target="_top" xlink:title=" ">
<polygon fill="white" stroke="#666666" points="105.25,-19.25 0,-19.25 0,0 105.25,0 105.25,-19.25"/>
<text xml:space="preserve" text-anchor="middle" x="52.62" y="-5.75" font-family="Helvetica,sans-Serif" font-size="10.00">src/kernel/interrupt.c</text>
</a>
</g>
</g>
<!-- Node1&#45;&gt;Node2 -->
<g id="edge1_Node000001_Node000002" class="edge">
<title>Node1&#45;&gt;Node2</title>
<g id="a_edge1_Node000001_Node000002"><a xlink:title=" ">
<path fill="none" stroke="#63b8ff" d="M93.36,-47.39C83.17,-38.19 70.88,-27.1 62.49,-19.52"/>
<polygon fill="#63b8ff" stroke="#63b8ff" points="90.72,-49.73 100.49,-53.83 95.41,-44.53 90.72,-49.73"/>
</a>
</g>
</g>
<!-- Node3 -->
<g id="Node000003" class="node">
<title>Node3</title>
<g id="a_Node000003"><a xlink:href="kernel_8c.html" target="_top" xlink:title=" ">
<polygon fill="white" stroke="#666666" points="219.75,-19.25 123.5,-19.25 123.5,0 219.75,0 219.75,-19.25"/>
<text xml:space="preserve" text-anchor="middle" x="171.62" y="-5.75" font-family="Helvetica,sans-Serif" font-size="10.00">src/kernel/kernel.c</text>
</a>
</g>
</g>
<!-- Node1&#45;&gt;Node3 -->
<g id="edge2_Node000001_Node000003" class="edge">
<title>Node1&#45;&gt;Node3</title>
<g id="a_edge2_Node000001_Node000003"><a xlink:title=" ">
<path fill="none" stroke="#63b8ff" d="M130.2,-47.39C140.56,-38.19 153.06,-27.1 161.6,-19.52"/>
<polygon fill="#63b8ff" stroke="#63b8ff" points="128.09,-44.58 122.94,-53.84 132.74,-49.82 128.09,-44.58"/>
</a>
</g>
</g>
</g>
</svg>
