<?xml version="1.0" encoding="UTF-8" standalone="no"?>
<!DOCTYPE svg PUBLIC "-//W3C//DTD SVG 1.1//EN"
 "http://www.w3.org/Graphics/SVG/1.1/DTD/svg11.dtd">
<!-- Generated by graphviz version 14.0.0 (20250921.2048)
 -->
<!-- Title: kernel_main Pages: 1 -->
<svg width="937pt" height="440pt"
 viewBox="0.00 0.00 937.00 440.00" xmlns="http://www.w3.org/2000/svg" xmlns:xlink="http://www.w3.org/1999/xlink">
<g id="graph0" class="graph" transform="scale(1 1) rotate(0) translate(4 436.25)">
<title>kernel_main</title>
<!-- Node1 -->
<g id="Node000001" class="node">
<title>Node1</title>
<g id="a_Node000001"><a xlink:title=" ">
<polygon fill="#999999" stroke="#666666" points="68.5,-167.25 0,-167.25 0,-148 68.5,-148 68.5,-167.25"/>
<text xml:space="preserve" text-anchor="middle" x="34.25" y="-153.75" font-family="Helvetica,sans-Serif" font-size="10.00">kernel_main</text>
</a>
</g>
</g>
<!-- Node2 -->
<g id="Node000002" class="node">
<title>Node2</title>
<g id="a_Node000002"><a xlink:href="clear_8c.html#ae683fe63c33c388e9ba1c6392dd477eb" target="_top" xlink:title="Clears the terminal screen and moves the cursor to the home position.">
<polygon fill="white" stroke="#666666" points="171.5,-167.25 134.5,-167.25 134.5,-148 171.5,-148 171.5,-167.25"/>
<text xml:space="preserve" text-anchor="middle" x="153" y="-153.75" font-family="Helvetica,sans-Serif" font-size="10.00">clear</text>
</a>
</g>
</g>
<!-- Node1&#45;&gt;Node2 -->
<g id="edge1_Node000001_Node000002" class="edge">
<title>Node1&#45;&gt;Node2</title>
<g id="a_edge1_Node000001_Node000002"><a xlink:title=" ">
<path fill="none" stroke="#63b8ff" d="M68.71,-157.62C85.84,-157.62 106.5,-157.62 122.96,-157.62"/>
<polygon fill="#63b8ff" stroke="#63b8ff" points="122.57,-161.13 132.57,-157.63 122.57,-154.13 122.57,-161.13"/>
</a>
</g>
</g>
<!-- Node3 -->
<g id="Node000003" class="node">
<title>Node3</title>
<g id="a_Node000003"><a xlink:href="printf_8c.html#a0aff7311d684a0e0ef33125616a73385" target="_top" xlink:title="Kernel printf implementation using UART output.">
<polygon fill="white" stroke="#666666" points="290.25,-204.25 252.5,-204.25 252.5,-185 290.25,-185 290.25,-204.25"/>
<text xml:space="preserve" text-anchor="middle" x="271.38" y="-190.75" font-family="Helvetica,sans-Serif" font-size="10.00">printf</text>
</a>
</g>
</g>
<!-- Node1&#45;&gt;Node3 -->
<g id="edge32_Node000001_Node000003" class="edge">
<title>Node1&#45;&gt;Node3</title>
<g id="a_edge32_Node000001_Node000003"><a xlink:title=" ">
<path fill="none" stroke="#63b8ff" d="M67.76,-167.7C79.27,-170.96 92.38,-174.32 104.5,-176.62 151.89,-185.64 207.83,-190.54 241.13,-192.87"/>
<polygon fill="#63b8ff" stroke="#63b8ff" points="240.6,-196.34 250.81,-193.51 241.06,-189.36 240.6,-196.34"/>
</a>
</g>
</g>
<!-- Node12 -->
<g id="Node000012" class="node">
<title>Node12</title>
<g id="a_Node000012"><a xlink:href="datetime_8c.html#add26ce10819b28be2718dcdab0117eb2" target="_top" xlink:title=" ">
<polygon fill="white" stroke="#666666" points="177.12,-130.25 128.88,-130.25 128.88,-111 177.12,-111 177.12,-130.25"/>
<text xml:space="preserve" text-anchor="middle" x="153" y="-116.75" font-family="Helvetica,sans-Serif" font-size="10.00">getdate</text>
</a>
</g>
</g>
<!-- Node1&#45;&gt;Node12 -->
<g id="edge17_Node000001_Node000012" class="edge">
<title>Node1&#45;&gt;Node12</title>
<g id="a_edge17_Node000001_Node000012"><a xlink:title=" ">
<path fill="none" stroke="#63b8ff" d="M67.15,-147.51C82.95,-142.51 102.03,-136.46 118.09,-131.37"/>
<polygon fill="#63b8ff" stroke="#63b8ff" points="118.74,-134.84 127.21,-128.48 116.62,-128.17 118.74,-134.84"/>
</a>
</g>
</g>
<!-- Node13 -->
<g id="Node000013" class="node">
<title>Node13</title>
<g id="a_Node000013"><a xlink:href="printf_8c.html#a7880ed31ba841d890680635d6b83fcb7" target="_top" xlink:title="Read a line of text from UART with basic editing support.">
<polygon fill="white" stroke="#666666" points="177.88,-280.25 128.12,-280.25 128.12,-261 177.88,-261 177.88,-280.25"/>
<text xml:space="preserve" text-anchor="middle" x="153" y="-266.75" font-family="Helvetica,sans-Serif" font-size="10.00">getlines</text>
</a>
</g>
</g>
<!-- Node1&#45;&gt;Node13 -->
<g id="edge18_Node000001_Node000013" class="edge">
<title>Node1&#45;&gt;Node13</title>
<g id="a_edge18_Node000001_Node000013"><a xlink:title=" ">
<path fill="none" stroke="#63b8ff" d="M40.08,-167.71C49.72,-186.87 73.18,-228.74 104.5,-252.62 108.37,-255.57 112.77,-258.09 117.3,-260.21"/>
<polygon fill="#63b8ff" stroke="#63b8ff" points="115.92,-263.43 126.5,-263.94 118.55,-256.94 115.92,-263.43"/>
</a>
</g>
</g>
<!-- Node15 -->
<g id="Node000015" class="node">
<title>Node15</title>
<g id="a_Node000015"><a xlink:href="datetime_8c.html#ae5ad61ac69c1f40d86ae1feba81b1836" target="_top" xlink:title=" ">
<polygon fill="white" stroke="#666666" points="177.12,-93.25 128.88,-93.25 128.88,-74 177.12,-74 177.12,-93.25"/>
<text xml:space="preserve" text-anchor="middle" x="153" y="-79.75" font-family="Helvetica,sans-Serif" font-size="10.00">gettime</text>
</a>
</g>
</g>
<!-- Node1&#45;&gt;Node15 -->
<g id="edge23_Node000001_Node000015" class="edge">
<title>Node1&#45;&gt;Node15</title>
<g id="a_edge23_Node000001_Node000015"><a xlink:title=" ">
<path fill="none" stroke="#63b8ff" d="M45.28,-147.77C58.1,-135.59 81.44,-114.86 104.5,-101.62 108.72,-99.2 113.32,-96.99 117.95,-95.01"/>
<polygon fill="#63b8ff" stroke="#63b8ff" points="119.18,-98.28 127.21,-91.37 116.62,-91.77 119.18,-98.28"/>
</a>
</g>
</g>
<!-- Node16 -->
<g id="Node000016" class="node">
<title>Node16</title>
<g id="a_Node000016"><a xlink:href="kernel_8c.html#a5f7f5591859a697cdeb5faafdf0ce822" target="_top" xlink:title=" ">
<polygon fill="white" stroke="#666666" points="189.88,-243.25 116.12,-243.25 116.12,-224 189.88,-224 189.88,-243.25"/>
<text xml:space="preserve" text-anchor="middle" x="153" y="-229.75" font-family="Helvetica,sans-Serif" font-size="10.00">init_message</text>
</a>
</g>
</g>
<!-- Node1&#45;&gt;Node16 -->
<g id="edge24_Node000001_Node000016" class="edge">
<title>Node1&#45;&gt;Node16</title>
<g id="a_edge24_Node000001_Node000016"><a xlink:title=" ">
<path fill="none" stroke="#63b8ff" d="M47.05,-167.5C60.48,-178.5 83.3,-196.45 104.5,-209.62 109.47,-212.72 114.9,-215.75 120.24,-218.56"/>
<polygon fill="#63b8ff" stroke="#63b8ff" points="118.43,-221.56 128.93,-222.97 121.6,-215.32 118.43,-221.56"/>
</a>
</g>
</g>
<!-- Node17 -->
<g id="Node000017" class="node">
<title>Node17</title>
<g id="a_Node000017"><a xlink:href="memory_8c.html#ae8d09a66c8495a0c2ff5c54f1309fd6a" target="_top" xlink:title=" ">
<polygon fill="white" stroke="#666666" points="305.25,-394.25 237.5,-394.25 237.5,-375 305.25,-375 305.25,-394.25"/>
<text xml:space="preserve" text-anchor="middle" x="271.38" y="-380.75" font-family="Helvetica,sans-Serif" font-size="10.00">kmalloc_init</text>
</a>
</g>
</g>
<!-- Node1&#45;&gt;Node17 -->
<g id="edge27_Node000001_Node000017" class="edge">
<title>Node1&#45;&gt;Node17</title>
<g id="a_edge27_Node000001_Node000017"><a xlink:title=" ">
<path fill="none" stroke="#63b8ff" d="M38.35,-167.74C46.08,-191.56 68.23,-251.98 104.5,-289.62 141.07,-327.58 196.11,-355 232.63,-370.36"/>
<polygon fill="#63b8ff" stroke="#63b8ff" points="230.88,-373.42 241.46,-373.98 233.53,-366.95 230.88,-373.42"/>
</a>
</g>
</g>
<!-- Node19 -->
<g id="Node000019" class="node">
<title>Node19</title>
<g id="a_Node000019"><a xlink:href="memory_8c.html#a5a329ef700130de7d4a5ade2fa4f3998" target="_top" xlink:title=" ">
<polygon fill="white" stroke="#666666" points="201.5,-56.25 104.5,-56.25 104.5,-37 201.5,-37 201.5,-56.25"/>
<text xml:space="preserve" text-anchor="middle" x="153" y="-42.75" font-family="Helvetica,sans-Serif" font-size="10.00">kmalloc_remaining</text>
</a>
</g>
</g>
<!-- Node1&#45;&gt;Node19 -->
<g id="edge31_Node000001_Node000019" class="edge">
<title>Node1&#45;&gt;Node19</title>
<g id="a_edge31_Node000001_Node000019"><a xlink:title=" ">
<path fill="none" stroke="#63b8ff" d="M40.13,-147.75C49.88,-129 73.49,-88.03 104.5,-64.62 105.65,-63.76 106.84,-62.93 108.07,-62.14"/>
<polygon fill="#63b8ff" stroke="#63b8ff" points="109.58,-65.3 116.71,-57.46 106.25,-59.15 109.58,-65.3"/>
</a>
</g>
</g>
<!-- Node20 -->
<g id="Node000020" class="node">
<title>Node20</title>
<g id="a_Node000020"><a xlink:href="string_8c.html#a49735c99bf645cfa53f5c5c98a7ceea7" target="_top" xlink:title="Compares two null&#45;terminated strings lexicographically.">
<polygon fill="white" stroke="#666666" points="176,-19.25 130,-19.25 130,0 176,0 176,-19.25"/>
<text xml:space="preserve" text-anchor="middle" x="153" y="-5.75" font-family="Helvetica,sans-Serif" font-size="10.00">strcmp</text>
</a>
</g>
</g>
<!-- Node1&#45;&gt;Node20 -->
<g id="edge33_Node000001_Node000020" class="edge">
<title>Node1&#45;&gt;Node20</title>
<g id="a_edge33_Node000001_Node000020"><a xlink:title=" ">
<path fill="none" stroke="#63b8ff" d="M37.92,-147.63C44.82,-123.57 65.53,-61.92 104.5,-27.62 108.86,-23.79 114.11,-20.74 119.52,-18.32"/>
<polygon fill="#63b8ff" stroke="#63b8ff" points="120.36,-21.74 128.48,-14.94 117.89,-15.19 120.36,-21.74"/>
</a>
</g>
</g>
<!-- Node2&#45;&gt;Node3 -->
<g id="edge2_Node000002_Node000003" class="edge">
<title>Node2&#45;&gt;Node3</title>
<g id="a_edge2_Node000002_Node000003"><a xlink:title=" ">
<path fill="none" stroke="#63b8ff" d="M171.93,-163.33C190.41,-169.2 219.53,-178.46 241.31,-185.38"/>
<polygon fill="#63b8ff" stroke="#63b8ff" points="240.2,-188.7 250.79,-188.4 242.32,-182.03 240.2,-188.7"/>
</a>
</g>
</g>
<!-- Node4 -->
<g id="Node000004" class="node">
<title>Node4</title>
<g id="a_Node000004"><a xlink:href="printf_8c.html#ac3154a3597888cf112e4e7bf6a5f1846" target="_top" xlink:title="Format and print an integer based on format control.">
<polygon fill="white" stroke="#666666" points="418,-185.25 348.75,-185.25 348.75,-166 418,-166 418,-185.25"/>
<text xml:space="preserve" text-anchor="middle" x="383.38" y="-171.75" font-family="Helvetica,sans-Serif" font-size="10.00">put_integers</text>
</a>
</g>
</g>
<!-- Node3&#45;&gt;Node4 -->
<g id="edge3_Node000003_Node000004" class="edge">
<title>Node3&#45;&gt;Node4</title>
<g id="a_edge3_Node000003_Node000004"><a xlink:title=" ">
<path fill="none" stroke="#63b8ff" d="M290.54,-191.49C303.33,-189.28 321.04,-186.22 337.5,-183.38"/>
<polygon fill="#63b8ff" stroke="#63b8ff" points="337.87,-186.86 347.13,-181.71 336.68,-179.97 337.87,-186.86"/>
</a>
</g>
</g>
<!-- Node6 -->
<g id="Node000006" class="node">
<title>Node6</title>
<g id="a_Node000006"><a xlink:href="printf_8c.html#ab97c3c9e783c1402d4007ceafdb197c1" target="_top" xlink:title="Print an unsigned integer in the given base.">
<polygon fill="white" stroke="#666666" points="634.5,-185.25 560.75,-185.25 560.75,-166 634.5,-166 634.5,-185.25"/>
<text xml:space="preserve" text-anchor="middle" x="597.62" y="-171.75" font-family="Helvetica,sans-Serif" font-size="10.00">put_unsigned</text>
</a>
</g>
</g>
<!-- Node3&#45;&gt;Node6 -->
<g id="edge13_Node000003_Node000006" class="edge">
<title>Node3&#45;&gt;Node6</title>
<g id="a_edge13_Node000003_Node000006"><a xlink:title=" ">
<path fill="none" stroke="#63b8ff" d="M290.52,-195.52C332.12,-197.3 437.53,-200.26 524.75,-189.62 532.73,-188.65 541.15,-187.31 549.3,-185.83"/>
<polygon fill="#63b8ff" stroke="#63b8ff" points="549.93,-189.27 559.1,-183.97 548.62,-182.4 549.93,-189.27"/>
</a>
</g>
</g>
<!-- Node10 -->
<g id="Node000010" class="node">
<title>Node10</title>
<g id="a_Node000010"><a xlink:href="printf_8c.html#a9bdf0418571456c566aa2f329b5f8350" target="_top" xlink:title="Send a single character over UART, waiting if the FIFO is full.">
<polygon fill="white" stroke="#666666" points="714.25,-223.25 679.5,-223.25 679.5,-204 714.25,-204 714.25,-223.25"/>
<text xml:space="preserve" text-anchor="middle" x="696.88" y="-209.75" font-family="Helvetica,sans-Serif" font-size="10.00">putc</text>
</a>
</g>
</g>
<!-- Node3&#45;&gt;Node10 -->
<g id="edge14_Node000003_Node000010" class="edge">
<title>Node3&#45;&gt;Node10</title>
<g id="a_edge14_Node000003_Node000010"><a xlink:title=" ">
<path fill="none" stroke="#63b8ff" d="M290.57,-195.44C357.13,-198.43 587.66,-208.77 668,-212.37"/>
<polygon fill="#63b8ff" stroke="#63b8ff" points="667.48,-215.85 677.63,-212.81 667.8,-208.86 667.48,-215.85"/>
</a>
</g>
</g>
<!-- Node11 -->
<g id="Node000011" class="node">
<title>Node11</title>
<g id="a_Node000011"><a xlink:href="printf_8c.html#a299d0f9cb9e7b14e1278a4ed21e4d76f" target="_top" xlink:title="Transmit a null&#45;terminated string.">
<polygon fill="white" stroke="#666666" points="400.75,-299.25 366,-299.25 366,-280 400.75,-280 400.75,-299.25"/>
<text xml:space="preserve" text-anchor="middle" x="383.38" y="-285.75" font-family="Helvetica,sans-Serif" font-size="10.00">puts</text>
</a>
</g>
</g>
<!-- Node3&#45;&gt;Node11 -->
<g id="edge15_Node000003_Node000011" class="edge">
<title>Node3&#45;&gt;Node11</title>
<g id="a_edge15_Node000003_Node000011"><a xlink:title=" ">
<path fill="none" stroke="#63b8ff" d="M287.82,-204.53C293.58,-208.56 299.99,-213.49 305.25,-218.62 324.07,-237.02 321.52,-248.22 341.25,-265.62 345.71,-269.56 350.91,-273.17 356.08,-276.34"/>
<polygon fill="#63b8ff" stroke="#63b8ff" points="354.04,-279.21 364.47,-281.1 357.5,-273.12 354.04,-279.21"/>
</a>
</g>
</g>
<!-- Node5 -->
<g id="Node000005" class="node">
<title>Node5</title>
<g id="a_Node000005"><a xlink:href="printf_8c.html#a2e8c688dfa078a9a7f1f02d4126f466a" target="_top" xlink:title="Print a signed integer in decimal form.">
<polygon fill="white" stroke="#666666" points="524.75,-147.25 461.5,-147.25 461.5,-128 524.75,-128 524.75,-147.25"/>
<text xml:space="preserve" text-anchor="middle" x="493.12" y="-133.75" font-family="Helvetica,sans-Serif" font-size="10.00">put_signed</text>
</a>
</g>
</g>
<!-- Node4&#45;&gt;Node5 -->
<g id="edge4_Node000004_Node000005" class="edge">
<title>Node4&#45;&gt;Node5</title>
<g id="a_edge4_Node000004_Node000005"><a xlink:title=" ">
<path fill="none" stroke="#63b8ff" d="M412.97,-165.54C425.24,-161.21 439.78,-156.09 453.03,-151.41"/>
<polygon fill="#63b8ff" stroke="#63b8ff" points="454.08,-154.75 462.35,-148.13 451.75,-148.15 454.08,-154.75"/>
</a>
</g>
</g>
<!-- Node4&#45;&gt;Node6 -->
<g id="edge12_Node000004_Node000006" class="edge">
<title>Node4&#45;&gt;Node6</title>
<g id="a_edge12_Node000004_Node000006"><a xlink:title=" ">
<path fill="none" stroke="#63b8ff" d="M418.48,-175.62C453.81,-175.62 509.31,-175.62 548.97,-175.62"/>
<polygon fill="#63b8ff" stroke="#63b8ff" points="548.96,-179.13 558.96,-175.63 548.96,-172.13 548.96,-179.13"/>
</a>
</g>
</g>
<!-- Node5&#45;&gt;Node6 -->
<g id="edge5_Node000005_Node000006" class="edge">
<title>Node5&#45;&gt;Node6</title>
<g id="a_edge5_Node000005_Node000006"><a xlink:title=" ">
<path fill="none" stroke="#63b8ff" d="M521.32,-147.71C532.88,-151.99 546.55,-157.06 559.05,-161.7"/>
<polygon fill="#63b8ff" stroke="#63b8ff" points="557.64,-164.91 568.24,-165.1 560.08,-158.34 557.64,-164.91"/>
</a>
</g>
</g>
<!-- Node5&#45;&gt;Node10 -->
<g id="edge11_Node000005_Node000010" class="edge">
<title>Node5&#45;&gt;Node10</title>
<g id="a_edge11_Node000005_Node000010"><a xlink:title=" ">
<path fill="none" stroke="#63b8ff" d="M525.17,-136.05C554.84,-135.84 600.03,-138.96 634.5,-156.62 655.21,-167.23 653.13,-179.15 670.5,-194.62 671.26,-195.3 672.03,-195.97 672.83,-196.64"/>
<polygon fill="#63b8ff" stroke="#63b8ff" points="670.38,-199.17 680.39,-202.64 674.73,-193.69 670.38,-199.17"/>
</a>
</g>
</g>
<!-- Node7 -->
<g id="Node000007" class="node">
<title>Node7</title>
<g id="a_Node000007"><a xlink:href="printf_8c.html#a96a30e819fcbfa9a0251f71f14ff79bc" target="_top" xlink:title="Perform division and return quotient and remainder.">
<polygon fill="white" stroke="#666666" points="723.25,-185.25 670.5,-185.25 670.5,-166 723.25,-166 723.25,-185.25"/>
<text xml:space="preserve" text-anchor="middle" x="696.88" y="-171.75" font-family="Helvetica,sans-Serif" font-size="10.00">_divmod</text>
</a>
</g>
</g>
<!-- Node6&#45;&gt;Node7 -->
<g id="edge6_Node000006_Node000007" class="edge">
<title>Node6&#45;&gt;Node7</title>
<g id="a_edge6_Node000006_Node000007"><a xlink:title=" ">
<path fill="none" stroke="#63b8ff" d="M634.84,-175.62C642.66,-175.62 650.93,-175.62 658.78,-175.62"/>
<polygon fill="#63b8ff" stroke="#63b8ff" points="658.74,-179.13 668.74,-175.63 658.74,-172.13 658.74,-179.13"/>
</a>
</g>
</g>
<!-- Node6&#45;&gt;Node10 -->
<g id="edge10_Node000006_Node000010" class="edge">
<title>Node6&#45;&gt;Node10</title>
<g id="a_edge10_Node000006_Node000010"><a xlink:title=" ">
<path fill="none" stroke="#63b8ff" d="M624.43,-185.71C638.11,-191.05 654.9,-197.61 668.76,-203.03"/>
<polygon fill="#63b8ff" stroke="#63b8ff" points="667.14,-206.16 677.73,-206.54 669.69,-199.64 667.14,-206.16"/>
</a>
</g>
</g>
<!-- Node8 -->
<g id="Node000008" class="node">
<title>Node8</title>
<g id="a_Node000008"><a xlink:href="panic_8c.html#ac3d3e7674c5f1ad62a44afce2ff9a0ca" target="_top" xlink:title="Print a panic message and halt the CPU.">
<polygon fill="white" stroke="#666666" points="830,-185.25 759.25,-185.25 759.25,-166 830,-166 830,-185.25"/>
<text xml:space="preserve" text-anchor="middle" x="794.62" y="-171.75" font-family="Helvetica,sans-Serif" font-size="10.00">kernel_panic</text>
</a>
</g>
</g>
<!-- Node7&#45;&gt;Node8 -->
<g id="edge7_Node000007_Node000008" class="edge">
<title>Node7&#45;&gt;Node8</title>
<g id="a_edge7_Node000007_Node000008"><a xlink:title=" ">
<path fill="none" stroke="#63b8ff" d="M723.53,-175.62C730.91,-175.62 739.2,-175.62 747.42,-175.62"/>
<polygon fill="#63b8ff" stroke="#63b8ff" points="747.38,-179.13 757.38,-175.63 747.38,-172.13 747.38,-179.13"/>
</a>
</g>
</g>
<!-- Node8&#45;&gt;Node3 -->
<g id="edge9_Node000008_Node000003" class="edge">
<title>Node8&#45;&gt;Node3</title>
<g id="a_edge9_Node000008_Node000003"><a xlink:title=" ">
<path fill="none" stroke="#63b8ff" d="M779.21,-165.69C747.87,-145.09 670.57,-99.62 598.62,-99.62 929.25,-193.62 929.25,-193.62 492.12,-99.62 413.91,-99.62 331.94,-150.96 294,-178.16"/>
<polygon fill="#63b8ff" stroke="#63b8ff" points="292.14,-175.19 286.14,-183.92 296.27,-180.83 292.14,-175.19"/>
</a>
</g>
</g>
<!-- Node9 -->
<g id="Node000009" class="node">
<title>Node9</title>
<g id="a_Node000009"><a xlink:href="panic_8c.html#a830ea0b31f5cecec34c74c8a4c2f8192" target="_top" xlink:title="Halt the CPU indefinitely.">
<polygon fill="white" stroke="#666666" points="929.25,-185.25 866,-185.25 866,-166 929.25,-166 929.25,-185.25"/>
<text xml:space="preserve" text-anchor="middle" x="897.62" y="-171.75" font-family="Helvetica,sans-Serif" font-size="10.00">kernel_halt</text>
</a>
</g>
</g>
<!-- Node8&#45;&gt;Node9 -->
<g id="edge8_Node000008_Node000009" class="edge">
<title>Node8&#45;&gt;Node9</title>
<g id="a_edge8_Node000008_Node000009"><a xlink:title=" ">
<path fill="none" stroke="#63b8ff" d="M830.38,-175.62C838.05,-175.62 846.26,-175.62 854.19,-175.62"/>
<polygon fill="#63b8ff" stroke="#63b8ff" points="854.01,-179.13 864.01,-175.63 854.01,-172.13 854.01,-179.13"/>
</a>
</g>
</g>
<!-- Node11&#45;&gt;Node10 -->
<g id="edge16_Node000011_Node000010" class="edge">
<title>Node11&#45;&gt;Node10</title>
<g id="a_edge16_Node000011_Node000010"><a xlink:title=" ">
<path fill="none" stroke="#63b8ff" d="M401.12,-285.54C451.93,-273.14 604.72,-235.86 667.98,-220.43"/>
<polygon fill="#63b8ff" stroke="#63b8ff" points="668.69,-223.86 677.57,-218.09 667.03,-217.06 668.69,-223.86"/>
</a>
</g>
</g>
<!-- Node13&#45;&gt;Node3 -->
<g id="edge20_Node000013_Node000003" class="edge">
<title>Node13&#45;&gt;Node3</title>
<g id="a_edge20_Node000013_Node000003"><a xlink:title=" ">
<path fill="none" stroke="#63b8ff" d="M177.92,-263.34C185.7,-260.52 194.2,-256.91 201.5,-252.62 220.56,-241.43 239.57,-224.91 252.78,-212.36"/>
<polygon fill="#63b8ff" stroke="#63b8ff" points="255.12,-214.97 259.84,-205.48 250.23,-209.96 255.12,-214.97"/>
</a>
</g>
</g>
<!-- Node13&#45;&gt;Node10 -->
<g id="edge21_Node000013_Node000010" class="edge">
<title>Node13&#45;&gt;Node10</title>
<g id="a_edge21_Node000013_Node000010"><a xlink:title=" ">
<path fill="none" stroke="#63b8ff" d="M178.35,-275.51C186.16,-277.79 194.57,-281.05 201.5,-285.62 222.01,-299.18 215.88,-315.92 237.5,-327.62 294.61,-358.55 317.43,-346.62 382.38,-346.62 929.25,-193.62 929.25,-193.62 494.12,-346.62 576.15,-346.62 650.57,-269.04 681.15,-232.38"/>
<polygon fill="#63b8ff" stroke="#63b8ff" points="683.73,-234.76 687.32,-224.8 678.3,-230.35 683.73,-234.76"/>
</a>
</g>
</g>
<!-- Node13&#45;&gt;Node11 -->
<g id="edge22_Node000013_Node000011" class="edge">
<title>Node13&#45;&gt;Node11</title>
<g id="a_edge22_Node000013_Node000011"><a xlink:title=" ">
<path fill="none" stroke="#63b8ff" d="M178.01,-272.62C220.6,-276.17 309.14,-283.53 354.41,-287.3"/>
<polygon fill="#63b8ff" stroke="#63b8ff" points="353.94,-290.77 364.19,-288.11 354.52,-283.8 353.94,-290.77"/>
</a>
</g>
</g>
<!-- Node14 -->
<g id="Node000014" class="node">
<title>Node14</title>
<g id="a_Node000014"><a xlink:href="printf_8c.html#a0e65feb118c1ee30820c142aeb5a5145" target="_top" xlink:title="Blocking UART character input.">
<polygon fill="white" stroke="#666666" points="288.75,-318.25 254,-318.25 254,-299 288.75,-299 288.75,-318.25"/>
<text xml:space="preserve" text-anchor="middle" x="271.38" y="-304.75" font-family="Helvetica,sans-Serif" font-size="10.00">getc</text>
</a>
</g>
</g>
<!-- Node13&#45;&gt;Node14 -->
<g id="edge19_Node000013_Node000014" class="edge">
<title>Node13&#45;&gt;Node14</title>
<g id="a_edge19_Node000013_Node000014"><a xlink:title=" ">
<path fill="none" stroke="#63b8ff" d="M178.11,-278.5C197.04,-284.68 223.38,-293.28 243.08,-299.71"/>
<polygon fill="#63b8ff" stroke="#63b8ff" points="241.77,-302.97 252.36,-302.74 243.94,-296.31 241.77,-302.97"/>
</a>
</g>
</g>
<!-- Node16&#45;&gt;Node3 -->
<g id="edge25_Node000016_Node000003" class="edge">
<title>Node16&#45;&gt;Node3</title>
<g id="a_edge25_Node000016_Node000003"><a xlink:title=" ">
<path fill="none" stroke="#63b8ff" d="M183.97,-223.58C201.65,-217.66 223.91,-210.2 241.41,-204.33"/>
<polygon fill="#63b8ff" stroke="#63b8ff" points="242.32,-207.72 250.69,-201.22 240.1,-201.08 242.32,-207.72"/>
</a>
</g>
</g>
<!-- Node16&#45;&gt;Node11 -->
<g id="edge26_Node000016_Node000011" class="edge">
<title>Node16&#45;&gt;Node11</title>
<g id="a_edge26_Node000016_Node000011"><a xlink:title=" ">
<path fill="none" stroke="#63b8ff" d="M190.19,-242.5C235.86,-253.7 313.43,-272.72 354.67,-282.83"/>
<polygon fill="#63b8ff" stroke="#63b8ff" points="353.74,-286.21 364.29,-285.19 355.41,-279.41 353.74,-286.21"/>
</a>
</g>
</g>
<!-- Node17&#45;&gt;Node8 -->
<g id="edge29_Node000017_Node000008" class="edge">
<title>Node17&#45;&gt;Node8</title>
<g id="a_edge29_Node000017_Node000008"><a xlink:title=" ">
<path fill="none" stroke="#63b8ff" d="M305.51,-384.62C348.53,-384.62 425.93,-384.62 492.12,-384.62 929.25,-193.62 929.25,-193.62 598.62,-384.62 701.05,-384.62 765.07,-248.78 786.03,-196.13"/>
<polygon fill="#63b8ff" stroke="#63b8ff" points="789.18,-197.71 789.51,-187.12 782.64,-195.19 789.18,-197.71"/>
</a>
</g>
</g>
<!-- Node17&#45;&gt;Node11 -->
<g id="edge30_Node000017_Node000011" class="edge">
<title>Node17&#45;&gt;Node11</title>
<g id="a_edge30_Node000017_Node000011"><a xlink:title=" ">
<path fill="none" stroke="#63b8ff" d="M283.73,-374.82C302.26,-358.82 339.22,-326.89 362.27,-306.99"/>
<polygon fill="#63b8ff" stroke="#63b8ff" points="364.49,-309.7 369.77,-300.51 359.91,-304.4 364.49,-309.7"/>
</a>
</g>
</g>
<!-- Node18 -->
<g id="Node000018" class="node">
<title>Node18</title>
<g id="a_Node000018"><a xlink:href="memory_8c.html#a4742e575dd722d9e1d926ab578f02c9f" target="_top" xlink:title=" ">
<polygon fill="white" stroke="#666666" points="425.5,-432.25 341.25,-432.25 341.25,-413 425.5,-413 425.5,-432.25"/>
<text xml:space="preserve" text-anchor="middle" x="383.38" y="-418.75" font-family="Helvetica,sans-Serif" font-size="10.00">align_up_uintptr</text>
</a>
</g>
</g>
<!-- Node17&#45;&gt;Node18 -->
<g id="edge28_Node000017_Node000018" class="edge">
<title>Node17&#45;&gt;Node18</title>
<g id="a_edge28_Node000017_Node000018"><a xlink:title=" ">
<path fill="none" stroke="#63b8ff" d="M301.56,-394.71C314.22,-399.08 329.23,-404.27 342.87,-408.98"/>
<polygon fill="#63b8ff" stroke="#63b8ff" points="341.41,-412.17 352,-412.13 343.69,-405.56 341.41,-412.17"/>
</a>
</g>
</g>
</g>
</svg>
