<?xml version="1.0" encoding="UTF-8" standalone="no"?>
<!DOCTYPE svg PUBLIC "-//W3C//DTD SVG 1.1//EN"
 "http://www.w3.org/Graphics/SVG/1.1/DTD/svg11.dtd">
<!-- Generated by graphviz version 14.0.0 (20250921.2048)
 -->
<!-- Title: irq_sanity_check Pages: 1 -->
<svg width="267pt" height="101pt"
 viewBox="0.00 0.00 267.00 101.00" xmlns="http://www.w3.org/2000/svg" xmlns:xlink="http://www.w3.org/1999/xlink">
<g id="graph0" class="graph" transform="scale(1 1) rotate(0) translate(4 97.25)">
<title>irq_sanity_check</title>
<!-- Node1 -->
<g id="Node000001" class="node">
<title>Node1</title>
<g id="a_Node000001"><a xlink:title=" ">
<polygon fill="#999999" stroke="#666666" points="89.5,-56.25 0,-56.25 0,-37 89.5,-37 89.5,-56.25"/>
<text xml:space="preserve" text-anchor="middle" x="44.75" y="-42.75" font-family="Helvetica,sans-Serif" font-size="10.00">irq_sanity_check</text>
</a>
</g>
</g>
<!-- Node2 -->
<g id="Node000002" class="node">
<title>Node2</title>
<g id="a_Node000002"><a xlink:href="interrupt_8c.html#ab4e0cc193587bb7ac297bbc859ff4603" target="_top" xlink:title=" ">
<polygon fill="white" stroke="#666666" points="188,-93.25 125.5,-93.25 125.5,-74 188,-74 188,-93.25"/>
<text xml:space="preserve" text-anchor="middle" x="156.75" y="-79.75" font-family="Helvetica,sans-Serif" font-size="10.00">irq_disable</text>
</a>
</g>
</g>
<!-- Node1&#45;&gt;Node2 -->
<g id="edge1_Node000001_Node000002" class="edge">
<title>Node1&#45;&gt;Node2</title>
<g id="a_edge1_Node000001_Node000002"><a xlink:title=" ">
<path fill="none" stroke="#63b8ff" d="M75.81,-56.74C87.93,-60.81 102.11,-65.58 115.13,-69.96"/>
<polygon fill="#63b8ff" stroke="#63b8ff" points="113.7,-73.17 124.29,-73.04 115.93,-66.54 113.7,-73.17"/>
</a>
</g>
</g>
<!-- Node3 -->
<g id="Node000003" class="node">
<title>Node3</title>
<g id="a_Node000003"><a xlink:href="interrupt_8c.html#a0a004f8aa16635895a42e0667f26c420" target="_top" xlink:title=" ">
<polygon fill="white" stroke="#666666" points="186.88,-56.25 126.62,-56.25 126.62,-37 186.88,-37 186.88,-56.25"/>
<text xml:space="preserve" text-anchor="middle" x="156.75" y="-42.75" font-family="Helvetica,sans-Serif" font-size="10.00">irq_enable</text>
</a>
</g>
</g>
<!-- Node1&#45;&gt;Node3 -->
<g id="edge2_Node000001_Node000003" class="edge">
<title>Node1&#45;&gt;Node3</title>
<g id="a_edge2_Node000001_Node000003"><a xlink:title=" ">
<path fill="none" stroke="#63b8ff" d="M89.86,-46.62C98.05,-46.62 106.58,-46.62 114.68,-46.62"/>
<polygon fill="#63b8ff" stroke="#63b8ff" points="114.63,-50.13 124.63,-46.63 114.63,-43.13 114.63,-50.13"/>
</a>
</g>
</g>
<!-- Node4 -->
<g id="Node000004" class="node">
<title>Node4</title>
<g id="a_Node000004"><a xlink:href="printf_8c.html#a299d0f9cb9e7b14e1278a4ed21e4d76f" target="_top" xlink:title="Transmit a null&#45;terminated string.">
<polygon fill="white" stroke="#666666" points="174.12,-19.25 139.38,-19.25 139.38,0 174.12,0 174.12,-19.25"/>
<text xml:space="preserve" text-anchor="middle" x="156.75" y="-5.75" font-family="Helvetica,sans-Serif" font-size="10.00">puts</text>
</a>
</g>
</g>
<!-- Node1&#45;&gt;Node4 -->
<g id="edge3_Node000001_Node000004" class="edge">
<title>Node1&#45;&gt;Node4</title>
<g id="a_edge3_Node000001_Node000004"><a xlink:title=" ">
<path fill="none" stroke="#63b8ff" d="M75.81,-36.51C92.19,-31 112.31,-24.24 128.27,-18.87"/>
<polygon fill="#63b8ff" stroke="#63b8ff" points="129.25,-22.23 137.61,-15.73 127.01,-15.6 129.25,-22.23"/>
</a>
</g>
</g>
<!-- Node5 -->
<g id="Node000005" class="node">
<title>Node5</title>
<g id="a_Node000005"><a xlink:href="printf_8c.html#a9bdf0418571456c566aa2f329b5f8350" target="_top" xlink:title="Send a single character over UART, waiting if the FIFO is full.">
<polygon fill="white" stroke="#666666" points="258.75,-19.25 224,-19.25 224,0 258.75,0 258.75,-19.25"/>
<text xml:space="preserve" text-anchor="middle" x="241.38" y="-5.75" font-family="Helvetica,sans-Serif" font-size="10.00">putc</text>
</a>
</g>
</g>
<!-- Node4&#45;&gt;Node5 -->
<g id="edge4_Node000004_Node000005" class="edge">
<title>Node4&#45;&gt;Node5</title>
<g id="a_edge4_Node000004_Node000005"><a xlink:title=" ">
<path fill="none" stroke="#63b8ff" d="M174.47,-9.62C185.33,-9.62 199.76,-9.62 212.35,-9.62"/>
<polygon fill="#63b8ff" stroke="#63b8ff" points="212.17,-13.13 222.17,-9.63 212.17,-6.13 212.17,-13.13"/>
</a>
</g>
</g>
</g>
</svg>
