<?xml version="1.0" encoding="UTF-8" standalone="no"?>
<!DOCTYPE svg PUBLIC "-//W3C//DTD SVG 1.1//EN"
 "http://www.w3.org/Graphics/SVG/1.1/DTD/svg11.dtd">
<!-- Generated by graphviz version 14.0.0 (20250921.2048)
 -->
<!-- Title: src/kernel/kernel.c Pages: 1 -->
<svg width="510pt" height="138pt"
 viewBox="0.00 0.00 510.00 138.00" xmlns="http://www.w3.org/2000/svg" xmlns:xlink="http://www.w3.org/1999/xlink">
<g id="graph0" class="graph" transform="scale(1 1) rotate(0) translate(4 133.75)">
<title>src/kernel/kernel.c</title>
<!-- Node1 -->
<g id="Node000001" class="node">
<title>Node1</title>
<g id="a_Node000001"><a xlink:title=" ">
<polygon fill="#999999" stroke="#666666" points="269,-129.75 172.75,-129.75 172.75,-110.5 269,-110.5 269,-129.75"/>
<text xml:space="preserve" text-anchor="middle" x="220.88" y="-116.25" font-family="Helvetica,sans-Serif" font-size="10.00">src/kernel/kernel.c</text>
</a>
</g>
</g>
<!-- Node2 -->
<g id="Node000002" class="node">
<title>Node2</title>
<g id="a_Node000002"><a xlink:title=" ">
<polygon fill="#e0e0e0" stroke="#999999" points="55.75,-19.25 0,-19.25 0,0 55.75,0 55.75,-19.25"/>
<text xml:space="preserve" text-anchor="middle" x="27.88" y="-5.75" font-family="Helvetica,sans-Serif" font-size="10.00">stdbool.h</text>
</a>
</g>
</g>
<!-- Node1&#45;&gt;Node2 -->
<g id="edge1_Node000001_Node000002" class="edge">
<title>Node1&#45;&gt;Node2</title>
<g id="a_edge1_Node000001_Node000002"><a xlink:title=" ">
<path fill="none" stroke="#63b8ff" d="M172.64,-119.14C133.8,-116.56 80.35,-106.73 46.88,-74.5 35.13,-63.2 30.56,-44.99 28.82,-30.9"/>
<polygon fill="#63b8ff" stroke="#63b8ff" points="32.31,-30.63 28.02,-20.95 25.33,-31.19 32.31,-30.63"/>
</a>
</g>
</g>
<!-- Node3 -->
<g id="Node000003" class="node">
<title>Node3</title>
<g id="a_Node000003"><a xlink:title=" ">
<polygon fill="#e0e0e0" stroke="#999999" points="208.5,-19.25 157.25,-19.25 157.25,0 208.5,0 208.5,-19.25"/>
<text xml:space="preserve" text-anchor="middle" x="182.88" y="-5.75" font-family="Helvetica,sans-Serif" font-size="10.00">stddef.h</text>
</a>
</g>
</g>
<!-- Node1&#45;&gt;Node3 -->
<g id="edge2_Node000001_Node000003" class="edge">
<title>Node1&#45;&gt;Node3</title>
<g id="a_edge2_Node000001_Node000003"><a xlink:title=" ">
<path fill="none" stroke="#63b8ff" d="M217.77,-110.25C211.7,-92.92 198.15,-54.23 189.83,-30.49"/>
<polygon fill="#63b8ff" stroke="#63b8ff" points="193.14,-29.34 186.53,-21.06 186.53,-31.65 193.14,-29.34"/>
</a>
</g>
</g>
<!-- Node4 -->
<g id="Node000004" class="node">
<title>Node4</title>
<g id="a_Node000004"><a xlink:href="datetime_8h.html" target="_top" xlink:title=" ">
<polygon fill="white" stroke="#666666" points="423.75,-74.5 362,-74.5 362,-55.25 423.75,-55.25 423.75,-74.5"/>
<text xml:space="preserve" text-anchor="middle" x="392.88" y="-61" font-family="Helvetica,sans-Serif" font-size="10.00">datetime.h</text>
</a>
</g>
</g>
<!-- Node1&#45;&gt;Node4 -->
<g id="edge3_Node000001_Node000004" class="edge">
<title>Node1&#45;&gt;Node4</title>
<g id="a_edge3_Node000001_Node000004"><a xlink:title=" ">
<path fill="none" stroke="#63b8ff" d="M250.05,-110.09C278.35,-101.33 321.49,-87.98 352.96,-78.23"/>
<polygon fill="#63b8ff" stroke="#63b8ff" points="353.59,-81.7 362.11,-75.4 351.52,-75.01 353.59,-81.7"/>
</a>
</g>
</g>
<!-- Node6 -->
<g id="Node000006" class="node">
<title>Node6</title>
<g id="a_Node000006"><a xlink:href="printf_8h.html" target="_top" xlink:title="Minimal kernel printf/puts/getlines interface for freestanding systems.">
<polygon fill="white" stroke="#666666" points="101.88,-74.5 55.88,-74.5 55.88,-55.25 101.88,-55.25 101.88,-74.5"/>
<text xml:space="preserve" text-anchor="middle" x="78.88" y="-61" font-family="Helvetica,sans-Serif" font-size="10.00">printf.h</text>
</a>
</g>
</g>
<!-- Node1&#45;&gt;Node6 -->
<g id="edge5_Node000001_Node000006" class="edge">
<title>Node1&#45;&gt;Node6</title>
<g id="a_edge5_Node000001_Node000006"><a xlink:title=" ">
<path fill="none" stroke="#63b8ff" d="M196.79,-110.09C173.66,-101.42 138.52,-88.24 112.61,-78.53"/>
<polygon fill="#63b8ff" stroke="#63b8ff" points="114.15,-75.36 103.55,-75.13 111.69,-81.92 114.15,-75.36"/>
</a>
</g>
</g>
<!-- Node8 -->
<g id="Node000008" class="node">
<title>Node8</title>
<g id="a_Node000008"><a xlink:href="clear_8h.html" target="_top" xlink:title=" ">
<polygon fill="white" stroke="#666666" points="268.12,-74.5 223.62,-74.5 223.62,-55.25 268.12,-55.25 268.12,-74.5"/>
<text xml:space="preserve" text-anchor="middle" x="245.88" y="-61" font-family="Helvetica,sans-Serif" font-size="10.00">clear.h</text>
</a>
</g>
</g>
<!-- Node1&#45;&gt;Node8 -->
<g id="edge10_Node000001_Node000008" class="edge">
<title>Node1&#45;&gt;Node8</title>
<g id="a_edge10_Node000001_Node000008"><a xlink:title=" ">
<path fill="none" stroke="#63b8ff" d="M225,-110.33C228.2,-103.51 232.76,-93.81 236.8,-85.2"/>
<polygon fill="#63b8ff" stroke="#63b8ff" points="239.93,-86.77 241.01,-76.23 233.6,-83.79 239.93,-86.77"/>
</a>
</g>
</g>
<!-- Node9 -->
<g id="Node000009" class="node">
<title>Node9</title>
<g id="a_Node000009"><a xlink:href="string_8h.html" target="_top" xlink:title=" ">
<polygon fill="white" stroke="#666666" points="168,-74.5 119.75,-74.5 119.75,-55.25 168,-55.25 168,-74.5"/>
<text xml:space="preserve" text-anchor="middle" x="143.88" y="-61" font-family="Helvetica,sans-Serif" font-size="10.00">string.h</text>
</a>
</g>
</g>
<!-- Node1&#45;&gt;Node9 -->
<g id="edge11_Node000001_Node000009" class="edge">
<title>Node1&#45;&gt;Node9</title>
<g id="a_edge11_Node000001_Node000009"><a xlink:title=" ">
<path fill="none" stroke="#63b8ff" d="M207.81,-110.09C196.42,-102.21 179.65,-90.61 166.14,-81.27"/>
<polygon fill="#63b8ff" stroke="#63b8ff" points="168.46,-78.62 158.25,-75.81 164.48,-84.38 168.46,-78.62"/>
</a>
</g>
</g>
<!-- Node10 -->
<g id="Node000010" class="node">
<title>Node10</title>
<g id="a_Node000010"><a xlink:href="interrupt_8h.html" target="_top" xlink:title=" ">
<polygon fill="white" stroke="#666666" points="501.62,-74.5 442.12,-74.5 442.12,-55.25 501.62,-55.25 501.62,-74.5"/>
<text xml:space="preserve" text-anchor="middle" x="471.88" y="-61" font-family="Helvetica,sans-Serif" font-size="10.00">interrupt.h</text>
</a>
</g>
</g>
<!-- Node1&#45;&gt;Node10 -->
<g id="edge13_Node000001_Node000010" class="edge">
<title>Node1&#45;&gt;Node10</title>
<g id="a_edge13_Node000001_Node000010"><a xlink:title=" ">
<path fill="none" stroke="#63b8ff" d="M264.75,-110.02C305.3,-101.59 367.51,-88.56 430.68,-74.96"/>
<polygon fill="#63b8ff" stroke="#63b8ff" points="431.13,-78.44 440.17,-72.91 429.66,-71.6 431.13,-78.44"/>
</a>
</g>
</g>
<!-- Node11 -->
<g id="Node000011" class="node">
<title>Node11</title>
<g id="a_Node000011"><a xlink:href="memory_8h.html" target="_top" xlink:title=" ">
<polygon fill="white" stroke="#666666" points="343.88,-74.5 285.88,-74.5 285.88,-55.25 343.88,-55.25 343.88,-74.5"/>
<text xml:space="preserve" text-anchor="middle" x="314.88" y="-61" font-family="Helvetica,sans-Serif" font-size="10.00">memory.h</text>
</a>
</g>
</g>
<!-- Node1&#45;&gt;Node11 -->
<g id="edge15_Node000001_Node000011" class="edge">
<title>Node1&#45;&gt;Node11</title>
<g id="a_edge15_Node000001_Node000011"><a xlink:title=" ">
<path fill="none" stroke="#63b8ff" d="M236.82,-110.09C251.14,-101.98 272.41,-89.93 289.13,-80.46"/>
<polygon fill="#63b8ff" stroke="#63b8ff" points="290.56,-83.67 297.53,-75.7 287.11,-77.58 290.56,-83.67"/>
</a>
</g>
</g>
<!-- Node5 -->
<g id="Node000005" class="node">
<title>Node5</title>
<g id="a_Node000005"><a xlink:title=" ">
<polygon fill="#e0e0e0" stroke="#999999" points="378,-19.25 329.75,-19.25 329.75,0 378,0 378,-19.25"/>
<text xml:space="preserve" text-anchor="middle" x="353.88" y="-5.75" font-family="Helvetica,sans-Serif" font-size="10.00">stdint.h</text>
</a>
</g>
</g>
<!-- Node4&#45;&gt;Node5 -->
<g id="edge4_Node000004_Node000005" class="edge">
<title>Node4&#45;&gt;Node5</title>
<g id="a_edge4_Node000004_Node000005"><a xlink:title=" ">
<path fill="none" stroke="#63b8ff" d="M386.43,-55.08C381.22,-47.96 373.69,-37.68 367.18,-28.8"/>
<polygon fill="#63b8ff" stroke="#63b8ff" points="370.08,-26.83 361.35,-20.83 364.43,-30.97 370.08,-26.83"/>
</a>
</g>
</g>
<!-- Node6&#45;&gt;Node2 -->
<g id="edge8_Node000006_Node000002" class="edge">
<title>Node6&#45;&gt;Node2</title>
<g id="a_edge8_Node000006_Node000002"><a xlink:title=" ">
<path fill="none" stroke="#63b8ff" d="M70.45,-55.08C63.34,-47.65 52.93,-36.79 44.19,-27.66"/>
<polygon fill="#63b8ff" stroke="#63b8ff" points="46.97,-25.5 37.53,-20.7 41.92,-30.35 46.97,-25.5"/>
</a>
</g>
</g>
<!-- Node6&#45;&gt;Node3 -->
<g id="edge7_Node000006_Node000003" class="edge">
<title>Node6&#45;&gt;Node3</title>
<g id="a_edge7_Node000006_Node000003"><a xlink:title=" ">
<path fill="none" stroke="#63b8ff" d="M96.52,-54.84C112.5,-46.66 136.33,-34.46 154.91,-24.94"/>
<polygon fill="#63b8ff" stroke="#63b8ff" points="156.49,-28.07 163.8,-20.39 153.3,-21.83 156.49,-28.07"/>
</a>
</g>
</g>
<!-- Node6&#45;&gt;Node5 -->
<g id="edge9_Node000006_Node000005" class="edge">
<title>Node6&#45;&gt;Node5</title>
<g id="a_edge9_Node000006_Node000005"><a xlink:title=" ">
<path fill="none" stroke="#63b8ff" d="M102.24,-57.34C105.14,-56.6 108.07,-55.88 110.88,-55.25 183.96,-38.72 270.46,-23.97 318.03,-16.27"/>
<polygon fill="#63b8ff" stroke="#63b8ff" points="318.44,-19.75 327.76,-14.7 317.33,-12.83 318.44,-19.75"/>
</a>
</g>
</g>
<!-- Node7 -->
<g id="Node000007" class="node">
<title>Node7</title>
<g id="a_Node000007"><a xlink:title=" ">
<polygon fill="#e0e0e0" stroke="#999999" points="125.5,-19.25 74.25,-19.25 74.25,0 125.5,0 125.5,-19.25"/>
<text xml:space="preserve" text-anchor="middle" x="99.88" y="-5.75" font-family="Helvetica,sans-Serif" font-size="10.00">stdarg.h</text>
</a>
</g>
</g>
<!-- Node6&#45;&gt;Node7 -->
<g id="edge6_Node000006_Node000007" class="edge">
<title>Node6&#45;&gt;Node7</title>
<g id="a_edge6_Node000006_Node000007"><a xlink:title=" ">
<path fill="none" stroke="#63b8ff" d="M82.34,-55.08C85,-48.34 88.77,-38.77 92.14,-30.24"/>
<polygon fill="#63b8ff" stroke="#63b8ff" points="95.36,-31.6 95.78,-21.02 88.85,-29.04 95.36,-31.6"/>
</a>
</g>
</g>
<!-- Node9&#45;&gt;Node3 -->
<g id="edge12_Node000009_Node000003" class="edge">
<title>Node9&#45;&gt;Node3</title>
<g id="a_edge12_Node000009_Node000003"><a xlink:title=" ">
<path fill="none" stroke="#63b8ff" d="M150.32,-55.08C155.53,-47.96 163.06,-37.68 169.57,-28.8"/>
<polygon fill="#63b8ff" stroke="#63b8ff" points="172.32,-30.97 175.4,-20.83 166.67,-26.83 172.32,-30.97"/>
</a>
</g>
</g>
<!-- Node10&#45;&gt;Node5 -->
<g id="edge14_Node000010_Node000005" class="edge">
<title>Node10&#45;&gt;Node5</title>
<g id="a_edge14_Node000010_Node000005"><a xlink:title=" ">
<path fill="none" stroke="#63b8ff" d="M451.86,-54.84C433.38,-46.5 405.67,-34 384.43,-24.41"/>
<polygon fill="#63b8ff" stroke="#63b8ff" points="385.92,-21.25 375.37,-20.33 383.05,-27.63 385.92,-21.25"/>
</a>
</g>
</g>
<!-- Node11&#45;&gt;Node3 -->
<g id="edge16_Node000011_Node000003" class="edge">
<title>Node11&#45;&gt;Node3</title>
<g id="a_edge16_Node000011_Node000003"><a xlink:title=" ">
<path fill="none" stroke="#63b8ff" d="M292.48,-54.84C271.43,-46.35 239.67,-33.54 215.75,-23.89"/>
<polygon fill="#63b8ff" stroke="#63b8ff" points="217.36,-20.76 206.78,-20.27 214.74,-27.26 217.36,-20.76"/>
</a>
</g>
</g>
<!-- Node11&#45;&gt;Node5 -->
<g id="edge17_Node000011_Node000005" class="edge">
<title>Node11&#45;&gt;Node5</title>
<g id="a_edge17_Node000011_Node000005"><a xlink:title=" ">
<path fill="none" stroke="#63b8ff" d="M321.32,-55.08C326.53,-47.96 334.06,-37.68 340.57,-28.8"/>
<polygon fill="#63b8ff" stroke="#63b8ff" points="343.32,-30.97 346.4,-20.83 337.67,-26.83 343.32,-30.97"/>
</a>
</g>
</g>
</g>
</svg>
