<?xml version="1.0" encoding="UTF-8" standalone="no"?>
<!DOCTYPE svg PUBLIC "-//W3C//DTD SVG 1.1//EN"
 "http://www.w3.org/Graphics/SVG/1.1/DTD/svg11.dtd">
<!-- Generated by graphviz version 14.0.0 (20250921.2048)
 -->
<!-- Title: not_main Pages: 1 -->
<svg width="967pt" height="255pt"
 viewBox="0.00 0.00 967.00 255.00" xmlns="http://www.w3.org/2000/svg" xmlns:xlink="http://www.w3.org/1999/xlink">
<g id="graph0" class="graph" transform="scale(1 1) rotate(0) translate(4 251.25)">
<title>not_main</title>
<!-- Node1 -->
<g id="Node000001" class="node">
<title>Node1</title>
<g id="a_Node000001"><a xlink:title=" ">
<polygon fill="#999999" stroke="#666666" points="55.75,-95.25 0,-95.25 0,-76 55.75,-76 55.75,-95.25"/>
<text xml:space="preserve" text-anchor="middle" x="27.88" y="-81.75" font-family="Helvetica,sans-Serif" font-size="10.00">not_main</text>
</a>
</g>
</g>
<!-- Node2 -->
<g id="Node000002" class="node">
<title>Node2</title>
<g id="a_Node000002"><a xlink:href="interrupt_8c.html#a2a778647bb8df60e6c3238b29eb2fca2" target="_top" xlink:title="VersatilePB SP804 timer clock is typically 1 MHz (can be overridden)">
<polygon fill="white" stroke="#666666" points="198.5,-189.25 91.75,-189.25 91.75,-170 198.5,-170 198.5,-189.25"/>
<text xml:space="preserve" text-anchor="middle" x="145.12" y="-175.75" font-family="Helvetica,sans-Serif" font-size="10.00">interrupts_init_timer0</text>
</a>
</g>
</g>
<!-- Node1&#45;&gt;Node2 -->
<g id="edge1_Node000001_Node000002" class="edge">
<title>Node1&#45;&gt;Node2</title>
<g id="a_edge1_Node000001_Node000002"><a xlink:title=" ">
<path fill="none" stroke="#63b8ff" d="M39.21,-95.71C51.39,-107.43 72.44,-127.14 91.75,-142.62 100.59,-149.71 110.67,-157 119.61,-163.23"/>
<polygon fill="#63b8ff" stroke="#63b8ff" points="117.62,-166.1 127.85,-168.87 121.58,-160.33 117.62,-166.1"/>
</a>
</g>
</g>
<!-- Node6 -->
<g id="Node000006" class="node">
<title>Node6</title>
<g id="a_Node000006"><a xlink:href="printf_8c.html#a0aff7311d684a0e0ef33125616a73385" target="_top" xlink:title="Kernel printf implementation using UART output.">
<polygon fill="white" stroke="#666666" points="543.5,-95.25 505.75,-95.25 505.75,-76 543.5,-76 543.5,-95.25"/>
<text xml:space="preserve" text-anchor="middle" x="524.62" y="-81.75" font-family="Helvetica,sans-Serif" font-size="10.00">printf</text>
</a>
</g>
</g>
<!-- Node1&#45;&gt;Node6 -->
<g id="edge23_Node000001_Node000006" class="edge">
<title>Node1&#45;&gt;Node6</title>
<g id="a_edge23_Node000001_Node000006"><a xlink:title=" ">
<path fill="none" stroke="#63b8ff" d="M56.18,-85.62C141.89,-85.62 405.15,-85.62 493.99,-85.62"/>
<polygon fill="#63b8ff" stroke="#63b8ff" points="493.82,-89.13 503.82,-85.63 493.82,-82.13 493.82,-89.13"/>
</a>
</g>
</g>
<!-- Node12 -->
<g id="Node000012" class="node">
<title>Node12</title>
<g id="a_Node000012"><a xlink:href="printf_8c.html#a299d0f9cb9e7b14e1278a4ed21e4d76f" target="_top" xlink:title="Transmit a null&#45;terminated string.">
<polygon fill="white" stroke="#666666" points="644.25,-19.25 609.5,-19.25 609.5,0 644.25,0 644.25,-19.25"/>
<text xml:space="preserve" text-anchor="middle" x="626.88" y="-5.75" font-family="Helvetica,sans-Serif" font-size="10.00">puts</text>
</a>
</g>
</g>
<!-- Node1&#45;&gt;Node12 -->
<g id="edge24_Node000001_Node000012" class="edge">
<title>Node1&#45;&gt;Node12</title>
<g id="a_edge24_Node000001_Node000012"><a xlink:title=" ">
<path fill="none" stroke="#63b8ff" d="M36.15,-75.92C46.73,-62.64 67.76,-39.21 91.75,-28.62 173.28,7.36 202.25,-9.63 291.38,-9.62 959.25,-46.62 959.25,-46.62 422.62,-9.62 485.03,-9.63 558.22,-9.62 597.5,-9.62"/>
<polygon fill="#63b8ff" stroke="#63b8ff" points="597.5,-13.13 607.5,-9.63 597.5,-6.13 597.5,-13.13"/>
</a>
</g>
</g>
<!-- Node15 -->
<g id="Node000015" class="node">
<title>Node15</title>
<g id="a_Node000015"><a xlink:href="interrupt_8c.html#a0a004f8aa16635895a42e0667f26c420" target="_top" xlink:title=" ">
<polygon fill="white" stroke="#666666" points="175.25,-57.25 115,-57.25 115,-38 175.25,-38 175.25,-57.25"/>
<text xml:space="preserve" text-anchor="middle" x="145.12" y="-43.75" font-family="Helvetica,sans-Serif" font-size="10.00">irq_enable</text>
</a>
</g>
</g>
<!-- Node1&#45;&gt;Node15 -->
<g id="edge20_Node000001_Node000015" class="edge">
<title>Node1&#45;&gt;Node15</title>
<g id="a_edge20_Node000001_Node000015"><a xlink:title=" ">
<path fill="none" stroke="#63b8ff" d="M56.19,-76.62C70.47,-71.91 88.21,-66.06 104.02,-60.85"/>
<polygon fill="#63b8ff" stroke="#63b8ff" points="104.75,-64.29 113.15,-57.84 102.56,-57.65 104.75,-64.29"/>
</a>
</g>
</g>
<!-- Node16 -->
<g id="Node000016" class="node">
<title>Node16</title>
<g id="a_Node000016"><a xlink:href="memory_8c.html#a87d8585002a620e687d68b38ab387a0e" target="_top" xlink:title=" ">
<polygon fill="white" stroke="#666666" points="170,-133.25 120.25,-133.25 120.25,-114 170,-114 170,-133.25"/>
<text xml:space="preserve" text-anchor="middle" x="145.12" y="-119.75" font-family="Helvetica,sans-Serif" font-size="10.00">kmalloc</text>
</a>
</g>
</g>
<!-- Node1&#45;&gt;Node16 -->
<g id="edge21_Node000001_Node000016" class="edge">
<title>Node1&#45;&gt;Node16</title>
<g id="a_edge21_Node000001_Node000016"><a xlink:title=" ">
<path fill="none" stroke="#63b8ff" d="M56.19,-94.63C72.02,-99.85 92.13,-106.48 109.11,-112.08"/>
<polygon fill="#63b8ff" stroke="#63b8ff" points="107.72,-115.31 118.31,-115.11 109.91,-108.66 107.72,-115.31"/>
</a>
</g>
</g>
<!-- Node3 -->
<g id="Node000003" class="node">
<title>Node3</title>
<g id="a_Node000003"><a xlink:href="math_8h.html#a97fbf4adb8a31d415775bdbd5c30c468" target="_top" xlink:title="Unsigned 32&#45;bit integer division: n / d.">
<polygon fill="white" stroke="#666666" points="317.25,-245.25 267.5,-245.25 267.5,-226 317.25,-226 317.25,-245.25"/>
<text xml:space="preserve" text-anchor="middle" x="292.38" y="-231.75" font-family="Helvetica,sans-Serif" font-size="10.00">_udiv32</text>
</a>
</g>
</g>
<!-- Node2&#45;&gt;Node3 -->
<g id="edge2_Node000002_Node000003" class="edge">
<title>Node2&#45;&gt;Node3</title>
<g id="a_edge2_Node000002_Node000003"><a xlink:title=" ">
<path fill="none" stroke="#63b8ff" d="M167.67,-189.6C185.42,-197.65 211.33,-209 234.5,-217.62 241.44,-220.21 248.95,-222.75 256.16,-225.08"/>
<polygon fill="#63b8ff" stroke="#63b8ff" points="255.08,-228.41 265.67,-228.08 257.19,-221.74 255.08,-228.41"/>
</a>
</g>
</g>
<!-- Node13 -->
<g id="Node000013" class="node">
<title>Node13</title>
<g id="a_Node000013"><a xlink:href="interrupt_8h.html#a6b1cda18aba744c0a2580c0833a96d9d" target="_top" xlink:title=" ">
<polygon fill="white" stroke="#666666" points="345.75,-208.25 239,-208.25 239,-189 345.75,-189 345.75,-208.25"/>
<text xml:space="preserve" text-anchor="middle" x="292.38" y="-194.75" font-family="Helvetica,sans-Serif" font-size="10.00">timer0_start_periodic</text>
</a>
</g>
</g>
<!-- Node2&#45;&gt;Node13 -->
<g id="edge18_Node000002_Node000013" class="edge">
<title>Node2&#45;&gt;Node13</title>
<g id="a_edge18_Node000002_Node000013"><a xlink:title=" ">
<path fill="none" stroke="#63b8ff" d="M198.97,-186.54C208.3,-187.76 218.1,-189.04 227.69,-190.29"/>
<polygon fill="#63b8ff" stroke="#63b8ff" points="226.94,-193.73 237.31,-191.55 227.85,-186.78 226.94,-193.73"/>
</a>
</g>
</g>
<!-- Node14 -->
<g id="Node000014" class="node">
<title>Node14</title>
<g id="a_Node000014"><a xlink:href="interrupt_8h.html#a18b76150ed04c0d5d19456bf30970fdd" target="_top" xlink:title=" ">
<polygon fill="white" stroke="#666666" points="350.25,-171.25 234.5,-171.25 234.5,-152 350.25,-152 350.25,-171.25"/>
<text xml:space="preserve" text-anchor="middle" x="292.38" y="-157.75" font-family="Helvetica,sans-Serif" font-size="10.00">vic_enable_timer01_irq</text>
</a>
</g>
</g>
<!-- Node2&#45;&gt;Node14 -->
<g id="edge19_Node000002_Node000014" class="edge">
<title>Node2&#45;&gt;Node14</title>
<g id="a_edge19_Node000002_Node000014"><a xlink:title=" ">
<path fill="none" stroke="#63b8ff" d="M198.97,-173.08C206.8,-172.11 214.96,-171.09 223.05,-170.09"/>
<polygon fill="#63b8ff" stroke="#63b8ff" points="223.4,-173.58 232.9,-168.87 222.54,-166.63 223.4,-173.58"/>
</a>
</g>
</g>
<!-- Node4 -->
<g id="Node000004" class="node">
<title>Node4</title>
<g id="a_Node000004"><a xlink:href="panic_8c.html#ac3d3e7674c5f1ad62a44afce2ff9a0ca" target="_top" xlink:title="Print a panic message and halt the CPU.">
<polygon fill="white" stroke="#666666" points="457,-209.25 386.25,-209.25 386.25,-190 457,-190 457,-209.25"/>
<text xml:space="preserve" text-anchor="middle" x="421.62" y="-195.75" font-family="Helvetica,sans-Serif" font-size="10.00">kernel_panic</text>
</a>
</g>
</g>
<!-- Node3&#45;&gt;Node4 -->
<g id="edge3_Node000003_Node000004" class="edge">
<title>Node3&#45;&gt;Node4</title>
<g id="a_edge3_Node000003_Node000004"><a xlink:title=" ">
<path fill="none" stroke="#63b8ff" d="M317.61,-228.77C333.76,-224.2 355.5,-218.05 374.85,-212.58"/>
<polygon fill="#63b8ff" stroke="#63b8ff" points="375.78,-215.95 384.45,-209.86 373.87,-209.21 375.78,-215.95"/>
</a>
</g>
</g>
<!-- Node5 -->
<g id="Node000005" class="node">
<title>Node5</title>
<g id="a_Node000005"><a xlink:href="panic_8c.html#a830ea0b31f5cecec34c74c8a4c2f8192" target="_top" xlink:title="Halt the CPU indefinitely.">
<polygon fill="white" stroke="#666666" points="556.25,-247.25 493,-247.25 493,-228 556.25,-228 556.25,-247.25"/>
<text xml:space="preserve" text-anchor="middle" x="524.62" y="-233.75" font-family="Helvetica,sans-Serif" font-size="10.00">kernel_halt</text>
</a>
</g>
</g>
<!-- Node4&#45;&gt;Node5 -->
<g id="edge4_Node000004_Node000005" class="edge">
<title>Node4&#45;&gt;Node5</title>
<g id="a_edge4_Node000004_Node000005"><a xlink:title=" ">
<path fill="none" stroke="#63b8ff" d="M449.43,-209.71C460.82,-213.99 474.29,-219.06 486.6,-223.7"/>
<polygon fill="#63b8ff" stroke="#63b8ff" points="485.04,-226.85 495.63,-227.09 487.51,-220.3 485.04,-226.85"/>
</a>
</g>
</g>
<!-- Node4&#45;&gt;Node6 -->
<g id="edge5_Node000004_Node000006" class="edge">
<title>Node4&#45;&gt;Node6</title>
<g id="a_edge5_Node000004_Node000006"><a xlink:title=" ">
<path fill="none" stroke="#63b8ff" d="M431.59,-189.51C448.63,-170.28 485.9,-128.2 507.42,-103.91"/>
<polygon fill="#63b8ff" stroke="#63b8ff" points="509.81,-106.5 513.82,-96.69 504.57,-101.85 509.81,-106.5"/>
</a>
</g>
</g>
<!-- Node7 -->
<g id="Node000007" class="node">
<title>Node7</title>
<g id="a_Node000007"><a xlink:href="printf_8c.html#ac3154a3597888cf112e4e7bf6a5f1846" target="_top" xlink:title="Format and print an integer based on format control.">
<polygon fill="white" stroke="#666666" points="661.5,-95.25 592.25,-95.25 592.25,-76 661.5,-76 661.5,-95.25"/>
<text xml:space="preserve" text-anchor="middle" x="626.88" y="-81.75" font-family="Helvetica,sans-Serif" font-size="10.00">put_integers</text>
</a>
</g>
</g>
<!-- Node6&#45;&gt;Node7 -->
<g id="edge6_Node000006_Node000007" class="edge">
<title>Node6&#45;&gt;Node7</title>
<g id="a_edge6_Node000006_Node000007"><a xlink:title=" ">
<path fill="none" stroke="#63b8ff" d="M543.55,-85.62C553.91,-85.62 567.47,-85.62 580.58,-85.62"/>
<polygon fill="#63b8ff" stroke="#63b8ff" points="580.38,-89.13 590.38,-85.63 580.38,-82.13 580.38,-89.13"/>
</a>
</g>
</g>
<!-- Node9 -->
<g id="Node000009" class="node">
<title>Node9</title>
<g id="a_Node000009"><a xlink:href="printf_8c.html#ab97c3c9e783c1402d4007ceafdb197c1" target="_top" xlink:title="Print an unsigned integer in the given base.">
<polygon fill="white" stroke="#666666" points="870.5,-133.25 796.75,-133.25 796.75,-114 870.5,-114 870.5,-133.25"/>
<text xml:space="preserve" text-anchor="middle" x="833.62" y="-119.75" font-family="Helvetica,sans-Serif" font-size="10.00">put_unsigned</text>
</a>
</g>
</g>
<!-- Node6&#45;&gt;Node9 -->
<g id="edge14_Node000006_Node000009" class="edge">
<title>Node6&#45;&gt;Node9</title>
<g id="a_edge14_Node000006_Node000009"><a xlink:title=" ">
<path fill="none" stroke="#63b8ff" d="M543.88,-91.36C557.2,-95.41 575.73,-100.79 592.25,-104.62 638.55,-115.38 650.16,-119.39 697.5,-123.62 726.48,-126.22 759.09,-126.3 785.01,-125.69"/>
<polygon fill="#63b8ff" stroke="#63b8ff" points="785,-129.2 794.9,-125.42 784.81,-122.2 785,-129.2"/>
</a>
</g>
</g>
<!-- Node11 -->
<g id="Node000011" class="node">
<title>Node11</title>
<g id="a_Node000011"><a xlink:href="printf_8c.html#a9bdf0418571456c566aa2f329b5f8350" target="_top" xlink:title="Send a single character over UART, waiting if the FIFO is full.">
<polygon fill="white" stroke="#666666" points="950.25,-76.25 915.5,-76.25 915.5,-57 950.25,-57 950.25,-76.25"/>
<text xml:space="preserve" text-anchor="middle" x="932.88" y="-62.75" font-family="Helvetica,sans-Serif" font-size="10.00">putc</text>
</a>
</g>
</g>
<!-- Node6&#45;&gt;Node11 -->
<g id="edge15_Node000006_Node000011" class="edge">
<title>Node6&#45;&gt;Node11</title>
<g id="a_edge15_Node000006_Node000011"><a xlink:title=" ">
<path fill="none" stroke="#63b8ff" d="M543.99,-78.89C557.21,-74.42 575.57,-68.96 592.25,-66.62 707.01,-50.58 845.72,-59.17 903.98,-64.03"/>
<polygon fill="#63b8ff" stroke="#63b8ff" points="903.38,-67.49 913.64,-64.87 903.98,-60.51 903.38,-67.49"/>
</a>
</g>
</g>
<!-- Node6&#45;&gt;Node12 -->
<g id="edge16_Node000006_Node000012" class="edge">
<title>Node6&#45;&gt;Node12</title>
<g id="a_edge16_Node000006_Node000012"><a xlink:title=" ">
<path fill="none" stroke="#63b8ff" d="M537.78,-75.88C551.05,-65.31 572.97,-48.02 592.25,-33.62 595.51,-31.19 598.98,-28.66 602.4,-26.19"/>
<polygon fill="#63b8ff" stroke="#63b8ff" points="604.38,-29.08 610.48,-20.41 600.31,-23.38 604.38,-29.08"/>
</a>
</g>
</g>
<!-- Node8 -->
<g id="Node000008" class="node">
<title>Node8</title>
<g id="a_Node000008"><a xlink:href="printf_8c.html#a2e8c688dfa078a9a7f1f02d4126f466a" target="_top" xlink:title="Print a signed integer in decimal form.">
<polygon fill="white" stroke="#666666" points="760.75,-95.25 697.5,-95.25 697.5,-76 760.75,-76 760.75,-95.25"/>
<text xml:space="preserve" text-anchor="middle" x="729.12" y="-81.75" font-family="Helvetica,sans-Serif" font-size="10.00">put_signed</text>
</a>
</g>
</g>
<!-- Node7&#45;&gt;Node8 -->
<g id="edge7_Node000007_Node000008" class="edge">
<title>Node7&#45;&gt;Node8</title>
<g id="a_edge7_Node000007_Node000008"><a xlink:title=" ">
<path fill="none" stroke="#63b8ff" d="M661.82,-85.62C669.52,-85.62 677.81,-85.62 685.81,-85.62"/>
<polygon fill="#63b8ff" stroke="#63b8ff" points="685.74,-89.13 695.74,-85.63 685.74,-82.13 685.74,-89.13"/>
</a>
</g>
</g>
<!-- Node7&#45;&gt;Node9 -->
<g id="edge13_Node000007_Node000009" class="edge">
<title>Node7&#45;&gt;Node9</title>
<g id="a_edge13_Node000007_Node000009"><a xlink:title=" ">
<path fill="none" stroke="#63b8ff" d="M661.31,-95.67C672.72,-98.85 685.6,-102.17 697.5,-104.62 726.27,-110.55 758.88,-115.19 784.85,-118.41"/>
<polygon fill="#63b8ff" stroke="#63b8ff" points="784.43,-121.88 794.78,-119.6 785.27,-114.93 784.43,-121.88"/>
</a>
</g>
</g>
<!-- Node8&#45;&gt;Node9 -->
<g id="edge8_Node000008_Node000009" class="edge">
<title>Node8&#45;&gt;Node9</title>
<g id="a_edge8_Node000008_Node000009"><a xlink:title=" ">
<path fill="none" stroke="#63b8ff" d="M757.32,-95.71C768.88,-99.99 782.55,-105.06 795.05,-109.7"/>
<polygon fill="#63b8ff" stroke="#63b8ff" points="793.64,-112.91 804.24,-113.1 796.08,-106.34 793.64,-112.91"/>
</a>
</g>
</g>
<!-- Node8&#45;&gt;Node11 -->
<g id="edge12_Node000008_Node000011" class="edge">
<title>Node8&#45;&gt;Node11</title>
<g id="a_edge12_Node000008_Node000011"><a xlink:title=" ">
<path fill="none" stroke="#63b8ff" d="M761.21,-82.7C800.2,-79.03 866.5,-72.78 903.95,-69.25"/>
<polygon fill="#63b8ff" stroke="#63b8ff" points="903.89,-72.78 913.52,-68.35 903.23,-65.81 903.89,-72.78"/>
</a>
</g>
</g>
<!-- Node10 -->
<g id="Node000010" class="node">
<title>Node10</title>
<g id="a_Node000010"><a xlink:href="printf_8c.html#a96a30e819fcbfa9a0251f71f14ff79bc" target="_top" xlink:title="Perform division and return quotient and remainder.">
<polygon fill="white" stroke="#666666" points="959.25,-171.25 906.5,-171.25 906.5,-152 959.25,-152 959.25,-171.25"/>
<text xml:space="preserve" text-anchor="middle" x="932.88" y="-157.75" font-family="Helvetica,sans-Serif" font-size="10.00">_divmod</text>
</a>
</g>
</g>
<!-- Node9&#45;&gt;Node10 -->
<g id="edge9_Node000009_Node000010" class="edge">
<title>Node9&#45;&gt;Node10</title>
<g id="a_edge9_Node000009_Node000010"><a xlink:title=" ">
<path fill="none" stroke="#63b8ff" d="M860.43,-133.71C871.29,-137.95 884.11,-142.96 895.87,-147.56"/>
<polygon fill="#63b8ff" stroke="#63b8ff" points="894.29,-150.7 904.88,-151.08 896.84,-144.18 894.29,-150.7"/>
</a>
</g>
</g>
<!-- Node9&#45;&gt;Node11 -->
<g id="edge11_Node000009_Node000011" class="edge">
<title>Node9&#45;&gt;Node11</title>
<g id="a_edge11_Node000009_Node000011"><a xlink:title=" ">
<path fill="none" stroke="#63b8ff" d="M851.56,-113.7C866.49,-104.95 888.46,-92.07 905.65,-82"/>
<polygon fill="#63b8ff" stroke="#63b8ff" points="906.97,-85.28 913.82,-77.21 903.43,-79.24 906.97,-85.28"/>
</a>
</g>
</g>
<!-- Node10&#45;&gt;Node4 -->
<g id="edge10_Node000010_Node000004" class="edge">
<title>Node10&#45;&gt;Node4</title>
<g id="a_edge10_Node000010_Node000004"><a xlink:title=" ">
<path fill="none" stroke="#63b8ff" d="M906.05,-169.68C867.96,-180.84 794.28,-199.62 730.12,-199.62 959.25,-46.62 959.25,-46.62 625.88,-199.62 571.8,-199.62 509.64,-199.62 468.45,-199.62"/>
<polygon fill="#63b8ff" stroke="#63b8ff" points="468.66,-196.13 458.66,-199.63 468.66,-203.13 468.66,-196.13"/>
</a>
</g>
</g>
<!-- Node12&#45;&gt;Node11 -->
<g id="edge17_Node000012_Node000011" class="edge">
<title>Node12&#45;&gt;Node11</title>
<g id="a_edge17_Node000012_Node000011"><a xlink:title=" ">
<path fill="none" stroke="#63b8ff" d="M644.49,-9.06C684.42,-8.16 788.51,-8.63 870.5,-33.62 883.48,-37.58 896.87,-44.41 907.81,-50.83"/>
<polygon fill="#63b8ff" stroke="#63b8ff" points="905.82,-53.71 916.18,-55.96 909.48,-47.74 905.82,-53.71"/>
</a>
</g>
</g>
<!-- Node16&#45;&gt;Node4 -->
<g id="edge22_Node000016_Node000004" class="edge">
<title>Node16&#45;&gt;Node4</title>
<g id="a_edge22_Node000016_Node000004"><a xlink:title=" ">
<path fill="none" stroke="#63b8ff" d="M170.45,-121.47C209.82,-118.93 289.27,-117.79 350.25,-142.62 371.51,-151.29 391.41,-168.61 404.59,-181.9"/>
<polygon fill="#63b8ff" stroke="#63b8ff" points="401.75,-183.99 411.18,-188.82 406.82,-179.16 401.75,-183.99"/>
</a>
</g>
</g>
</g>
</svg>
