<?xml version="1.0" encoding="UTF-8" standalone="no"?>
<!DOCTYPE svg PUBLIC "-//W3C//DTD SVG 1.1//EN"
 "http://www.w3.org/Graphics/SVG/1.1/DTD/svg11.dtd">
<!-- Generated by graphviz version 14.0.0 (20250921.2048)
 -->
<!-- Title: init_message Pages: 1 -->
<svg width="765pt" height="208pt"
 viewBox="0.00 0.00 765.00 208.00" xmlns="http://www.w3.org/2000/svg" xmlns:xlink="http://www.w3.org/1999/xlink">
<g id="graph0" class="graph" transform="scale(1 1) rotate(0) translate(4 203.62)">
<title>init_message</title>
<!-- Node1 -->
<g id="Node000001" class="node">
<title>Node1</title>
<g id="a_Node000001"><a xlink:title=" ">
<polygon fill="#999999" stroke="#666666" points="73.75,-57.25 0,-57.25 0,-38 73.75,-38 73.75,-57.25"/>
<text xml:space="preserve" text-anchor="middle" x="36.88" y="-43.75" font-family="Helvetica,sans-Serif" font-size="10.00">init_message</text>
</a>
</g>
</g>
<!-- Node2 -->
<g id="Node000002" class="node">
<title>Node2</title>
<g id="a_Node000002"><a xlink:href="printf_8c.html#a0aff7311d684a0e0ef33125616a73385" target="_top" xlink:title="Kernel printf implementation using UART output.">
<polygon fill="white" stroke="#666666" points="147.5,-76.25 109.75,-76.25 109.75,-57 147.5,-57 147.5,-76.25"/>
<text xml:space="preserve" text-anchor="middle" x="128.62" y="-62.75" font-family="Helvetica,sans-Serif" font-size="10.00">printf</text>
</a>
</g>
</g>
<!-- Node1&#45;&gt;Node2 -->
<g id="edge1_Node000001_Node000002" class="edge">
<title>Node1&#45;&gt;Node2</title>
<g id="a_edge1_Node000001_Node000002"><a xlink:title=" ">
<path fill="none" stroke="#63b8ff" d="M74.12,-55.3C82.26,-57.02 90.8,-58.83 98.6,-60.48"/>
<polygon fill="#63b8ff" stroke="#63b8ff" points="97.74,-63.88 108.25,-62.52 99.19,-57.03 97.74,-63.88"/>
</a>
</g>
</g>
<!-- Node10 -->
<g id="Node000010" class="node">
<title>Node10</title>
<g id="a_Node000010"><a xlink:href="printf_8c.html#a299d0f9cb9e7b14e1278a4ed21e4d76f" target="_top" xlink:title="Transmit a null&#45;terminated string.">
<polygon fill="white" stroke="#666666" points="235.5,-19.25 200.75,-19.25 200.75,0 235.5,0 235.5,-19.25"/>
<text xml:space="preserve" text-anchor="middle" x="218.12" y="-5.75" font-family="Helvetica,sans-Serif" font-size="10.00">puts</text>
</a>
</g>
</g>
<!-- Node1&#45;&gt;Node10 -->
<g id="edge16_Node000001_Node000010" class="edge">
<title>Node1&#45;&gt;Node10</title>
<g id="a_edge16_Node000001_Node000010"><a xlink:title=" ">
<path fill="none" stroke="#63b8ff" d="M74.15,-39.94C108.11,-32.74 158.13,-22.13 189.11,-15.56"/>
<polygon fill="#63b8ff" stroke="#63b8ff" points="189.82,-18.99 198.88,-13.49 188.37,-12.14 189.82,-18.99"/>
</a>
</g>
</g>
<!-- Node3 -->
<g id="Node000003" class="node">
<title>Node3</title>
<g id="a_Node000003"><a xlink:href="printf_8c.html#ac3154a3597888cf112e4e7bf6a5f1846" target="_top" xlink:title="Format and print an integer based on format control.">
<polygon fill="white" stroke="#666666" points="252.75,-95.25 183.5,-95.25 183.5,-76 252.75,-76 252.75,-95.25"/>
<text xml:space="preserve" text-anchor="middle" x="218.12" y="-81.75" font-family="Helvetica,sans-Serif" font-size="10.00">put_integers</text>
</a>
</g>
</g>
<!-- Node2&#45;&gt;Node3 -->
<g id="edge2_Node000002_Node000003" class="edge">
<title>Node2&#45;&gt;Node3</title>
<g id="a_edge2_Node000002_Node000003"><a xlink:title=" ">
<path fill="none" stroke="#63b8ff" d="M147.76,-70.56C154.86,-72.1 163.35,-73.95 171.91,-75.81"/>
<polygon fill="#63b8ff" stroke="#63b8ff" points="171.11,-79.21 181.62,-77.92 172.59,-72.37 171.11,-79.21"/>
</a>
</g>
</g>
<!-- Node5 -->
<g id="Node000005" class="node">
<title>Node5</title>
<g id="a_Node000005"><a xlink:href="printf_8c.html#ab97c3c9e783c1402d4007ceafdb197c1" target="_top" xlink:title="Print an unsigned integer in the given base.">
<polygon fill="white" stroke="#666666" points="461.75,-133.25 388,-133.25 388,-114 461.75,-114 461.75,-133.25"/>
<text xml:space="preserve" text-anchor="middle" x="424.88" y="-119.75" font-family="Helvetica,sans-Serif" font-size="10.00">put_unsigned</text>
</a>
</g>
</g>
<!-- Node2&#45;&gt;Node5 -->
<g id="edge12_Node000002_Node000005" class="edge">
<title>Node2&#45;&gt;Node5</title>
<g id="a_edge12_Node000002_Node000005"><a xlink:title=" ">
<path fill="none" stroke="#63b8ff" d="M140.72,-76.67C151.05,-85.45 167.24,-97.82 183.5,-104.62 246.24,-130.89 326.17,-131.47 376.19,-128.39"/>
<polygon fill="#63b8ff" stroke="#63b8ff" points="376.38,-131.88 386.11,-127.69 375.89,-124.9 376.38,-131.88"/>
</a>
</g>
</g>
<!-- Node9 -->
<g id="Node000009" class="node">
<title>Node9</title>
<g id="a_Node000009"><a xlink:href="printf_8c.html#a9bdf0418571456c566aa2f329b5f8350" target="_top" xlink:title="Send a single character over UART, waiting if the FIFO is full.">
<polygon fill="white" stroke="#666666" points="541.5,-76.25 506.75,-76.25 506.75,-57 541.5,-57 541.5,-76.25"/>
<text xml:space="preserve" text-anchor="middle" x="524.12" y="-62.75" font-family="Helvetica,sans-Serif" font-size="10.00">putc</text>
</a>
</g>
</g>
<!-- Node2&#45;&gt;Node9 -->
<g id="edge13_Node000002_Node000009" class="edge">
<title>Node2&#45;&gt;Node9</title>
<g id="a_edge13_Node000002_Node000009"><a xlink:title=" ">
<path fill="none" stroke="#63b8ff" d="M147.82,-66.62C210.67,-66.62 419.01,-66.62 495.04,-66.62"/>
<polygon fill="#63b8ff" stroke="#63b8ff" points="494.95,-70.13 504.95,-66.63 494.95,-63.13 494.95,-70.13"/>
</a>
</g>
</g>
<!-- Node2&#45;&gt;Node10 -->
<g id="edge14_Node000002_Node000010" class="edge">
<title>Node2&#45;&gt;Node10</title>
<g id="a_edge14_Node000002_Node000010"><a xlink:title=" ">
<path fill="none" stroke="#63b8ff" d="M144.87,-56.7C157.96,-48.17 177.09,-35.71 192.38,-25.75"/>
<polygon fill="#63b8ff" stroke="#63b8ff" points="194.03,-28.85 200.5,-20.46 190.21,-22.98 194.03,-28.85"/>
</a>
</g>
</g>
<!-- Node4 -->
<g id="Node000004" class="node">
<title>Node4</title>
<g id="a_Node000004"><a xlink:href="printf_8c.html#a2e8c688dfa078a9a7f1f02d4126f466a" target="_top" xlink:title="Print a signed integer in decimal form.">
<polygon fill="white" stroke="#666666" points="352,-95.25 288.75,-95.25 288.75,-76 352,-76 352,-95.25"/>
<text xml:space="preserve" text-anchor="middle" x="320.38" y="-81.75" font-family="Helvetica,sans-Serif" font-size="10.00">put_signed</text>
</a>
</g>
</g>
<!-- Node3&#45;&gt;Node4 -->
<g id="edge3_Node000003_Node000004" class="edge">
<title>Node3&#45;&gt;Node4</title>
<g id="a_edge3_Node000003_Node000004"><a xlink:title=" ">
<path fill="none" stroke="#63b8ff" d="M253.07,-85.62C260.77,-85.62 269.06,-85.62 277.06,-85.62"/>
<polygon fill="#63b8ff" stroke="#63b8ff" points="276.99,-89.13 286.99,-85.63 276.99,-82.13 276.99,-89.13"/>
</a>
</g>
</g>
<!-- Node3&#45;&gt;Node5 -->
<g id="edge11_Node000003_Node000005" class="edge">
<title>Node3&#45;&gt;Node5</title>
<g id="a_edge11_Node000003_Node000005"><a xlink:title=" ">
<path fill="none" stroke="#63b8ff" d="M252.56,-95.67C263.97,-98.85 276.85,-102.17 288.75,-104.62 317.52,-110.55 350.13,-115.19 376.1,-118.41"/>
<polygon fill="#63b8ff" stroke="#63b8ff" points="375.68,-121.88 386.03,-119.6 376.52,-114.93 375.68,-121.88"/>
</a>
</g>
</g>
<!-- Node4&#45;&gt;Node5 -->
<g id="edge4_Node000004_Node000005" class="edge">
<title>Node4&#45;&gt;Node5</title>
<g id="a_edge4_Node000004_Node000005"><a xlink:title=" ">
<path fill="none" stroke="#63b8ff" d="M348.57,-95.71C360.13,-99.99 373.8,-105.06 386.3,-109.7"/>
<polygon fill="#63b8ff" stroke="#63b8ff" points="384.89,-112.91 395.49,-113.1 387.33,-106.34 384.89,-112.91"/>
</a>
</g>
</g>
<!-- Node4&#45;&gt;Node9 -->
<g id="edge10_Node000004_Node000009" class="edge">
<title>Node4&#45;&gt;Node9</title>
<g id="a_edge10_Node000004_Node000009"><a xlink:title=" ">
<path fill="none" stroke="#63b8ff" d="M352.46,-82.7C391.45,-79.03 457.75,-72.78 495.2,-69.25"/>
<polygon fill="#63b8ff" stroke="#63b8ff" points="495.14,-72.78 504.77,-68.35 494.48,-65.81 495.14,-72.78"/>
</a>
</g>
</g>
<!-- Node6 -->
<g id="Node000006" class="node">
<title>Node6</title>
<g id="a_Node000006"><a xlink:href="printf_8c.html#a96a30e819fcbfa9a0251f71f14ff79bc" target="_top" xlink:title="Perform division and return quotient and remainder.">
<polygon fill="white" stroke="#666666" points="550.5,-152.25 497.75,-152.25 497.75,-133 550.5,-133 550.5,-152.25"/>
<text xml:space="preserve" text-anchor="middle" x="524.12" y="-138.75" font-family="Helvetica,sans-Serif" font-size="10.00">_divmod</text>
</a>
</g>
</g>
<!-- Node5&#45;&gt;Node6 -->
<g id="edge5_Node000005_Node000006" class="edge">
<title>Node5&#45;&gt;Node6</title>
<g id="a_edge5_Node000005_Node000006"><a xlink:title=" ">
<path fill="none" stroke="#63b8ff" d="M462.09,-130.7C470,-132.25 478.38,-133.88 486.31,-135.43"/>
<polygon fill="#63b8ff" stroke="#63b8ff" points="485.54,-138.85 496.02,-137.33 486.88,-131.98 485.54,-138.85"/>
</a>
</g>
</g>
<!-- Node5&#45;&gt;Node9 -->
<g id="edge9_Node000005_Node000009" class="edge">
<title>Node5&#45;&gt;Node9</title>
<g id="a_edge9_Node000005_Node000009"><a xlink:title=" ">
<path fill="none" stroke="#63b8ff" d="M442.81,-113.7C457.74,-104.95 479.71,-92.07 496.9,-82"/>
<polygon fill="#63b8ff" stroke="#63b8ff" points="498.22,-85.28 505.07,-77.21 494.68,-79.24 498.22,-85.28"/>
</a>
</g>
</g>
<!-- Node7 -->
<g id="Node000007" class="node">
<title>Node7</title>
<g id="a_Node000007"><a xlink:href="panic_8c.html#ac3d3e7674c5f1ad62a44afce2ff9a0ca" target="_top" xlink:title="Print a panic message and halt the CPU.">
<polygon fill="white" stroke="#666666" points="657.25,-190.25 586.5,-190.25 586.5,-171 657.25,-171 657.25,-190.25"/>
<text xml:space="preserve" text-anchor="middle" x="621.88" y="-176.75" font-family="Helvetica,sans-Serif" font-size="10.00">kernel_panic</text>
</a>
</g>
</g>
<!-- Node6&#45;&gt;Node7 -->
<g id="edge6_Node000006_Node000007" class="edge">
<title>Node6&#45;&gt;Node7</title>
<g id="a_edge6_Node000006_Node000007"><a xlink:title=" ">
<path fill="none" stroke="#63b8ff" d="M550.53,-152.71C561.11,-156.91 573.59,-161.86 585.07,-166.41"/>
<polygon fill="#63b8ff" stroke="#63b8ff" points="583.69,-169.63 594.27,-170.07 586.27,-163.13 583.69,-169.63"/>
</a>
</g>
</g>
<!-- Node7&#45;&gt;Node2 -->
<g id="edge8_Node000007_Node000002" class="edge">
<title>Node7&#45;&gt;Node2</title>
<g id="a_edge8_Node000007_Node000002"><a xlink:title=" ">
<path fill="none" stroke="#63b8ff" d="M586.1,-186.07C547.18,-191.68 482.17,-199.62 425.88,-199.62 756.5,-8.62 756.5,-8.62 319.38,-199.62 240.72,-199.62 171.52,-122.04 143.22,-85.38"/>
<polygon fill="#63b8ff" stroke="#63b8ff" points="146.35,-83.72 137.54,-77.83 140.75,-87.93 146.35,-83.72"/>
</a>
</g>
</g>
<!-- Node8 -->
<g id="Node000008" class="node">
<title>Node8</title>
<g id="a_Node000008"><a xlink:href="panic_8c.html#a830ea0b31f5cecec34c74c8a4c2f8192" target="_top" xlink:title="Halt the CPU indefinitely.">
<polygon fill="white" stroke="#666666" points="756.5,-190.25 693.25,-190.25 693.25,-171 756.5,-171 756.5,-190.25"/>
<text xml:space="preserve" text-anchor="middle" x="724.88" y="-176.75" font-family="Helvetica,sans-Serif" font-size="10.00">kernel_halt</text>
</a>
</g>
</g>
<!-- Node7&#45;&gt;Node8 -->
<g id="edge7_Node000007_Node000008" class="edge">
<title>Node7&#45;&gt;Node8</title>
<g id="a_edge7_Node000007_Node000008"><a xlink:title=" ">
<path fill="none" stroke="#63b8ff" d="M657.63,-180.62C665.3,-180.62 673.51,-180.62 681.44,-180.62"/>
<polygon fill="#63b8ff" stroke="#63b8ff" points="681.26,-184.13 691.26,-180.63 681.26,-177.13 681.26,-184.13"/>
</a>
</g>
</g>
<!-- Node10&#45;&gt;Node9 -->
<g id="edge15_Node000010_Node000009" class="edge">
<title>Node10&#45;&gt;Node9</title>
<g id="a_edge15_Node000010_Node000009"><a xlink:title=" ">
<path fill="none" stroke="#63b8ff" d="M235.74,-9.06C275.67,-8.16 379.76,-8.63 461.75,-33.62 474.73,-37.58 488.12,-44.41 499.06,-50.83"/>
<polygon fill="#63b8ff" stroke="#63b8ff" points="497.07,-53.71 507.43,-55.96 500.73,-47.74 497.07,-53.71"/>
</a>
</g>
</g>
</g>
</svg>
