<?xml version="1.0" encoding="UTF-8" standalone="no"?>
<!DOCTYPE svg PUBLIC "-//W3C//DTD SVG 1.1//EN"
 "http://www.w3.org/Graphics/SVG/1.1/DTD/svg11.dtd">
<!-- Generated by graphviz version 14.0.0 (20250921.2048)
 -->
<!-- Title: _udiv32 Pages: 1 -->
<svg width="667pt" height="185pt"
 viewBox="0.00 0.00 667.00 185.00" xmlns="http://www.w3.org/2000/svg" xmlns:xlink="http://www.w3.org/1999/xlink">
<g id="graph0" class="graph" transform="scale(1 1) rotate(0) translate(4 180.62)">
<title>_udiv32</title>
<!-- Node1 -->
<g id="Node000001" class="node">
<title>Node1</title>
<g id="a_Node000001"><a xlink:title="Unsigned 32&#45;bit integer division: n / d.">
<polygon fill="#999999" stroke="#666666" points="49.75,-94.62 0,-94.62 0,-75.38 49.75,-75.38 49.75,-94.62"/>
<text xml:space="preserve" text-anchor="middle" x="24.88" y="-81.12" font-family="Helvetica,sans-Serif" font-size="10.00">_udiv32</text>
</a>
</g>
</g>
<!-- Node2 -->
<g id="Node000002" class="node">
<title>Node2</title>
<g id="a_Node000002"><a xlink:href="panic_8c.html#ac3d3e7674c5f1ad62a44afce2ff9a0ca" target="_top" xlink:title="Print a panic message and halt the CPU.">
<polygon fill="white" stroke="#666666" points="156.5,-94.62 85.75,-94.62 85.75,-75.38 156.5,-75.38 156.5,-94.62"/>
<text xml:space="preserve" text-anchor="middle" x="121.12" y="-81.12" font-family="Helvetica,sans-Serif" font-size="10.00">kernel_panic</text>
</a>
</g>
</g>
<!-- Node1&#45;&gt;Node2 -->
<g id="edge1_Node000001_Node000002" class="edge">
<title>Node1&#45;&gt;Node2</title>
<g id="a_edge1_Node000001_Node000002"><a xlink:title=" ">
<path fill="none" stroke="#63b8ff" d="M50.15,-85C57.41,-85 65.64,-85 73.82,-85"/>
<polygon fill="#63b8ff" stroke="#63b8ff" points="73.76,-88.5 83.76,-85 73.76,-81.5 73.76,-88.5"/>
</a>
</g>
</g>
<!-- Node3 -->
<g id="Node000003" class="node">
<title>Node3</title>
<g id="a_Node000003"><a xlink:href="panic_8c.html#a830ea0b31f5cecec34c74c8a4c2f8192" target="_top" xlink:title="Halt the CPU indefinitely.">
<polygon fill="white" stroke="#666666" points="255.75,-131.62 192.5,-131.62 192.5,-112.38 255.75,-112.38 255.75,-131.62"/>
<text xml:space="preserve" text-anchor="middle" x="224.12" y="-118.12" font-family="Helvetica,sans-Serif" font-size="10.00">kernel_halt</text>
</a>
</g>
</g>
<!-- Node2&#45;&gt;Node3 -->
<g id="edge2_Node000002_Node000003" class="edge">
<title>Node2&#45;&gt;Node3</title>
<g id="a_edge2_Node000002_Node000003"><a xlink:title=" ">
<path fill="none" stroke="#63b8ff" d="M149.72,-95.11C160.52,-99.07 173.1,-103.67 184.75,-107.94"/>
<polygon fill="#63b8ff" stroke="#63b8ff" points="183.54,-111.23 194.14,-111.38 185.95,-104.65 183.54,-111.23"/>
</a>
</g>
</g>
<!-- Node4 -->
<g id="Node000004" class="node">
<title>Node4</title>
<g id="a_Node000004"><a xlink:href="printf_8c.html#a0aff7311d684a0e0ef33125616a73385" target="_top" xlink:title="Kernel printf implementation using UART output.">
<polygon fill="white" stroke="#666666" points="243,-94.62 205.25,-94.62 205.25,-75.38 243,-75.38 243,-94.62"/>
<text xml:space="preserve" text-anchor="middle" x="224.12" y="-81.12" font-family="Helvetica,sans-Serif" font-size="10.00">printf</text>
</a>
</g>
</g>
<!-- Node2&#45;&gt;Node4 -->
<g id="edge3_Node000002_Node000004" class="edge">
<title>Node2&#45;&gt;Node4</title>
<g id="a_edge3_Node000002_Node000004"><a xlink:title=" ">
<path fill="none" stroke="#63b8ff" d="M156.88,-85C168.83,-85 182.07,-85 193.56,-85"/>
<polygon fill="#63b8ff" stroke="#63b8ff" points="193.26,-88.5 203.26,-85 193.26,-81.5 193.26,-88.5"/>
</a>
</g>
</g>
<!-- Node5 -->
<g id="Node000005" class="node">
<title>Node5</title>
<g id="a_Node000005"><a xlink:href="printf_8c.html#ac3154a3597888cf112e4e7bf6a5f1846" target="_top" xlink:title="Format and print an integer based on format control.">
<polygon fill="white" stroke="#666666" points="361,-94.62 291.75,-94.62 291.75,-75.38 361,-75.38 361,-94.62"/>
<text xml:space="preserve" text-anchor="middle" x="326.38" y="-81.12" font-family="Helvetica,sans-Serif" font-size="10.00">put_integers</text>
</a>
</g>
</g>
<!-- Node4&#45;&gt;Node5 -->
<g id="edge4_Node000004_Node000005" class="edge">
<title>Node4&#45;&gt;Node5</title>
<g id="a_edge4_Node000004_Node000005"><a xlink:title=" ">
<path fill="none" stroke="#63b8ff" d="M243.05,-85C253.41,-85 266.97,-85 280.08,-85"/>
<polygon fill="#63b8ff" stroke="#63b8ff" points="279.88,-88.5 289.88,-85 279.88,-81.5 279.88,-88.5"/>
</a>
</g>
</g>
<!-- Node7 -->
<g id="Node000007" class="node">
<title>Node7</title>
<g id="a_Node000007"><a xlink:href="printf_8c.html#ab97c3c9e783c1402d4007ceafdb197c1" target="_top" xlink:title="Print an unsigned integer in the given base.">
<polygon fill="white" stroke="#666666" points="570,-84.62 496.25,-84.62 496.25,-65.38 570,-65.38 570,-84.62"/>
<text xml:space="preserve" text-anchor="middle" x="533.12" y="-71.12" font-family="Helvetica,sans-Serif" font-size="10.00">put_unsigned</text>
</a>
</g>
</g>
<!-- Node4&#45;&gt;Node7 -->
<g id="edge12_Node000004_Node000007" class="edge">
<title>Node4&#45;&gt;Node7</title>
<g id="a_edge12_Node000004_Node000007"><a xlink:title=" ">
<path fill="none" stroke="#63b8ff" d="M243.49,-78.27C256.71,-73.8 275.07,-68.33 291.75,-66 358.23,-56.71 436,-62.63 484.67,-68.33"/>
<polygon fill="#63b8ff" stroke="#63b8ff" points="484.23,-71.8 494.59,-69.54 485.08,-64.85 484.23,-71.8"/>
</a>
</g>
</g>
<!-- Node9 -->
<g id="Node000009" class="node">
<title>Node9</title>
<g id="a_Node000009"><a xlink:href="printf_8c.html#a9bdf0418571456c566aa2f329b5f8350" target="_top" xlink:title="Send a single character over UART, waiting if the FIFO is full.">
<polygon fill="white" stroke="#666666" points="649.75,-141.62 615,-141.62 615,-122.38 649.75,-122.38 649.75,-141.62"/>
<text xml:space="preserve" text-anchor="middle" x="632.38" y="-128.12" font-family="Helvetica,sans-Serif" font-size="10.00">putc</text>
</a>
</g>
</g>
<!-- Node4&#45;&gt;Node9 -->
<g id="edge13_Node000004_Node000009" class="edge">
<title>Node4&#45;&gt;Node9</title>
<g id="a_edge13_Node000004_Node000009"><a xlink:title=" ">
<path fill="none" stroke="#63b8ff" d="M243.21,-95.04C247.4,-97.53 251.79,-100.27 255.75,-103 272.65,-114.68 273.84,-121.93 291.75,-132 335.1,-156.38 348.01,-161.43 397,-170 473.02,-183.3 495.17,-173.88 570,-155 581.34,-152.14 593.47,-147.86 603.93,-143.78"/>
<polygon fill="#63b8ff" stroke="#63b8ff" points="605.15,-147.06 613.1,-140.06 602.52,-140.57 605.15,-147.06"/>
</a>
</g>
</g>
<!-- Node10 -->
<g id="Node000010" class="node">
<title>Node10</title>
<g id="a_Node000010"><a xlink:href="printf_8c.html#a299d0f9cb9e7b14e1278a4ed21e4d76f" target="_top" xlink:title="Transmit a null&#45;terminated string.">
<polygon fill="white" stroke="#666666" points="446,-160.62 411.25,-160.62 411.25,-141.38 446,-141.38 446,-160.62"/>
<text xml:space="preserve" text-anchor="middle" x="428.62" y="-147.12" font-family="Helvetica,sans-Serif" font-size="10.00">puts</text>
</a>
</g>
</g>
<!-- Node4&#45;&gt;Node10 -->
<g id="edge14_Node000004_Node000010" class="edge">
<title>Node4&#45;&gt;Node10</title>
<g id="a_edge14_Node000004_Node000010"><a xlink:title=" ">
<path fill="none" stroke="#63b8ff" d="M243.45,-90.97C279.14,-102.6 358.12,-128.35 400.12,-142.03"/>
<polygon fill="#63b8ff" stroke="#63b8ff" points="398.88,-145.31 409.48,-145.08 401.05,-138.66 398.88,-145.31"/>
</a>
</g>
</g>
<!-- Node6 -->
<g id="Node000006" class="node">
<title>Node6</title>
<g id="a_Node000006"><a xlink:href="printf_8c.html#a2e8c688dfa078a9a7f1f02d4126f466a" target="_top" xlink:title="Print a signed integer in decimal form.">
<polygon fill="white" stroke="#666666" points="460.25,-123.62 397,-123.62 397,-104.38 460.25,-104.38 460.25,-123.62"/>
<text xml:space="preserve" text-anchor="middle" x="428.62" y="-110.12" font-family="Helvetica,sans-Serif" font-size="10.00">put_signed</text>
</a>
</g>
</g>
<!-- Node5&#45;&gt;Node6 -->
<g id="edge5_Node000005_Node000006" class="edge">
<title>Node5&#45;&gt;Node6</title>
<g id="a_edge5_Node000005_Node000006"><a xlink:title=" ">
<path fill="none" stroke="#63b8ff" d="M361.32,-94.82C369.2,-97.1 377.69,-99.56 385.87,-101.92"/>
<polygon fill="#63b8ff" stroke="#63b8ff" points="384.72,-105.23 395.3,-104.65 386.67,-98.51 384.72,-105.23"/>
</a>
</g>
</g>
<!-- Node5&#45;&gt;Node7 -->
<g id="edge11_Node000005_Node000007" class="edge">
<title>Node5&#45;&gt;Node7</title>
<g id="a_edge11_Node000005_Node000007"><a xlink:title=" ">
<path fill="none" stroke="#63b8ff" d="M361.19,-83.35C394.85,-81.7 446.81,-79.17 484.61,-77.32"/>
<polygon fill="#63b8ff" stroke="#63b8ff" points="484.52,-80.83 494.34,-76.85 484.18,-73.84 484.52,-80.83"/>
</a>
</g>
</g>
<!-- Node6&#45;&gt;Node7 -->
<g id="edge6_Node000006_Node000007" class="edge">
<title>Node6&#45;&gt;Node7</title>
<g id="a_edge6_Node000006_Node000007"><a xlink:title=" ">
<path fill="none" stroke="#63b8ff" d="M456.02,-103.96C467.98,-99.41 482.31,-93.95 495.3,-89.01"/>
<polygon fill="#63b8ff" stroke="#63b8ff" points="496.3,-92.38 504.4,-85.55 493.81,-85.83 496.3,-92.38"/>
</a>
</g>
</g>
<!-- Node6&#45;&gt;Node9 -->
<g id="edge10_Node000006_Node000009" class="edge">
<title>Node6&#45;&gt;Node9</title>
<g id="a_edge10_Node000006_Node000009"><a xlink:title=" ">
<path fill="none" stroke="#63b8ff" d="M460.71,-116.77C499.7,-120.25 566,-126.17 603.45,-129.51"/>
<polygon fill="#63b8ff" stroke="#63b8ff" points="602.75,-132.96 613.02,-130.36 603.37,-125.99 602.75,-132.96"/>
</a>
</g>
</g>
<!-- Node8 -->
<g id="Node000008" class="node">
<title>Node8</title>
<g id="a_Node000008"><a xlink:href="printf_8c.html#a96a30e819fcbfa9a0251f71f14ff79bc" target="_top" xlink:title="Perform division and return quotient and remainder.">
<polygon fill="white" stroke="#666666" points="658.75,-47.62 606,-47.62 606,-28.38 658.75,-28.38 658.75,-47.62"/>
<text xml:space="preserve" text-anchor="middle" x="632.38" y="-34.12" font-family="Helvetica,sans-Serif" font-size="10.00">_divmod</text>
</a>
</g>
</g>
<!-- Node7&#45;&gt;Node8 -->
<g id="edge7_Node000007_Node000008" class="edge">
<title>Node7&#45;&gt;Node8</title>
<g id="a_edge7_Node000007_Node000008"><a xlink:title=" ">
<path fill="none" stroke="#63b8ff" d="M560.7,-64.89C571.27,-60.87 583.6,-56.18 594.98,-51.85"/>
<polygon fill="#63b8ff" stroke="#63b8ff" points="595.99,-55.21 604.09,-48.38 593.5,-48.67 595.99,-55.21"/>
</a>
</g>
</g>
<!-- Node7&#45;&gt;Node9 -->
<g id="edge9_Node000007_Node000009" class="edge">
<title>Node7&#45;&gt;Node9</title>
<g id="a_edge9_Node000007_Node000009"><a xlink:title=" ">
<path fill="none" stroke="#63b8ff" d="M551.06,-84.93C565.99,-93.67 587.96,-106.55 605.15,-116.63"/>
<polygon fill="#63b8ff" stroke="#63b8ff" points="602.93,-119.38 613.32,-121.42 606.47,-113.34 602.93,-119.38"/>
</a>
</g>
</g>
<!-- Node8&#45;&gt;Node2 -->
<g id="edge8_Node000008_Node000002" class="edge">
<title>Node8&#45;&gt;Node2</title>
<g id="a_edge8_Node000008_Node000002"><a xlink:title=" ">
<path fill="none" stroke="#63b8ff" d="M605.55,-29.94C567.46,-18.79 493.78,0 429.62,0 658.75,-36 658.75,-36 325.38,0 255.1,0 181.01,-43.78 144.77,-68.5"/>
<polygon fill="#63b8ff" stroke="#63b8ff" points="143.03,-65.45 136.83,-74.05 147.04,-71.19 143.03,-65.45"/>
</a>
</g>
</g>
<!-- Node10&#45;&gt;Node9 -->
<g id="edge15_Node000010_Node000009" class="edge">
<title>Node10&#45;&gt;Node9</title>
<g id="a_edge15_Node000010_Node000009"><a xlink:title=" ">
<path fill="none" stroke="#63b8ff" d="M446.48,-149.41C481.13,-146.15 560.68,-138.66 603.26,-134.65"/>
<polygon fill="#63b8ff" stroke="#63b8ff" points="603.58,-138.13 613.2,-133.71 602.92,-131.16 603.58,-138.13"/>
</a>
</g>
</g>
</g>
</svg>
