<?xml version="1.0" encoding="UTF-8" standalone="no"?>
<!DOCTYPE svg PUBLIC "-//W3C//DTD SVG 1.1//EN"
 "http://www.w3.org/Graphics/SVG/1.1/DTD/svg11.dtd">
<!-- Generated by graphviz version 14.0.0 (20250921.2048)
 -->
<!-- Title: include/lib/math.h Pages: 1 -->
<svg width="122pt" height="83pt"
 viewBox="0.00 0.00 122.00 83.00" xmlns="http://www.w3.org/2000/svg" xmlns:xlink="http://www.w3.org/1999/xlink">
<g id="graph0" class="graph" transform="scale(1 1) rotate(0) translate(4 78.5)">
<title>include/lib/math.h</title>
<!-- Node1 -->
<g id="Node000001" class="node">
<title>Node1</title>
<g id="a_Node000001"><a xlink:title=" ">
<polygon fill="#999999" stroke="#666666" points="103.38,-74.5 10.88,-74.5 10.88,-55.25 103.38,-55.25 103.38,-74.5"/>
<text xml:space="preserve" text-anchor="middle" x="57.12" y="-61" font-family="Helvetica,sans-Serif" font-size="10.00">include/lib/math.h</text>
</a>
</g>
</g>
<!-- Node2 -->
<g id="Node000002" class="node">
<title>Node2</title>
<g id="a_Node000002"><a xlink:title=" ">
<polygon fill="#e0e0e0" stroke="#999999" points="48.25,-19.25 0,-19.25 0,0 48.25,0 48.25,-19.25"/>
<text xml:space="preserve" text-anchor="middle" x="24.12" y="-5.75" font-family="Helvetica,sans-Serif" font-size="10.00">stdint.h</text>
</a>
</g>
</g>
<!-- Node1&#45;&gt;Node2 -->
<g id="edge1_Node000001_Node000002" class="edge">
<title>Node1&#45;&gt;Node2</title>
<g id="a_edge1_Node000001_Node000002"><a xlink:title=" ">
<path fill="none" stroke="#63b8ff" d="M51.68,-55.08C47.35,-48.11 41.16,-38.12 35.74,-29.37"/>
<polygon fill="#63b8ff" stroke="#63b8ff" points="38.73,-27.55 30.49,-20.9 32.78,-31.24 38.73,-27.55"/>
</a>
</g>
</g>
<!-- Node3 -->
<g id="Node000003" class="node">
<title>Node3</title>
<g id="a_Node000003"><a xlink:href="panic_8h.html" target="_top" xlink:title="Kernel panic and halt routines.">
<polygon fill="white" stroke="#666666" points="113.88,-19.25 66.38,-19.25 66.38,0 113.88,0 113.88,-19.25"/>
<text xml:space="preserve" text-anchor="middle" x="90.12" y="-5.75" font-family="Helvetica,sans-Serif" font-size="10.00">panic.h</text>
</a>
</g>
</g>
<!-- Node1&#45;&gt;Node3 -->
<g id="edge2_Node000001_Node000003" class="edge">
<title>Node1&#45;&gt;Node3</title>
<g id="a_edge2_Node000001_Node000003"><a xlink:title=" ">
<path fill="none" stroke="#63b8ff" d="M62.57,-55.08C66.9,-48.11 73.09,-38.12 78.51,-29.37"/>
<polygon fill="#63b8ff" stroke="#63b8ff" points="81.47,-31.24 83.76,-20.9 75.52,-27.55 81.47,-31.24"/>
</a>
</g>
</g>
</g>
</svg>
