<?xml version="1.0" encoding="UTF-8" standalone="no"?>
<!DOCTYPE svg PUBLIC "-//W3C//DTD SVG 1.1//EN"
 "http://www.w3.org/Graphics/SVG/1.1/DTD/svg11.dtd">
<!-- Generated by graphviz version 14.0.0 (20250921.2048)
 -->
<!-- Title: src/kernel/memory.c Pages: 1 -->
<svg width="310pt" height="138pt"
 viewBox="0.00 0.00 310.00 138.00" xmlns="http://www.w3.org/2000/svg" xmlns:xlink="http://www.w3.org/1999/xlink">
<g id="graph0" class="graph" transform="scale(1 1) rotate(0) translate(4 133.75)">
<title>src/kernel/memory.c</title>
<!-- Node1 -->
<g id="Node000001" class="node">
<title>Node1</title>
<g id="a_Node000001"><a xlink:title=" ">
<polygon fill="#999999" stroke="#666666" points="212.5,-129.75 108.75,-129.75 108.75,-110.5 212.5,-110.5 212.5,-129.75"/>
<text xml:space="preserve" text-anchor="middle" x="160.62" y="-116.25" font-family="Helvetica,sans-Serif" font-size="10.00">src/kernel/memory.c</text>
</a>
</g>
</g>
<!-- Node2 -->
<g id="Node000002" class="node">
<title>Node2</title>
<g id="a_Node000002"><a xlink:href="memory_8h.html" target="_top" xlink:title=" ">
<polygon fill="white" stroke="#666666" points="87.62,-74.5 29.62,-74.5 29.62,-55.25 87.62,-55.25 87.62,-74.5"/>
<text xml:space="preserve" text-anchor="middle" x="58.62" y="-61" font-family="Helvetica,sans-Serif" font-size="10.00">memory.h</text>
</a>
</g>
</g>
<!-- Node1&#45;&gt;Node2 -->
<g id="edge1_Node000001_Node000002" class="edge">
<title>Node1&#45;&gt;Node2</title>
<g id="a_edge1_Node000001_Node000002"><a xlink:title=" ">
<path fill="none" stroke="#63b8ff" d="M143.32,-110.09C127.64,-101.91 104.27,-89.71 86.05,-80.19"/>
<polygon fill="#63b8ff" stroke="#63b8ff" points="87.84,-77.18 77.35,-75.65 84.6,-83.38 87.84,-77.18"/>
</a>
</g>
</g>
<!-- Node5 -->
<g id="Node000005" class="node">
<title>Node5</title>
<g id="a_Node000005"><a xlink:href="panic_8h.html" target="_top" xlink:title="Kernel panic and halt routines.">
<polygon fill="white" stroke="#666666" points="217.38,-74.5 169.88,-74.5 169.88,-55.25 217.38,-55.25 217.38,-74.5"/>
<text xml:space="preserve" text-anchor="middle" x="193.62" y="-61" font-family="Helvetica,sans-Serif" font-size="10.00">panic.h</text>
</a>
</g>
</g>
<!-- Node1&#45;&gt;Node5 -->
<g id="edge4_Node000001_Node000005" class="edge">
<title>Node1&#45;&gt;Node5</title>
<g id="a_edge4_Node000001_Node000005"><a xlink:title=" ">
<path fill="none" stroke="#63b8ff" d="M166.07,-110.33C170.4,-103.36 176.59,-93.37 182.01,-84.62"/>
<polygon fill="#63b8ff" stroke="#63b8ff" points="184.97,-86.49 187.26,-76.15 179.02,-82.8 184.97,-86.49"/>
</a>
</g>
</g>
<!-- Node6 -->
<g id="Node000006" class="node">
<title>Node6</title>
<g id="a_Node000006"><a xlink:href="printf_8h.html" target="_top" xlink:title="Minimal kernel printf/puts/getlines interface for freestanding systems.">
<polygon fill="white" stroke="#666666" points="151.62,-74.5 105.62,-74.5 105.62,-55.25 151.62,-55.25 151.62,-74.5"/>
<text xml:space="preserve" text-anchor="middle" x="128.62" y="-61" font-family="Helvetica,sans-Serif" font-size="10.00">printf.h</text>
</a>
</g>
</g>
<!-- Node1&#45;&gt;Node6 -->
<g id="edge5_Node000001_Node000006" class="edge">
<title>Node1&#45;&gt;Node6</title>
<g id="a_edge5_Node000001_Node000006"><a xlink:title=" ">
<path fill="none" stroke="#63b8ff" d="M155.34,-110.33C151.15,-103.36 145.15,-93.37 139.89,-84.62"/>
<polygon fill="#63b8ff" stroke="#63b8ff" points="142.95,-82.93 134.8,-76.16 136.95,-86.53 142.95,-82.93"/>
</a>
</g>
</g>
<!-- Node9 -->
<g id="Node000009" class="node">
<title>Node9</title>
<g id="a_Node000009"><a xlink:title=" ">
<polygon fill="#e0e0e0" stroke="#999999" points="302.12,-74.5 235.12,-74.5 235.12,-55.25 302.12,-55.25 302.12,-74.5"/>
<text xml:space="preserve" text-anchor="middle" x="268.62" y="-61" font-family="Helvetica,sans-Serif" font-size="10.00">stdatomic.h</text>
</a>
</g>
</g>
<!-- Node1&#45;&gt;Node9 -->
<g id="edge10_Node000001_Node000009" class="edge">
<title>Node1&#45;&gt;Node9</title>
<g id="a_edge10_Node000001_Node000009"><a xlink:title=" ">
<path fill="none" stroke="#63b8ff" d="M178.95,-110.09C195.7,-101.83 220.76,-89.48 240.13,-79.93"/>
<polygon fill="#63b8ff" stroke="#63b8ff" points="241.44,-83.18 248.86,-75.62 238.34,-76.9 241.44,-83.18"/>
</a>
</g>
</g>
<!-- Node3 -->
<g id="Node000003" class="node">
<title>Node3</title>
<g id="a_Node000003"><a xlink:title=" ">
<polygon fill="#e0e0e0" stroke="#999999" points="51.25,-19.25 0,-19.25 0,0 51.25,0 51.25,-19.25"/>
<text xml:space="preserve" text-anchor="middle" x="25.62" y="-5.75" font-family="Helvetica,sans-Serif" font-size="10.00">stddef.h</text>
</a>
</g>
</g>
<!-- Node2&#45;&gt;Node3 -->
<g id="edge2_Node000002_Node000003" class="edge">
<title>Node2&#45;&gt;Node3</title>
<g id="a_edge2_Node000002_Node000003"><a xlink:title=" ">
<path fill="none" stroke="#63b8ff" d="M53.18,-55.08C48.85,-48.11 42.66,-38.12 37.24,-29.37"/>
<polygon fill="#63b8ff" stroke="#63b8ff" points="40.23,-27.55 31.99,-20.9 34.28,-31.24 40.23,-27.55"/>
</a>
</g>
</g>
<!-- Node4 -->
<g id="Node000004" class="node">
<title>Node4</title>
<g id="a_Node000004"><a xlink:title=" ">
<polygon fill="#e0e0e0" stroke="#999999" points="117.75,-19.25 69.5,-19.25 69.5,0 117.75,0 117.75,-19.25"/>
<text xml:space="preserve" text-anchor="middle" x="93.62" y="-5.75" font-family="Helvetica,sans-Serif" font-size="10.00">stdint.h</text>
</a>
</g>
</g>
<!-- Node2&#45;&gt;Node4 -->
<g id="edge3_Node000002_Node000004" class="edge">
<title>Node2&#45;&gt;Node4</title>
<g id="a_edge3_Node000002_Node000004"><a xlink:title=" ">
<path fill="none" stroke="#63b8ff" d="M64.4,-55.08C69.04,-48.03 75.7,-37.9 81.49,-29.08"/>
<polygon fill="#63b8ff" stroke="#63b8ff" points="84.32,-31.15 86.89,-20.87 78.47,-27.31 84.32,-31.15"/>
</a>
</g>
</g>
<!-- Node6&#45;&gt;Node3 -->
<g id="edge7_Node000006_Node000003" class="edge">
<title>Node6&#45;&gt;Node3</title>
<g id="a_edge7_Node000006_Node000003"><a xlink:title=" ">
<path fill="none" stroke="#63b8ff" d="M111.15,-54.84C95.32,-46.66 71.72,-34.46 53.32,-24.94"/>
<polygon fill="#63b8ff" stroke="#63b8ff" points="55.02,-21.88 44.53,-20.4 51.8,-28.1 55.02,-21.88"/>
</a>
</g>
</g>
<!-- Node6&#45;&gt;Node4 -->
<g id="edge9_Node000006_Node000004" class="edge">
<title>Node6&#45;&gt;Node4</title>
<g id="a_edge9_Node000006_Node000004"><a xlink:title=" ">
<path fill="none" stroke="#63b8ff" d="M122.85,-55.08C118.21,-48.03 111.55,-37.9 105.76,-29.08"/>
<polygon fill="#63b8ff" stroke="#63b8ff" points="108.78,-27.31 100.36,-20.87 102.93,-31.15 108.78,-27.31"/>
</a>
</g>
</g>
<!-- Node7 -->
<g id="Node000007" class="node">
<title>Node7</title>
<g id="a_Node000007"><a xlink:title=" ">
<polygon fill="#e0e0e0" stroke="#999999" points="187.25,-19.25 136,-19.25 136,0 187.25,0 187.25,-19.25"/>
<text xml:space="preserve" text-anchor="middle" x="161.62" y="-5.75" font-family="Helvetica,sans-Serif" font-size="10.00">stdarg.h</text>
</a>
</g>
</g>
<!-- Node6&#45;&gt;Node7 -->
<g id="edge6_Node000006_Node000007" class="edge">
<title>Node6&#45;&gt;Node7</title>
<g id="a_edge6_Node000006_Node000007"><a xlink:title=" ">
<path fill="none" stroke="#63b8ff" d="M134.07,-55.08C138.4,-48.11 144.59,-38.12 150.01,-29.37"/>
<polygon fill="#63b8ff" stroke="#63b8ff" points="152.97,-31.24 155.26,-20.9 147.02,-27.55 152.97,-31.24"/>
</a>
</g>
</g>
<!-- Node8 -->
<g id="Node000008" class="node">
<title>Node8</title>
<g id="a_Node000008"><a xlink:title=" ">
<polygon fill="#e0e0e0" stroke="#999999" points="261.5,-19.25 205.75,-19.25 205.75,0 261.5,0 261.5,-19.25"/>
<text xml:space="preserve" text-anchor="middle" x="233.62" y="-5.75" font-family="Helvetica,sans-Serif" font-size="10.00">stdbool.h</text>
</a>
</g>
</g>
<!-- Node6&#45;&gt;Node8 -->
<g id="edge8_Node000006_Node000008" class="edge">
<title>Node6&#45;&gt;Node8</title>
<g id="a_edge8_Node000006_Node000008"><a xlink:title=" ">
<path fill="none" stroke="#63b8ff" d="M146.44,-54.84C162.65,-46.62 186.86,-34.34 205.66,-24.81"/>
<polygon fill="#63b8ff" stroke="#63b8ff" points="207.04,-28.03 214.38,-20.39 203.87,-21.79 207.04,-28.03"/>
</a>
</g>
</g>
</g>
</svg>
