<?xml version="1.0" encoding="UTF-8" standalone="no"?>
<!DOCTYPE svg PUBLIC "-//W3C//DTD SVG 1.1//EN"
 "http://www.w3.org/Graphics/SVG/1.1/DTD/svg11.dtd">
<!-- Generated by graphviz version 14.0.0 (20250921.2048)
 -->
<!-- Title: align_up_uintptr Pages: 1 -->
<svg width="301pt" height="27pt"
 viewBox="0.00 0.00 301.00 27.00" xmlns="http://www.w3.org/2000/svg" xmlns:xlink="http://www.w3.org/1999/xlink">
<g id="graph0" class="graph" transform="scale(1 1) rotate(0) translate(4 23.25)">
<title>align_up_uintptr</title>
<!-- Node1 -->
<g id="Node000001" class="node">
<title>Node1</title>
<g id="a_Node000001"><a xlink:title=" ">
<polygon fill="#999999" stroke="#666666" points="292.5,-19.25 208.25,-19.25 208.25,0 292.5,0 292.5,-19.25"/>
<text xml:space="preserve" text-anchor="middle" x="250.38" y="-5.75" font-family="Helvetica,sans-Serif" font-size="10.00">align_up_uintptr</text>
</a>
</g>
</g>
<!-- Node2 -->
<g id="Node000002" class="node">
<title>Node2</title>
<g id="a_Node000002"><a xlink:href="memory_8c.html#ae8d09a66c8495a0c2ff5c54f1309fd6a" target="_top" xlink:title=" ">
<polygon fill="white" stroke="#666666" points="172.25,-19.25 104.5,-19.25 104.5,0 172.25,0 172.25,-19.25"/>
<text xml:space="preserve" text-anchor="middle" x="138.38" y="-5.75" font-family="Helvetica,sans-Serif" font-size="10.00">kmalloc_init</text>
</a>
</g>
</g>
<!-- Node1&#45;&gt;Node2 -->
<g id="edge1_Node000001_Node000002" class="edge">
<title>Node1&#45;&gt;Node2</title>
<g id="a_edge1_Node000001_Node000002"><a xlink:title=" ">
<path fill="none" stroke="#63b8ff" d="M196.37,-9.62C188.22,-9.62 180.01,-9.62 172.45,-9.62"/>
<polygon fill="#63b8ff" stroke="#63b8ff" points="196.28,-13.13 206.28,-9.63 196.28,-6.13 196.28,-13.13"/>
</a>
</g>
</g>
<!-- Node3 -->
<g id="Node000003" class="node">
<title>Node3</title>
<g id="a_Node000003"><a xlink:href="kernel_8c.html#a6b8fb674fb359f6ae53dc9c4fb7fc6be" target="_top" xlink:title=" ">
<polygon fill="white" stroke="#666666" points="68.5,-19.25 0,-19.25 0,0 68.5,0 68.5,-19.25"/>
<text xml:space="preserve" text-anchor="middle" x="34.25" y="-5.75" font-family="Helvetica,sans-Serif" font-size="10.00">kernel_main</text>
</a>
</g>
</g>
<!-- Node2&#45;&gt;Node3 -->
<g id="edge2_Node000002_Node000003" class="edge">
<title>Node2&#45;&gt;Node3</title>
<g id="a_edge2_Node000002_Node000003"><a xlink:title=" ">
<path fill="none" stroke="#63b8ff" d="M92.76,-9.62C84.76,-9.62 76.56,-9.62 68.94,-9.62"/>
<polygon fill="#63b8ff" stroke="#63b8ff" points="92.7,-13.13 102.7,-9.63 92.7,-6.13 92.7,-13.13"/>
</a>
</g>
</g>
</g>
</svg>
