<?xml version="1.0" encoding="UTF-8" standalone="no"?>
<!DOCTYPE svg PUBLIC "-//W3C//DTD SVG 1.1//EN"
 "http://www.w3.org/Graphics/SVG/1.1/DTD/svg11.dtd">
<!-- Generated by graphviz version 14.0.0 (20250921.2048)
 -->
<!-- Title: kmalloc_init Pages: 1 -->
<svg width="698pt" height="208pt"
 viewBox="0.00 0.00 698.00 208.00" xmlns="http://www.w3.org/2000/svg" xmlns:xlink="http://www.w3.org/1999/xlink">
<g id="graph0" class="graph" transform="scale(1 1) rotate(0) translate(4 203.62)">
<title>kmalloc_init</title>
<!-- Node1 -->
<g id="Node000001" class="node">
<title>Node1</title>
<g id="a_Node000001"><a xlink:title=" ">
<polygon fill="#999999" stroke="#666666" points="67.75,-94.25 0,-94.25 0,-75 67.75,-75 67.75,-94.25"/>
<text xml:space="preserve" text-anchor="middle" x="33.88" y="-80.75" font-family="Helvetica,sans-Serif" font-size="10.00">kmalloc_init</text>
</a>
</g>
</g>
<!-- Node2 -->
<g id="Node000002" class="node">
<title>Node2</title>
<g id="a_Node000002"><a xlink:href="memory_8c.html#a4742e575dd722d9e1d926ab578f02c9f" target="_top" xlink:title=" ">
<polygon fill="white" stroke="#666666" points="188,-131.25 103.75,-131.25 103.75,-112 188,-112 188,-131.25"/>
<text xml:space="preserve" text-anchor="middle" x="145.88" y="-117.75" font-family="Helvetica,sans-Serif" font-size="10.00">align_up_uintptr</text>
</a>
</g>
</g>
<!-- Node1&#45;&gt;Node2 -->
<g id="edge1_Node000001_Node000002" class="edge">
<title>Node1&#45;&gt;Node2</title>
<g id="a_edge1_Node000001_Node000002"><a xlink:title=" ">
<path fill="none" stroke="#63b8ff" d="M64.93,-94.74C77.06,-98.81 91.24,-103.58 104.26,-107.96"/>
<polygon fill="#63b8ff" stroke="#63b8ff" points="102.82,-111.17 113.42,-111.04 105.06,-104.54 102.82,-111.17"/>
</a>
</g>
</g>
<!-- Node3 -->
<g id="Node000003" class="node">
<title>Node3</title>
<g id="a_Node000003"><a xlink:href="panic_8c.html#ac3d3e7674c5f1ad62a44afce2ff9a0ca" target="_top" xlink:title="Print a panic message and halt the CPU.">
<polygon fill="white" stroke="#666666" points="181.25,-94.25 110.5,-94.25 110.5,-75 181.25,-75 181.25,-94.25"/>
<text xml:space="preserve" text-anchor="middle" x="145.88" y="-80.75" font-family="Helvetica,sans-Serif" font-size="10.00">kernel_panic</text>
</a>
</g>
</g>
<!-- Node1&#45;&gt;Node3 -->
<g id="edge2_Node000001_Node000003" class="edge">
<title>Node1&#45;&gt;Node3</title>
<g id="a_edge2_Node000001_Node000003"><a xlink:title=" ">
<path fill="none" stroke="#63b8ff" d="M68.18,-84.62C77.83,-84.62 88.53,-84.62 98.82,-84.62"/>
<polygon fill="#63b8ff" stroke="#63b8ff" points="98.65,-88.13 108.65,-84.63 98.65,-81.13 98.65,-88.13"/>
</a>
</g>
</g>
<!-- Node11 -->
<g id="Node000011" class="node">
<title>Node11</title>
<g id="a_Node000011"><a xlink:href="printf_8c.html#a299d0f9cb9e7b14e1278a4ed21e4d76f" target="_top" xlink:title="Transmit a null&#45;terminated string.">
<polygon fill="white" stroke="#666666" points="375.25,-19.25 340.5,-19.25 340.5,0 375.25,0 375.25,-19.25"/>
<text xml:space="preserve" text-anchor="middle" x="357.88" y="-5.75" font-family="Helvetica,sans-Serif" font-size="10.00">puts</text>
</a>
</g>
</g>
<!-- Node1&#45;&gt;Node11 -->
<g id="edge17_Node000001_Node000011" class="edge">
<title>Node1&#45;&gt;Node11</title>
<g id="a_edge17_Node000001_Node000011"><a xlink:title=" ">
<path fill="none" stroke="#63b8ff" d="M68.06,-75.1C79.36,-71.96 92.07,-68.53 103.75,-65.62 185.32,-45.36 282.58,-24.86 329.23,-15.25"/>
<polygon fill="#63b8ff" stroke="#63b8ff" points="329.65,-18.74 338.74,-13.3 328.24,-11.89 329.65,-18.74"/>
</a>
</g>
</g>
<!-- Node4 -->
<g id="Node000004" class="node">
<title>Node4</title>
<g id="a_Node000004"><a xlink:href="panic_8c.html#a830ea0b31f5cecec34c74c8a4c2f8192" target="_top" xlink:title="Halt the CPU indefinitely.">
<polygon fill="white" stroke="#666666" points="287.25,-113.25 224,-113.25 224,-94 287.25,-94 287.25,-113.25"/>
<text xml:space="preserve" text-anchor="middle" x="255.62" y="-99.75" font-family="Helvetica,sans-Serif" font-size="10.00">kernel_halt</text>
</a>
</g>
</g>
<!-- Node3&#45;&gt;Node4 -->
<g id="edge3_Node000003_Node000004" class="edge">
<title>Node3&#45;&gt;Node4</title>
<g id="a_edge3_Node000003_Node000004"><a xlink:title=" ">
<path fill="none" stroke="#63b8ff" d="M181.56,-90.74C191.39,-92.48 202.21,-94.38 212.43,-96.19"/>
<polygon fill="#63b8ff" stroke="#63b8ff" points="211.7,-99.61 222.15,-97.9 212.91,-92.72 211.7,-99.61"/>
</a>
</g>
</g>
<!-- Node5 -->
<g id="Node000005" class="node">
<title>Node5</title>
<g id="a_Node000005"><a xlink:href="printf_8c.html#a0aff7311d684a0e0ef33125616a73385" target="_top" xlink:title="Kernel printf implementation using UART output.">
<polygon fill="white" stroke="#666666" points="274.5,-76.25 236.75,-76.25 236.75,-57 274.5,-57 274.5,-76.25"/>
<text xml:space="preserve" text-anchor="middle" x="255.62" y="-62.75" font-family="Helvetica,sans-Serif" font-size="10.00">printf</text>
</a>
</g>
</g>
<!-- Node3&#45;&gt;Node5 -->
<g id="edge4_Node000003_Node000005" class="edge">
<title>Node3&#45;&gt;Node5</title>
<g id="a_edge4_Node000003_Node000005"><a xlink:title=" ">
<path fill="none" stroke="#63b8ff" d="M181.56,-78.83C195.65,-76.48 211.74,-73.79 225.24,-71.53"/>
<polygon fill="#63b8ff" stroke="#63b8ff" points="225.53,-75.03 234.82,-69.93 224.38,-68.13 225.53,-75.03"/>
</a>
</g>
</g>
<!-- Node6 -->
<g id="Node000006" class="node">
<title>Node6</title>
<g id="a_Node000006"><a xlink:href="printf_8c.html#ac3154a3597888cf112e4e7bf6a5f1846" target="_top" xlink:title="Format and print an integer based on format control.">
<polygon fill="white" stroke="#666666" points="392.5,-95.25 323.25,-95.25 323.25,-76 392.5,-76 392.5,-95.25"/>
<text xml:space="preserve" text-anchor="middle" x="357.88" y="-81.75" font-family="Helvetica,sans-Serif" font-size="10.00">put_integers</text>
</a>
</g>
</g>
<!-- Node5&#45;&gt;Node6 -->
<g id="edge5_Node000005_Node000006" class="edge">
<title>Node5&#45;&gt;Node6</title>
<g id="a_edge5_Node000005_Node000006"><a xlink:title=" ">
<path fill="none" stroke="#63b8ff" d="M274.55,-70.02C285.02,-72.01 298.74,-74.61 311.98,-77.12"/>
<polygon fill="#63b8ff" stroke="#63b8ff" points="310.93,-80.48 321.41,-78.9 312.23,-73.6 310.93,-80.48"/>
</a>
</g>
</g>
<!-- Node8 -->
<g id="Node000008" class="node">
<title>Node8</title>
<g id="a_Node000008"><a xlink:href="printf_8c.html#ab97c3c9e783c1402d4007ceafdb197c1" target="_top" xlink:title="Print an unsigned integer in the given base.">
<polygon fill="white" stroke="#666666" points="601.5,-133.25 527.75,-133.25 527.75,-114 601.5,-114 601.5,-133.25"/>
<text xml:space="preserve" text-anchor="middle" x="564.62" y="-119.75" font-family="Helvetica,sans-Serif" font-size="10.00">put_unsigned</text>
</a>
</g>
</g>
<!-- Node5&#45;&gt;Node8 -->
<g id="edge13_Node000005_Node000008" class="edge">
<title>Node5&#45;&gt;Node8</title>
<g id="a_edge13_Node000005_Node000008"><a xlink:title=" ">
<path fill="none" stroke="#63b8ff" d="M273.9,-76.67C292.75,-87.6 320.62,-103.67 323.25,-104.62 386.99,-127.78 466.33,-129.24 515.99,-127.19"/>
<polygon fill="#63b8ff" stroke="#63b8ff" points="516.01,-130.69 525.83,-126.71 515.67,-123.7 516.01,-130.69"/>
</a>
</g>
</g>
<!-- Node10 -->
<g id="Node000010" class="node">
<title>Node10</title>
<g id="a_Node000010"><a xlink:href="printf_8c.html#a9bdf0418571456c566aa2f329b5f8350" target="_top" xlink:title="Send a single character over UART, waiting if the FIFO is full.">
<polygon fill="white" stroke="#666666" points="681.25,-76.25 646.5,-76.25 646.5,-57 681.25,-57 681.25,-76.25"/>
<text xml:space="preserve" text-anchor="middle" x="663.88" y="-62.75" font-family="Helvetica,sans-Serif" font-size="10.00">putc</text>
</a>
</g>
</g>
<!-- Node5&#45;&gt;Node10 -->
<g id="edge14_Node000005_Node000010" class="edge">
<title>Node5&#45;&gt;Node10</title>
<g id="a_edge14_Node000005_Node000010"><a xlink:title=" ">
<path fill="none" stroke="#63b8ff" d="M274.87,-66.62C339.35,-66.62 556.82,-66.62 634.78,-66.62"/>
<polygon fill="#63b8ff" stroke="#63b8ff" points="634.53,-70.13 644.53,-66.63 634.53,-63.13 634.53,-70.13"/>
</a>
</g>
</g>
<!-- Node5&#45;&gt;Node11 -->
<g id="edge15_Node000005_Node000011" class="edge">
<title>Node5&#45;&gt;Node11</title>
<g id="a_edge15_Node000005_Node000011"><a xlink:title=" ">
<path fill="none" stroke="#63b8ff" d="M274.09,-56.7C289.66,-47.84 312.67,-34.76 330.49,-24.63"/>
<polygon fill="#63b8ff" stroke="#63b8ff" points="332,-27.79 338.96,-19.81 328.54,-21.71 332,-27.79"/>
</a>
</g>
</g>
<!-- Node7 -->
<g id="Node000007" class="node">
<title>Node7</title>
<g id="a_Node000007"><a xlink:href="printf_8c.html#a2e8c688dfa078a9a7f1f02d4126f466a" target="_top" xlink:title="Print a signed integer in decimal form.">
<polygon fill="white" stroke="#666666" points="491.75,-95.25 428.5,-95.25 428.5,-76 491.75,-76 491.75,-95.25"/>
<text xml:space="preserve" text-anchor="middle" x="460.12" y="-81.75" font-family="Helvetica,sans-Serif" font-size="10.00">put_signed</text>
</a>
</g>
</g>
<!-- Node6&#45;&gt;Node7 -->
<g id="edge6_Node000006_Node000007" class="edge">
<title>Node6&#45;&gt;Node7</title>
<g id="a_edge6_Node000006_Node000007"><a xlink:title=" ">
<path fill="none" stroke="#63b8ff" d="M392.82,-85.62C400.52,-85.62 408.81,-85.62 416.81,-85.62"/>
<polygon fill="#63b8ff" stroke="#63b8ff" points="416.74,-89.13 426.74,-85.63 416.74,-82.13 416.74,-89.13"/>
</a>
</g>
</g>
<!-- Node6&#45;&gt;Node8 -->
<g id="edge12_Node000006_Node000008" class="edge">
<title>Node6&#45;&gt;Node8</title>
<g id="a_edge12_Node000006_Node000008"><a xlink:title=" ">
<path fill="none" stroke="#63b8ff" d="M392.31,-95.67C403.72,-98.85 416.6,-102.17 428.5,-104.62 457.27,-110.55 489.88,-115.19 515.85,-118.41"/>
<polygon fill="#63b8ff" stroke="#63b8ff" points="515.43,-121.88 525.78,-119.6 516.27,-114.93 515.43,-121.88"/>
</a>
</g>
</g>
<!-- Node7&#45;&gt;Node8 -->
<g id="edge7_Node000007_Node000008" class="edge">
<title>Node7&#45;&gt;Node8</title>
<g id="a_edge7_Node000007_Node000008"><a xlink:title=" ">
<path fill="none" stroke="#63b8ff" d="M488.32,-95.71C499.88,-99.99 513.55,-105.06 526.05,-109.7"/>
<polygon fill="#63b8ff" stroke="#63b8ff" points="524.64,-112.91 535.24,-113.1 527.08,-106.34 524.64,-112.91"/>
</a>
</g>
</g>
<!-- Node7&#45;&gt;Node10 -->
<g id="edge11_Node000007_Node000010" class="edge">
<title>Node7&#45;&gt;Node10</title>
<g id="a_edge11_Node000007_Node000010"><a xlink:title=" ">
<path fill="none" stroke="#63b8ff" d="M492.21,-82.7C531.2,-79.03 597.5,-72.78 634.95,-69.25"/>
<polygon fill="#63b8ff" stroke="#63b8ff" points="634.89,-72.78 644.52,-68.35 634.23,-65.81 634.89,-72.78"/>
</a>
</g>
</g>
<!-- Node9 -->
<g id="Node000009" class="node">
<title>Node9</title>
<g id="a_Node000009"><a xlink:href="printf_8c.html#a96a30e819fcbfa9a0251f71f14ff79bc" target="_top" xlink:title="Perform division and return quotient and remainder.">
<polygon fill="white" stroke="#666666" points="690.25,-171.25 637.5,-171.25 637.5,-152 690.25,-152 690.25,-171.25"/>
<text xml:space="preserve" text-anchor="middle" x="663.88" y="-157.75" font-family="Helvetica,sans-Serif" font-size="10.00">_divmod</text>
</a>
</g>
</g>
<!-- Node8&#45;&gt;Node9 -->
<g id="edge8_Node000008_Node000009" class="edge">
<title>Node8&#45;&gt;Node9</title>
<g id="a_edge8_Node000008_Node000009"><a xlink:title=" ">
<path fill="none" stroke="#63b8ff" d="M591.43,-133.71C602.29,-137.95 615.11,-142.96 626.87,-147.56"/>
<polygon fill="#63b8ff" stroke="#63b8ff" points="625.29,-150.7 635.88,-151.08 627.84,-144.18 625.29,-150.7"/>
</a>
</g>
</g>
<!-- Node8&#45;&gt;Node10 -->
<g id="edge10_Node000008_Node000010" class="edge">
<title>Node8&#45;&gt;Node10</title>
<g id="a_edge10_Node000008_Node000010"><a xlink:title=" ">
<path fill="none" stroke="#63b8ff" d="M582.56,-113.7C597.49,-104.95 619.46,-92.07 636.65,-82"/>
<polygon fill="#63b8ff" stroke="#63b8ff" points="637.97,-85.28 644.82,-77.21 634.43,-79.24 637.97,-85.28"/>
</a>
</g>
</g>
<!-- Node9&#45;&gt;Node3 -->
<g id="edge9_Node000009_Node000003" class="edge">
<title>Node9&#45;&gt;Node3</title>
<g id="a_edge9_Node000009_Node000003"><a xlink:title=" ">
<path fill="none" stroke="#63b8ff" d="M637.05,-169.68C598.96,-180.84 525.28,-199.62 461.12,-199.62 690.25,-8.62 690.25,-8.62 356.88,-199.62 270.32,-199.62 265.29,-141.59 188,-102.62 185.88,-101.56 183.68,-100.49 181.45,-99.43"/>
<polygon fill="#63b8ff" stroke="#63b8ff" points="182.93,-96.26 172.38,-95.29 180.02,-102.63 182.93,-96.26"/>
</a>
</g>
</g>
<!-- Node11&#45;&gt;Node10 -->
<g id="edge16_Node000011_Node000010" class="edge">
<title>Node11&#45;&gt;Node10</title>
<g id="a_edge16_Node000011_Node000010"><a xlink:title=" ">
<path fill="none" stroke="#63b8ff" d="M375.49,-9.06C415.42,-8.16 519.51,-8.63 601.5,-33.62 614.48,-37.58 627.87,-44.41 638.81,-50.83"/>
<polygon fill="#63b8ff" stroke="#63b8ff" points="636.82,-53.71 647.18,-55.96 640.48,-47.74 636.82,-53.71"/>
</a>
</g>
</g>
</g>
</svg>
