<?xml version="1.0" encoding="UTF-8" standalone="no"?>
<!DOCTYPE svg PUBLIC "-//W3C//DTD SVG 1.1//EN"
 "http://www.w3.org/Graphics/SVG/1.1/DTD/svg11.dtd">
<!-- Generated by graphviz version 14.0.0 (20250921.2048)
 -->
<!-- Title: kernel_panic Pages: 1 -->
<svg width="843pt" height="259pt"
 viewBox="0.00 0.00 843.00 259.00" xmlns="http://www.w3.org/2000/svg" xmlns:xlink="http://www.w3.org/1999/xlink">
<g id="graph0" class="graph" transform="scale(1 1) rotate(0) translate(4 255.12)">
<title>kernel_panic</title>
<!-- Node1 -->
<g id="Node000001" class="node">
<title>Node1</title>
<g id="a_Node000001"><a xlink:title="Print a panic message and halt the CPU.">
<polygon fill="#999999" stroke="#666666" points="835.25,-114.25 764.5,-114.25 764.5,-95 835.25,-95 835.25,-114.25"/>
<text xml:space="preserve" text-anchor="middle" x="799.88" y="-100.75" font-family="Helvetica,sans-Serif" font-size="10.00">kernel_panic</text>
</a>
</g>
</g>
<!-- Node2 -->
<g id="Node000002" class="node">
<title>Node2</title>
<g id="a_Node000002"><a xlink:href="printf_8c.html#a694b6d27273027eb96424e52b798c391" target="_top" xlink:title=" ">
<polygon fill="white" stroke="#666666" points="721.75,-209.25 682.5,-209.25 682.5,-190 721.75,-190 721.75,-209.25"/>
<text xml:space="preserve" text-anchor="middle" x="702.12" y="-195.75" font-family="Helvetica,sans-Serif" font-size="10.00">_bdiv</text>
</a>
</g>
</g>
<!-- Node1&#45;&gt;Node2 -->
<g id="edge1_Node000001_Node000002" class="edge">
<title>Node1&#45;&gt;Node2</title>
<g id="a_edge1_Node000001_Node000002"><a xlink:title=" ">
<path fill="none" stroke="#63b8ff" d="M781.51,-122.46C767.36,-136.92 746.8,-157.75 728.5,-175.62 723.73,-180.29 718.37,-185.37 713.82,-189.66"/>
<polygon fill="#63b8ff" stroke="#63b8ff" points="783.87,-125.05 788.35,-115.45 778.86,-120.16 783.87,-125.05"/>
</a>
</g>
</g>
<!-- Node3 -->
<g id="Node000003" class="node">
<title>Node3</title>
<g id="a_Node000003"><a xlink:href="printf_8c.html#a96a30e819fcbfa9a0251f71f14ff79bc" target="_top" xlink:title="Perform division and return quotient and remainder.">
<polygon fill="white" stroke="#666666" points="728.5,-133.25 675.75,-133.25 675.75,-114 728.5,-114 728.5,-133.25"/>
<text xml:space="preserve" text-anchor="middle" x="702.12" y="-119.75" font-family="Helvetica,sans-Serif" font-size="10.00">_divmod</text>
</a>
</g>
</g>
<!-- Node1&#45;&gt;Node3 -->
<g id="edge2_Node000001_Node000003" class="edge">
<title>Node1&#45;&gt;Node3</title>
<g id="a_edge2_Node000001_Node000003"><a xlink:title=" ">
<path fill="none" stroke="#63b8ff" d="M752.87,-113.75C744.59,-115.4 736.22,-117.06 728.78,-118.53"/>
<polygon fill="#63b8ff" stroke="#63b8ff" points="753.42,-117.21 762.55,-111.83 752.06,-110.35 753.42,-117.21"/>
</a>
</g>
</g>
<!-- Node13 -->
<g id="Node000013" class="node">
<title>Node13</title>
<g id="a_Node000013"><a xlink:href="math_8h.html#a97fbf4adb8a31d415775bdbd5c30c468" target="_top" xlink:title="Unsigned 32&#45;bit integer division: n / d.">
<polygon fill="white" stroke="#666666" points="727,-19.25 677.25,-19.25 677.25,0 727,0 727,-19.25"/>
<text xml:space="preserve" text-anchor="middle" x="702.12" y="-5.75" font-family="Helvetica,sans-Serif" font-size="10.00">_udiv32</text>
</a>
</g>
</g>
<!-- Node1&#45;&gt;Node13 -->
<g id="edge18_Node000001_Node000013" class="edge">
<title>Node1&#45;&gt;Node13</title>
<g id="a_edge18_Node000001_Node000013"><a xlink:title=" ">
<path fill="none" stroke="#63b8ff" d="M781.51,-86.79C767.36,-72.33 746.8,-51.5 728.5,-33.62 723.73,-28.96 718.37,-23.88 713.82,-19.59"/>
<polygon fill="#63b8ff" stroke="#63b8ff" points="778.86,-89.09 788.35,-93.8 783.87,-84.2 778.86,-89.09"/>
</a>
</g>
</g>
<!-- Node15 -->
<g id="Node000015" class="node">
<title>Node15</title>
<g id="a_Node000015"><a xlink:href="memory_8c.html#a87d8585002a620e687d68b38ab387a0e" target="_top" xlink:title=" ">
<polygon fill="white" stroke="#666666" points="416.5,-57.25 366.75,-57.25 366.75,-38 416.5,-38 416.5,-57.25"/>
<text xml:space="preserve" text-anchor="middle" x="391.62" y="-43.75" font-family="Helvetica,sans-Serif" font-size="10.00">kmalloc</text>
</a>
</g>
</g>
<!-- Node1&#45;&gt;Node15 -->
<g id="edge21_Node000001_Node000015" class="edge">
<title>Node1&#45;&gt;Node15</title>
<g id="a_edge21_Node000001_Node000015"><a xlink:title=" ">
<path fill="none" stroke="#63b8ff" d="M772.22,-89.29C759.41,-82.67 743.6,-75.56 728.5,-71.62 614.79,-42 472.58,-44.1 416.73,-46.37"/>
<polygon fill="#63b8ff" stroke="#63b8ff" points="770.39,-92.28 780.85,-93.93 773.7,-86.11 770.39,-92.28"/>
</a>
</g>
</g>
<!-- Node16 -->
<g id="Node000016" class="node">
<title>Node16</title>
<g id="a_Node000016"><a xlink:href="memory_8c.html#ae8d09a66c8495a0c2ff5c54f1309fd6a" target="_top" xlink:title=" ">
<polygon fill="white" stroke="#666666" points="530,-246.25 462.25,-246.25 462.25,-227 530,-227 530,-246.25"/>
<text xml:space="preserve" text-anchor="middle" x="496.12" y="-232.75" font-family="Helvetica,sans-Serif" font-size="10.00">kmalloc_init</text>
</a>
</g>
</g>
<!-- Node1&#45;&gt;Node16 -->
<g id="edge23_Node000001_Node000016" class="edge">
<title>Node1&#45;&gt;Node16</title>
<g id="a_edge23_Node000001_Node000016"><a xlink:title=" ">
<path fill="none" stroke="#63b8ff" d="M771.82,-120.13C758.88,-127.31 743.07,-135.76 728.5,-142.62 656.34,-176.64 568.38,-210.32 524.61,-226.57"/>
<polygon fill="#63b8ff" stroke="#63b8ff" points="773.18,-123.38 780.19,-115.43 769.75,-117.28 773.18,-123.38"/>
</a>
</g>
</g>
<!-- Node4 -->
<g id="Node000004" class="node">
<title>Node4</title>
<g id="a_Node000004"><a xlink:href="printf_8c.html#ab97c3c9e783c1402d4007ceafdb197c1" target="_top" xlink:title="Print an unsigned integer in the given base.">
<polygon fill="white" stroke="#666666" points="639.75,-133.25 566,-133.25 566,-114 639.75,-114 639.75,-133.25"/>
<text xml:space="preserve" text-anchor="middle" x="602.88" y="-119.75" font-family="Helvetica,sans-Serif" font-size="10.00">put_unsigned</text>
</a>
</g>
</g>
<!-- Node3&#45;&gt;Node4 -->
<g id="edge3_Node000003_Node000004" class="edge">
<title>Node3&#45;&gt;Node4</title>
<g id="a_edge3_Node000003_Node000004"><a xlink:title=" ">
<path fill="none" stroke="#63b8ff" d="M663.89,-123.62C656.07,-123.62 647.83,-123.62 640.05,-123.62"/>
<polygon fill="#63b8ff" stroke="#63b8ff" points="663.81,-127.13 673.81,-123.63 663.81,-120.13 663.81,-127.13"/>
</a>
</g>
</g>
<!-- Node5 -->
<g id="Node000005" class="node">
<title>Node5</title>
<g id="a_Node000005"><a xlink:href="printf_8c.html#a0aff7311d684a0e0ef33125616a73385" target="_top" xlink:title="Kernel printf implementation using UART output.">
<polygon fill="white" stroke="#666666" points="286.5,-133.25 248.75,-133.25 248.75,-114 286.5,-114 286.5,-133.25"/>
<text xml:space="preserve" text-anchor="middle" x="267.62" y="-119.75" font-family="Helvetica,sans-Serif" font-size="10.00">printf</text>
</a>
</g>
</g>
<!-- Node4&#45;&gt;Node5 -->
<g id="edge4_Node000004_Node000005" class="edge">
<title>Node4&#45;&gt;Node5</title>
<g id="a_edge4_Node000004_Node000005"><a xlink:title=" ">
<path fill="none" stroke="#63b8ff" d="M554.13,-123.62C479.08,-123.62 336.87,-123.62 286.7,-123.62"/>
<polygon fill="#63b8ff" stroke="#63b8ff" points="554.06,-127.13 564.06,-123.63 554.06,-120.13 554.06,-127.13"/>
</a>
</g>
</g>
<!-- Node11 -->
<g id="Node000011" class="node">
<title>Node11</title>
<g id="a_Node000011"><a xlink:href="printf_8c.html#ac3154a3597888cf112e4e7bf6a5f1846" target="_top" xlink:title="Format and print an integer based on format control.">
<polygon fill="white" stroke="#666666" points="426.25,-171.25 357,-171.25 357,-152 426.25,-152 426.25,-171.25"/>
<text xml:space="preserve" text-anchor="middle" x="391.62" y="-157.75" font-family="Helvetica,sans-Serif" font-size="10.00">put_integers</text>
</a>
</g>
</g>
<!-- Node4&#45;&gt;Node11 -->
<g id="edge14_Node000004_Node000011" class="edge">
<title>Node4&#45;&gt;Node11</title>
<g id="a_edge14_Node000004_Node000011"><a xlink:title=" ">
<path fill="none" stroke="#63b8ff" d="M554.43,-133C546.28,-134.57 537.9,-136.17 530,-137.62 494.76,-144.13 454.35,-151.14 426.53,-155.89"/>
<polygon fill="#63b8ff" stroke="#63b8ff" points="555.07,-136.44 564.22,-131.1 553.74,-129.57 555.07,-136.44"/>
</a>
</g>
</g>
<!-- Node12 -->
<g id="Node000012" class="node">
<title>Node12</title>
<g id="a_Node000012"><a xlink:href="printf_8c.html#a2e8c688dfa078a9a7f1f02d4126f466a" target="_top" xlink:title="Print a signed integer in decimal form.">
<polygon fill="white" stroke="#666666" points="527.75,-209.25 464.5,-209.25 464.5,-190 527.75,-190 527.75,-209.25"/>
<text xml:space="preserve" text-anchor="middle" x="496.12" y="-195.75" font-family="Helvetica,sans-Serif" font-size="10.00">put_signed</text>
</a>
</g>
</g>
<!-- Node4&#45;&gt;Node12 -->
<g id="edge16_Node000004_Node000012" class="edge">
<title>Node4&#45;&gt;Node12</title>
<g id="a_edge16_Node000004_Node000012"><a xlink:title=" ">
<path fill="none" stroke="#63b8ff" d="M576.89,-140C573.21,-142.51 569.49,-145.11 566,-147.62 549.57,-159.49 546.19,-163.43 530,-175.62 523.79,-180.3 516.85,-185.39 510.95,-189.68"/>
<polygon fill="#63b8ff" stroke="#63b8ff" points="578.73,-142.98 585.09,-134.51 574.83,-137.17 578.73,-142.98"/>
</a>
</g>
</g>
<!-- Node5&#45;&gt;Node1 -->
<g id="edge12_Node000005_Node000001" class="edge">
<title>Node5&#45;&gt;Node1</title>
<g id="a_edge12_Node000005_Node000001"><a xlink:title=" ">
<path fill="none" stroke="#63b8ff" d="M297.96,-115.49C340.89,-104.33 423.51,-85.62 495.12,-85.62 0,-8.62 0,-8.62 603.88,-85.62 660.17,-85.62 725.18,-93.57 764.1,-99.18"/>
<polygon fill="#63b8ff" stroke="#63b8ff" points="297.18,-112.08 288.41,-118.03 298.97,-118.85 297.18,-112.08"/>
</a>
</g>
</g>
<!-- Node6 -->
<g id="Node000006" class="node">
<title>Node6</title>
<g id="a_Node000006"><a xlink:href="clear_8c.html#ae683fe63c33c388e9ba1c6392dd477eb" target="_top" xlink:title="Clears the terminal screen and moves the cursor to the home position.">
<polygon fill="white" stroke="#666666" points="159.88,-133.25 122.88,-133.25 122.88,-114 159.88,-114 159.88,-133.25"/>
<text xml:space="preserve" text-anchor="middle" x="141.38" y="-119.75" font-family="Helvetica,sans-Serif" font-size="10.00">clear</text>
</a>
</g>
</g>
<!-- Node5&#45;&gt;Node6 -->
<g id="edge5_Node000005_Node000006" class="edge">
<title>Node5&#45;&gt;Node6</title>
<g id="a_edge5_Node000005_Node000006"><a xlink:title=" ">
<path fill="none" stroke="#63b8ff" d="M237,-123.62C213.01,-123.62 180,-123.62 159.98,-123.62"/>
<polygon fill="#63b8ff" stroke="#63b8ff" points="236.78,-127.13 246.78,-123.63 236.78,-120.13 236.78,-127.13"/>
</a>
</g>
</g>
<!-- Node7 -->
<g id="Node000007" class="node">
<title>Node7</title>
<g id="a_Node000007"><a xlink:href="kernel_8c.html#a6b8fb674fb359f6ae53dc9c4fb7fc6be" target="_top" xlink:title=" ">
<polygon fill="white" stroke="#666666" points="68.5,-170.25 0,-170.25 0,-151 68.5,-151 68.5,-170.25"/>
<text xml:space="preserve" text-anchor="middle" x="34.25" y="-156.75" font-family="Helvetica,sans-Serif" font-size="10.00">kernel_main</text>
</a>
</g>
</g>
<!-- Node5&#45;&gt;Node7 -->
<g id="edge11_Node000005_Node000007" class="edge">
<title>Node5&#45;&gt;Node7</title>
<g id="a_edge11_Node000005_Node000007"><a xlink:title=" ">
<path fill="none" stroke="#63b8ff" d="M237.81,-112.66C204.7,-101.78 149.19,-88.82 104.5,-104.62 78.55,-113.8 55.21,-137.29 43.39,-150.75"/>
<polygon fill="#63b8ff" stroke="#63b8ff" points="236.5,-115.92 247.1,-115.88 238.79,-109.3 236.5,-115.92"/>
</a>
</g>
</g>
<!-- Node8 -->
<g id="Node000008" class="node">
<title>Node8</title>
<g id="a_Node000008"><a xlink:href="printf_8c.html#a7880ed31ba841d890680635d6b83fcb7" target="_top" xlink:title="Read a line of text from UART with basic editing support.">
<polygon fill="white" stroke="#666666" points="166.25,-207.25 116.5,-207.25 116.5,-188 166.25,-188 166.25,-207.25"/>
<text xml:space="preserve" text-anchor="middle" x="141.38" y="-193.75" font-family="Helvetica,sans-Serif" font-size="10.00">getlines</text>
</a>
</g>
</g>
<!-- Node5&#45;&gt;Node8 -->
<g id="edge7_Node000005_Node000008" class="edge">
<title>Node5&#45;&gt;Node8</title>
<g id="a_edge7_Node000005_Node000008"><a xlink:title=" ">
<path fill="none" stroke="#63b8ff" d="M242.43,-139.88C224.89,-151.43 200.45,-167.06 178.25,-179.62 173.52,-182.3 168.34,-185.02 163.43,-187.5"/>
<polygon fill="#63b8ff" stroke="#63b8ff" points="244.23,-142.88 250.63,-134.44 240.36,-137.05 244.23,-142.88"/>
</a>
</g>
</g>
<!-- Node9 -->
<g id="Node000009" class="node">
<title>Node9</title>
<g id="a_Node000009"><a xlink:href="kernel_8c.html#a5f7f5591859a697cdeb5faafdf0ce822" target="_top" xlink:title=" ">
<polygon fill="white" stroke="#666666" points="178.25,-170.25 104.5,-170.25 104.5,-151 178.25,-151 178.25,-170.25"/>
<text xml:space="preserve" text-anchor="middle" x="141.38" y="-156.75" font-family="Helvetica,sans-Serif" font-size="10.00">init_message</text>
</a>
</g>
</g>
<!-- Node5&#45;&gt;Node9 -->
<g id="edge9_Node000005_Node000009" class="edge">
<title>Node5&#45;&gt;Node9</title>
<g id="a_edge9_Node000005_Node000009"><a xlink:title=" ">
<path fill="none" stroke="#63b8ff" d="M237.4,-132.33C219.08,-137.78 195.4,-144.83 176.27,-150.53"/>
<polygon fill="#63b8ff" stroke="#63b8ff" points="238.26,-135.72 246.84,-129.52 236.26,-129.02 238.26,-135.72"/>
</a>
</g>
</g>
<!-- Node10 -->
<g id="Node000010" class="node">
<title>Node10</title>
<g id="a_Node000010"><a xlink:href="kernel_8c.html#a8a11654fcf5bd5fcf10f118ad5f79904" target="_top" xlink:title=" ">
<polygon fill="white" stroke="#666666" points="169.25,-57.25 113.5,-57.25 113.5,-38 169.25,-38 169.25,-57.25"/>
<text xml:space="preserve" text-anchor="middle" x="141.38" y="-43.75" font-family="Helvetica,sans-Serif" font-size="10.00">not_main</text>
</a>
</g>
</g>
<!-- Node5&#45;&gt;Node10 -->
<g id="edge13_Node000005_Node000010" class="edge">
<title>Node5&#45;&gt;Node10</title>
<g id="a_edge13_Node000005_Node000010"><a xlink:title=" ">
<path fill="none" stroke="#63b8ff" d="M240.63,-107.73C215.88,-92.58 179.39,-70.27 158.55,-57.52"/>
<polygon fill="#63b8ff" stroke="#63b8ff" points="238.48,-110.51 248.83,-112.74 242.13,-104.54 238.48,-110.51"/>
</a>
</g>
</g>
<!-- Node6&#45;&gt;Node7 -->
<g id="edge6_Node000006_Node000007" class="edge">
<title>Node6&#45;&gt;Node7</title>
<g id="a_edge6_Node000006_Node000007"><a xlink:title=" ">
<path fill="none" stroke="#63b8ff" d="M111.9,-133.65C97.01,-138.89 78.82,-145.29 63.9,-150.54"/>
<polygon fill="#63b8ff" stroke="#63b8ff" points="112.84,-137.03 121.11,-130.4 110.52,-130.42 112.84,-137.03"/>
</a>
</g>
</g>
<!-- Node8&#45;&gt;Node7 -->
<g id="edge8_Node000008_Node000007" class="edge">
<title>Node8&#45;&gt;Node7</title>
<g id="a_edge8_Node000008_Node000007"><a xlink:title=" ">
<path fill="none" stroke="#63b8ff" d="M105.8,-185.46C92.17,-180.66 76.7,-175.21 63.73,-170.65"/>
<polygon fill="#63b8ff" stroke="#63b8ff" points="104.23,-188.62 114.83,-188.63 106.56,-182.01 104.23,-188.62"/>
</a>
</g>
</g>
<!-- Node9&#45;&gt;Node7 -->
<g id="edge10_Node000009_Node000007" class="edge">
<title>Node9&#45;&gt;Node7</title>
<g id="a_edge10_Node000009_Node000007"><a xlink:title=" ">
<path fill="none" stroke="#63b8ff" d="M92.85,-160.62C84.69,-160.62 76.36,-160.62 68.67,-160.62"/>
<polygon fill="#63b8ff" stroke="#63b8ff" points="92.68,-164.13 102.68,-160.63 92.68,-157.13 92.68,-164.13"/>
</a>
</g>
</g>
<!-- Node11&#45;&gt;Node5 -->
<g id="edge15_Node000011_Node000005" class="edge">
<title>Node11&#45;&gt;Node5</title>
<g id="a_edge15_Node000011_Node000005"><a xlink:title=" ">
<path fill="none" stroke="#63b8ff" d="M347.38,-148.15C326.55,-141.67 302.7,-134.24 286.75,-129.27"/>
<polygon fill="#63b8ff" stroke="#63b8ff" points="346.22,-151.46 356.81,-151.09 348.3,-144.78 346.22,-151.46"/>
</a>
</g>
</g>
<!-- Node12&#45;&gt;Node11 -->
<g id="edge17_Node000012_Node000011" class="edge">
<title>Node12&#45;&gt;Node11</title>
<g id="a_edge17_Node000012_Node000011"><a xlink:title=" ">
<path fill="none" stroke="#63b8ff" d="M457.31,-185.6C444.79,-180.96 431.13,-175.9 419.6,-171.62"/>
<polygon fill="#63b8ff" stroke="#63b8ff" points="455.91,-188.82 466.51,-189.02 458.35,-182.26 455.91,-188.82"/>
</a>
</g>
</g>
<!-- Node14 -->
<g id="Node000014" class="node">
<title>Node14</title>
<g id="a_Node000014"><a xlink:href="interrupt_8c.html#a2a778647bb8df60e6c3238b29eb2fca2" target="_top" xlink:title="VersatilePB SP804 timer clock is typically 1 MHz (can be overridden)">
<polygon fill="white" stroke="#666666" points="321,-19.25 214.25,-19.25 214.25,0 321,0 321,-19.25"/>
<text xml:space="preserve" text-anchor="middle" x="267.62" y="-5.75" font-family="Helvetica,sans-Serif" font-size="10.00">interrupts_init_timer0</text>
</a>
</g>
</g>
<!-- Node13&#45;&gt;Node14 -->
<g id="edge19_Node000013_Node000014" class="edge">
<title>Node13&#45;&gt;Node14</title>
<g id="a_edge19_Node000013_Node000014"><a xlink:title=" ">
<path fill="none" stroke="#63b8ff" d="M665.66,-9.62C589.69,-9.62 410.87,-9.62 321.46,-9.62"/>
<polygon fill="#63b8ff" stroke="#63b8ff" points="665.43,-13.13 675.43,-9.63 665.43,-6.13 665.43,-13.13"/>
</a>
</g>
</g>
<!-- Node14&#45;&gt;Node10 -->
<g id="edge20_Node000014_Node000010" class="edge">
<title>Node14&#45;&gt;Node10</title>
<g id="a_edge20_Node000014_Node000010"><a xlink:title=" ">
<path fill="none" stroke="#63b8ff" d="M222.69,-23.06C205.01,-28.47 185.16,-34.54 169.62,-39.29"/>
<polygon fill="#63b8ff" stroke="#63b8ff" points="223.67,-26.42 232.21,-20.15 221.62,-19.73 223.67,-26.42"/>
</a>
</g>
</g>
<!-- Node15&#45;&gt;Node10 -->
<g id="edge22_Node000015_Node000010" class="edge">
<title>Node15&#45;&gt;Node10</title>
<g id="a_edge22_Node000015_Node000010"><a xlink:title=" ">
<path fill="none" stroke="#63b8ff" d="M355.16,-47.62C305.13,-47.62 214.92,-47.62 169.73,-47.62"/>
<polygon fill="#63b8ff" stroke="#63b8ff" points="354.86,-51.13 364.86,-47.63 354.86,-44.13 354.86,-51.13"/>
</a>
</g>
</g>
<!-- Node16&#45;&gt;Node7 -->
<g id="edge24_Node000016_Node000007" class="edge">
<title>Node16&#45;&gt;Node7</title>
<g id="a_edge24_Node000016_Node000007"><a xlink:title=" ">
<path fill="none" stroke="#63b8ff" d="M450.56,-243.01C376.07,-251.82 222.79,-261.9 104.5,-216.62 78.8,-206.79 55.36,-183.56 43.46,-170.31"/>
<polygon fill="#63b8ff" stroke="#63b8ff" points="450.83,-246.5 460.32,-241.8 449.97,-239.56 450.83,-246.5"/>
</a>
</g>
</g>
</g>
</svg>
