<?xml version="1.0" encoding="UTF-8" standalone="no"?>
<!DOCTYPE svg PUBLIC "-//W3C//DTD SVG 1.1//EN"
 "http://www.w3.org/Graphics/SVG/1.1/DTD/svg11.dtd">
<!-- Generated by graphviz version 14.0.0 (20250921.2048)
 -->
<!-- Title: kernel_panic Pages: 1 -->
<svg width="581pt" height="185pt"
 viewBox="0.00 0.00 581.00 185.00" xmlns="http://www.w3.org/2000/svg" xmlns:xlink="http://www.w3.org/1999/xlink">
<g id="graph0" class="graph" transform="scale(1 1) rotate(0) translate(4 180.62)">
<title>kernel_panic</title>
<!-- Node1 -->
<g id="Node000001" class="node">
<title>Node1</title>
<g id="a_Node000001"><a xlink:title="Print a panic message and halt the CPU.">
<polygon fill="#999999" stroke="#666666" points="70.75,-94.62 0,-94.62 0,-75.38 70.75,-75.38 70.75,-94.62"/>
<text xml:space="preserve" text-anchor="middle" x="35.38" y="-81.12" font-family="Helvetica,sans-Serif" font-size="10.00">kernel_panic</text>
</a>
</g>
</g>
<!-- Node2 -->
<g id="Node000002" class="node">
<title>Node2</title>
<g id="a_Node000002"><a xlink:href="panic_8c.html#a830ea0b31f5cecec34c74c8a4c2f8192" target="_top" xlink:title="Halt the CPU indefinitely.">
<polygon fill="white" stroke="#666666" points="170,-131.62 106.75,-131.62 106.75,-112.38 170,-112.38 170,-131.62"/>
<text xml:space="preserve" text-anchor="middle" x="138.38" y="-118.12" font-family="Helvetica,sans-Serif" font-size="10.00">kernel_halt</text>
</a>
</g>
</g>
<!-- Node1&#45;&gt;Node2 -->
<g id="edge1_Node000001_Node000002" class="edge">
<title>Node1&#45;&gt;Node2</title>
<g id="a_edge1_Node000001_Node000002"><a xlink:title=" ">
<path fill="none" stroke="#63b8ff" d="M63.97,-95.11C74.77,-99.07 87.35,-103.67 99,-107.94"/>
<polygon fill="#63b8ff" stroke="#63b8ff" points="97.79,-111.23 108.39,-111.38 100.2,-104.65 97.79,-111.23"/>
</a>
</g>
</g>
<!-- Node3 -->
<g id="Node000003" class="node">
<title>Node3</title>
<g id="a_Node000003"><a xlink:href="printf_8c.html#a0aff7311d684a0e0ef33125616a73385" target="_top" xlink:title="Kernel printf implementation using UART output.">
<polygon fill="white" stroke="#666666" points="157.25,-94.62 119.5,-94.62 119.5,-75.38 157.25,-75.38 157.25,-94.62"/>
<text xml:space="preserve" text-anchor="middle" x="138.38" y="-81.12" font-family="Helvetica,sans-Serif" font-size="10.00">printf</text>
</a>
</g>
</g>
<!-- Node1&#45;&gt;Node3 -->
<g id="edge2_Node000001_Node000003" class="edge">
<title>Node1&#45;&gt;Node3</title>
<g id="a_edge2_Node000001_Node000003"><a xlink:title=" ">
<path fill="none" stroke="#63b8ff" d="M71.13,-85C83.08,-85 96.32,-85 107.81,-85"/>
<polygon fill="#63b8ff" stroke="#63b8ff" points="107.51,-88.5 117.51,-85 107.51,-81.5 107.51,-88.5"/>
</a>
</g>
</g>
<!-- Node4 -->
<g id="Node000004" class="node">
<title>Node4</title>
<g id="a_Node000004"><a xlink:href="printf_8c.html#ac3154a3597888cf112e4e7bf6a5f1846" target="_top" xlink:title="Format and print an integer based on format control.">
<polygon fill="white" stroke="#666666" points="275.25,-94.62 206,-94.62 206,-75.38 275.25,-75.38 275.25,-94.62"/>
<text xml:space="preserve" text-anchor="middle" x="240.62" y="-81.12" font-family="Helvetica,sans-Serif" font-size="10.00">put_integers</text>
</a>
</g>
</g>
<!-- Node3&#45;&gt;Node4 -->
<g id="edge3_Node000003_Node000004" class="edge">
<title>Node3&#45;&gt;Node4</title>
<g id="a_edge3_Node000003_Node000004"><a xlink:title=" ">
<path fill="none" stroke="#63b8ff" d="M157.3,-85C167.66,-85 181.22,-85 194.33,-85"/>
<polygon fill="#63b8ff" stroke="#63b8ff" points="194.13,-88.5 204.13,-85 194.13,-81.5 194.13,-88.5"/>
</a>
</g>
</g>
<!-- Node6 -->
<g id="Node000006" class="node">
<title>Node6</title>
<g id="a_Node000006"><a xlink:href="printf_8c.html#ab97c3c9e783c1402d4007ceafdb197c1" target="_top" xlink:title="Print an unsigned integer in the given base.">
<polygon fill="white" stroke="#666666" points="484.25,-84.62 410.5,-84.62 410.5,-65.38 484.25,-65.38 484.25,-84.62"/>
<text xml:space="preserve" text-anchor="middle" x="447.38" y="-71.12" font-family="Helvetica,sans-Serif" font-size="10.00">put_unsigned</text>
</a>
</g>
</g>
<!-- Node3&#45;&gt;Node6 -->
<g id="edge11_Node000003_Node000006" class="edge">
<title>Node3&#45;&gt;Node6</title>
<g id="a_edge11_Node000003_Node000006"><a xlink:title=" ">
<path fill="none" stroke="#63b8ff" d="M157.74,-78.27C170.96,-73.8 189.32,-68.33 206,-66 272.48,-56.71 350.25,-62.63 398.92,-68.33"/>
<polygon fill="#63b8ff" stroke="#63b8ff" points="398.48,-71.8 408.84,-69.54 399.33,-64.85 398.48,-71.8"/>
</a>
</g>
</g>
<!-- Node8 -->
<g id="Node000008" class="node">
<title>Node8</title>
<g id="a_Node000008"><a xlink:href="printf_8c.html#a9bdf0418571456c566aa2f329b5f8350" target="_top" xlink:title="Send a single character over UART, waiting if the FIFO is full.">
<polygon fill="white" stroke="#666666" points="564,-141.62 529.25,-141.62 529.25,-122.38 564,-122.38 564,-141.62"/>
<text xml:space="preserve" text-anchor="middle" x="546.62" y="-128.12" font-family="Helvetica,sans-Serif" font-size="10.00">putc</text>
</a>
</g>
</g>
<!-- Node3&#45;&gt;Node8 -->
<g id="edge12_Node000003_Node000008" class="edge">
<title>Node3&#45;&gt;Node8</title>
<g id="a_edge12_Node000003_Node000008"><a xlink:title=" ">
<path fill="none" stroke="#63b8ff" d="M157.46,-95.04C161.65,-97.53 166.04,-100.27 170,-103 186.9,-114.68 188.09,-121.93 206,-132 249.35,-156.38 262.26,-161.43 311.25,-170 387.27,-183.3 409.42,-173.88 484.25,-155 495.59,-152.14 507.72,-147.86 518.18,-143.78"/>
<polygon fill="#63b8ff" stroke="#63b8ff" points="519.4,-147.06 527.35,-140.06 516.77,-140.57 519.4,-147.06"/>
</a>
</g>
</g>
<!-- Node9 -->
<g id="Node000009" class="node">
<title>Node9</title>
<g id="a_Node000009"><a xlink:href="printf_8c.html#a299d0f9cb9e7b14e1278a4ed21e4d76f" target="_top" xlink:title="Transmit a null&#45;terminated string.">
<polygon fill="white" stroke="#666666" points="360.25,-160.62 325.5,-160.62 325.5,-141.38 360.25,-141.38 360.25,-160.62"/>
<text xml:space="preserve" text-anchor="middle" x="342.88" y="-147.12" font-family="Helvetica,sans-Serif" font-size="10.00">puts</text>
</a>
</g>
</g>
<!-- Node3&#45;&gt;Node9 -->
<g id="edge13_Node000003_Node000009" class="edge">
<title>Node3&#45;&gt;Node9</title>
<g id="a_edge13_Node000003_Node000009"><a xlink:title=" ">
<path fill="none" stroke="#63b8ff" d="M157.7,-90.97C193.39,-102.6 272.37,-128.35 314.37,-142.03"/>
<polygon fill="#63b8ff" stroke="#63b8ff" points="313.13,-145.31 323.73,-145.08 315.3,-138.66 313.13,-145.31"/>
</a>
</g>
</g>
<!-- Node5 -->
<g id="Node000005" class="node">
<title>Node5</title>
<g id="a_Node000005"><a xlink:href="printf_8c.html#a2e8c688dfa078a9a7f1f02d4126f466a" target="_top" xlink:title="Print a signed integer in decimal form.">
<polygon fill="white" stroke="#666666" points="374.5,-123.62 311.25,-123.62 311.25,-104.38 374.5,-104.38 374.5,-123.62"/>
<text xml:space="preserve" text-anchor="middle" x="342.88" y="-110.12" font-family="Helvetica,sans-Serif" font-size="10.00">put_signed</text>
</a>
</g>
</g>
<!-- Node4&#45;&gt;Node5 -->
<g id="edge4_Node000004_Node000005" class="edge">
<title>Node4&#45;&gt;Node5</title>
<g id="a_edge4_Node000004_Node000005"><a xlink:title=" ">
<path fill="none" stroke="#63b8ff" d="M275.57,-94.82C283.45,-97.1 291.94,-99.56 300.12,-101.92"/>
<polygon fill="#63b8ff" stroke="#63b8ff" points="298.97,-105.23 309.55,-104.65 300.92,-98.51 298.97,-105.23"/>
</a>
</g>
</g>
<!-- Node4&#45;&gt;Node6 -->
<g id="edge10_Node000004_Node000006" class="edge">
<title>Node4&#45;&gt;Node6</title>
<g id="a_edge10_Node000004_Node000006"><a xlink:title=" ">
<path fill="none" stroke="#63b8ff" d="M275.44,-83.35C309.1,-81.7 361.06,-79.17 398.86,-77.32"/>
<polygon fill="#63b8ff" stroke="#63b8ff" points="398.77,-80.83 408.59,-76.85 398.43,-73.84 398.77,-80.83"/>
</a>
</g>
</g>
<!-- Node5&#45;&gt;Node6 -->
<g id="edge5_Node000005_Node000006" class="edge">
<title>Node5&#45;&gt;Node6</title>
<g id="a_edge5_Node000005_Node000006"><a xlink:title=" ">
<path fill="none" stroke="#63b8ff" d="M370.27,-103.96C382.23,-99.41 396.56,-93.95 409.55,-89.01"/>
<polygon fill="#63b8ff" stroke="#63b8ff" points="410.55,-92.38 418.65,-85.55 408.06,-85.83 410.55,-92.38"/>
</a>
</g>
</g>
<!-- Node5&#45;&gt;Node8 -->
<g id="edge9_Node000005_Node000008" class="edge">
<title>Node5&#45;&gt;Node8</title>
<g id="a_edge9_Node000005_Node000008"><a xlink:title=" ">
<path fill="none" stroke="#63b8ff" d="M374.96,-116.77C413.95,-120.25 480.25,-126.17 517.7,-129.51"/>
<polygon fill="#63b8ff" stroke="#63b8ff" points="517,-132.96 527.27,-130.36 517.62,-125.99 517,-132.96"/>
</a>
</g>
</g>
<!-- Node7 -->
<g id="Node000007" class="node">
<title>Node7</title>
<g id="a_Node000007"><a xlink:href="printf_8c.html#a96a30e819fcbfa9a0251f71f14ff79bc" target="_top" xlink:title="Perform division and return quotient and remainder.">
<polygon fill="white" stroke="#666666" points="573,-47.62 520.25,-47.62 520.25,-28.38 573,-28.38 573,-47.62"/>
<text xml:space="preserve" text-anchor="middle" x="546.62" y="-34.12" font-family="Helvetica,sans-Serif" font-size="10.00">_divmod</text>
</a>
</g>
</g>
<!-- Node6&#45;&gt;Node7 -->
<g id="edge6_Node000006_Node000007" class="edge">
<title>Node6&#45;&gt;Node7</title>
<g id="a_edge6_Node000006_Node000007"><a xlink:title=" ">
<path fill="none" stroke="#63b8ff" d="M474.95,-64.89C485.52,-60.87 497.85,-56.18 509.23,-51.85"/>
<polygon fill="#63b8ff" stroke="#63b8ff" points="510.24,-55.21 518.34,-48.38 507.75,-48.67 510.24,-55.21"/>
</a>
</g>
</g>
<!-- Node6&#45;&gt;Node8 -->
<g id="edge8_Node000006_Node000008" class="edge">
<title>Node6&#45;&gt;Node8</title>
<g id="a_edge8_Node000006_Node000008"><a xlink:title=" ">
<path fill="none" stroke="#63b8ff" d="M465.31,-84.93C480.24,-93.67 502.21,-106.55 519.4,-116.63"/>
<polygon fill="#63b8ff" stroke="#63b8ff" points="517.18,-119.38 527.57,-121.42 520.72,-113.34 517.18,-119.38"/>
</a>
</g>
</g>
<!-- Node7&#45;&gt;Node1 -->
<g id="edge7_Node000007_Node000001" class="edge">
<title>Node7&#45;&gt;Node1</title>
<g id="a_edge7_Node000007_Node000001"><a xlink:title=" ">
<path fill="none" stroke="#63b8ff" d="M519.8,-29.94C481.71,-18.79 408.03,0 343.88,0 573,-36 573,-36 239.62,0 169.35,0 95.26,-43.78 59.02,-68.5"/>
<polygon fill="#63b8ff" stroke="#63b8ff" points="57.28,-65.45 51.08,-74.05 61.29,-71.19 57.28,-65.45"/>
</a>
</g>
</g>
<!-- Node9&#45;&gt;Node8 -->
<g id="edge14_Node000009_Node000008" class="edge">
<title>Node9&#45;&gt;Node8</title>
<g id="a_edge14_Node000009_Node000008"><a xlink:title=" ">
<path fill="none" stroke="#63b8ff" d="M360.73,-149.41C395.38,-146.15 474.93,-138.66 517.51,-134.65"/>
<polygon fill="#63b8ff" stroke="#63b8ff" points="517.83,-138.13 527.45,-133.71 517.17,-131.16 517.83,-138.13"/>
</a>
</g>
</g>
</g>
</svg>
