<?xml version="1.0" encoding="UTF-8" standalone="no"?>
<!DOCTYPE svg PUBLIC "-//W3C//DTD SVG 1.1//EN"
 "http://www.w3.org/Graphics/SVG/1.1/DTD/svg11.dtd">
<!-- Generated by graphviz version 14.0.0 (20250921.2048)
 -->
<!-- Title: include/panic.h Pages: 1 -->
<svg width="443pt" height="138pt"
 viewBox="0.00 0.00 443.00 138.00" xmlns="http://www.w3.org/2000/svg" xmlns:xlink="http://www.w3.org/1999/xlink">
<g id="graph0" class="graph" transform="scale(1 1) rotate(0) translate(4 133.75)">
<title>include/panic.h</title>
<!-- Node1 -->
<g id="Node000001" class="node">
<title>Node1</title>
<g id="a_Node000001"><a xlink:title="Kernel panic and halt routines.">
<polygon fill="#999999" stroke="#666666" points="267.25,-129.75 186,-129.75 186,-110.5 267.25,-110.5 267.25,-129.75"/>
<text xml:space="preserve" text-anchor="middle" x="226.62" y="-116.25" font-family="Helvetica,sans-Serif" font-size="10.00">include/panic.h</text>
</a>
</g>
</g>
<!-- Node2 -->
<g id="Node000002" class="node">
<title>Node2</title>
<g id="a_Node000002"><a xlink:href="math_8h.html" target="_top" xlink:title=" ">
<polygon fill="white" stroke="#666666" points="98.88,-74.5 6.38,-74.5 6.38,-55.25 98.88,-55.25 98.88,-74.5"/>
<text xml:space="preserve" text-anchor="middle" x="52.62" y="-61" font-family="Helvetica,sans-Serif" font-size="10.00">include/lib/math.h</text>
</a>
</g>
</g>
<!-- Node1&#45;&gt;Node2 -->
<g id="edge1_Node000001_Node000002" class="edge">
<title>Node1&#45;&gt;Node2</title>
<g id="a_edge1_Node000001_Node000002"><a xlink:title=" ">
<path fill="none" stroke="#63b8ff" d="M186.4,-106.82C154.61,-97.09 110.96,-83.73 82.29,-74.95"/>
<polygon fill="#63b8ff" stroke="#63b8ff" points="185.07,-110.07 195.66,-109.65 187.12,-103.38 185.07,-110.07"/>
</a>
</g>
</g>
<!-- Node4 -->
<g id="Node000004" class="node">
<title>Node4</title>
<g id="a_Node000004"><a xlink:href="memory_8c.html" target="_top" xlink:title=" ">
<polygon fill="white" stroke="#666666" points="220.5,-74.5 116.75,-74.5 116.75,-55.25 220.5,-55.25 220.5,-74.5"/>
<text xml:space="preserve" text-anchor="middle" x="168.62" y="-61" font-family="Helvetica,sans-Serif" font-size="10.00">src/kernel/memory.c</text>
</a>
</g>
</g>
<!-- Node1&#45;&gt;Node4 -->
<g id="edge3_Node000001_Node000004" class="edge">
<title>Node1&#45;&gt;Node4</title>
<g id="a_edge3_Node000001_Node000004"><a xlink:title=" ">
<path fill="none" stroke="#63b8ff" d="M208.36,-102.36C198.41,-93.22 186.49,-82.28 178.32,-74.77"/>
<polygon fill="#63b8ff" stroke="#63b8ff" points="205.94,-104.88 215.67,-109.07 210.67,-99.73 205.94,-104.88"/>
</a>
</g>
</g>
<!-- Node5 -->
<g id="Node000005" class="node">
<title>Node5</title>
<g id="a_Node000005"><a xlink:href="panic_8c.html" target="_top" xlink:title=" ">
<polygon fill="white" stroke="#666666" points="332.25,-74.5 239,-74.5 239,-55.25 332.25,-55.25 332.25,-74.5"/>
<text xml:space="preserve" text-anchor="middle" x="285.62" y="-61" font-family="Helvetica,sans-Serif" font-size="10.00">src/kernel/panic.c</text>
</a>
</g>
</g>
<!-- Node1&#45;&gt;Node5 -->
<g id="edge4_Node000001_Node000005" class="edge">
<title>Node1&#45;&gt;Node5</title>
<g id="a_edge4_Node000001_Node000005"><a xlink:title=" ">
<path fill="none" stroke="#63b8ff" d="M244.89,-102.64C255.08,-93.44 267.37,-82.35 275.76,-74.77"/>
<polygon fill="#63b8ff" stroke="#63b8ff" points="242.84,-99.78 237.76,-109.08 247.53,-104.98 242.84,-99.78"/>
</a>
</g>
</g>
<!-- Node6 -->
<g id="Node000006" class="node">
<title>Node6</title>
<g id="a_Node000006"><a xlink:href="printf_8c.html" target="_top" xlink:title="UART&#45;backed minimal printf implementation for a freestanding kernel.">
<polygon fill="white" stroke="#666666" points="434.75,-74.5 350.5,-74.5 350.5,-55.25 434.75,-55.25 434.75,-74.5"/>
<text xml:space="preserve" text-anchor="middle" x="392.62" y="-61" font-family="Helvetica,sans-Serif" font-size="10.00">src/user/printf.c</text>
</a>
</g>
</g>
<!-- Node1&#45;&gt;Node6 -->
<g id="edge5_Node000001_Node000006" class="edge">
<title>Node1&#45;&gt;Node6</title>
<g id="a_edge5_Node000001_Node000006"><a xlink:title=" ">
<path fill="none" stroke="#63b8ff" d="M265.4,-106.69C295.69,-96.97 337.09,-83.69 364.33,-74.95"/>
<polygon fill="#63b8ff" stroke="#63b8ff" points="264.68,-103.24 256.23,-109.63 266.82,-109.91 264.68,-103.24"/>
</a>
</g>
</g>
<!-- Node3 -->
<g id="Node000003" class="node">
<title>Node3</title>
<g id="a_Node000003"><a xlink:href="interrupt_8c.html" target="_top" xlink:title=" ">
<polygon fill="white" stroke="#666666" points="105.25,-19.25 0,-19.25 0,0 105.25,0 105.25,-19.25"/>
<text xml:space="preserve" text-anchor="middle" x="52.62" y="-5.75" font-family="Helvetica,sans-Serif" font-size="10.00">src/kernel/interrupt.c</text>
</a>
</g>
</g>
<!-- Node2&#45;&gt;Node3 -->
<g id="edge2_Node000002_Node000003" class="edge">
<title>Node2&#45;&gt;Node3</title>
<g id="a_edge2_Node000002_Node000003"><a xlink:title=" ">
<path fill="none" stroke="#63b8ff" d="M52.62,-43.63C52.62,-35.34 52.62,-26.17 52.62,-19.61"/>
<polygon fill="#63b8ff" stroke="#63b8ff" points="49.13,-43.57 52.63,-53.57 56.13,-43.57 49.13,-43.57"/>
</a>
</g>
</g>
</g>
</svg>
