<?xml version="1.0" encoding="UTF-8" standalone="no"?>
<!DOCTYPE svg PUBLIC "-//W3C//DTD SVG 1.1//EN"
 "http://www.w3.org/Graphics/SVG/1.1/DTD/svg11.dtd">
<!-- Generated by graphviz version 14.0.0 (20250921.2048)
 -->
<!-- Title: put_signed Pages: 1 -->
<svg width="652pt" height="199pt"
 viewBox="0.00 0.00 652.00 199.00" xmlns="http://www.w3.org/2000/svg" xmlns:xlink="http://www.w3.org/1999/xlink">
<g id="graph0" class="graph" transform="scale(1 1) rotate(0) translate(4 195)">
<title>put_signed</title>
<!-- Node1 -->
<g id="Node000001" class="node">
<title>Node1</title>
<g id="a_Node000001"><a xlink:title="Print a signed integer in decimal form.">
<polygon fill="#999999" stroke="#666666" points="63.25,-162.62 0,-162.62 0,-143.38 63.25,-143.38 63.25,-162.62"/>
<text xml:space="preserve" text-anchor="middle" x="31.62" y="-149.12" font-family="Helvetica,sans-Serif" font-size="10.00">put_signed</text>
</a>
</g>
</g>
<!-- Node2 -->
<g id="Node000002" class="node">
<title>Node2</title>
<g id="a_Node000002"><a xlink:href="printf_8c.html#ab97c3c9e783c1402d4007ceafdb197c1" target="_top" xlink:title="Print an unsigned integer in the given base.">
<polygon fill="white" stroke="#666666" points="173,-86.62 99.25,-86.62 99.25,-67.38 173,-67.38 173,-86.62"/>
<text xml:space="preserve" text-anchor="middle" x="136.12" y="-73.12" font-family="Helvetica,sans-Serif" font-size="10.00">put_unsigned</text>
</a>
</g>
</g>
<!-- Node1&#45;&gt;Node2 -->
<g id="edge1_Node000001_Node000002" class="edge">
<title>Node1&#45;&gt;Node2</title>
<g id="a_edge1_Node000001_Node000002"><a xlink:title=" ">
<path fill="none" stroke="#63b8ff" d="M46.03,-143.06C62.91,-130.55 92.17,-108.85 112.53,-93.75"/>
<polygon fill="#63b8ff" stroke="#63b8ff" points="114.56,-96.61 120.51,-87.84 110.39,-90.98 114.56,-96.61"/>
</a>
</g>
</g>
<!-- Node8 -->
<g id="Node000008" class="node">
<title>Node8</title>
<g id="a_Node000008"><a xlink:href="printf_8c.html#a9bdf0418571456c566aa2f329b5f8350" target="_top" xlink:title="Send a single character over UART, waiting if the FIFO is full.">
<polygon fill="white" stroke="#666666" points="643.75,-68.62 609,-68.62 609,-49.38 643.75,-49.38 643.75,-68.62"/>
<text xml:space="preserve" text-anchor="middle" x="626.38" y="-55.12" font-family="Helvetica,sans-Serif" font-size="10.00">putc</text>
</a>
</g>
</g>
<!-- Node1&#45;&gt;Node8 -->
<g id="edge14_Node000001_Node000008" class="edge">
<title>Node1&#45;&gt;Node8</title>
<g id="a_edge14_Node000001_Node000008"><a xlink:title=" ">
<path fill="none" stroke="#63b8ff" d="M63.73,-162.59C103.07,-173.85 173.07,-191 234.38,-191 643.75,0 643.75,0 437.12,-191 502.61,-191 522.05,-175.14 573,-134 591.65,-118.94 606.52,-95.57 615.58,-78.92"/>
<polygon fill="#63b8ff" stroke="#63b8ff" points="618.47,-80.94 619.97,-70.45 612.26,-77.71 618.47,-80.94"/>
</a>
</g>
</g>
<!-- Node3 -->
<g id="Node000003" class="node">
<title>Node3</title>
<g id="a_Node000003"><a xlink:href="printf_8c.html#a96a30e819fcbfa9a0251f71f14ff79bc" target="_top" xlink:title="Perform division and return quotient and remainder.">
<polygon fill="white" stroke="#666666" points="261.75,-86.62 209,-86.62 209,-67.38 261.75,-67.38 261.75,-86.62"/>
<text xml:space="preserve" text-anchor="middle" x="235.38" y="-73.12" font-family="Helvetica,sans-Serif" font-size="10.00">_divmod</text>
</a>
</g>
</g>
<!-- Node2&#45;&gt;Node3 -->
<g id="edge2_Node000002_Node000003" class="edge">
<title>Node2&#45;&gt;Node3</title>
<g id="a_edge2_Node000002_Node000003"><a xlink:title=" ">
<path fill="none" stroke="#63b8ff" d="M173.34,-77C181.16,-77 189.43,-77 197.28,-77"/>
<polygon fill="#63b8ff" stroke="#63b8ff" points="197.24,-80.5 207.24,-77 197.24,-73.5 197.24,-80.5"/>
</a>
</g>
</g>
<!-- Node2&#45;&gt;Node8 -->
<g id="edge13_Node000002_Node000008" class="edge">
<title>Node2&#45;&gt;Node8</title>
<g id="a_edge13_Node000002_Node000008"><a xlink:title=" ">
<path fill="none" stroke="#63b8ff" d="M151.54,-67.06C182.88,-46.46 260.18,-1 332.12,-1 643.75,0 643.75,0 437.12,-1 496.94,-1 562.9,-28.07 598.68,-45.23"/>
<polygon fill="#63b8ff" stroke="#63b8ff" points="596.9,-48.25 607.42,-49.52 599.99,-41.97 596.9,-48.25"/>
</a>
</g>
</g>
<!-- Node4 -->
<g id="Node000004" class="node">
<title>Node4</title>
<g id="a_Node000004"><a xlink:href="panic_8c.html#ac3d3e7674c5f1ad62a44afce2ff9a0ca" target="_top" xlink:title="Print a panic message and halt the CPU.">
<polygon fill="white" stroke="#666666" points="368.5,-86.62 297.75,-86.62 297.75,-67.38 368.5,-67.38 368.5,-86.62"/>
<text xml:space="preserve" text-anchor="middle" x="333.12" y="-73.12" font-family="Helvetica,sans-Serif" font-size="10.00">kernel_panic</text>
</a>
</g>
</g>
<!-- Node3&#45;&gt;Node4 -->
<g id="edge3_Node000003_Node000004" class="edge">
<title>Node3&#45;&gt;Node4</title>
<g id="a_edge3_Node000003_Node000004"><a xlink:title=" ">
<path fill="none" stroke="#63b8ff" d="M262.03,-77C269.41,-77 277.7,-77 285.92,-77"/>
<polygon fill="#63b8ff" stroke="#63b8ff" points="285.88,-80.5 295.88,-77 285.88,-73.5 285.88,-80.5"/>
</a>
</g>
</g>
<!-- Node5 -->
<g id="Node000005" class="node">
<title>Node5</title>
<g id="a_Node000005"><a xlink:href="panic_8c.html#a830ea0b31f5cecec34c74c8a4c2f8192" target="_top" xlink:title="Halt the CPU indefinitely.">
<polygon fill="white" stroke="#666666" points="467.75,-86.62 404.5,-86.62 404.5,-67.38 467.75,-67.38 467.75,-86.62"/>
<text xml:space="preserve" text-anchor="middle" x="436.12" y="-73.12" font-family="Helvetica,sans-Serif" font-size="10.00">kernel_halt</text>
</a>
</g>
</g>
<!-- Node4&#45;&gt;Node5 -->
<g id="edge4_Node000004_Node000005" class="edge">
<title>Node4&#45;&gt;Node5</title>
<g id="a_edge4_Node000004_Node000005"><a xlink:title=" ">
<path fill="none" stroke="#63b8ff" d="M368.88,-77C376.55,-77 384.76,-77 392.69,-77"/>
<polygon fill="#63b8ff" stroke="#63b8ff" points="392.51,-80.5 402.51,-77 392.51,-73.5 392.51,-80.5"/>
</a>
</g>
</g>
<!-- Node6 -->
<g id="Node000006" class="node">
<title>Node6</title>
<g id="a_Node000006"><a xlink:href="printf_8c.html#a0aff7311d684a0e0ef33125616a73385" target="_top" xlink:title="Kernel printf implementation using UART output.">
<polygon fill="white" stroke="#666666" points="455,-49.62 417.25,-49.62 417.25,-30.38 455,-30.38 455,-49.62"/>
<text xml:space="preserve" text-anchor="middle" x="436.12" y="-36.12" font-family="Helvetica,sans-Serif" font-size="10.00">printf</text>
</a>
</g>
</g>
<!-- Node4&#45;&gt;Node6 -->
<g id="edge5_Node000004_Node000006" class="edge">
<title>Node4&#45;&gt;Node6</title>
<g id="a_edge5_Node000004_Node000006"><a xlink:title=" ">
<path fill="none" stroke="#63b8ff" d="M361.72,-66.89C375.55,-61.82 392.28,-55.7 406.28,-50.57"/>
<polygon fill="#63b8ff" stroke="#63b8ff" points="407.2,-53.96 415.38,-47.23 404.79,-47.39 407.2,-53.96"/>
</a>
</g>
</g>
<!-- Node6&#45;&gt;Node2 -->
<g id="edge9_Node000006_Node000002" class="edge">
<title>Node6&#45;&gt;Node2</title>
<g id="a_edge9_Node000006_Node000002"><a xlink:title=" ">
<path fill="none" stroke="#63b8ff" d="M416.82,-40.35C378.16,-41.33 285.48,-44.96 209,-58 199.86,-59.56 190.2,-61.74 181.02,-64.07"/>
<polygon fill="#63b8ff" stroke="#63b8ff" points="180.37,-60.62 171.6,-66.56 182.16,-67.38 180.37,-60.62"/>
</a>
</g>
</g>
<!-- Node7 -->
<g id="Node000007" class="node">
<title>Node7</title>
<g id="a_Node000007"><a xlink:href="printf_8c.html#ac3154a3597888cf112e4e7bf6a5f1846" target="_top" xlink:title="Format and print an integer based on format control.">
<polygon fill="white" stroke="#666666" points="573,-124.62 503.75,-124.62 503.75,-105.38 573,-105.38 573,-124.62"/>
<text xml:space="preserve" text-anchor="middle" x="538.38" y="-111.12" font-family="Helvetica,sans-Serif" font-size="10.00">put_integers</text>
</a>
</g>
</g>
<!-- Node6&#45;&gt;Node7 -->
<g id="edge6_Node000006_Node000007" class="edge">
<title>Node6&#45;&gt;Node7</title>
<g id="a_edge6_Node000006_Node000007"><a xlink:title=" ">
<path fill="none" stroke="#63b8ff" d="M455.2,-49.44C459.48,-51.99 463.91,-54.9 467.75,-58 486.12,-72.8 485.09,-82.57 503.75,-97 504.69,-97.73 505.67,-98.44 506.67,-99.15"/>
<polygon fill="#63b8ff" stroke="#63b8ff" points="504.45,-101.89 514.79,-104.19 508.15,-95.94 504.45,-101.89"/>
</a>
</g>
</g>
<!-- Node6&#45;&gt;Node8 -->
<g id="edge10_Node000006_Node000008" class="edge">
<title>Node6&#45;&gt;Node8</title>
<g id="a_edge10_Node000006_Node000008"><a xlink:title=" ">
<path fill="none" stroke="#63b8ff" d="M455.18,-41.82C488.13,-45.15 558.25,-52.22 597.42,-56.18"/>
<polygon fill="#63b8ff" stroke="#63b8ff" points="596.93,-59.65 607.23,-57.17 597.63,-52.68 596.93,-59.65"/>
</a>
</g>
</g>
<!-- Node9 -->
<g id="Node000009" class="node">
<title>Node9</title>
<g id="a_Node000009"><a xlink:href="printf_8c.html#a299d0f9cb9e7b14e1278a4ed21e4d76f" target="_top" xlink:title="Transmit a null&#45;terminated string.">
<polygon fill="white" stroke="#666666" points="555.75,-87.62 521,-87.62 521,-68.38 555.75,-68.38 555.75,-87.62"/>
<text xml:space="preserve" text-anchor="middle" x="538.38" y="-74.12" font-family="Helvetica,sans-Serif" font-size="10.00">puts</text>
</a>
</g>
</g>
<!-- Node6&#45;&gt;Node9 -->
<g id="edge11_Node000006_Node000009" class="edge">
<title>Node6&#45;&gt;Node9</title>
<g id="a_edge11_Node000006_Node000009"><a xlink:title=" ">
<path fill="none" stroke="#63b8ff" d="M455.05,-46.79C470.29,-52.57 492.43,-60.96 509.91,-67.59"/>
<polygon fill="#63b8ff" stroke="#63b8ff" points="508.6,-70.84 519.19,-71.11 511.08,-64.29 508.6,-70.84"/>
</a>
</g>
</g>
<!-- Node7&#45;&gt;Node1 -->
<g id="edge7_Node000007_Node000001" class="edge">
<title>Node7&#45;&gt;Node1</title>
<g id="a_edge7_Node000007_Node000001"><a xlink:title=" ">
<path fill="none" stroke="#63b8ff" d="M504.28,-125.08C464.35,-136.34 394.97,-153 334.12,-153 643.75,0 643.75,0 234.38,-153 179.38,-153 115.96,-153 75.13,-153"/>
<polygon fill="#63b8ff" stroke="#63b8ff" points="75.24,-149.5 65.24,-153 75.24,-156.5 75.24,-149.5"/>
</a>
</g>
</g>
<!-- Node7&#45;&gt;Node2 -->
<g id="edge8_Node000007_Node000002" class="edge">
<title>Node7&#45;&gt;Node2</title>
<g id="a_edge8_Node000007_Node000002"><a xlink:title=" ">
<path fill="none" stroke="#63b8ff" d="M503.57,-115.27C443.77,-115.25 315.58,-112.99 209,-96 199.76,-94.53 189.98,-92.36 180.72,-90.02"/>
<polygon fill="#63b8ff" stroke="#63b8ff" points="181.77,-86.68 171.21,-87.49 179.98,-93.44 181.77,-86.68"/>
</a>
</g>
</g>
<!-- Node9&#45;&gt;Node8 -->
<g id="edge12_Node000009_Node000008" class="edge">
<title>Node9&#45;&gt;Node8</title>
<g id="a_edge12_Node000009_Node000008"><a xlink:title=" ">
<path fill="none" stroke="#63b8ff" d="M555.96,-74.34C567.78,-71.72 583.95,-68.15 597.71,-65.11"/>
<polygon fill="#63b8ff" stroke="#63b8ff" points="598.06,-68.62 607.07,-63.04 596.55,-61.78 598.06,-68.62"/>
</a>
</g>
</g>
</g>
</svg>
