<?xml version="1.0" encoding="UTF-8" standalone="no"?>
<!DOCTYPE svg PUBLIC "-//W3C//DTD SVG 1.1//EN"
 "http://www.w3.org/Graphics/SVG/1.1/DTD/svg11.dtd">
<!-- Generated by graphviz version 14.0.0 (20250921.2048)
 -->
<!-- Title: putc Pages: 1 -->
<svg width="800pt" height="548pt"
 viewBox="0.00 0.00 800.00 548.00" xmlns="http://www.w3.org/2000/svg" xmlns:xlink="http://www.w3.org/1999/xlink">
<g id="graph0" class="graph" transform="scale(1 1) rotate(0) translate(4 544.03)">
<title>putc</title>
<!-- Node1 -->
<g id="Node000001" class="node">
<title>Node1</title>
<g id="a_Node000001"><a xlink:title="Send a single character over UART, waiting if the FIFO is full.">
<polygon fill="#999999" stroke="#666666" points="791.75,-200.03 757,-200.03 757,-180.78 791.75,-180.78 791.75,-200.03"/>
<text xml:space="preserve" text-anchor="middle" x="774.38" y="-186.53" font-family="Helvetica,sans-Serif" font-size="10.00">putc</text>
</a>
</g>
</g>
<!-- Node2 -->
<g id="Node000002" class="node">
<title>Node2</title>
<g id="a_Node000002"><a xlink:href="printf_8c.html#a7880ed31ba841d890680635d6b83fcb7" target="_top" xlink:title="Read a line of text from UART with basic editing support.">
<polygon fill="white" stroke="#666666" points="512.75,-48.03 463,-48.03 463,-28.78 512.75,-28.78 512.75,-48.03"/>
<text xml:space="preserve" text-anchor="middle" x="487.88" y="-34.53" font-family="Helvetica,sans-Serif" font-size="10.00">getlines</text>
</a>
</g>
</g>
<!-- Node1&#45;&gt;Node2 -->
<g id="edge1_Node000001_Node000002" class="edge">
<title>Node1&#45;&gt;Node2</title>
<g id="a_edge1_Node000001_Node000002"><a xlink:title=" ">
<path fill="none" stroke="#63b8ff" d="M765.58,-170.04C750.2,-133.4 711.97,-58.05 650.25,-35.4 604.08,-18.46 545.37,-26.16 513.02,-32.67"/>
<polygon fill="#63b8ff" stroke="#63b8ff" points="762.23,-171.09 769.21,-179.06 768.72,-168.47 762.23,-171.09"/>
</a>
</g>
</g>
<!-- Node4 -->
<g id="Node000004" class="node">
<title>Node4</title>
<g id="a_Node000004"><a xlink:href="printf_8c.html#a0aff7311d684a0e0ef33125616a73385" target="_top" xlink:title="Kernel printf implementation using UART output.">
<polygon fill="white" stroke="#666666" points="624.38,-200.03 586.62,-200.03 586.62,-180.78 624.38,-180.78 624.38,-200.03"/>
<text xml:space="preserve" text-anchor="middle" x="605.5" y="-186.53" font-family="Helvetica,sans-Serif" font-size="10.00">printf</text>
</a>
</g>
</g>
<!-- Node1&#45;&gt;Node4 -->
<g id="edge3_Node000001_Node000004" class="edge">
<title>Node1&#45;&gt;Node4</title>
<g id="a_edge3_Node000001_Node000004"><a xlink:title=" ">
<path fill="none" stroke="#63b8ff" d="M745.69,-190.4C711.43,-190.4 654.04,-190.4 624.81,-190.4"/>
<polygon fill="#63b8ff" stroke="#63b8ff" points="745.25,-193.9 755.25,-190.4 745.25,-186.9 745.25,-193.9"/>
</a>
</g>
</g>
<!-- Node10 -->
<g id="Node000010" class="node">
<title>Node10</title>
<g id="a_Node000010"><a xlink:href="printf_8c.html#ab97c3c9e783c1402d4007ceafdb197c1" target="_top" xlink:title="Print an unsigned integer in the given base.">
<polygon fill="white" stroke="#666666" points="294.75,-464.03 221,-464.03 221,-444.78 294.75,-444.78 294.75,-464.03"/>
<text xml:space="preserve" text-anchor="middle" x="257.88" y="-450.53" font-family="Helvetica,sans-Serif" font-size="10.00">put_unsigned</text>
</a>
</g>
</g>
<!-- Node1&#45;&gt;Node10 -->
<g id="edge28_Node000001_Node000010" class="edge">
<title>Node1&#45;&gt;Node10</title>
<g id="a_edge28_Node000001_Node000010"><a xlink:title=" ">
<path fill="none" stroke="#63b8ff" d="M770.39,-211.62C760.25,-274.32 721.14,-454.4 606.5,-454.4 0,-114.4 0,-114.4 486.88,-454.4 419.19,-454.4 340.2,-454.4 295.2,-454.4"/>
<polygon fill="#63b8ff" stroke="#63b8ff" points="773.82,-212.34 771.86,-201.92 766.9,-211.29 773.82,-212.34"/>
</a>
</g>
</g>
<!-- Node12 -->
<g id="Node000012" class="node">
<title>Node12</title>
<g id="a_Node000012"><a xlink:href="printf_8c.html#a2e8c688dfa078a9a7f1f02d4126f466a" target="_top" xlink:title="Print a signed integer in decimal form.">
<polygon fill="white" stroke="#666666" points="168.5,-540.03 105.25,-540.03 105.25,-520.78 168.5,-520.78 168.5,-540.03"/>
<text xml:space="preserve" text-anchor="middle" x="136.88" y="-526.53" font-family="Helvetica,sans-Serif" font-size="10.00">put_signed</text>
</a>
</g>
</g>
<!-- Node1&#45;&gt;Node12 -->
<g id="edge27_Node000001_Node000012" class="edge">
<title>Node1&#45;&gt;Node12</title>
<g id="a_edge27_Node000001_Node000012"><a xlink:title=" ">
<path fill="none" stroke="#63b8ff" d="M772.87,-211.7C769.87,-286.16 749.17,-530.4 606.5,-530.4 0,-114.4 0,-114.4 380.12,-530.4 304.21,-530.4 214.92,-530.4 168.85,-530.4"/>
<polygon fill="#63b8ff" stroke="#63b8ff" points="776.37,-211.83 773.19,-201.72 769.37,-211.6 776.37,-211.83"/>
</a>
</g>
</g>
<!-- Node18 -->
<g id="Node000018" class="node">
<title>Node18</title>
<g id="a_Node000018"><a xlink:href="printf_8c.html#a299d0f9cb9e7b14e1278a4ed21e4d76f" target="_top" xlink:title="Transmit a null&#45;terminated string.">
<polygon fill="white" stroke="#666666" points="721,-124.03 686.25,-124.03 686.25,-104.78 721,-104.78 721,-124.03"/>
<text xml:space="preserve" text-anchor="middle" x="703.62" y="-110.53" font-family="Helvetica,sans-Serif" font-size="10.00">puts</text>
</a>
</g>
</g>
<!-- Node1&#45;&gt;Node18 -->
<g id="edge29_Node000001_Node000018" class="edge">
<title>Node1&#45;&gt;Node18</title>
<g id="a_edge29_Node000001_Node000018"><a xlink:title=" ">
<path fill="none" stroke="#63b8ff" d="M756.66,-171.93C743.02,-156.84 724.27,-136.11 713.4,-124.1"/>
<polygon fill="#63b8ff" stroke="#63b8ff" points="754.07,-174.27 763.37,-179.34 759.26,-169.58 754.07,-174.27"/>
</a>
</g>
</g>
<!-- Node3 -->
<g id="Node000003" class="node">
<title>Node3</title>
<g id="a_Node000003"><a xlink:href="kernel_8c.html#a6b8fb674fb359f6ae53dc9c4fb7fc6be" target="_top" xlink:title=" ">
<polygon fill="white" stroke="#666666" points="292.12,-124.03 223.62,-124.03 223.62,-104.78 292.12,-104.78 292.12,-124.03"/>
<text xml:space="preserve" text-anchor="middle" x="257.88" y="-110.53" font-family="Helvetica,sans-Serif" font-size="10.00">kernel_main</text>
</a>
</g>
</g>
<!-- Node2&#45;&gt;Node3 -->
<g id="edge2_Node000002_Node000003" class="edge">
<title>Node2&#45;&gt;Node3</title>
<g id="a_edge2_Node000002_Node000003"><a xlink:title=" ">
<path fill="none" stroke="#63b8ff" d="M452.04,-50.01C407.5,-64.86 331.11,-90.32 288.98,-104.37"/>
<polygon fill="#63b8ff" stroke="#63b8ff" points="453.09,-53.35 461.47,-46.87 450.88,-46.71 453.09,-53.35"/>
</a>
</g>
</g>
<!-- Node4&#45;&gt;Node2 -->
<g id="edge6_Node000004_Node000002" class="edge">
<title>Node4&#45;&gt;Node2</title>
<g id="a_edge6_Node000004_Node000002"><a xlink:title=" ">
<path fill="none" stroke="#63b8ff" d="M589.96,-171.53C581.43,-160.44 570.46,-146.14 560.75,-133.4 537.18,-102.48 509.47,-65.74 496.41,-48.4"/>
<polygon fill="#63b8ff" stroke="#63b8ff" points="586.94,-173.34 595.81,-179.13 592.49,-169.07 586.94,-173.34"/>
</a>
</g>
</g>
<!-- Node4&#45;&gt;Node3 -->
<g id="edge9_Node000004_Node000003" class="edge">
<title>Node4&#45;&gt;Node3</title>
<g id="a_edge9_Node000004_Node000003"><a xlink:title=" ">
<path fill="none" stroke="#63b8ff" d="M575.36,-182.07C538.31,-171.67 472.25,-153.73 415,-141.4 373.05,-132.37 324.25,-124.32 292.53,-119.41"/>
<polygon fill="#63b8ff" stroke="#63b8ff" points="574.29,-185.41 584.87,-184.76 576.2,-178.67 574.29,-185.41"/>
</a>
</g>
</g>
<!-- Node5 -->
<g id="Node000005" class="node">
<title>Node5</title>
<g id="a_Node000005"><a xlink:href="clear_8c.html#ae683fe63c33c388e9ba1c6392dd477eb" target="_top" xlink:title="Clears the terminal screen and moves the cursor to the home position.">
<polygon fill="white" stroke="#666666" points="506.38,-200.03 469.38,-200.03 469.38,-180.78 506.38,-180.78 506.38,-200.03"/>
<text xml:space="preserve" text-anchor="middle" x="487.88" y="-186.53" font-family="Helvetica,sans-Serif" font-size="10.00">clear</text>
</a>
</g>
</g>
<!-- Node4&#45;&gt;Node5 -->
<g id="edge4_Node000004_Node000005" class="edge">
<title>Node4&#45;&gt;Node5</title>
<g id="a_edge4_Node000004_Node000005"><a xlink:title=" ">
<path fill="none" stroke="#63b8ff" d="M574.73,-190.4C553.21,-190.4 524.85,-190.4 506.73,-190.4"/>
<polygon fill="#63b8ff" stroke="#63b8ff" points="574.67,-193.9 584.67,-190.4 574.67,-186.9 574.67,-193.9"/>
</a>
</g>
</g>
<!-- Node6 -->
<g id="Node000006" class="node">
<title>Node6</title>
<g id="a_Node000006"><a xlink:href="kernel_8c.html#a5f7f5591859a697cdeb5faafdf0ce822" target="_top" xlink:title=" ">
<polygon fill="white" stroke="#666666" points="524.75,-124.03 451,-124.03 451,-104.78 524.75,-104.78 524.75,-124.03"/>
<text xml:space="preserve" text-anchor="middle" x="487.88" y="-110.53" font-family="Helvetica,sans-Serif" font-size="10.00">init_message</text>
</a>
</g>
</g>
<!-- Node4&#45;&gt;Node6 -->
<g id="edge7_Node000004_Node000006" class="edge">
<title>Node4&#45;&gt;Node6</title>
<g id="a_edge7_Node000004_Node000006"><a xlink:title=" ">
<path fill="none" stroke="#63b8ff" d="M576.39,-175.85C571.11,-172.87 565.69,-169.65 560.75,-166.4 543.81,-155.27 541.18,-150.27 524.75,-138.4 518.19,-133.66 510.78,-128.65 504.4,-124.44"/>
<polygon fill="#63b8ff" stroke="#63b8ff" points="574.46,-178.78 584.91,-180.5 577.81,-172.63 574.46,-178.78"/>
</a>
</g>
</g>
<!-- Node7 -->
<g id="Node000007" class="node">
<title>Node7</title>
<g id="a_Node000007"><a xlink:href="panic_8c.html#ac3d3e7674c5f1ad62a44afce2ff9a0ca" target="_top" xlink:title="Print a panic message and halt the CPU.">
<polygon fill="white" stroke="#666666" points="523.25,-256.03 452.5,-256.03 452.5,-236.78 523.25,-236.78 523.25,-256.03"/>
<text xml:space="preserve" text-anchor="middle" x="487.88" y="-242.53" font-family="Helvetica,sans-Serif" font-size="10.00">kernel_panic</text>
</a>
</g>
</g>
<!-- Node4&#45;&gt;Node7 -->
<g id="edge10_Node000004_Node000007" class="edge">
<title>Node4&#45;&gt;Node7</title>
<g id="a_edge10_Node000004_Node000007"><a xlink:title=" ">
<path fill="none" stroke="#63b8ff" d="M576.09,-204.16C555.45,-214.16 528,-227.45 509.45,-236.44"/>
<polygon fill="#63b8ff" stroke="#63b8ff" points="577.34,-207.44 584.82,-199.93 574.29,-201.14 577.34,-207.44"/>
</a>
</g>
</g>
<!-- Node15 -->
<g id="Node000015" class="node">
<title>Node15</title>
<g id="a_Node000015"><a xlink:href="kernel_8c.html#a8a11654fcf5bd5fcf10f118ad5f79904" target="_top" xlink:title=" ">
<polygon fill="white" stroke="#666666" points="164.75,-257.03 109,-257.03 109,-237.78 164.75,-237.78 164.75,-257.03"/>
<text xml:space="preserve" text-anchor="middle" x="136.88" y="-243.53" font-family="Helvetica,sans-Serif" font-size="10.00">not_main</text>
</a>
</g>
</g>
<!-- Node4&#45;&gt;Node15 -->
<g id="edge26_Node000004_Node000015" class="edge">
<title>Node4&#45;&gt;Node15</title>
<g id="a_edge26_Node000004_Node000015"><a xlink:title=" ">
<path fill="none" stroke="#63b8ff" d="M591.31,-209.23C563.74,-246.69 495.84,-329.51 415,-359.4 309.38,-398.45 183.7,-290.82 147.86,-257.13"/>
<polygon fill="#63b8ff" stroke="#63b8ff" points="593.82,-211.73 596.83,-201.57 588.14,-207.64 593.82,-211.73"/>
</a>
</g>
</g>
<!-- Node5&#45;&gt;Node3 -->
<g id="edge5_Node000005_Node000003" class="edge">
<title>Node5&#45;&gt;Node3</title>
<g id="a_edge5_Node000005_Node000003"><a xlink:title=" ">
<path fill="none" stroke="#63b8ff" d="M458.09,-180.81C414.76,-166.36 333.17,-139.16 289.04,-124.46"/>
<polygon fill="#63b8ff" stroke="#63b8ff" points="456.95,-184.12 467.55,-183.96 459.17,-177.48 456.95,-184.12"/>
</a>
</g>
</g>
<!-- Node6&#45;&gt;Node3 -->
<g id="edge8_Node000006_Node000003" class="edge">
<title>Node6&#45;&gt;Node3</title>
<g id="a_edge8_Node000006_Node000003"><a xlink:title=" ">
<path fill="none" stroke="#63b8ff" d="M439.33,-103.81C431.25,-102.39 422.91,-101.16 415,-100.4 385.03,-97.51 377.27,-98.04 347.25,-100.4 328.98,-101.84 308.77,-104.93 292.3,-107.84"/>
<polygon fill="#63b8ff" stroke="#63b8ff" points="438.55,-107.22 449.02,-105.63 439.84,-100.34 438.55,-107.22"/>
</a>
</g>
</g>
<!-- Node8 -->
<g id="Node000008" class="node">
<title>Node8</title>
<g id="a_Node000008"><a xlink:href="printf_8c.html#a694b6d27273027eb96424e52b798c391" target="_top" xlink:title=" ">
<polygon fill="white" stroke="#666666" points="400.75,-313.03 361.5,-313.03 361.5,-293.78 400.75,-293.78 400.75,-313.03"/>
<text xml:space="preserve" text-anchor="middle" x="381.12" y="-299.53" font-family="Helvetica,sans-Serif" font-size="10.00">_bdiv</text>
</a>
</g>
</g>
<!-- Node7&#45;&gt;Node8 -->
<g id="edge11_Node000007_Node000008" class="edge">
<title>Node7&#45;&gt;Node8</title>
<g id="a_edge11_Node000007_Node000008"><a xlink:title=" ">
<path fill="none" stroke="#63b8ff" d="M458.71,-261.73C440.23,-271.78 416.61,-284.64 400.51,-293.39"/>
<polygon fill="#63b8ff" stroke="#63b8ff" points="460.19,-264.91 467.3,-257.05 456.84,-258.76 460.19,-264.91"/>
</a>
</g>
</g>
<!-- Node9 -->
<g id="Node000009" class="node">
<title>Node9</title>
<g id="a_Node000009"><a xlink:href="printf_8c.html#a96a30e819fcbfa9a0251f71f14ff79bc" target="_top" xlink:title="Perform division and return quotient and remainder.">
<polygon fill="white" stroke="#666666" points="407.5,-350.03 354.75,-350.03 354.75,-330.78 407.5,-330.78 407.5,-350.03"/>
<text xml:space="preserve" text-anchor="middle" x="381.12" y="-336.53" font-family="Helvetica,sans-Serif" font-size="10.00">_divmod</text>
</a>
</g>
</g>
<!-- Node7&#45;&gt;Node9 -->
<g id="edge12_Node000007_Node000009" class="edge">
<title>Node7&#45;&gt;Node9</title>
<g id="a_edge12_Node000007_Node000009"><a xlink:title=" ">
<path fill="none" stroke="#63b8ff" d="M472.01,-265.17C458.37,-281.6 437,-305.43 415,-322.4 411.29,-325.26 407.07,-327.94 402.91,-330.31"/>
<polygon fill="#63b8ff" stroke="#63b8ff" points="474.54,-267.6 478.14,-257.64 469.11,-263.19 474.54,-267.6"/>
</a>
</g>
</g>
<!-- Node13 -->
<g id="Node000013" class="node">
<title>Node13</title>
<g id="a_Node000013"><a xlink:href="math_8h.html#a97fbf4adb8a31d415775bdbd5c30c468" target="_top" xlink:title="Unsigned 32&#45;bit integer division: n / d.">
<polygon fill="white" stroke="#666666" points="406,-237.03 356.25,-237.03 356.25,-217.78 406,-217.78 406,-237.03"/>
<text xml:space="preserve" text-anchor="middle" x="381.12" y="-223.53" font-family="Helvetica,sans-Serif" font-size="10.00">_udiv32</text>
</a>
</g>
</g>
<!-- Node7&#45;&gt;Node13 -->
<g id="edge19_Node000007_Node000013" class="edge">
<title>Node7&#45;&gt;Node13</title>
<g id="a_edge19_Node000007_Node000013"><a xlink:title=" ">
<path fill="none" stroke="#63b8ff" d="M441.07,-238.09C429.13,-235.93 416.74,-233.68 406.41,-231.81"/>
<polygon fill="#63b8ff" stroke="#63b8ff" points="440.33,-241.52 450.8,-239.86 441.58,-234.63 440.33,-241.52"/>
</a>
</g>
</g>
<!-- Node16 -->
<g id="Node000016" class="node">
<title>Node16</title>
<g id="a_Node000016"><a xlink:href="memory_8c.html#a87d8585002a620e687d68b38ab387a0e" target="_top" xlink:title=" ">
<polygon fill="white" stroke="#666666" points="282.75,-275.03 233,-275.03 233,-255.78 282.75,-255.78 282.75,-275.03"/>
<text xml:space="preserve" text-anchor="middle" x="257.88" y="-261.53" font-family="Helvetica,sans-Serif" font-size="10.00">kmalloc</text>
</a>
</g>
</g>
<!-- Node7&#45;&gt;Node16 -->
<g id="edge22_Node000007_Node000016" class="edge">
<title>Node7&#45;&gt;Node16</title>
<g id="a_edge22_Node000007_Node000016"><a xlink:title=" ">
<path fill="none" stroke="#63b8ff" d="M440.99,-250.22C393.28,-254.2 320.43,-260.27 282.97,-263.39"/>
<polygon fill="#63b8ff" stroke="#63b8ff" points="441.06,-253.73 450.74,-249.41 440.48,-246.75 441.06,-253.73"/>
</a>
</g>
</g>
<!-- Node17 -->
<g id="Node000017" class="node">
<title>Node17</title>
<g id="a_Node000017"><a xlink:href="memory_8c.html#ae8d09a66c8495a0c2ff5c54f1309fd6a" target="_top" xlink:title=" ">
<polygon fill="white" stroke="#666666" points="415,-200.03 347.25,-200.03 347.25,-180.78 415,-180.78 415,-200.03"/>
<text xml:space="preserve" text-anchor="middle" x="381.12" y="-186.53" font-family="Helvetica,sans-Serif" font-size="10.00">kmalloc_init</text>
</a>
</g>
</g>
<!-- Node7&#45;&gt;Node17 -->
<g id="edge24_Node000007_Node000017" class="edge">
<title>Node7&#45;&gt;Node17</title>
<g id="a_edge24_Node000007_Node000017"><a xlink:title=" ">
<path fill="none" stroke="#63b8ff" d="M458.09,-231.01C439.91,-221.29 416.94,-209.01 401.04,-200.51"/>
<polygon fill="#63b8ff" stroke="#63b8ff" points="456.34,-234.05 466.81,-235.68 459.64,-227.87 456.34,-234.05"/>
</a>
</g>
</g>
<!-- Node9&#45;&gt;Node10 -->
<g id="edge13_Node000009_Node000010" class="edge">
<title>Node9&#45;&gt;Node10</title>
<g id="a_edge13_Node000009_Node000010"><a xlink:title=" ">
<path fill="none" stroke="#63b8ff" d="M361.11,-358.28C335.26,-382.58 289.91,-425.22 269.44,-444.47"/>
<polygon fill="#63b8ff" stroke="#63b8ff" points="363.37,-360.95 368.26,-351.55 358.58,-355.85 363.37,-360.95"/>
</a>
</g>
</g>
<!-- Node10&#45;&gt;Node4 -->
<g id="edge14_Node000010_Node000004" class="edge">
<title>Node10&#45;&gt;Node4</title>
<g id="a_edge14_Node000010_Node000004"><a xlink:title=" ">
<path fill="none" stroke="#63b8ff" d="M306.05,-445.86C377.9,-432.48 508.23,-406.66 524.75,-392.4 586.12,-339.44 600.66,-232.96 603.74,-200.21"/>
<polygon fill="#63b8ff" stroke="#63b8ff" points="305.73,-442.36 296.53,-447.62 307,-449.24 305.73,-442.36"/>
</a>
</g>
</g>
<!-- Node11 -->
<g id="Node000011" class="node">
<title>Node11</title>
<g id="a_Node000011"><a xlink:href="printf_8c.html#ac3154a3597888cf112e4e7bf6a5f1846" target="_top" xlink:title="Format and print an integer based on format control.">
<polygon fill="white" stroke="#666666" points="69.25,-502.03 0,-502.03 0,-482.78 69.25,-482.78 69.25,-502.03"/>
<text xml:space="preserve" text-anchor="middle" x="34.62" y="-488.53" font-family="Helvetica,sans-Serif" font-size="10.00">put_integers</text>
</a>
</g>
</g>
<!-- Node10&#45;&gt;Node11 -->
<g id="edge15_Node000010_Node000011" class="edge">
<title>Node10&#45;&gt;Node11</title>
<g id="a_edge15_Node000010_Node000011"><a xlink:title=" ">
<path fill="none" stroke="#63b8ff" d="M209.27,-461.42C179.36,-465.96 139.99,-472.16 105.25,-478.4 93.6,-480.49 80.9,-482.98 69.57,-485.28"/>
<polygon fill="#63b8ff" stroke="#63b8ff" points="209.79,-464.88 219.16,-459.93 208.75,-457.96 209.79,-464.88"/>
</a>
</g>
</g>
<!-- Node10&#45;&gt;Node12 -->
<g id="edge17_Node000010_Node000012" class="edge">
<title>Node10&#45;&gt;Node12</title>
<g id="a_edge17_Node000010_Node000012"><a xlink:title=" ">
<path fill="none" stroke="#63b8ff" d="M231.93,-470.33C208.25,-485.46 173.39,-507.72 153.44,-520.46"/>
<polygon fill="#63b8ff" stroke="#63b8ff" points="233.5,-473.48 240.04,-465.15 229.73,-467.58 233.5,-473.48"/>
</a>
</g>
</g>
<!-- Node11&#45;&gt;Node4 -->
<g id="edge16_Node000011_Node000004" class="edge">
<title>Node11&#45;&gt;Node4</title>
<g id="a_edge16_Node000011_Node000004"><a xlink:title=" ">
<path fill="none" stroke="#63b8ff" d="M81.09,-492.4C125.82,-492.4 196.05,-492.4 256.88,-492.4 0,-114.4 0,-114.4 382.12,-492.4 453.54,-492.4 477.97,-472.36 524.75,-418.4 584.09,-349.96 600.07,-234.7 603.61,-200.35"/>
<polygon fill="#63b8ff" stroke="#63b8ff" points="81.25,-488.9 71.25,-492.4 81.25,-495.9 81.25,-488.9"/>
</a>
</g>
</g>
<!-- Node12&#45;&gt;Node11 -->
<g id="edge18_Node000012_Node000011" class="edge">
<title>Node12&#45;&gt;Node11</title>
<g id="a_edge18_Node000012_Node000011"><a xlink:title=" ">
<path fill="none" stroke="#63b8ff" d="M98.52,-516.24C86.38,-511.64 73.17,-506.63 62,-502.4"/>
<polygon fill="#63b8ff" stroke="#63b8ff" points="97.27,-519.51 107.86,-519.78 99.75,-512.96 97.27,-519.51"/>
</a>
</g>
</g>
<!-- Node14 -->
<g id="Node000014" class="node">
<title>Node14</title>
<g id="a_Node000014"><a xlink:href="interrupt_8c.html#a2a778647bb8df60e6c3238b29eb2fca2" target="_top" xlink:title="VersatilePB SP804 timer clock is typically 1 MHz (can be overridden)">
<polygon fill="white" stroke="#666666" points="311.25,-238.03 204.5,-238.03 204.5,-218.78 311.25,-218.78 311.25,-238.03"/>
<text xml:space="preserve" text-anchor="middle" x="257.88" y="-224.53" font-family="Helvetica,sans-Serif" font-size="10.00">interrupts_init_timer0</text>
</a>
</g>
</g>
<!-- Node13&#45;&gt;Node14 -->
<g id="edge20_Node000013_Node000014" class="edge">
<title>Node13&#45;&gt;Node14</title>
<g id="a_edge20_Node000013_Node000014"><a xlink:title=" ">
<path fill="none" stroke="#63b8ff" d="M344.44,-227.69C334.16,-227.78 322.72,-227.87 311.64,-227.97"/>
<polygon fill="#63b8ff" stroke="#63b8ff" points="344.4,-231.2 354.37,-227.61 344.34,-224.2 344.4,-231.2"/>
</a>
</g>
</g>
<!-- Node14&#45;&gt;Node15 -->
<g id="edge21_Node000014_Node000015" class="edge">
<title>Node14&#45;&gt;Node15</title>
<g id="a_edge21_Node000014_Node000015"><a xlink:title=" ">
<path fill="none" stroke="#63b8ff" d="M193.15,-238.58C183.25,-240.16 173.5,-241.71 165.02,-243.07"/>
<polygon fill="#63b8ff" stroke="#63b8ff" points="193.52,-242.06 202.84,-237.03 192.41,-235.15 193.52,-242.06"/>
</a>
</g>
</g>
<!-- Node16&#45;&gt;Node15 -->
<g id="edge23_Node000016_Node000015" class="edge">
<title>Node16&#45;&gt;Node15</title>
<g id="a_edge23_Node000016_Node000015"><a xlink:title=" ">
<path fill="none" stroke="#63b8ff" d="M221.27,-260.01C203.27,-257.29 181.78,-254.04 165.12,-251.52"/>
<polygon fill="#63b8ff" stroke="#63b8ff" points="220.6,-263.45 231.01,-261.49 221.65,-256.53 220.6,-263.45"/>
</a>
</g>
</g>
<!-- Node17&#45;&gt;Node3 -->
<g id="edge25_Node000017_Node000003" class="edge">
<title>Node17&#45;&gt;Node3</title>
<g id="a_edge25_Node000017_Node000003"><a xlink:title=" ">
<path fill="none" stroke="#63b8ff" d="M354.44,-174.3C330.29,-159.16 294.9,-136.98 274.66,-124.29"/>
<polygon fill="#63b8ff" stroke="#63b8ff" points="352.41,-177.16 362.74,-179.5 356.13,-171.23 352.41,-177.16"/>
</a>
</g>
</g>
<!-- Node18&#45;&gt;Node2 -->
<g id="edge30_Node000018_Node000002" class="edge">
<title>Node18&#45;&gt;Node2</title>
<g id="a_edge30_Node000018_Node000002"><a xlink:title=" ">
<path fill="none" stroke="#63b8ff" d="M688.81,-95.57C679.31,-84.06 665.64,-70.12 650.25,-62.4 605.69,-40.06 546.12,-37.09 513.25,-37.42"/>
<polygon fill="#63b8ff" stroke="#63b8ff" points="685.92,-97.55 694.84,-103.28 691.44,-93.24 685.92,-97.55"/>
</a>
</g>
</g>
<!-- Node18&#45;&gt;Node4 -->
<g id="edge35_Node000018_Node000004" class="edge">
<title>Node18&#45;&gt;Node4</title>
<g id="a_edge35_Node000018_Node000004"><a xlink:title=" ">
<path fill="none" stroke="#63b8ff" d="M686.38,-132.94C676.56,-143.5 663.43,-156.55 650.25,-166.4 642.34,-172.31 632.8,-177.72 624.65,-181.9"/>
<polygon fill="#63b8ff" stroke="#63b8ff" points="688.94,-135.33 693.06,-125.56 683.75,-130.63 688.94,-135.33"/>
</a>
</g>
</g>
<!-- Node18&#45;&gt;Node6 -->
<g id="edge31_Node000018_Node000006" class="edge">
<title>Node18&#45;&gt;Node6</title>
<g id="a_edge31_Node000018_Node000006"><a xlink:title=" ">
<path fill="none" stroke="#63b8ff" d="M675.49,-126.27C667.51,-129.2 658.67,-131.92 650.25,-133.4 611.07,-140.29 600.2,-138.53 560.75,-133.4 547.18,-131.64 532.53,-128.08 520.01,-124.51"/>
<polygon fill="#63b8ff" stroke="#63b8ff" points="676.63,-129.58 684.64,-122.65 674.06,-123.07 676.63,-129.58"/>
</a>
</g>
</g>
<!-- Node18&#45;&gt;Node15 -->
<g id="edge34_Node000018_Node000015" class="edge">
<title>Node18&#45;&gt;Node15</title>
<g id="a_edge34_Node000018_Node000015"><a xlink:title=" ">
<path fill="none" stroke="#63b8ff" d="M694.43,-93.92C686.06,-75.7 671.3,-49.79 650.25,-35.4 589.66,6.01 562.26,-0.4 488.88,-0.4 0,-114.4 0,-114.4 380.12,-0.4 291.38,-0.4 264.6,-30.11 204.5,-95.4 164.11,-139.28 145.48,-211.58 139.82,-237.65"/>
<polygon fill="#63b8ff" stroke="#63b8ff" points="691.14,-95.14 698.31,-102.94 697.57,-92.37 691.14,-95.14"/>
</a>
</g>
</g>
<!-- Node18&#45;&gt;Node17 -->
<g id="edge33_Node000018_Node000017" class="edge">
<title>Node18&#45;&gt;Node17</title>
<g id="a_edge33_Node000018_Node000017"><a xlink:title=" ">
<path fill="none" stroke="#63b8ff" d="M675.34,-103.53C627.11,-86.16 524.88,-57.71 451,-95.4 415.25,-113.64 393.74,-160.06 385.72,-180.49"/>
<polygon fill="#63b8ff" stroke="#63b8ff" points="673.85,-106.71 684.44,-106.93 676.3,-100.15 673.85,-106.71"/>
</a>
</g>
</g>
<!-- Node19 -->
<g id="Node000019" class="node">
<title>Node19</title>
<g id="a_Node000019"><a xlink:href="kernel_8c.html#a7e3f35a711eee12e3d4bbc0a276fcf0c" target="_top" xlink:title=" ">
<polygon fill="white" stroke="#666666" points="650.25,-124.03 560.75,-124.03 560.75,-104.78 650.25,-104.78 650.25,-124.03"/>
<text xml:space="preserve" text-anchor="middle" x="605.5" y="-110.53" font-family="Helvetica,sans-Serif" font-size="10.00">irq_sanity_check</text>
</a>
</g>
</g>
<!-- Node18&#45;&gt;Node19 -->
<g id="edge32_Node000018_Node000019" class="edge">
<title>Node18&#45;&gt;Node19</title>
<g id="a_edge32_Node000018_Node000019"><a xlink:title=" ">
<path fill="none" stroke="#63b8ff" d="M674.57,-114.4C667.09,-114.4 658.83,-114.4 650.72,-114.4"/>
<polygon fill="#63b8ff" stroke="#63b8ff" points="674.37,-117.9 684.37,-114.4 674.37,-110.9 674.37,-117.9"/>
</a>
</g>
</g>
</g>
</svg>
