<?xml version="1.0" encoding="UTF-8" standalone="no"?>
<!DOCTYPE svg PUBLIC "-//W3C//DTD SVG 1.1//EN"
 "http://www.w3.org/Graphics/SVG/1.1/DTD/svg11.dtd">
<!-- Generated by graphviz version 14.0.0 (20250921.2048)
 -->
<!-- Title: _puthexsmall Pages: 1 -->
<svg width="285pt" height="64pt"
 viewBox="0.00 0.00 285.00 64.00" xmlns="http://www.w3.org/2000/svg" xmlns:xlink="http://www.w3.org/1999/xlink">
<g id="graph0" class="graph" transform="scale(1 1) rotate(0) translate(4 60.25)">
<title>_puthexsmall</title>
<!-- Node1 -->
<g id="Node000001" class="node">
<title>Node1</title>
<g id="a_Node000001"><a xlink:title=" ">
<polygon fill="#999999" stroke="#666666" points="73.75,-37.25 0,-37.25 0,-18 73.75,-18 73.75,-37.25"/>
<text xml:space="preserve" text-anchor="middle" x="36.88" y="-23.75" font-family="Helvetica,sans-Serif" font-size="10.00">_puthexsmall</text>
</a>
</g>
</g>
<!-- Node2 -->
<g id="Node000002" class="node">
<title>Node2</title>
<g id="a_Node000002"><a xlink:href="printf_8c.html#a59d8819db32c6b5c7365aad05b0778b5" target="_top" xlink:title=" ">
<polygon fill="white" stroke="#666666" points="201.5,-37.25 109.75,-37.25 109.75,-18 201.5,-18 201.5,-37.25"/>
<text xml:space="preserve" text-anchor="middle" x="155.62" y="-23.75" font-family="Helvetica,sans-Serif" font-size="10.00">_putunsignedlong</text>
</a>
</g>
</g>
<!-- Node1&#45;&gt;Node2 -->
<g id="edge1_Node000001_Node000002" class="edge">
<title>Node1&#45;&gt;Node2</title>
<g id="a_edge1_Node000001_Node000002"><a xlink:title=" ">
<path fill="none" stroke="#63b8ff" d="M74.18,-27.62C81.73,-27.62 89.86,-27.62 97.95,-27.62"/>
<polygon fill="#63b8ff" stroke="#63b8ff" points="97.77,-31.13 107.77,-27.63 97.77,-24.13 97.77,-31.13"/>
</a>
</g>
</g>
<!-- Node3 -->
<g id="Node000003" class="node">
<title>Node3</title>
<g id="a_Node000003"><a xlink:href="printf_8c.html#a694b6d27273027eb96424e52b798c391" target="_top" xlink:title=" ">
<polygon fill="white" stroke="#666666" points="276.75,-56.25 237.5,-56.25 237.5,-37 276.75,-37 276.75,-56.25"/>
<text xml:space="preserve" text-anchor="middle" x="257.12" y="-42.75" font-family="Helvetica,sans-Serif" font-size="10.00">_bdiv</text>
</a>
</g>
</g>
<!-- Node2&#45;&gt;Node3 -->
<g id="edge2_Node000002_Node000003" class="edge">
<title>Node2&#45;&gt;Node3</title>
<g id="a_edge2_Node000002_Node000003"><a xlink:title=" ">
<path fill="none" stroke="#63b8ff" d="M201.72,-36.24C209.95,-37.81 218.36,-39.41 226.02,-40.88"/>
<polygon fill="#63b8ff" stroke="#63b8ff" points="225.36,-44.31 235.84,-42.75 226.67,-37.44 225.36,-44.31"/>
</a>
</g>
</g>
<!-- Node4 -->
<g id="Node000004" class="node">
<title>Node4</title>
<g id="a_Node000004"><a xlink:href="printf_8c.html#a9bdf0418571456c566aa2f329b5f8350" target="_top" xlink:title=" ">
<polygon fill="white" stroke="#666666" points="274.5,-19.25 239.75,-19.25 239.75,0 274.5,0 274.5,-19.25"/>
<text xml:space="preserve" text-anchor="middle" x="257.12" y="-5.75" font-family="Helvetica,sans-Serif" font-size="10.00">putc</text>
</a>
</g>
</g>
<!-- Node2&#45;&gt;Node4 -->
<g id="edge3_Node000002_Node000004" class="edge">
<title>Node2&#45;&gt;Node4</title>
<g id="a_edge3_Node000002_Node000004"><a xlink:title=" ">
<path fill="none" stroke="#63b8ff" d="M201.72,-19.47C210.7,-17.84 219.89,-16.18 228.09,-14.7"/>
<polygon fill="#63b8ff" stroke="#63b8ff" points="228.57,-18.17 237.78,-12.94 227.32,-11.28 228.57,-18.17"/>
</a>
</g>
</g>
</g>
</svg>
