<?xml version="1.0" encoding="UTF-8" standalone="no"?>
<!DOCTYPE svg PUBLIC "-//W3C//DTD SVG 1.1//EN"
 "http://www.w3.org/Graphics/SVG/1.1/DTD/svg11.dtd">
<!-- Generated by graphviz version 14.0.0 (20250921.2048)
 -->
<!-- Title: include/printf.h Pages: 1 -->
<svg width="269pt" height="83pt"
 viewBox="0.00 0.00 269.00 83.00" xmlns="http://www.w3.org/2000/svg" xmlns:xlink="http://www.w3.org/1999/xlink">
<g id="graph0" class="graph" transform="scale(1 1) rotate(0) translate(4 78.5)">
<title>include/printf.h</title>
<!-- Node1 -->
<g id="Node000001" class="node">
<title>Node1</title>
<g id="a_Node000001"><a xlink:title="Minimal kernel printf/puts/getlines interface for freestanding systems.">
<polygon fill="#999999" stroke="#666666" points="170.5,-74.5 90.75,-74.5 90.75,-55.25 170.5,-55.25 170.5,-74.5"/>
<text xml:space="preserve" text-anchor="middle" x="130.62" y="-61" font-family="Helvetica,sans-Serif" font-size="10.00">include/printf.h</text>
</a>
</g>
</g>
<!-- Node2 -->
<g id="Node000002" class="node">
<title>Node2</title>
<g id="a_Node000002"><a xlink:title=" ">
<polygon fill="#e0e0e0" stroke="#999999" points="51.25,-19.25 0,-19.25 0,0 51.25,0 51.25,-19.25"/>
<text xml:space="preserve" text-anchor="middle" x="25.62" y="-5.75" font-family="Helvetica,sans-Serif" font-size="10.00">stdarg.h</text>
</a>
</g>
</g>
<!-- Node1&#45;&gt;Node2 -->
<g id="edge1_Node000001_Node000002" class="edge">
<title>Node1&#45;&gt;Node2</title>
<g id="a_edge1_Node000001_Node000002"><a xlink:title=" ">
<path fill="none" stroke="#63b8ff" d="M112.81,-54.84C96.6,-46.62 72.39,-34.34 53.59,-24.81"/>
<polygon fill="#63b8ff" stroke="#63b8ff" points="55.38,-21.79 44.87,-20.39 52.21,-28.03 55.38,-21.79"/>
</a>
</g>
</g>
<!-- Node3 -->
<g id="Node000003" class="node">
<title>Node3</title>
<g id="a_Node000003"><a xlink:title=" ">
<polygon fill="#e0e0e0" stroke="#999999" points="120.25,-19.25 69,-19.25 69,0 120.25,0 120.25,-19.25"/>
<text xml:space="preserve" text-anchor="middle" x="94.62" y="-5.75" font-family="Helvetica,sans-Serif" font-size="10.00">stddef.h</text>
</a>
</g>
</g>
<!-- Node1&#45;&gt;Node3 -->
<g id="edge2_Node000001_Node000003" class="edge">
<title>Node1&#45;&gt;Node3</title>
<g id="a_edge2_Node000001_Node000003"><a xlink:title=" ">
<path fill="none" stroke="#63b8ff" d="M124.68,-55.08C119.91,-48.03 113.06,-37.9 107.1,-29.08"/>
<polygon fill="#63b8ff" stroke="#63b8ff" points="110.05,-27.19 101.55,-20.86 104.25,-31.11 110.05,-27.19"/>
</a>
</g>
</g>
<!-- Node4 -->
<g id="Node000004" class="node">
<title>Node4</title>
<g id="a_Node000004"><a xlink:title=" ">
<polygon fill="#e0e0e0" stroke="#999999" points="194.5,-19.25 138.75,-19.25 138.75,0 194.5,0 194.5,-19.25"/>
<text xml:space="preserve" text-anchor="middle" x="166.62" y="-5.75" font-family="Helvetica,sans-Serif" font-size="10.00">stdbool.h</text>
</a>
</g>
</g>
<!-- Node1&#45;&gt;Node4 -->
<g id="edge3_Node000001_Node000004" class="edge">
<title>Node1&#45;&gt;Node4</title>
<g id="a_edge3_Node000001_Node000004"><a xlink:title=" ">
<path fill="none" stroke="#63b8ff" d="M136.57,-55.08C141.34,-48.03 148.19,-37.9 154.15,-29.08"/>
<polygon fill="#63b8ff" stroke="#63b8ff" points="157,-31.11 159.7,-20.86 151.2,-27.19 157,-31.11"/>
</a>
</g>
</g>
<!-- Node5 -->
<g id="Node000005" class="node">
<title>Node5</title>
<g id="a_Node000005"><a xlink:title=" ">
<polygon fill="#e0e0e0" stroke="#999999" points="260.75,-19.25 212.5,-19.25 212.5,0 260.75,0 260.75,-19.25"/>
<text xml:space="preserve" text-anchor="middle" x="236.62" y="-5.75" font-family="Helvetica,sans-Serif" font-size="10.00">stdint.h</text>
</a>
</g>
</g>
<!-- Node1&#45;&gt;Node5 -->
<g id="edge4_Node000001_Node000005" class="edge">
<title>Node1&#45;&gt;Node5</title>
<g id="a_edge4_Node000001_Node000005"><a xlink:title=" ">
<path fill="none" stroke="#63b8ff" d="M148.61,-54.84C164.98,-46.62 189.41,-34.34 208.39,-24.81"/>
<polygon fill="#63b8ff" stroke="#63b8ff" points="209.84,-28 217.2,-20.38 206.7,-21.74 209.84,-28"/>
</a>
</g>
</g>
</g>
</svg>
