<?xml version="1.0" encoding="UTF-8" standalone="no"?>
<!DOCTYPE svg PUBLIC "-//W3C//DTD SVG 1.1//EN"
 "http://www.w3.org/Graphics/SVG/1.1/DTD/svg11.dtd">
<!-- Generated by graphviz version 14.0.0 (20250921.2048)
 -->
<!-- Title: printf Pages: 1 -->
<svg width="655pt" height="170pt"
 viewBox="0.00 0.00 655.00 170.00" xmlns="http://www.w3.org/2000/svg" xmlns:xlink="http://www.w3.org/1999/xlink">
<g id="graph0" class="graph" transform="scale(1 1) rotate(0) translate(4 165.62)">
<title>printf</title>
<!-- Node1 -->
<g id="Node000001" class="node">
<title>Node1</title>
<g id="a_Node000001"><a xlink:title="Kernel printf implementation using UART output.">
<polygon fill="#999999" stroke="#666666" points="37.75,-95.25 0,-95.25 0,-76 37.75,-76 37.75,-95.25"/>
<text xml:space="preserve" text-anchor="middle" x="18.88" y="-81.75" font-family="Helvetica,sans-Serif" font-size="10.00">printf</text>
</a>
</g>
</g>
<!-- Node2 -->
<g id="Node000002" class="node">
<title>Node2</title>
<g id="a_Node000002"><a xlink:href="printf_8c.html#ac3154a3597888cf112e4e7bf6a5f1846" target="_top" xlink:title="Format and print an integer based on format control.">
<polygon fill="white" stroke="#666666" points="143,-57.25 73.75,-57.25 73.75,-38 143,-38 143,-57.25"/>
<text xml:space="preserve" text-anchor="middle" x="108.38" y="-43.75" font-family="Helvetica,sans-Serif" font-size="10.00">put_integers</text>
</a>
</g>
</g>
<!-- Node1&#45;&gt;Node2 -->
<g id="edge1_Node000001_Node000002" class="edge">
<title>Node1&#45;&gt;Node2</title>
<g id="a_edge1_Node000001_Node000002"><a xlink:title=" ">
<path fill="none" stroke="#63b8ff" d="M38.01,-77.75C48.38,-73.25 61.73,-67.45 73.93,-62.15"/>
<polygon fill="#63b8ff" stroke="#63b8ff" points="75.1,-65.46 82.88,-58.26 72.31,-59.04 75.1,-65.46"/>
</a>
</g>
</g>
<!-- Node4 -->
<g id="Node000004" class="node">
<title>Node4</title>
<g id="a_Node000004"><a xlink:href="printf_8c.html#ab97c3c9e783c1402d4007ceafdb197c1" target="_top" xlink:title="Print an unsigned integer in the given base.">
<polygon fill="white" stroke="#666666" points="352,-19.25 278.25,-19.25 278.25,0 352,0 352,-19.25"/>
<text xml:space="preserve" text-anchor="middle" x="315.12" y="-5.75" font-family="Helvetica,sans-Serif" font-size="10.00">put_unsigned</text>
</a>
</g>
</g>
<!-- Node1&#45;&gt;Node4 -->
<g id="edge11_Node000001_Node000004" class="edge">
<title>Node1&#45;&gt;Node4</title>
<g id="a_edge11_Node000001_Node000004"><a xlink:title=" ">
<path fill="none" stroke="#63b8ff" d="M26.13,-75.63C34.98,-62.45 52.47,-39.64 73.75,-28.62 134.63,2.88 215.97,1.86 266.69,-2.97"/>
<polygon fill="#63b8ff" stroke="#63b8ff" points="266.15,-6.44 276.46,-4 266.88,0.53 266.15,-6.44"/>
</a>
</g>
</g>
<!-- Node8 -->
<g id="Node000008" class="node">
<title>Node8</title>
<g id="a_Node000008"><a xlink:href="printf_8c.html#a9bdf0418571456c566aa2f329b5f8350" target="_top" xlink:title="Send a single character over UART, waiting if the FIFO is full.">
<polygon fill="white" stroke="#666666" points="431.75,-76.25 397,-76.25 397,-57 431.75,-57 431.75,-76.25"/>
<text xml:space="preserve" text-anchor="middle" x="414.38" y="-62.75" font-family="Helvetica,sans-Serif" font-size="10.00">putc</text>
</a>
</g>
</g>
<!-- Node1&#45;&gt;Node8 -->
<g id="edge12_Node000001_Node000008" class="edge">
<title>Node1&#45;&gt;Node8</title>
<g id="a_edge12_Node000001_Node000008"><a xlink:title=" ">
<path fill="none" stroke="#63b8ff" d="M37.89,-85.11C87.82,-83.64 232.19,-79.03 352,-71.62 362.89,-70.95 374.85,-70.02 385.3,-69.14"/>
<polygon fill="#63b8ff" stroke="#63b8ff" points="385.55,-72.64 395.21,-68.29 384.94,-65.66 385.55,-72.64"/>
</a>
</g>
</g>
<!-- Node9 -->
<g id="Node000009" class="node">
<title>Node9</title>
<g id="a_Node000009"><a xlink:href="printf_8c.html#a299d0f9cb9e7b14e1278a4ed21e4d76f" target="_top" xlink:title="Transmit a null&#45;terminated string.">
<polygon fill="white" stroke="#666666" points="228,-133.25 193.25,-133.25 193.25,-114 228,-114 228,-133.25"/>
<text xml:space="preserve" text-anchor="middle" x="210.62" y="-119.75" font-family="Helvetica,sans-Serif" font-size="10.00">puts</text>
</a>
</g>
</g>
<!-- Node1&#45;&gt;Node9 -->
<g id="edge13_Node000001_Node000009" class="edge">
<title>Node1&#45;&gt;Node9</title>
<g id="a_edge13_Node000001_Node000009"><a xlink:title=" ">
<path fill="none" stroke="#63b8ff" d="M38.24,-90.78C48.62,-93.6 61.85,-97.03 73.75,-99.62 110.86,-107.71 154.11,-114.99 181.67,-119.35"/>
<polygon fill="#63b8ff" stroke="#63b8ff" points="180.89,-122.77 191.31,-120.86 181.97,-115.86 180.89,-122.77"/>
</a>
</g>
</g>
<!-- Node3 -->
<g id="Node000003" class="node">
<title>Node3</title>
<g id="a_Node000003"><a xlink:href="printf_8c.html#a2e8c688dfa078a9a7f1f02d4126f466a" target="_top" xlink:title="Print a signed integer in decimal form.">
<polygon fill="white" stroke="#666666" points="242.25,-57.25 179,-57.25 179,-38 242.25,-38 242.25,-57.25"/>
<text xml:space="preserve" text-anchor="middle" x="210.62" y="-43.75" font-family="Helvetica,sans-Serif" font-size="10.00">put_signed</text>
</a>
</g>
</g>
<!-- Node2&#45;&gt;Node3 -->
<g id="edge2_Node000002_Node000003" class="edge">
<title>Node2&#45;&gt;Node3</title>
<g id="a_edge2_Node000002_Node000003"><a xlink:title=" ">
<path fill="none" stroke="#63b8ff" d="M143.32,-47.62C151.02,-47.62 159.31,-47.62 167.31,-47.62"/>
<polygon fill="#63b8ff" stroke="#63b8ff" points="167.24,-51.13 177.24,-47.63 167.24,-44.13 167.24,-51.13"/>
</a>
</g>
</g>
<!-- Node2&#45;&gt;Node4 -->
<g id="edge10_Node000002_Node000004" class="edge">
<title>Node2&#45;&gt;Node4</title>
<g id="a_edge10_Node000002_Node000004"><a xlink:title=" ">
<path fill="none" stroke="#63b8ff" d="M142.81,-37.58C154.22,-34.4 167.1,-31.08 179,-28.62 207.77,-22.7 240.38,-18.06 266.35,-14.84"/>
<polygon fill="#63b8ff" stroke="#63b8ff" points="266.77,-18.32 276.28,-13.65 265.93,-11.37 266.77,-18.32"/>
</a>
</g>
</g>
<!-- Node3&#45;&gt;Node4 -->
<g id="edge3_Node000003_Node000004" class="edge">
<title>Node3&#45;&gt;Node4</title>
<g id="a_edge3_Node000003_Node000004"><a xlink:title=" ">
<path fill="none" stroke="#63b8ff" d="M238.82,-37.54C250.38,-33.26 264.05,-28.19 276.55,-23.55"/>
<polygon fill="#63b8ff" stroke="#63b8ff" points="277.58,-26.91 285.74,-20.15 275.14,-20.34 277.58,-26.91"/>
</a>
</g>
</g>
<!-- Node3&#45;&gt;Node8 -->
<g id="edge9_Node000003_Node000008" class="edge">
<title>Node3&#45;&gt;Node8</title>
<g id="a_edge9_Node000003_Node000008"><a xlink:title=" ">
<path fill="none" stroke="#63b8ff" d="M242.71,-50.55C281.7,-54.22 348,-60.47 385.45,-64"/>
<polygon fill="#63b8ff" stroke="#63b8ff" points="384.73,-67.44 395.02,-64.9 385.39,-60.47 384.73,-67.44"/>
</a>
</g>
</g>
<!-- Node5 -->
<g id="Node000005" class="node">
<title>Node5</title>
<g id="a_Node000005"><a xlink:href="printf_8c.html#a96a30e819fcbfa9a0251f71f14ff79bc" target="_top" xlink:title="Perform division and return quotient and remainder.">
<polygon fill="white" stroke="#666666" points="440.75,-39.25 388,-39.25 388,-20 440.75,-20 440.75,-39.25"/>
<text xml:space="preserve" text-anchor="middle" x="414.38" y="-25.75" font-family="Helvetica,sans-Serif" font-size="10.00">_divmod</text>
</a>
</g>
</g>
<!-- Node4&#45;&gt;Node5 -->
<g id="edge4_Node000004_Node000005" class="edge">
<title>Node4&#45;&gt;Node5</title>
<g id="a_edge4_Node000004_Node000005"><a xlink:title=" ">
<path fill="none" stroke="#63b8ff" d="M352.34,-17.07C360.25,-18.7 368.63,-20.42 376.56,-22.05"/>
<polygon fill="#63b8ff" stroke="#63b8ff" points="375.77,-25.47 386.27,-24.05 377.18,-18.61 375.77,-25.47"/>
</a>
</g>
</g>
<!-- Node4&#45;&gt;Node8 -->
<g id="edge8_Node000004_Node000008" class="edge">
<title>Node4&#45;&gt;Node8</title>
<g id="a_edge8_Node000004_Node000008"><a xlink:title=" ">
<path fill="none" stroke="#63b8ff" d="M333.06,-19.55C347.99,-28.3 369.96,-41.18 387.15,-51.25"/>
<polygon fill="#63b8ff" stroke="#63b8ff" points="384.93,-54.01 395.32,-56.04 388.47,-47.97 384.93,-54.01"/>
</a>
</g>
</g>
<!-- Node6 -->
<g id="Node000006" class="node">
<title>Node6</title>
<g id="a_Node000006"><a xlink:href="panic_8c.html#ac3d3e7674c5f1ad62a44afce2ff9a0ca" target="_top" xlink:title="Print a panic message and halt the CPU.">
<polygon fill="white" stroke="#666666" points="547.5,-114.25 476.75,-114.25 476.75,-95 547.5,-95 547.5,-114.25"/>
<text xml:space="preserve" text-anchor="middle" x="512.12" y="-100.75" font-family="Helvetica,sans-Serif" font-size="10.00">kernel_panic</text>
</a>
</g>
</g>
<!-- Node5&#45;&gt;Node6 -->
<g id="edge5_Node000005_Node000006" class="edge">
<title>Node5&#45;&gt;Node6</title>
<g id="a_edge5_Node000005_Node000006"><a xlink:title=" ">
<path fill="none" stroke="#63b8ff" d="M429.98,-39.75C433.54,-42.28 437.31,-45.01 440.75,-47.62 457.75,-60.52 476.5,-75.76 490.37,-87.23"/>
<polygon fill="#63b8ff" stroke="#63b8ff" points="488.02,-89.83 497.94,-93.53 492.49,-84.45 488.02,-89.83"/>
</a>
</g>
</g>
<!-- Node6&#45;&gt;Node1 -->
<g id="edge7_Node000006_Node000001" class="edge">
<title>Node6&#45;&gt;Node1</title>
<g id="a_edge7_Node000006_Node000001"><a xlink:title=" ">
<path fill="none" stroke="#63b8ff" d="M490.92,-114.68C456.12,-131.05 382.26,-161.62 316.12,-161.62 646.75,-8.62 646.75,-8.62 209.62,-161.62 145.67,-161.62 77.73,-123.96 43.11,-101.66"/>
<polygon fill="#63b8ff" stroke="#63b8ff" points="45.4,-98.98 35.12,-96.39 41.54,-104.83 45.4,-98.98"/>
</a>
</g>
</g>
<!-- Node7 -->
<g id="Node000007" class="node">
<title>Node7</title>
<g id="a_Node000007"><a xlink:href="panic_8c.html#a830ea0b31f5cecec34c74c8a4c2f8192" target="_top" xlink:title="Halt the CPU indefinitely.">
<polygon fill="white" stroke="#666666" points="646.75,-114.25 583.5,-114.25 583.5,-95 646.75,-95 646.75,-114.25"/>
<text xml:space="preserve" text-anchor="middle" x="615.12" y="-100.75" font-family="Helvetica,sans-Serif" font-size="10.00">kernel_halt</text>
</a>
</g>
</g>
<!-- Node6&#45;&gt;Node7 -->
<g id="edge6_Node000006_Node000007" class="edge">
<title>Node6&#45;&gt;Node7</title>
<g id="a_edge6_Node000006_Node000007"><a xlink:title=" ">
<path fill="none" stroke="#63b8ff" d="M547.88,-104.62C555.55,-104.62 563.76,-104.62 571.69,-104.62"/>
<polygon fill="#63b8ff" stroke="#63b8ff" points="571.51,-108.13 581.51,-104.63 571.51,-101.13 571.51,-108.13"/>
</a>
</g>
</g>
<!-- Node9&#45;&gt;Node8 -->
<g id="edge14_Node000009_Node000008" class="edge">
<title>Node9&#45;&gt;Node8</title>
<g id="a_edge14_Node000009_Node000008"><a xlink:title=" ">
<path fill="none" stroke="#63b8ff" d="M228.48,-122.51C255.28,-120.35 308.98,-114.42 352,-99.62 364.66,-95.27 377.84,-88.52 388.73,-82.25"/>
<polygon fill="#63b8ff" stroke="#63b8ff" points="390.28,-85.4 397.07,-77.26 386.69,-79.39 390.28,-85.4"/>
</a>
</g>
</g>
</g>
</svg>
