<?xml version="1.0" encoding="UTF-8" standalone="no"?>
<!DOCTYPE svg PUBLIC "-//W3C//DTD SVG 1.1//EN"
 "http://www.w3.org/Graphics/SVG/1.1/DTD/svg11.dtd">
<!-- Generated by graphviz version 14.0.0 (20250921.2048)
 -->
<!-- Title: include/printf.h Pages: 1 -->
<svg width="541pt" height="83pt"
 viewBox="0.00 0.00 541.00 83.00" xmlns="http://www.w3.org/2000/svg" xmlns:xlink="http://www.w3.org/1999/xlink">
<g id="graph0" class="graph" transform="scale(1 1) rotate(0) translate(4 78.5)">
<title>include/printf.h</title>
<!-- Node1 -->
<g id="Node000001" class="node">
<title>Node1</title>
<g id="a_Node000001"><a xlink:title="Minimal kernel printf/puts/getlines interface for freestanding systems.">
<polygon fill="#999999" stroke="#666666" points="323,-74.5 243.25,-74.5 243.25,-55.25 323,-55.25 323,-74.5"/>
<text xml:space="preserve" text-anchor="middle" x="283.12" y="-61" font-family="Helvetica,sans-Serif" font-size="10.00">include/printf.h</text>
</a>
</g>
</g>
<!-- Node2 -->
<g id="Node000002" class="node">
<title>Node2</title>
<g id="a_Node000002"><a xlink:href="kernel_8c.html" target="_top" xlink:title=" ">
<polygon fill="white" stroke="#666666" points="96.25,-19.25 0,-19.25 0,0 96.25,0 96.25,-19.25"/>
<text xml:space="preserve" text-anchor="middle" x="48.12" y="-5.75" font-family="Helvetica,sans-Serif" font-size="10.00">src/kernel/kernel.c</text>
</a>
</g>
</g>
<!-- Node1&#45;&gt;Node2 -->
<g id="edge1_Node000001_Node000002" class="edge">
<title>Node1&#45;&gt;Node2</title>
<g id="a_edge1_Node000001_Node000002"><a xlink:title=" ">
<path fill="none" stroke="#63b8ff" d="M231.87,-52.26C188.67,-42.47 127.74,-28.67 88.09,-19.68"/>
<polygon fill="#63b8ff" stroke="#63b8ff" points="230.99,-55.65 241.52,-54.45 232.54,-48.82 230.99,-55.65"/>
</a>
</g>
</g>
<!-- Node3 -->
<g id="Node000003" class="node">
<title>Node3</title>
<g id="a_Node000003"><a xlink:href="memory_8c.html" target="_top" xlink:title=" ">
<polygon fill="white" stroke="#666666" points="218,-19.25 114.25,-19.25 114.25,0 218,0 218,-19.25"/>
<text xml:space="preserve" text-anchor="middle" x="166.12" y="-5.75" font-family="Helvetica,sans-Serif" font-size="10.00">src/kernel/memory.c</text>
</a>
</g>
</g>
<!-- Node1&#45;&gt;Node3 -->
<g id="edge2_Node000001_Node000003" class="edge">
<title>Node1&#45;&gt;Node3</title>
<g id="a_edge2_Node000001_Node000003"><a xlink:title=" ">
<path fill="none" stroke="#63b8ff" d="M252.94,-50.14C231.9,-40.56 204.42,-28.06 186.07,-19.7"/>
<polygon fill="#63b8ff" stroke="#63b8ff" points="251.35,-53.26 261.9,-54.21 254.25,-46.89 251.35,-53.26"/>
</a>
</g>
</g>
<!-- Node4 -->
<g id="Node000004" class="node">
<title>Node4</title>
<g id="a_Node000004"><a xlink:href="panic_8c.html" target="_top" xlink:title=" ">
<polygon fill="white" stroke="#666666" points="329.75,-19.25 236.5,-19.25 236.5,0 329.75,0 329.75,-19.25"/>
<text xml:space="preserve" text-anchor="middle" x="283.12" y="-5.75" font-family="Helvetica,sans-Serif" font-size="10.00">src/kernel/panic.c</text>
</a>
</g>
</g>
<!-- Node1&#45;&gt;Node4 -->
<g id="edge3_Node000001_Node000004" class="edge">
<title>Node1&#45;&gt;Node4</title>
<g id="a_edge3_Node000001_Node000004"><a xlink:title=" ">
<path fill="none" stroke="#63b8ff" d="M283.12,-43.63C283.12,-35.34 283.12,-26.17 283.12,-19.61"/>
<polygon fill="#63b8ff" stroke="#63b8ff" points="279.63,-43.57 283.13,-53.57 286.63,-43.57 279.63,-43.57"/>
</a>
</g>
</g>
<!-- Node5 -->
<g id="Node000005" class="node">
<title>Node5</title>
<g id="a_Node000005"><a xlink:href="clear_8c.html" target="_top" xlink:title=" ">
<polygon fill="white" stroke="#666666" points="430.5,-19.25 347.75,-19.25 347.75,0 430.5,0 430.5,-19.25"/>
<text xml:space="preserve" text-anchor="middle" x="389.12" y="-5.75" font-family="Helvetica,sans-Serif" font-size="10.00">src/user/clear.c</text>
</a>
</g>
</g>
<!-- Node1&#45;&gt;Node5 -->
<g id="edge4_Node000001_Node000005" class="edge">
<title>Node1&#45;&gt;Node5</title>
<g id="a_edge4_Node000001_Node000005"><a xlink:title=" ">
<path fill="none" stroke="#63b8ff" d="M311.26,-49.74C330.21,-40.22 354.66,-27.94 371.06,-19.7"/>
<polygon fill="#63b8ff" stroke="#63b8ff" points="309.82,-46.55 302.46,-54.16 312.97,-52.8 309.82,-46.55"/>
</a>
</g>
</g>
<!-- Node6 -->
<g id="Node000006" class="node">
<title>Node6</title>
<g id="a_Node000006"><a xlink:href="printf_8c.html" target="_top" xlink:title="UART&#45;backed minimal printf implementation for a freestanding kernel.">
<polygon fill="white" stroke="#666666" points="533.25,-19.25 449,-19.25 449,0 533.25,0 533.25,-19.25"/>
<text xml:space="preserve" text-anchor="middle" x="491.12" y="-5.75" font-family="Helvetica,sans-Serif" font-size="10.00">src/user/printf.c</text>
</a>
</g>
</g>
<!-- Node1&#45;&gt;Node6 -->
<g id="edge5_Node000001_Node000006" class="edge">
<title>Node1&#45;&gt;Node6</title>
<g id="a_edge5_Node000001_Node000006"><a xlink:title=" ">
<path fill="none" stroke="#63b8ff" d="M329.23,-52.07C367.38,-42.3 420.79,-28.63 455.67,-19.7"/>
<polygon fill="#63b8ff" stroke="#63b8ff" points="328.7,-48.6 319.88,-54.47 330.43,-55.38 328.7,-48.6"/>
</a>
</g>
</g>
</g>
</svg>
