<?xml version="1.0" encoding="UTF-8" standalone="no"?>
<!DOCTYPE svg PUBLIC "-//W3C//DTD SVG 1.1//EN"
 "http://www.w3.org/Graphics/SVG/1.1/DTD/svg11.dtd">
<!-- Generated by graphviz version 14.0.0 (20250921.2048)
 -->
<!-- Title: put_signed Pages: 1 -->
<svg width="698pt" height="451pt"
 viewBox="0.00 0.00 698.00 451.00" xmlns="http://www.w3.org/2000/svg" xmlns:xlink="http://www.w3.org/1999/xlink">
<g id="graph0" class="graph" transform="scale(1 1) rotate(0) translate(4 447.25)">
<title>put_signed</title>
<!-- Node1 -->
<g id="Node000001" class="node">
<title>Node1</title>
<g id="a_Node000001"><a xlink:title="Print a signed integer in decimal form.">
<polygon fill="#999999" stroke="#666666" points="690.25,-433.88 627,-433.88 627,-414.63 690.25,-414.63 690.25,-433.88"/>
<text xml:space="preserve" text-anchor="middle" x="658.62" y="-420.38" font-family="Helvetica,sans-Serif" font-size="10.00">put_signed</text>
</a>
</g>
</g>
<!-- Node2 -->
<g id="Node000002" class="node">
<title>Node2</title>
<g id="a_Node000002"><a xlink:href="printf_8c.html#ac3154a3597888cf112e4e7bf6a5f1846" target="_top" xlink:title="Format and print an integer based on format control.">
<polygon fill="white" stroke="#666666" points="591,-414.88 521.75,-414.88 521.75,-395.63 591,-395.63 591,-414.88"/>
<text xml:space="preserve" text-anchor="middle" x="556.38" y="-401.38" font-family="Helvetica,sans-Serif" font-size="10.00">put_integers</text>
</a>
</g>
</g>
<!-- Node1&#45;&gt;Node2 -->
<g id="edge1_Node000001_Node000002" class="edge">
<title>Node1&#45;&gt;Node2</title>
<g id="a_edge1_Node000001_Node000002"><a xlink:title=" ">
<path fill="none" stroke="#63b8ff" d="M615.63,-416.3C607.58,-414.77 599.25,-413.19 591.49,-411.72"/>
<polygon fill="#63b8ff" stroke="#63b8ff" points="614.76,-419.69 625.24,-418.12 616.07,-412.82 614.76,-419.69"/>
</a>
</g>
</g>
<!-- Node3 -->
<g id="Node000003" class="node">
<title>Node3</title>
<g id="a_Node000003"><a xlink:href="printf_8c.html#a0aff7311d684a0e0ef33125616a73385" target="_top" xlink:title="Kernel printf implementation using UART output.">
<polygon fill="white" stroke="#666666" points="485.75,-131.88 448,-131.88 448,-112.63 485.75,-112.63 485.75,-131.88"/>
<text xml:space="preserve" text-anchor="middle" x="466.88" y="-118.38" font-family="Helvetica,sans-Serif" font-size="10.00">printf</text>
</a>
</g>
</g>
<!-- Node2&#45;&gt;Node3 -->
<g id="edge2_Node000002_Node000003" class="edge">
<title>Node2&#45;&gt;Node3</title>
<g id="a_edge2_Node000002_Node000003"><a xlink:title=" ">
<path fill="none" stroke="#63b8ff" d="M548.93,-384.4C531.44,-327.83 483.56,-172.99 470.95,-132.21"/>
<polygon fill="#63b8ff" stroke="#63b8ff" points="545.52,-385.22 551.81,-393.74 552.2,-383.15 545.52,-385.22"/>
</a>
</g>
</g>
<!-- Node4 -->
<g id="Node000004" class="node">
<title>Node4</title>
<g id="a_Node000004"><a xlink:href="clear_8c.html#ae683fe63c33c388e9ba1c6392dd477eb" target="_top" xlink:title="Clears the terminal screen and moves the cursor to the home position.">
<polygon fill="white" stroke="#666666" points="393.62,-150.88 356.62,-150.88 356.62,-131.63 393.62,-131.63 393.62,-150.88"/>
<text xml:space="preserve" text-anchor="middle" x="375.12" y="-137.38" font-family="Helvetica,sans-Serif" font-size="10.00">clear</text>
</a>
</g>
</g>
<!-- Node3&#45;&gt;Node4 -->
<g id="edge3_Node000003_Node000004" class="edge">
<title>Node3&#45;&gt;Node4</title>
<g id="a_edge3_Node000003_Node000004"><a xlink:title=" ">
<path fill="none" stroke="#63b8ff" d="M436.59,-128.45C422.52,-131.43 406.12,-134.9 393.95,-137.48"/>
<polygon fill="#63b8ff" stroke="#63b8ff" points="437.17,-131.91 446.23,-126.41 435.72,-125.06 437.17,-131.91"/>
</a>
</g>
</g>
<!-- Node5 -->
<g id="Node000005" class="node">
<title>Node5</title>
<g id="a_Node000005"><a xlink:href="kernel_8c.html#a6b8fb674fb359f6ae53dc9c4fb7fc6be" target="_top" xlink:title=" ">
<polygon fill="white" stroke="#666666" points="179.38,-112.88 110.88,-112.88 110.88,-93.63 179.38,-93.63 179.38,-112.88"/>
<text xml:space="preserve" text-anchor="middle" x="145.12" y="-99.38" font-family="Helvetica,sans-Serif" font-size="10.00">kernel_main</text>
</a>
</g>
</g>
<!-- Node3&#45;&gt;Node5 -->
<g id="edge9_Node000003_Node000005" class="edge">
<title>Node3&#45;&gt;Node5</title>
<g id="a_edge9_Node000003_Node000005"><a xlink:title=" ">
<path fill="none" stroke="#63b8ff" d="M436.6,-120.52C377.18,-116.98 242.72,-108.99 179.79,-105.26"/>
<polygon fill="#63b8ff" stroke="#63b8ff" points="436.07,-123.99 446.26,-121.09 436.48,-117 436.07,-123.99"/>
</a>
</g>
</g>
<!-- Node6 -->
<g id="Node000006" class="node">
<title>Node6</title>
<g id="a_Node000006"><a xlink:href="printf_8c.html#a7880ed31ba841d890680635d6b83fcb7" target="_top" xlink:title="Read a line of text from UART with basic editing support.">
<polygon fill="white" stroke="#666666" points="400,-74.88 350.25,-74.88 350.25,-55.63 400,-55.63 400,-74.88"/>
<text xml:space="preserve" text-anchor="middle" x="375.12" y="-61.38" font-family="Helvetica,sans-Serif" font-size="10.00">getlines</text>
</a>
</g>
</g>
<!-- Node3&#45;&gt;Node6 -->
<g id="edge5_Node000003_Node000006" class="edge">
<title>Node3&#45;&gt;Node6</title>
<g id="a_edge5_Node000003_Node000006"><a xlink:title=" ">
<path fill="none" stroke="#63b8ff" d="M440.63,-106.22C424.98,-96.28 405.35,-83.81 391.88,-75.26"/>
<polygon fill="#63b8ff" stroke="#63b8ff" points="438.65,-109.11 448.96,-111.51 442.4,-103.2 438.65,-109.11"/>
</a>
</g>
</g>
<!-- Node7 -->
<g id="Node000007" class="node">
<title>Node7</title>
<g id="a_Node000007"><a xlink:href="kernel_8c.html#a5f7f5591859a697cdeb5faafdf0ce822" target="_top" xlink:title=" ">
<polygon fill="white" stroke="#666666" points="412,-37.88 338.25,-37.88 338.25,-18.63 412,-18.63 412,-37.88"/>
<text xml:space="preserve" text-anchor="middle" x="375.12" y="-24.38" font-family="Helvetica,sans-Serif" font-size="10.00">init_message</text>
</a>
</g>
</g>
<!-- Node3&#45;&gt;Node7 -->
<g id="edge7_Node000003_Node000007" class="edge">
<title>Node3&#45;&gt;Node7</title>
<g id="a_edge7_Node000003_Node000007"><a xlink:title=" ">
<path fill="none" stroke="#63b8ff" d="M455.46,-102.4C445.93,-85.73 430.52,-62.16 412,-46.25 408.51,-43.26 404.44,-40.61 400.31,-38.33"/>
<polygon fill="#63b8ff" stroke="#63b8ff" points="452.23,-103.8 460.12,-110.88 458.37,-100.43 452.23,-103.8"/>
</a>
</g>
</g>
<!-- Node8 -->
<g id="Node000008" class="node">
<title>Node8</title>
<g id="a_Node000008"><a xlink:href="panic_8c.html#ac3d3e7674c5f1ad62a44afce2ff9a0ca" target="_top" xlink:title="Print a panic message and halt the CPU.">
<polygon fill="white" stroke="#666666" points="410.5,-244.88 339.75,-244.88 339.75,-225.63 410.5,-225.63 410.5,-244.88"/>
<text xml:space="preserve" text-anchor="middle" x="375.12" y="-231.38" font-family="Helvetica,sans-Serif" font-size="10.00">kernel_panic</text>
</a>
</g>
</g>
<!-- Node3&#45;&gt;Node8 -->
<g id="edge10_Node000003_Node000008" class="edge">
<title>Node3&#45;&gt;Node8</title>
<g id="a_edge10_Node000003_Node000008"><a xlink:title=" ">
<path fill="none" stroke="#63b8ff" d="M450.78,-141.26C431.5,-165.54 398.84,-206.66 383.94,-225.41"/>
<polygon fill="#63b8ff" stroke="#63b8ff" points="453.49,-143.48 456.97,-133.47 448.01,-139.12 453.49,-143.48"/>
</a>
</g>
</g>
<!-- Node14 -->
<g id="Node000014" class="node">
<title>Node14</title>
<g id="a_Node000014"><a xlink:href="kernel_8c.html#a8a11654fcf5bd5fcf10f118ad5f79904" target="_top" xlink:title=" ">
<polygon fill="white" stroke="#666666" points="55.75,-263.88 0,-263.88 0,-244.63 55.75,-244.63 55.75,-263.88"/>
<text xml:space="preserve" text-anchor="middle" x="27.88" y="-250.38" font-family="Helvetica,sans-Serif" font-size="10.00">not_main</text>
</a>
</g>
</g>
<!-- Node3&#45;&gt;Node14 -->
<g id="edge24_Node000003_Node000014" class="edge">
<title>Node3&#45;&gt;Node14</title>
<g id="a_edge24_Node000003_Node000014"><a xlink:title=" ">
<path fill="none" stroke="#63b8ff" d="M462.71,-101.29C457.44,-74.59 444.05,-29.48 412,-9.25 384.28,8.24 370.67,-4.43 338.25,-9.25 224.98,-26.1 175.07,-5.7 91.75,-84.25 43.67,-129.59 32.16,-214.94 29.58,-244.15"/>
<polygon fill="#63b8ff" stroke="#63b8ff" points="459.23,-101.68 464.39,-110.93 466.12,-100.48 459.23,-101.68"/>
</a>
</g>
</g>
<!-- Node4&#45;&gt;Node5 -->
<g id="edge4_Node000004_Node000005" class="edge">
<title>Node4&#45;&gt;Node5</title>
<g id="a_edge4_Node000004_Node000005"><a xlink:title=" ">
<path fill="none" stroke="#63b8ff" d="M345.09,-136.42C302.85,-129.38 224.62,-116.34 179.87,-108.88"/>
<polygon fill="#63b8ff" stroke="#63b8ff" points="344.3,-139.83 354.74,-138.02 345.45,-132.93 344.3,-139.83"/>
</a>
</g>
</g>
<!-- Node6&#45;&gt;Node5 -->
<g id="edge6_Node000006_Node000005" class="edge">
<title>Node6&#45;&gt;Node5</title>
<g id="a_edge6_Node000006_Node000005"><a xlink:title=" ">
<path fill="none" stroke="#63b8ff" d="M339.02,-71.11C295.64,-78.34 222.34,-90.55 179.68,-97.66"/>
<polygon fill="#63b8ff" stroke="#63b8ff" points="339.37,-74.6 348.66,-69.5 338.22,-67.69 339.37,-74.6"/>
</a>
</g>
</g>
<!-- Node7&#45;&gt;Node5 -->
<g id="edge8_Node000007_Node000005" class="edge">
<title>Node7&#45;&gt;Node5</title>
<g id="a_edge8_Node000007_Node000005"><a xlink:title=" ">
<path fill="none" stroke="#63b8ff" d="M331.59,-41.78C303.9,-50.62 267.01,-62.5 234.5,-73.25 214.81,-79.77 192.72,-87.27 175.55,-93.14"/>
<polygon fill="#63b8ff" stroke="#63b8ff" points="332.57,-45.14 341.03,-38.76 330.44,-38.47 332.57,-45.14"/>
</a>
</g>
</g>
<!-- Node9 -->
<g id="Node000009" class="node">
<title>Node9</title>
<g id="a_Node000009"><a xlink:href="printf_8c.html#a694b6d27273027eb96424e52b798c391" target="_top" xlink:title=" ">
<polygon fill="white" stroke="#666666" points="288,-225.88 248.75,-225.88 248.75,-206.63 288,-206.63 288,-225.88"/>
<text xml:space="preserve" text-anchor="middle" x="268.38" y="-212.38" font-family="Helvetica,sans-Serif" font-size="10.00">_bdiv</text>
</a>
</g>
</g>
<!-- Node8&#45;&gt;Node9 -->
<g id="edge11_Node000008_Node000009" class="edge">
<title>Node8&#45;&gt;Node9</title>
<g id="a_edge11_Node000008_Node000009"><a xlink:title=" ">
<path fill="none" stroke="#63b8ff" d="M328.45,-226.97C314.35,-224.41 299.59,-221.74 288.35,-219.7"/>
<polygon fill="#63b8ff" stroke="#63b8ff" points="327.58,-230.37 338.05,-228.71 328.83,-223.48 327.58,-230.37"/>
</a>
</g>
</g>
<!-- Node10 -->
<g id="Node000010" class="node">
<title>Node10</title>
<g id="a_Node000010"><a xlink:href="printf_8c.html#a96a30e819fcbfa9a0251f71f14ff79bc" target="_top" xlink:title="Perform division and return quotient and remainder.">
<polygon fill="white" stroke="#666666" points="294.75,-338.88 242,-338.88 242,-319.63 294.75,-319.63 294.75,-338.88"/>
<text xml:space="preserve" text-anchor="middle" x="268.38" y="-325.38" font-family="Helvetica,sans-Serif" font-size="10.00">_divmod</text>
</a>
</g>
</g>
<!-- Node8&#45;&gt;Node10 -->
<g id="edge12_Node000008_Node000010" class="edge">
<title>Node8&#45;&gt;Node10</title>
<g id="a_edge12_Node000008_Node000010"><a xlink:title=" ">
<path fill="none" stroke="#63b8ff" d="M359.26,-254.03C345.62,-270.46 324.25,-294.29 302.25,-311.25 298.54,-314.12 294.32,-316.79 290.16,-319.16"/>
<polygon fill="#63b8ff" stroke="#63b8ff" points="361.79,-256.46 365.39,-246.49 356.36,-252.04 361.79,-256.46"/>
</a>
</g>
</g>
<!-- Node12 -->
<g id="Node000012" class="node">
<title>Node12</title>
<g id="a_Node000012"><a xlink:href="math_8h.html#a97fbf4adb8a31d415775bdbd5c30c468" target="_top" xlink:title="Unsigned 32&#45;bit integer division: n / d.">
<polygon fill="white" stroke="#666666" points="293.25,-301.88 243.5,-301.88 243.5,-282.63 293.25,-282.63 293.25,-301.88"/>
<text xml:space="preserve" text-anchor="middle" x="268.38" y="-288.38" font-family="Helvetica,sans-Serif" font-size="10.00">_udiv32</text>
</a>
</g>
</g>
<!-- Node8&#45;&gt;Node12 -->
<g id="edge17_Node000008_Node000012" class="edge">
<title>Node8&#45;&gt;Node12</title>
<g id="a_edge17_Node000008_Node000012"><a xlink:title=" ">
<path fill="none" stroke="#63b8ff" d="M345.96,-250.58C327.48,-260.63 303.86,-273.49 287.76,-282.25"/>
<polygon fill="#63b8ff" stroke="#63b8ff" points="347.44,-253.76 354.55,-245.91 344.09,-247.61 347.44,-253.76"/>
</a>
</g>
</g>
<!-- Node15 -->
<g id="Node000015" class="node">
<title>Node15</title>
<g id="a_Node000015"><a xlink:href="memory_8c.html#a87d8585002a620e687d68b38ab387a0e" target="_top" xlink:title=" ">
<polygon fill="white" stroke="#666666" points="170,-263.88 120.25,-263.88 120.25,-244.63 170,-244.63 170,-263.88"/>
<text xml:space="preserve" text-anchor="middle" x="145.12" y="-250.38" font-family="Helvetica,sans-Serif" font-size="10.00">kmalloc</text>
</a>
</g>
</g>
<!-- Node8&#45;&gt;Node15 -->
<g id="edge20_Node000008_Node000015" class="edge">
<title>Node8&#45;&gt;Node15</title>
<g id="a_edge20_Node000008_Node000015"><a xlink:title=" ">
<path fill="none" stroke="#63b8ff" d="M328.24,-239.08C280.53,-243.05 207.68,-249.13 170.22,-252.25"/>
<polygon fill="#63b8ff" stroke="#63b8ff" points="328.31,-242.58 337.99,-238.27 327.73,-235.61 328.31,-242.58"/>
</a>
</g>
</g>
<!-- Node16 -->
<g id="Node000016" class="node">
<title>Node16</title>
<g id="a_Node000016"><a xlink:href="memory_8c.html#ae8d09a66c8495a0c2ff5c54f1309fd6a" target="_top" xlink:title=" ">
<polygon fill="white" stroke="#666666" points="302.25,-188.88 234.5,-188.88 234.5,-169.63 302.25,-169.63 302.25,-188.88"/>
<text xml:space="preserve" text-anchor="middle" x="268.38" y="-175.38" font-family="Helvetica,sans-Serif" font-size="10.00">kmalloc_init</text>
</a>
</g>
</g>
<!-- Node8&#45;&gt;Node16 -->
<g id="edge22_Node000008_Node000016" class="edge">
<title>Node8&#45;&gt;Node16</title>
<g id="a_edge22_Node000008_Node000016"><a xlink:title=" ">
<path fill="none" stroke="#63b8ff" d="M345.34,-219.87C327.16,-210.15 304.19,-197.87 288.29,-189.37"/>
<polygon fill="#63b8ff" stroke="#63b8ff" points="343.59,-222.9 354.06,-224.53 346.89,-216.73 343.59,-222.9"/>
</a>
</g>
</g>
<!-- Node11 -->
<g id="Node000011" class="node">
<title>Node11</title>
<g id="a_Node000011"><a xlink:href="printf_8c.html#ab97c3c9e783c1402d4007ceafdb197c1" target="_top" xlink:title="Print an unsigned integer in the given base.">
<polygon fill="white" stroke="#666666" points="182,-395.88 108.25,-395.88 108.25,-376.63 182,-376.63 182,-395.88"/>
<text xml:space="preserve" text-anchor="middle" x="145.12" y="-382.38" font-family="Helvetica,sans-Serif" font-size="10.00">put_unsigned</text>
</a>
</g>
</g>
<!-- Node10&#45;&gt;Node11 -->
<g id="edge13_Node000010_Node000011" class="edge">
<title>Node10&#45;&gt;Node11</title>
<g id="a_edge13_Node000010_Node000011"><a xlink:title=" ">
<path fill="none" stroke="#63b8ff" d="M235.67,-344.16C214.12,-354.29 186.2,-367.41 167.31,-376.3"/>
<polygon fill="#63b8ff" stroke="#63b8ff" points="237.05,-347.38 244.61,-339.96 234.07,-341.05 237.05,-347.38"/>
</a>
</g>
</g>
<!-- Node11&#45;&gt;Node1 -->
<g id="edge16_Node000011_Node000001" class="edge">
<title>Node11&#45;&gt;Node1</title>
<g id="a_edge16_Node000011_Node000001"><a xlink:title=" ">
<path fill="none" stroke="#63b8ff" d="M180.62,-400.5C224.7,-417.38 303.75,-443.25 374.12,-443.25 0,-178.25 0,-178.25 467.88,-443.25 524.16,-443.25 589.37,-434.88 626.83,-429.25"/>
<polygon fill="#63b8ff" stroke="#63b8ff" points="181.93,-397.25 171.34,-396.87 179.38,-403.77 181.93,-397.25"/>
</a>
</g>
</g>
<!-- Node11&#45;&gt;Node2 -->
<g id="edge15_Node000011_Node000002" class="edge">
<title>Node11&#45;&gt;Node2</title>
<g id="a_edge15_Node000011_Node000002"><a xlink:title=" ">
<path fill="none" stroke="#63b8ff" d="M193.78,-388.47C277.46,-392.35 448.82,-400.31 521.54,-403.68"/>
<polygon fill="#63b8ff" stroke="#63b8ff" points="194,-384.97 183.85,-388.01 193.67,-391.97 194,-384.97"/>
</a>
</g>
</g>
<!-- Node11&#45;&gt;Node3 -->
<g id="edge14_Node000011_Node000003" class="edge">
<title>Node11&#45;&gt;Node3</title>
<g id="a_edge14_Node000011_Node000003"><a xlink:title=" ">
<path fill="none" stroke="#63b8ff" d="M193.5,-380.62C225.54,-375.42 268.09,-365.76 302.25,-348.25 359.41,-318.97 374.42,-306.34 412,-254.25 441.11,-213.91 457.72,-155.54 463.51,-132.33"/>
<polygon fill="#63b8ff" stroke="#63b8ff" points="193.06,-377.15 183.7,-382.11 194.11,-384.07 193.06,-377.15"/>
</a>
</g>
</g>
<!-- Node13 -->
<g id="Node000013" class="node">
<title>Node13</title>
<g id="a_Node000013"><a xlink:href="interrupt_8c.html#a2a778647bb8df60e6c3238b29eb2fca2" target="_top" xlink:title="VersatilePB SP804 timer clock is typically 1 MHz (can be overridden)">
<polygon fill="white" stroke="#666666" points="198.5,-301.88 91.75,-301.88 91.75,-282.63 198.5,-282.63 198.5,-301.88"/>
<text xml:space="preserve" text-anchor="middle" x="145.12" y="-288.38" font-family="Helvetica,sans-Serif" font-size="10.00">interrupts_init_timer0</text>
</a>
</g>
</g>
<!-- Node12&#45;&gt;Node13 -->
<g id="edge18_Node000012_Node000013" class="edge">
<title>Node12&#45;&gt;Node13</title>
<g id="a_edge18_Node000012_Node000013"><a xlink:title=" ">
<path fill="none" stroke="#63b8ff" d="M231.69,-292.25C221.41,-292.25 209.97,-292.25 198.89,-292.25"/>
<polygon fill="#63b8ff" stroke="#63b8ff" points="231.62,-295.75 241.62,-292.25 231.62,-288.75 231.62,-295.75"/>
</a>
</g>
</g>
<!-- Node13&#45;&gt;Node14 -->
<g id="edge19_Node000013_Node000014" class="edge">
<title>Node13&#45;&gt;Node14</title>
<g id="a_edge19_Node000013_Node000014"><a xlink:title=" ">
<path fill="none" stroke="#63b8ff" d="M102.63,-278.57C87.13,-273.46 69.94,-267.8 56.06,-263.22"/>
<polygon fill="#63b8ff" stroke="#63b8ff" points="101.51,-281.89 112.11,-281.7 103.7,-275.24 101.51,-281.89"/>
</a>
</g>
</g>
<!-- Node15&#45;&gt;Node14 -->
<g id="edge21_Node000015_Node000014" class="edge">
<title>Node15&#45;&gt;Node14</title>
<g id="a_edge21_Node000015_Node000014"><a xlink:title=" ">
<path fill="none" stroke="#63b8ff" d="M108.83,-254.25C91.92,-254.25 71.98,-254.25 56.24,-254.25"/>
<polygon fill="#63b8ff" stroke="#63b8ff" points="108.45,-257.75 118.45,-254.25 108.45,-250.75 108.45,-257.75"/>
</a>
</g>
</g>
<!-- Node16&#45;&gt;Node5 -->
<g id="edge23_Node000016_Node000005" class="edge">
<title>Node16&#45;&gt;Node5</title>
<g id="a_edge23_Node000016_Node000005"><a xlink:title=" ">
<path fill="none" stroke="#63b8ff" d="M241.69,-163.15C217.54,-148.02 182.15,-125.84 161.91,-113.15"/>
<polygon fill="#63b8ff" stroke="#63b8ff" points="239.66,-166.01 249.99,-168.36 243.38,-160.08 239.66,-166.01"/>
</a>
</g>
</g>
</g>
</svg>
