<?xml version="1.0" encoding="UTF-8" standalone="no"?>
<!DOCTYPE svg PUBLIC "-//W3C//DTD SVG 1.1//EN"
 "http://www.w3.org/Graphics/SVG/1.1/DTD/svg11.dtd">
<!-- Generated by graphviz version 14.0.0 (20250921.2048)
 -->
<!-- Title: _divmod Pages: 1 -->
<svg width="652pt" height="209pt"
 viewBox="0.00 0.00 652.00 209.00" xmlns="http://www.w3.org/2000/svg" xmlns:xlink="http://www.w3.org/1999/xlink">
<g id="graph0" class="graph" transform="scale(1 1) rotate(0) translate(4 204.62)">
<title>_divmod</title>
<!-- Node1 -->
<g id="Node000001" class="node">
<title>Node1</title>
<g id="a_Node000001"><a xlink:title="Perform division and return quotient and remainder.">
<polygon fill="#999999" stroke="#666666" points="52.75,-29.62 0,-29.62 0,-10.38 52.75,-10.38 52.75,-29.62"/>
<text xml:space="preserve" text-anchor="middle" x="26.38" y="-16.12" font-family="Helvetica,sans-Serif" font-size="10.00">_divmod</text>
</a>
</g>
</g>
<!-- Node2 -->
<g id="Node000002" class="node">
<title>Node2</title>
<g id="a_Node000002"><a xlink:href="panic_8c.html#ac3d3e7674c5f1ad62a44afce2ff9a0ca" target="_top" xlink:title="Print a panic message and halt the CPU.">
<polygon fill="white" stroke="#666666" points="159.5,-68.62 88.75,-68.62 88.75,-49.38 159.5,-49.38 159.5,-68.62"/>
<text xml:space="preserve" text-anchor="middle" x="124.12" y="-55.12" font-family="Helvetica,sans-Serif" font-size="10.00">kernel_panic</text>
</a>
</g>
</g>
<!-- Node1&#45;&gt;Node2 -->
<g id="edge1_Node000001_Node000002" class="edge">
<title>Node1&#45;&gt;Node2</title>
<g id="a_edge1_Node000001_Node000002"><a xlink:title=" ">
<path fill="none" stroke="#63b8ff" d="M52.03,-30.04C62.98,-34.5 76.06,-39.83 88,-44.69"/>
<polygon fill="#63b8ff" stroke="#63b8ff" points="86.57,-47.89 97.15,-48.42 89.21,-41.41 86.57,-47.89"/>
</a>
</g>
</g>
<!-- Node3 -->
<g id="Node000003" class="node">
<title>Node3</title>
<g id="a_Node000003"><a xlink:href="panic_8c.html#a830ea0b31f5cecec34c74c8a4c2f8192" target="_top" xlink:title="Halt the CPU indefinitely.">
<polygon fill="white" stroke="#666666" points="258.75,-68.62 195.5,-68.62 195.5,-49.38 258.75,-49.38 258.75,-68.62"/>
<text xml:space="preserve" text-anchor="middle" x="227.12" y="-55.12" font-family="Helvetica,sans-Serif" font-size="10.00">kernel_halt</text>
</a>
</g>
</g>
<!-- Node2&#45;&gt;Node3 -->
<g id="edge2_Node000002_Node000003" class="edge">
<title>Node2&#45;&gt;Node3</title>
<g id="a_edge2_Node000002_Node000003"><a xlink:title=" ">
<path fill="none" stroke="#63b8ff" d="M159.88,-59C167.55,-59 175.76,-59 183.69,-59"/>
<polygon fill="#63b8ff" stroke="#63b8ff" points="183.51,-62.5 193.51,-59 183.51,-55.5 183.51,-62.5"/>
</a>
</g>
</g>
<!-- Node4 -->
<g id="Node000004" class="node">
<title>Node4</title>
<g id="a_Node000004"><a xlink:href="printf_8c.html#a0aff7311d684a0e0ef33125616a73385" target="_top" xlink:title="Kernel printf implementation using UART output.">
<polygon fill="white" stroke="#666666" points="246,-105.62 208.25,-105.62 208.25,-86.38 246,-86.38 246,-105.62"/>
<text xml:space="preserve" text-anchor="middle" x="227.12" y="-92.12" font-family="Helvetica,sans-Serif" font-size="10.00">printf</text>
</a>
</g>
</g>
<!-- Node2&#45;&gt;Node4 -->
<g id="edge3_Node000002_Node000004" class="edge">
<title>Node2&#45;&gt;Node4</title>
<g id="a_edge3_Node000002_Node000004"><a xlink:title=" ">
<path fill="none" stroke="#63b8ff" d="M152.72,-69.11C166.55,-74.18 183.28,-80.3 197.28,-85.43"/>
<polygon fill="#63b8ff" stroke="#63b8ff" points="195.79,-88.61 206.38,-88.77 198.2,-82.04 195.79,-88.61"/>
</a>
</g>
</g>
<!-- Node5 -->
<g id="Node000005" class="node">
<title>Node5</title>
<g id="a_Node000005"><a xlink:href="printf_8c.html#ac3154a3597888cf112e4e7bf6a5f1846" target="_top" xlink:title="Format and print an integer based on format control.">
<polygon fill="white" stroke="#666666" points="364,-105.62 294.75,-105.62 294.75,-86.38 364,-86.38 364,-105.62"/>
<text xml:space="preserve" text-anchor="middle" x="329.38" y="-92.12" font-family="Helvetica,sans-Serif" font-size="10.00">put_integers</text>
</a>
</g>
</g>
<!-- Node4&#45;&gt;Node5 -->
<g id="edge4_Node000004_Node000005" class="edge">
<title>Node4&#45;&gt;Node5</title>
<g id="a_edge4_Node000004_Node000005"><a xlink:title=" ">
<path fill="none" stroke="#63b8ff" d="M246.05,-96C256.41,-96 269.97,-96 283.08,-96"/>
<polygon fill="#63b8ff" stroke="#63b8ff" points="282.88,-99.5 292.88,-96 282.88,-92.5 282.88,-99.5"/>
</a>
</g>
</g>
<!-- Node7 -->
<g id="Node000007" class="node">
<title>Node7</title>
<g id="a_Node000007"><a xlink:href="printf_8c.html#ab97c3c9e783c1402d4007ceafdb197c1" target="_top" xlink:title="Print an unsigned integer in the given base.">
<polygon fill="white" stroke="#666666" points="573,-86.62 499.25,-86.62 499.25,-67.38 573,-67.38 573,-86.62"/>
<text xml:space="preserve" text-anchor="middle" x="536.12" y="-73.12" font-family="Helvetica,sans-Serif" font-size="10.00">put_unsigned</text>
</a>
</g>
</g>
<!-- Node4&#45;&gt;Node7 -->
<g id="edge11_Node000004_Node000007" class="edge">
<title>Node4&#45;&gt;Node7</title>
<g id="a_edge11_Node000004_Node000007"><a xlink:title=" ">
<path fill="none" stroke="#63b8ff" d="M246.49,-89.27C259.71,-84.8 278.07,-79.33 294.75,-77 361.19,-67.71 438.96,-70.09 487.65,-73.14"/>
<polygon fill="#63b8ff" stroke="#63b8ff" points="487.35,-76.63 497.56,-73.8 487.82,-69.65 487.35,-76.63"/>
</a>
</g>
</g>
<!-- Node8 -->
<g id="Node000008" class="node">
<title>Node8</title>
<g id="a_Node000008"><a xlink:href="printf_8c.html#a9bdf0418571456c566aa2f329b5f8350" target="_top" xlink:title="Send a single character over UART, waiting if the FIFO is full.">
<polygon fill="white" stroke="#666666" points="643.75,-143.62 609,-143.62 609,-124.38 643.75,-124.38 643.75,-143.62"/>
<text xml:space="preserve" text-anchor="middle" x="626.38" y="-130.12" font-family="Helvetica,sans-Serif" font-size="10.00">putc</text>
</a>
</g>
</g>
<!-- Node4&#45;&gt;Node8 -->
<g id="edge12_Node000004_Node000008" class="edge">
<title>Node4&#45;&gt;Node8</title>
<g id="a_edge12_Node000004_Node000008"><a xlink:title=" ">
<path fill="none" stroke="#63b8ff" d="M246.38,-101.74C259.7,-105.79 278.23,-111.16 294.75,-115 415.66,-143.08 449.01,-144.9 573,-139 581,-138.62 589.66,-137.91 597.59,-137.15"/>
<polygon fill="#63b8ff" stroke="#63b8ff" points="597.8,-140.65 607.39,-136.13 597.08,-133.68 597.8,-140.65"/>
</a>
</g>
</g>
<!-- Node9 -->
<g id="Node000009" class="node">
<title>Node9</title>
<g id="a_Node000009"><a xlink:href="printf_8c.html#a299d0f9cb9e7b14e1278a4ed21e4d76f" target="_top" xlink:title="Transmit a null&#45;terminated string.">
<polygon fill="white" stroke="#666666" points="449,-200.62 414.25,-200.62 414.25,-181.38 449,-181.38 449,-200.62"/>
<text xml:space="preserve" text-anchor="middle" x="431.62" y="-187.12" font-family="Helvetica,sans-Serif" font-size="10.00">puts</text>
</a>
</g>
</g>
<!-- Node4&#45;&gt;Node9 -->
<g id="edge13_Node000004_Node000009" class="edge">
<title>Node4&#45;&gt;Node9</title>
<g id="a_edge13_Node000004_Node000009"><a xlink:title=" ">
<path fill="none" stroke="#63b8ff" d="M234.31,-105.92C244.7,-121.67 267.25,-152.12 294.75,-167 328.85,-185.45 374.16,-190.17 402.86,-191.14"/>
<polygon fill="#63b8ff" stroke="#63b8ff" points="402.48,-194.63 412.55,-191.32 402.62,-187.63 402.48,-194.63"/>
</a>
</g>
</g>
<!-- Node6 -->
<g id="Node000006" class="node">
<title>Node6</title>
<g id="a_Node000006"><a xlink:href="printf_8c.html#a2e8c688dfa078a9a7f1f02d4126f466a" target="_top" xlink:title="Print a signed integer in decimal form.">
<polygon fill="white" stroke="#666666" points="463.25,-124.62 400,-124.62 400,-105.38 463.25,-105.38 463.25,-124.62"/>
<text xml:space="preserve" text-anchor="middle" x="431.62" y="-111.12" font-family="Helvetica,sans-Serif" font-size="10.00">put_signed</text>
</a>
</g>
</g>
<!-- Node5&#45;&gt;Node6 -->
<g id="edge5_Node000005_Node000006" class="edge">
<title>Node5&#45;&gt;Node6</title>
<g id="a_edge5_Node000005_Node000006"><a xlink:title=" ">
<path fill="none" stroke="#63b8ff" d="M364.32,-102.43C372.11,-103.91 380.5,-105.5 388.59,-107.03"/>
<polygon fill="#63b8ff" stroke="#63b8ff" points="387.79,-110.44 398.27,-108.87 389.09,-103.57 387.79,-110.44"/>
</a>
</g>
</g>
<!-- Node5&#45;&gt;Node7 -->
<g id="edge10_Node000005_Node000007" class="edge">
<title>Node5&#45;&gt;Node7</title>
<g id="a_edge10_Node000005_Node000007"><a xlink:title=" ">
<path fill="none" stroke="#63b8ff" d="M364.19,-92.86C397.85,-89.74 449.81,-84.92 487.61,-81.41"/>
<polygon fill="#63b8ff" stroke="#63b8ff" points="487.71,-84.92 497.34,-80.51 487.06,-77.95 487.71,-84.92"/>
</a>
</g>
</g>
<!-- Node6&#45;&gt;Node7 -->
<g id="edge6_Node000006_Node000007" class="edge">
<title>Node6&#45;&gt;Node7</title>
<g id="a_edge6_Node000006_Node000007"><a xlink:title=" ">
<path fill="none" stroke="#63b8ff" d="M459.82,-104.92C471.38,-100.63 485.05,-95.56 497.55,-90.93"/>
<polygon fill="#63b8ff" stroke="#63b8ff" points="498.58,-94.28 506.74,-87.52 496.14,-87.72 498.58,-94.28"/>
</a>
</g>
</g>
<!-- Node6&#45;&gt;Node8 -->
<g id="edge9_Node000006_Node000008" class="edge">
<title>Node6&#45;&gt;Node8</title>
<g id="a_edge9_Node000006_Node000008"><a xlink:title=" ">
<path fill="none" stroke="#63b8ff" d="M463.59,-118.05C500.59,-121.7 561.95,-127.75 597.52,-131.25"/>
<polygon fill="#63b8ff" stroke="#63b8ff" points="596.72,-134.69 607.01,-132.19 597.4,-127.73 596.72,-134.69"/>
</a>
</g>
</g>
<!-- Node7&#45;&gt;Node1 -->
<g id="edge7_Node000007_Node000001" class="edge">
<title>Node7&#45;&gt;Node1</title>
<g id="a_edge7_Node000007_Node000001"><a xlink:title=" ">
<path fill="none" stroke="#63b8ff" d="M519.67,-66.91C486.46,-46.23 405.26,-1 330.38,-1 643.75,0 643.75,0 226.12,-1 169.46,-1 104.12,-8.75 64.29,-14.35"/>
<polygon fill="#63b8ff" stroke="#63b8ff" points="63.92,-10.86 54.53,-15.75 64.92,-17.79 63.92,-10.86"/>
</a>
</g>
</g>
<!-- Node7&#45;&gt;Node8 -->
<g id="edge8_Node000007_Node000008" class="edge">
<title>Node7&#45;&gt;Node8</title>
<g id="a_edge8_Node000007_Node000008"><a xlink:title=" ">
<path fill="none" stroke="#63b8ff" d="M552.5,-86.93C565.7,-95.46 585,-107.92 600.41,-117.88"/>
<polygon fill="#63b8ff" stroke="#63b8ff" points="598.31,-120.69 608.61,-123.17 602.11,-114.81 598.31,-120.69"/>
</a>
</g>
</g>
<!-- Node9&#45;&gt;Node8 -->
<g id="edge14_Node000009_Node000008" class="edge">
<title>Node9&#45;&gt;Node8</title>
<g id="a_edge14_Node000009_Node000008"><a xlink:title=" ">
<path fill="none" stroke="#63b8ff" d="M449.17,-190.26C476,-188.61 530.29,-183.36 573,-167 583.65,-162.92 594.46,-156.56 603.48,-150.5"/>
<polygon fill="#63b8ff" stroke="#63b8ff" points="605.4,-153.43 611.55,-144.81 601.37,-147.71 605.4,-153.43"/>
</a>
</g>
</g>
</g>
</svg>
