<?xml version="1.0" encoding="UTF-8" standalone="no"?>
<!DOCTYPE svg PUBLIC "-//W3C//DTD SVG 1.1//EN"
 "http://www.w3.org/Graphics/SVG/1.1/DTD/svg11.dtd">
<!-- Generated by graphviz version 14.0.0 (20250921.2048)
 -->
<!-- Title: _bdiv Pages: 1 -->
<svg width="656pt" height="185pt"
 viewBox="0.00 0.00 656.00 185.00" xmlns="http://www.w3.org/2000/svg" xmlns:xlink="http://www.w3.org/1999/xlink">
<g id="graph0" class="graph" transform="scale(1 1) rotate(0) translate(4 180.62)">
<title>_bdiv</title>
<!-- Node1 -->
<g id="Node000001" class="node">
<title>Node1</title>
<g id="a_Node000001"><a xlink:title=" ">
<polygon fill="#999999" stroke="#666666" points="39.25,-94.62 0,-94.62 0,-75.38 39.25,-75.38 39.25,-94.62"/>
<text xml:space="preserve" text-anchor="middle" x="19.62" y="-81.12" font-family="Helvetica,sans-Serif" font-size="10.00">_bdiv</text>
</a>
</g>
</g>
<!-- Node2 -->
<g id="Node000002" class="node">
<title>Node2</title>
<g id="a_Node000002"><a xlink:href="panic_8c.html#ac3d3e7674c5f1ad62a44afce2ff9a0ca" target="_top" xlink:title="Print a panic message and halt the CPU.">
<polygon fill="white" stroke="#666666" points="146,-94.62 75.25,-94.62 75.25,-75.38 146,-75.38 146,-94.62"/>
<text xml:space="preserve" text-anchor="middle" x="110.62" y="-81.12" font-family="Helvetica,sans-Serif" font-size="10.00">kernel_panic</text>
</a>
</g>
</g>
<!-- Node1&#45;&gt;Node2 -->
<g id="edge1_Node000001_Node000002" class="edge">
<title>Node1&#45;&gt;Node2</title>
<g id="a_edge1_Node000001_Node000002"><a xlink:title=" ">
<path fill="none" stroke="#63b8ff" d="M39.5,-85C46.59,-85 54.99,-85 63.47,-85"/>
<polygon fill="#63b8ff" stroke="#63b8ff" points="63.45,-88.5 73.45,-85 63.45,-81.5 63.45,-88.5"/>
</a>
</g>
</g>
<!-- Node3 -->
<g id="Node000003" class="node">
<title>Node3</title>
<g id="a_Node000003"><a xlink:href="panic_8c.html#a830ea0b31f5cecec34c74c8a4c2f8192" target="_top" xlink:title="Halt the CPU indefinitely.">
<polygon fill="white" stroke="#666666" points="245.25,-131.62 182,-131.62 182,-112.38 245.25,-112.38 245.25,-131.62"/>
<text xml:space="preserve" text-anchor="middle" x="213.62" y="-118.12" font-family="Helvetica,sans-Serif" font-size="10.00">kernel_halt</text>
</a>
</g>
</g>
<!-- Node2&#45;&gt;Node3 -->
<g id="edge2_Node000002_Node000003" class="edge">
<title>Node2&#45;&gt;Node3</title>
<g id="a_edge2_Node000002_Node000003"><a xlink:title=" ">
<path fill="none" stroke="#63b8ff" d="M139.22,-95.11C150.02,-99.07 162.6,-103.67 174.25,-107.94"/>
<polygon fill="#63b8ff" stroke="#63b8ff" points="173.04,-111.23 183.64,-111.38 175.45,-104.65 173.04,-111.23"/>
</a>
</g>
</g>
<!-- Node4 -->
<g id="Node000004" class="node">
<title>Node4</title>
<g id="a_Node000004"><a xlink:href="printf_8c.html#a0aff7311d684a0e0ef33125616a73385" target="_top" xlink:title="Kernel printf implementation using UART output.">
<polygon fill="white" stroke="#666666" points="232.5,-94.62 194.75,-94.62 194.75,-75.38 232.5,-75.38 232.5,-94.62"/>
<text xml:space="preserve" text-anchor="middle" x="213.62" y="-81.12" font-family="Helvetica,sans-Serif" font-size="10.00">printf</text>
</a>
</g>
</g>
<!-- Node2&#45;&gt;Node4 -->
<g id="edge3_Node000002_Node000004" class="edge">
<title>Node2&#45;&gt;Node4</title>
<g id="a_edge3_Node000002_Node000004"><a xlink:title=" ">
<path fill="none" stroke="#63b8ff" d="M146.38,-85C158.33,-85 171.57,-85 183.06,-85"/>
<polygon fill="#63b8ff" stroke="#63b8ff" points="182.76,-88.5 192.76,-85 182.76,-81.5 182.76,-88.5"/>
</a>
</g>
</g>
<!-- Node5 -->
<g id="Node000005" class="node">
<title>Node5</title>
<g id="a_Node000005"><a xlink:href="printf_8c.html#ac3154a3597888cf112e4e7bf6a5f1846" target="_top" xlink:title="Format and print an integer based on format control.">
<polygon fill="white" stroke="#666666" points="350.5,-94.62 281.25,-94.62 281.25,-75.38 350.5,-75.38 350.5,-94.62"/>
<text xml:space="preserve" text-anchor="middle" x="315.88" y="-81.12" font-family="Helvetica,sans-Serif" font-size="10.00">put_integers</text>
</a>
</g>
</g>
<!-- Node4&#45;&gt;Node5 -->
<g id="edge4_Node000004_Node000005" class="edge">
<title>Node4&#45;&gt;Node5</title>
<g id="a_edge4_Node000004_Node000005"><a xlink:title=" ">
<path fill="none" stroke="#63b8ff" d="M232.55,-85C242.91,-85 256.47,-85 269.58,-85"/>
<polygon fill="#63b8ff" stroke="#63b8ff" points="269.38,-88.5 279.38,-85 269.38,-81.5 269.38,-88.5"/>
</a>
</g>
</g>
<!-- Node7 -->
<g id="Node000007" class="node">
<title>Node7</title>
<g id="a_Node000007"><a xlink:href="printf_8c.html#ab97c3c9e783c1402d4007ceafdb197c1" target="_top" xlink:title="Print an unsigned integer in the given base.">
<polygon fill="white" stroke="#666666" points="559.5,-84.62 485.75,-84.62 485.75,-65.38 559.5,-65.38 559.5,-84.62"/>
<text xml:space="preserve" text-anchor="middle" x="522.62" y="-71.12" font-family="Helvetica,sans-Serif" font-size="10.00">put_unsigned</text>
</a>
</g>
</g>
<!-- Node4&#45;&gt;Node7 -->
<g id="edge12_Node000004_Node000007" class="edge">
<title>Node4&#45;&gt;Node7</title>
<g id="a_edge12_Node000004_Node000007"><a xlink:title=" ">
<path fill="none" stroke="#63b8ff" d="M232.99,-78.27C246.21,-73.8 264.57,-68.33 281.25,-66 347.73,-56.71 425.5,-62.63 474.17,-68.33"/>
<polygon fill="#63b8ff" stroke="#63b8ff" points="473.73,-71.8 484.09,-69.54 474.58,-64.85 473.73,-71.8"/>
</a>
</g>
</g>
<!-- Node9 -->
<g id="Node000009" class="node">
<title>Node9</title>
<g id="a_Node000009"><a xlink:href="printf_8c.html#a9bdf0418571456c566aa2f329b5f8350" target="_top" xlink:title="Send a single character over UART, waiting if the FIFO is full.">
<polygon fill="white" stroke="#666666" points="639.25,-141.62 604.5,-141.62 604.5,-122.38 639.25,-122.38 639.25,-141.62"/>
<text xml:space="preserve" text-anchor="middle" x="621.88" y="-128.12" font-family="Helvetica,sans-Serif" font-size="10.00">putc</text>
</a>
</g>
</g>
<!-- Node4&#45;&gt;Node9 -->
<g id="edge13_Node000004_Node000009" class="edge">
<title>Node4&#45;&gt;Node9</title>
<g id="a_edge13_Node000004_Node000009"><a xlink:title=" ">
<path fill="none" stroke="#63b8ff" d="M232.71,-95.04C236.9,-97.53 241.29,-100.27 245.25,-103 262.15,-114.68 263.34,-121.93 281.25,-132 324.6,-156.38 337.51,-161.43 386.5,-170 462.52,-183.3 484.67,-173.88 559.5,-155 570.84,-152.14 582.97,-147.86 593.43,-143.78"/>
<polygon fill="#63b8ff" stroke="#63b8ff" points="594.65,-147.06 602.6,-140.06 592.02,-140.57 594.65,-147.06"/>
</a>
</g>
</g>
<!-- Node10 -->
<g id="Node000010" class="node">
<title>Node10</title>
<g id="a_Node000010"><a xlink:href="printf_8c.html#a299d0f9cb9e7b14e1278a4ed21e4d76f" target="_top" xlink:title="Transmit a null&#45;terminated string.">
<polygon fill="white" stroke="#666666" points="435.5,-160.62 400.75,-160.62 400.75,-141.38 435.5,-141.38 435.5,-160.62"/>
<text xml:space="preserve" text-anchor="middle" x="418.12" y="-147.12" font-family="Helvetica,sans-Serif" font-size="10.00">puts</text>
</a>
</g>
</g>
<!-- Node4&#45;&gt;Node10 -->
<g id="edge14_Node000004_Node000010" class="edge">
<title>Node4&#45;&gt;Node10</title>
<g id="a_edge14_Node000004_Node000010"><a xlink:title=" ">
<path fill="none" stroke="#63b8ff" d="M232.95,-90.97C268.64,-102.6 347.62,-128.35 389.62,-142.03"/>
<polygon fill="#63b8ff" stroke="#63b8ff" points="388.38,-145.31 398.98,-145.08 390.55,-138.66 388.38,-145.31"/>
</a>
</g>
</g>
<!-- Node6 -->
<g id="Node000006" class="node">
<title>Node6</title>
<g id="a_Node000006"><a xlink:href="printf_8c.html#a2e8c688dfa078a9a7f1f02d4126f466a" target="_top" xlink:title="Print a signed integer in decimal form.">
<polygon fill="white" stroke="#666666" points="449.75,-123.62 386.5,-123.62 386.5,-104.38 449.75,-104.38 449.75,-123.62"/>
<text xml:space="preserve" text-anchor="middle" x="418.12" y="-110.12" font-family="Helvetica,sans-Serif" font-size="10.00">put_signed</text>
</a>
</g>
</g>
<!-- Node5&#45;&gt;Node6 -->
<g id="edge5_Node000005_Node000006" class="edge">
<title>Node5&#45;&gt;Node6</title>
<g id="a_edge5_Node000005_Node000006"><a xlink:title=" ">
<path fill="none" stroke="#63b8ff" d="M350.82,-94.82C358.7,-97.1 367.19,-99.56 375.37,-101.92"/>
<polygon fill="#63b8ff" stroke="#63b8ff" points="374.22,-105.23 384.8,-104.65 376.17,-98.51 374.22,-105.23"/>
</a>
</g>
</g>
<!-- Node5&#45;&gt;Node7 -->
<g id="edge11_Node000005_Node000007" class="edge">
<title>Node5&#45;&gt;Node7</title>
<g id="a_edge11_Node000005_Node000007"><a xlink:title=" ">
<path fill="none" stroke="#63b8ff" d="M350.69,-83.35C384.35,-81.7 436.31,-79.17 474.11,-77.32"/>
<polygon fill="#63b8ff" stroke="#63b8ff" points="474.02,-80.83 483.84,-76.85 473.68,-73.84 474.02,-80.83"/>
</a>
</g>
</g>
<!-- Node6&#45;&gt;Node7 -->
<g id="edge6_Node000006_Node000007" class="edge">
<title>Node6&#45;&gt;Node7</title>
<g id="a_edge6_Node000006_Node000007"><a xlink:title=" ">
<path fill="none" stroke="#63b8ff" d="M445.52,-103.96C457.48,-99.41 471.81,-93.95 484.8,-89.01"/>
<polygon fill="#63b8ff" stroke="#63b8ff" points="485.8,-92.38 493.9,-85.55 483.31,-85.83 485.8,-92.38"/>
</a>
</g>
</g>
<!-- Node6&#45;&gt;Node9 -->
<g id="edge10_Node000006_Node000009" class="edge">
<title>Node6&#45;&gt;Node9</title>
<g id="a_edge10_Node000006_Node000009"><a xlink:title=" ">
<path fill="none" stroke="#63b8ff" d="M450.21,-116.77C489.2,-120.25 555.5,-126.17 592.95,-129.51"/>
<polygon fill="#63b8ff" stroke="#63b8ff" points="592.25,-132.96 602.52,-130.36 592.87,-125.99 592.25,-132.96"/>
</a>
</g>
</g>
<!-- Node8 -->
<g id="Node000008" class="node">
<title>Node8</title>
<g id="a_Node000008"><a xlink:href="printf_8c.html#a96a30e819fcbfa9a0251f71f14ff79bc" target="_top" xlink:title="Perform division and return quotient and remainder.">
<polygon fill="white" stroke="#666666" points="648.25,-47.62 595.5,-47.62 595.5,-28.38 648.25,-28.38 648.25,-47.62"/>
<text xml:space="preserve" text-anchor="middle" x="621.88" y="-34.12" font-family="Helvetica,sans-Serif" font-size="10.00">_divmod</text>
</a>
</g>
</g>
<!-- Node7&#45;&gt;Node8 -->
<g id="edge7_Node000007_Node000008" class="edge">
<title>Node7&#45;&gt;Node8</title>
<g id="a_edge7_Node000007_Node000008"><a xlink:title=" ">
<path fill="none" stroke="#63b8ff" d="M550.2,-64.89C560.77,-60.87 573.1,-56.18 584.48,-51.85"/>
<polygon fill="#63b8ff" stroke="#63b8ff" points="585.49,-55.21 593.59,-48.38 583,-48.67 585.49,-55.21"/>
</a>
</g>
</g>
<!-- Node7&#45;&gt;Node9 -->
<g id="edge9_Node000007_Node000009" class="edge">
<title>Node7&#45;&gt;Node9</title>
<g id="a_edge9_Node000007_Node000009"><a xlink:title=" ">
<path fill="none" stroke="#63b8ff" d="M540.56,-84.93C555.49,-93.67 577.46,-106.55 594.65,-116.63"/>
<polygon fill="#63b8ff" stroke="#63b8ff" points="592.43,-119.38 602.82,-121.42 595.97,-113.34 592.43,-119.38"/>
</a>
</g>
</g>
<!-- Node8&#45;&gt;Node2 -->
<g id="edge8_Node000008_Node000002" class="edge">
<title>Node8&#45;&gt;Node2</title>
<g id="a_edge8_Node000008_Node000002"><a xlink:title=" ">
<path fill="none" stroke="#63b8ff" d="M595.05,-29.94C556.96,-18.79 483.28,0 419.12,0 648.25,-36 648.25,-36 314.88,0 244.6,0 170.51,-43.78 134.27,-68.5"/>
<polygon fill="#63b8ff" stroke="#63b8ff" points="132.53,-65.45 126.33,-74.05 136.54,-71.19 132.53,-65.45"/>
</a>
</g>
</g>
<!-- Node10&#45;&gt;Node9 -->
<g id="edge15_Node000010_Node000009" class="edge">
<title>Node10&#45;&gt;Node9</title>
<g id="a_edge15_Node000010_Node000009"><a xlink:title=" ">
<path fill="none" stroke="#63b8ff" d="M435.98,-149.41C470.63,-146.15 550.18,-138.66 592.76,-134.65"/>
<polygon fill="#63b8ff" stroke="#63b8ff" points="593.08,-138.13 602.7,-133.71 592.42,-131.16 593.08,-138.13"/>
</a>
</g>
</g>
</g>
</svg>
