<?xml version="1.0" encoding="UTF-8" standalone="no"?>
<!DOCTYPE svg PUBLIC "-//W3C//DTD SVG 1.1//EN"
 "http://www.w3.org/Graphics/SVG/1.1/DTD/svg11.dtd">
<!-- Generated by graphviz version 14.0.0 (20250921.2048)
 -->
<!-- Title: _validate_format_specifier Pages: 1 -->
<svg width="660pt" height="279pt"
 viewBox="0.00 0.00 660.00 279.00" xmlns="http://www.w3.org/2000/svg" xmlns:xlink="http://www.w3.org/1999/xlink">
<g id="graph0" class="graph" transform="scale(1 1) rotate(0) translate(4 275.29)">
<title>_validate_format_specifier</title>
<!-- Node1 -->
<g id="Node000001" class="node">
<title>Node1</title>
<g id="a_Node000001"><a xlink:title=" ">
<polygon fill="#999999" stroke="#666666" points="651.75,-176.29 521.75,-176.29 521.75,-157.04 651.75,-157.04 651.75,-176.29"/>
<text xml:space="preserve" text-anchor="middle" x="586.75" y="-162.79" font-family="Helvetica,sans-Serif" font-size="10.00">_validate_format_specifier</text>
</a>
</g>
</g>
<!-- Node2 -->
<g id="Node000002" class="node">
<title>Node2</title>
<g id="a_Node000002"><a xlink:href="printf_8c.html#ae3b4a573e37c0433d9d0384904e35acb" target="_top" xlink:title=" ">
<polygon fill="white" stroke="#666666" points="485.75,-176.29 448,-176.29 448,-157.04 485.75,-157.04 485.75,-176.29"/>
<text xml:space="preserve" text-anchor="middle" x="466.88" y="-162.79" font-family="Helvetica,sans-Serif" font-size="10.00">printf</text>
</a>
</g>
</g>
<!-- Node1&#45;&gt;Node2 -->
<g id="edge1_Node000001_Node000002" class="edge">
<title>Node1&#45;&gt;Node2</title>
<g id="a_edge1_Node000001_Node000002"><a xlink:title=" ">
<path fill="none" stroke="#63b8ff" d="M509.97,-166.67C501.2,-166.67 492.97,-166.67 486.16,-166.67"/>
<polygon fill="#63b8ff" stroke="#63b8ff" points="509.78,-170.17 519.78,-166.67 509.78,-163.17 509.78,-170.17"/>
</a>
</g>
</g>
<!-- Node2&#45;&gt;Node2 -->
<g id="edge18_Node000002_Node000002" class="edge">
<title>Node2&#45;&gt;Node2</title>
<g id="a_edge18_Node000002_Node000002"><a xlink:title=" ">
<path fill="none" stroke="#63b8ff" d="M483.16,-187.7C481.12,-191.57 475.69,-194.29 466.88,-194.29 450.75,-194.29 445.96,-185.19 452.51,-176.58"/>
<polygon fill="#63b8ff" stroke="#63b8ff" points="486.65,-187.33 481.5,-178.07 479.75,-188.52 486.65,-187.33"/>
</a>
</g>
</g>
<!-- Node3 -->
<g id="Node000003" class="node">
<title>Node3</title>
<g id="a_Node000003"><a xlink:href="clear_8c.html#ae683fe63c33c388e9ba1c6392dd477eb" target="_top" xlink:title="Clears the terminal screen and moves the cursor to the home position.">
<polygon fill="white" stroke="#666666" points="286.88,-271.29 249.88,-271.29 249.88,-252.04 286.88,-252.04 286.88,-271.29"/>
<text xml:space="preserve" text-anchor="middle" x="268.38" y="-257.79" font-family="Helvetica,sans-Serif" font-size="10.00">clear</text>
</a>
</g>
</g>
<!-- Node2&#45;&gt;Node3 -->
<g id="edge2_Node000002_Node000003" class="edge">
<title>Node2&#45;&gt;Node3</title>
<g id="a_edge2_Node000002_Node000003"><a xlink:title=" ">
<path fill="none" stroke="#63b8ff" d="M456.34,-186.35C447.29,-202.82 432.09,-225.51 412,-237.67 372.26,-261.72 315.47,-263.54 287.03,-262.71"/>
<polygon fill="#63b8ff" stroke="#63b8ff" points="459.21,-188.44 460.7,-177.95 452.99,-185.22 459.21,-188.44"/>
</a>
</g>
</g>
<!-- Node4 -->
<g id="Node000004" class="node">
<title>Node4</title>
<g id="a_Node000004"><a xlink:href="kernel_8c.html#a6b8fb674fb359f6ae53dc9c4fb7fc6be" target="_top" xlink:title=" ">
<polygon fill="white" stroke="#666666" points="179.38,-195.29 110.88,-195.29 110.88,-176.04 179.38,-176.04 179.38,-195.29"/>
<text xml:space="preserve" text-anchor="middle" x="145.12" y="-181.79" font-family="Helvetica,sans-Serif" font-size="10.00">kernel_main</text>
</a>
</g>
</g>
<!-- Node2&#45;&gt;Node4 -->
<g id="edge8_Node000002_Node000004" class="edge">
<title>Node2&#45;&gt;Node4</title>
<g id="a_edge8_Node000002_Node000004"><a xlink:title=" ">
<path fill="none" stroke="#63b8ff" d="M447.13,-184.23C437.43,-192.12 424.93,-200.57 412,-204.67 331.5,-230.2 230.65,-209.68 179.38,-195.78"/>
<polygon fill="#63b8ff" stroke="#63b8ff" points="449.41,-186.89 454.67,-177.7 444.82,-181.61 449.41,-186.89"/>
</a>
</g>
</g>
<!-- Node5 -->
<g id="Node000005" class="node">
<title>Node5</title>
<g id="a_Node000005"><a xlink:href="printf_8c.html#a7880ed31ba841d890680635d6b83fcb7" target="_top" xlink:title=" ">
<polygon fill="white" stroke="#666666" points="400,-195.29 350.25,-195.29 350.25,-176.04 400,-176.04 400,-195.29"/>
<text xml:space="preserve" text-anchor="middle" x="375.12" y="-181.79" font-family="Helvetica,sans-Serif" font-size="10.00">getlines</text>
</a>
</g>
</g>
<!-- Node2&#45;&gt;Node5 -->
<g id="edge4_Node000002_Node000005" class="edge">
<title>Node2&#45;&gt;Node5</title>
<g id="a_edge4_Node000002_Node000005"><a xlink:title=" ">
<path fill="none" stroke="#63b8ff" d="M436.67,-172.85C424.94,-175.34 411.57,-178.17 400.39,-180.53"/>
<polygon fill="#63b8ff" stroke="#63b8ff" points="437.17,-176.32 446.23,-170.83 435.72,-169.48 437.17,-176.32"/>
</a>
</g>
</g>
<!-- Node6 -->
<g id="Node000006" class="node">
<title>Node6</title>
<g id="a_Node000006"><a xlink:href="kernel_8c.html#a5f7f5591859a697cdeb5faafdf0ce822" target="_top" xlink:title=" ">
<polygon fill="white" stroke="#666666" points="412,-157.29 338.25,-157.29 338.25,-138.04 412,-138.04 412,-157.29"/>
<text xml:space="preserve" text-anchor="middle" x="375.12" y="-143.79" font-family="Helvetica,sans-Serif" font-size="10.00">init_message</text>
</a>
</g>
</g>
<!-- Node2&#45;&gt;Node6 -->
<g id="edge6_Node000002_Node000006" class="edge">
<title>Node2&#45;&gt;Node6</title>
<g id="a_edge6_Node000002_Node000006"><a xlink:title=" ">
<path fill="none" stroke="#63b8ff" d="M436.66,-160.49C428.93,-158.85 420.49,-157.06 412.43,-155.36"/>
<polygon fill="#63b8ff" stroke="#63b8ff" points="435.72,-163.86 446.23,-162.51 437.17,-157.02 435.72,-163.86"/>
</a>
</g>
</g>
<!-- Node7 -->
<g id="Node000007" class="node">
<title>Node7</title>
<g id="a_Node000007"><a xlink:href="panic_8c.html#ac3d3e7674c5f1ad62a44afce2ff9a0ca" target="_top" xlink:title="Print a panic message and halt the CPU.">
<polygon fill="white" stroke="#666666" points="410.5,-101.29 339.75,-101.29 339.75,-82.04 410.5,-82.04 410.5,-101.29"/>
<text xml:space="preserve" text-anchor="middle" x="375.12" y="-87.79" font-family="Helvetica,sans-Serif" font-size="10.00">kernel_panic</text>
</a>
</g>
</g>
<!-- Node2&#45;&gt;Node7 -->
<g id="edge9_Node000002_Node000007" class="edge">
<title>Node2&#45;&gt;Node7</title>
<g id="a_edge9_Node000002_Node000007"><a xlink:title=" ">
<path fill="none" stroke="#63b8ff" d="M445.26,-149.44C427.54,-134.64 402.62,-113.81 388.04,-101.62"/>
<polygon fill="#63b8ff" stroke="#63b8ff" points="442.69,-151.86 452.61,-155.58 447.18,-146.49 442.69,-151.86"/>
</a>
</g>
</g>
<!-- Node10 -->
<g id="Node000010" class="node">
<title>Node10</title>
<g id="a_Node000010"><a xlink:href="kernel_8c.html#a8a11654fcf5bd5fcf10f118ad5f79904" target="_top" xlink:title=" ">
<polygon fill="white" stroke="#666666" points="55.75,-44.29 0,-44.29 0,-25.04 55.75,-25.04 55.75,-44.29"/>
<text xml:space="preserve" text-anchor="middle" x="27.88" y="-30.79" font-family="Helvetica,sans-Serif" font-size="10.00">not_main</text>
</a>
</g>
</g>
<!-- Node2&#45;&gt;Node10 -->
<g id="edge17_Node000002_Node000010" class="edge">
<title>Node2&#45;&gt;Node10</title>
<g id="a_edge17_Node000002_Node000010"><a xlink:title=" ">
<path fill="none" stroke="#63b8ff" d="M458.95,-145.82C450.88,-124.55 435.56,-92.02 412,-72.67 300.3,19.1 234.77,5.47 91.75,-15.67 79.79,-17.44 66.96,-21 56.02,-24.56"/>
<polygon fill="#63b8ff" stroke="#63b8ff" points="455.63,-146.91 462.28,-155.15 462.22,-144.56 455.63,-146.91"/>
</a>
</g>
</g>
<!-- Node3&#45;&gt;Node4 -->
<g id="edge3_Node000003_Node000004" class="edge">
<title>Node3&#45;&gt;Node4</title>
<g id="a_edge3_Node000003_Node000004"><a xlink:title=" ">
<path fill="none" stroke="#63b8ff" d="M241.69,-245.57C217.54,-230.43 182.15,-208.25 161.91,-195.56"/>
<polygon fill="#63b8ff" stroke="#63b8ff" points="239.66,-248.43 249.99,-250.77 243.38,-242.5 239.66,-248.43"/>
</a>
</g>
</g>
<!-- Node5&#45;&gt;Node4 -->
<g id="edge5_Node000005_Node000004" class="edge">
<title>Node5&#45;&gt;Node4</title>
<g id="a_edge5_Node000005_Node000004"><a xlink:title=" ">
<path fill="none" stroke="#63b8ff" d="M338.75,-185.67C295.33,-185.67 222.25,-185.67 179.68,-185.67"/>
<polygon fill="#63b8ff" stroke="#63b8ff" points="338.64,-189.17 348.64,-185.67 338.64,-182.17 338.64,-189.17"/>
</a>
</g>
</g>
<!-- Node6&#45;&gt;Node4 -->
<g id="edge7_Node000006_Node000004" class="edge">
<title>Node6&#45;&gt;Node4</title>
<g id="a_edge7_Node000006_Node000004"><a xlink:title=" ">
<path fill="none" stroke="#63b8ff" d="M326.75,-155.56C282.88,-162.88 218.73,-173.57 179.85,-180.05"/>
<polygon fill="#63b8ff" stroke="#63b8ff" points="327.22,-159.04 336.5,-153.94 326.07,-152.13 327.22,-159.04"/>
</a>
</g>
</g>
<!-- Node8 -->
<g id="Node000008" class="node">
<title>Node8</title>
<g id="a_Node000008"><a xlink:href="math_8h.html#a97fbf4adb8a31d415775bdbd5c30c468" target="_top" xlink:title="Unsigned 32&#45;bit integer division: n / d.">
<polygon fill="white" stroke="#666666" points="293.25,-82.29 243.5,-82.29 243.5,-63.04 293.25,-63.04 293.25,-82.29"/>
<text xml:space="preserve" text-anchor="middle" x="268.38" y="-68.79" font-family="Helvetica,sans-Serif" font-size="10.00">_udiv32</text>
</a>
</g>
</g>
<!-- Node7&#45;&gt;Node8 -->
<g id="edge10_Node000007_Node000008" class="edge">
<title>Node7&#45;&gt;Node8</title>
<g id="a_edge10_Node000007_Node000008"><a xlink:title=" ">
<path fill="none" stroke="#63b8ff" d="M328.32,-83.36C316.38,-81.2 303.99,-78.95 293.66,-77.07"/>
<polygon fill="#63b8ff" stroke="#63b8ff" points="327.58,-86.78 338.05,-85.13 328.83,-79.9 327.58,-86.78"/>
</a>
</g>
</g>
<!-- Node11 -->
<g id="Node000011" class="node">
<title>Node11</title>
<g id="a_Node000011"><a xlink:href="memory_8c.html#a87d8585002a620e687d68b38ab387a0e" target="_top" xlink:title=" ">
<polygon fill="white" stroke="#666666" points="170,-44.29 120.25,-44.29 120.25,-25.04 170,-25.04 170,-44.29"/>
<text xml:space="preserve" text-anchor="middle" x="145.12" y="-30.79" font-family="Helvetica,sans-Serif" font-size="10.00">kmalloc</text>
</a>
</g>
</g>
<!-- Node7&#45;&gt;Node11 -->
<g id="edge13_Node000007_Node000011" class="edge">
<title>Node7&#45;&gt;Node11</title>
<g id="a_edge13_Node000007_Node000011"><a xlink:title=" ">
<path fill="none" stroke="#63b8ff" d="M349.67,-75.86C336.2,-67.91 318.89,-58.88 302.25,-53.67 257.04,-39.5 201.4,-35.81 170.23,-34.9"/>
<polygon fill="#63b8ff" stroke="#63b8ff" points="347.49,-78.63 357.85,-80.86 351.14,-72.66 347.49,-78.63"/>
</a>
</g>
</g>
<!-- Node12 -->
<g id="Node000012" class="node">
<title>Node12</title>
<g id="a_Node000012"><a xlink:href="memory_8c.html#ae8d09a66c8495a0c2ff5c54f1309fd6a" target="_top" xlink:title=" ">
<polygon fill="white" stroke="#666666" points="302.25,-119.29 234.5,-119.29 234.5,-100.04 302.25,-100.04 302.25,-119.29"/>
<text xml:space="preserve" text-anchor="middle" x="268.38" y="-105.79" font-family="Helvetica,sans-Serif" font-size="10.00">kmalloc_init</text>
</a>
</g>
</g>
<!-- Node7&#45;&gt;Node12 -->
<g id="edge15_Node000007_Node000012" class="edge">
<title>Node7&#45;&gt;Node12</title>
<g id="a_edge15_Node000007_Node000012"><a xlink:title=" ">
<path fill="none" stroke="#63b8ff" d="M328.34,-99.54C319.65,-101.03 310.71,-102.57 302.51,-103.98"/>
<polygon fill="#63b8ff" stroke="#63b8ff" points="328.78,-103.01 338.04,-97.87 327.6,-96.11 328.78,-103.01"/>
</a>
</g>
</g>
<!-- Node9 -->
<g id="Node000009" class="node">
<title>Node9</title>
<g id="a_Node000009"><a xlink:href="interrupt_8c.html#a2a778647bb8df60e6c3238b29eb2fca2" target="_top" xlink:title="VersatilePB SP804 timer clock is typically 1 MHz (can be overridden)">
<polygon fill="white" stroke="#666666" points="198.5,-82.29 91.75,-82.29 91.75,-63.04 198.5,-63.04 198.5,-82.29"/>
<text xml:space="preserve" text-anchor="middle" x="145.12" y="-68.79" font-family="Helvetica,sans-Serif" font-size="10.00">interrupts_init_timer0</text>
</a>
</g>
</g>
<!-- Node8&#45;&gt;Node9 -->
<g id="edge11_Node000008_Node000009" class="edge">
<title>Node8&#45;&gt;Node9</title>
<g id="a_edge11_Node000008_Node000009"><a xlink:title=" ">
<path fill="none" stroke="#63b8ff" d="M231.69,-72.67C221.41,-72.67 209.97,-72.67 198.89,-72.67"/>
<polygon fill="#63b8ff" stroke="#63b8ff" points="231.62,-76.17 241.62,-72.67 231.62,-69.17 231.62,-76.17"/>
</a>
</g>
</g>
<!-- Node9&#45;&gt;Node10 -->
<g id="edge12_Node000009_Node000010" class="edge">
<title>Node9&#45;&gt;Node10</title>
<g id="a_edge12_Node000009_Node000010"><a xlink:title=" ">
<path fill="none" stroke="#63b8ff" d="M102.63,-58.99C87.13,-53.88 69.94,-48.21 56.06,-43.63"/>
<polygon fill="#63b8ff" stroke="#63b8ff" points="101.51,-62.3 112.11,-62.11 103.7,-55.66 101.51,-62.3"/>
</a>
</g>
</g>
<!-- Node11&#45;&gt;Node10 -->
<g id="edge14_Node000011_Node000010" class="edge">
<title>Node11&#45;&gt;Node10</title>
<g id="a_edge14_Node000011_Node000010"><a xlink:title=" ">
<path fill="none" stroke="#63b8ff" d="M108.83,-34.67C91.92,-34.67 71.98,-34.67 56.24,-34.67"/>
<polygon fill="#63b8ff" stroke="#63b8ff" points="108.45,-38.17 118.45,-34.67 108.45,-31.17 108.45,-38.17"/>
</a>
</g>
</g>
<!-- Node12&#45;&gt;Node4 -->
<g id="edge16_Node000012_Node000004" class="edge">
<title>Node12&#45;&gt;Node4</title>
<g id="a_edge16_Node000012_Node000004"><a xlink:title=" ">
<path fill="none" stroke="#63b8ff" d="M241.69,-125.77C217.54,-140.91 182.15,-163.09 161.91,-175.78"/>
<polygon fill="#63b8ff" stroke="#63b8ff" points="243.38,-128.84 249.99,-120.57 239.66,-122.91 243.38,-128.84"/>
</a>
</g>
</g>
</g>
</svg>
