<?xml version="1.0" encoding="UTF-8" standalone="no"?>
<!DOCTYPE svg PUBLIC "-//W3C//DTD SVG 1.1//EN"
 "http://www.w3.org/Graphics/SVG/1.1/DTD/svg11.dtd">
<!-- Generated by graphviz version 14.0.0 (20250921.2048)
 -->
<!-- Title: _putunsignedlong Pages: 1 -->
<svg width="850pt" height="270pt"
 viewBox="0.00 0.00 850.00 270.00" xmlns="http://www.w3.org/2000/svg" xmlns:xlink="http://www.w3.org/1999/xlink">
<g id="graph0" class="graph" transform="scale(1 1) rotate(0) translate(4 265.53)">
<title>_putunsignedlong</title>
<!-- Node1 -->
<g id="Node000001" class="node">
<title>Node1</title>
<g id="a_Node000001"><a xlink:title=" ">
<polygon fill="#999999" stroke="#666666" points="842,-147.53 750.25,-147.53 750.25,-128.28 842,-128.28 842,-147.53"/>
<text xml:space="preserve" text-anchor="middle" x="796.12" y="-134.03" font-family="Helvetica,sans-Serif" font-size="10.00">_putunsignedlong</text>
</a>
</g>
</g>
<!-- Node2 -->
<g id="Node000002" class="node">
<title>Node2</title>
<g id="a_Node000002"><a xlink:href="printf_8c.html#ad22af70967959054d79902aec3721d14" target="_top" xlink:title=" ">
<polygon fill="white" stroke="#666666" points="711.62,-204.53 632.62,-204.53 632.62,-185.28 711.62,-185.28 711.62,-204.53"/>
<text xml:space="preserve" text-anchor="middle" x="672.12" y="-191.03" font-family="Helvetica,sans-Serif" font-size="10.00">_puthexcapital</text>
</a>
</g>
</g>
<!-- Node1&#45;&gt;Node2 -->
<g id="edge1_Node000001_Node000002" class="edge">
<title>Node1&#45;&gt;Node2</title>
<g id="a_edge1_Node000001_Node000002"><a xlink:title=" ">
<path fill="none" stroke="#63b8ff" d="M763.23,-152.81C741.54,-162.94 713.45,-176.07 694.44,-184.95"/>
<polygon fill="#63b8ff" stroke="#63b8ff" points="764.65,-156.01 772.22,-148.61 761.68,-149.67 764.65,-156.01"/>
</a>
</g>
</g>
<!-- Node3 -->
<g id="Node000003" class="node">
<title>Node3</title>
<g id="a_Node000003"><a xlink:href="printf_8c.html#a229f3a914ff741b54897f96250dbf980" target="_top" xlink:title=" ">
<polygon fill="white" stroke="#666666" points="594,-166.53 524.75,-166.53 524.75,-147.28 594,-147.28 594,-166.53"/>
<text xml:space="preserve" text-anchor="middle" x="559.38" y="-153.03" font-family="Helvetica,sans-Serif" font-size="10.00">_putintegers</text>
</a>
</g>
</g>
<!-- Node1&#45;&gt;Node3 -->
<g id="edge23_Node000001_Node000003" class="edge">
<title>Node1&#45;&gt;Node3</title>
<g id="a_edge23_Node000001_Node000003"><a xlink:title=" ">
<path fill="none" stroke="#63b8ff" d="M738.52,-142.49C693.56,-146.13 632.18,-151.1 594.46,-154.15"/>
<polygon fill="#63b8ff" stroke="#63b8ff" points="738.67,-145.99 748.35,-141.69 738.1,-139.01 738.67,-145.99"/>
</a>
</g>
</g>
<!-- Node15 -->
<g id="Node000015" class="node">
<title>Node15</title>
<g id="a_Node000015"><a xlink:href="printf_8c.html#a6ff3a4f52ca94cf220df24b61b7bd106" target="_top" xlink:title=" ">
<polygon fill="white" stroke="#666666" points="709,-128.53 635.25,-128.53 635.25,-109.28 709,-109.28 709,-128.53"/>
<text xml:space="preserve" text-anchor="middle" x="672.12" y="-115.03" font-family="Helvetica,sans-Serif" font-size="10.00">_puthexsmall</text>
</a>
</g>
</g>
<!-- Node1&#45;&gt;Node15 -->
<g id="edge21_Node000001_Node000015" class="edge">
<title>Node1&#45;&gt;Node15</title>
<g id="a_edge21_Node000001_Node000015"><a xlink:title=" ">
<path fill="none" stroke="#63b8ff" d="M738.83,-129.14C728.78,-127.58 718.56,-125.98 709.27,-124.54"/>
<polygon fill="#63b8ff" stroke="#63b8ff" points="738.13,-132.57 748.55,-130.65 739.21,-125.66 738.13,-132.57"/>
</a>
</g>
</g>
<!-- Node16 -->
<g id="Node000016" class="node">
<title>Node16</title>
<g id="a_Node000016"><a xlink:href="printf_8c.html#a97131bc453b7cc6fd2a6e7f9695081b1" target="_top" xlink:title=" ">
<polygon fill="white" stroke="#666666" points="714.25,-91.53 630,-91.53 630,-72.28 714.25,-72.28 714.25,-91.53"/>
<text xml:space="preserve" text-anchor="middle" x="672.12" y="-78.03" font-family="Helvetica,sans-Serif" font-size="10.00">_putunsignedint</text>
</a>
</g>
</g>
<!-- Node1&#45;&gt;Node16 -->
<g id="edge24_Node000001_Node000016" class="edge">
<title>Node1&#45;&gt;Node16</title>
<g id="a_edge24_Node000001_Node000016"><a xlink:title=" ">
<path fill="none" stroke="#63b8ff" d="M763.98,-123.04C748.99,-115.94 730.73,-107.39 714.25,-99.91 708.43,-97.27 702.12,-94.47 696.23,-91.89"/>
<polygon fill="#63b8ff" stroke="#63b8ff" points="762.35,-126.14 772.88,-127.26 765.35,-119.81 762.35,-126.14"/>
</a>
</g>
</g>
<!-- Node2&#45;&gt;Node3 -->
<g id="edge2_Node000002_Node000003" class="edge">
<title>Node2&#45;&gt;Node3</title>
<g id="a_edge2_Node000002_Node000003"><a xlink:title=" ">
<path fill="none" stroke="#63b8ff" d="M631.08,-181.17C617.34,-176.45 602.23,-171.27 589.52,-166.91"/>
<polygon fill="#63b8ff" stroke="#63b8ff" points="629.71,-184.4 640.31,-184.33 631.98,-177.78 629.71,-184.4"/>
</a>
</g>
</g>
<!-- Node4 -->
<g id="Node000004" class="node">
<title>Node4</title>
<g id="a_Node000004"><a xlink:href="printf_8c.html#ae3b4a573e37c0433d9d0384904e35acb" target="_top" xlink:title=" ">
<polygon fill="white" stroke="#666666" points="488.75,-166.53 451,-166.53 451,-147.28 488.75,-147.28 488.75,-166.53"/>
<text xml:space="preserve" text-anchor="middle" x="469.88" y="-153.03" font-family="Helvetica,sans-Serif" font-size="10.00">printf</text>
</a>
</g>
</g>
<!-- Node3&#45;&gt;Node4 -->
<g id="edge3_Node000003_Node000004" class="edge">
<title>Node3&#45;&gt;Node4</title>
<g id="a_edge3_Node000003_Node000004"><a xlink:title=" ">
<path fill="none" stroke="#63b8ff" d="M513.06,-156.91C504.47,-156.91 495.96,-156.91 488.86,-156.91"/>
<polygon fill="#63b8ff" stroke="#63b8ff" points="512.78,-160.41 522.78,-156.91 512.78,-153.41 512.78,-160.41"/>
</a>
</g>
</g>
<!-- Node4&#45;&gt;Node4 -->
<g id="edge20_Node000004_Node000004" class="edge">
<title>Node4&#45;&gt;Node4</title>
<g id="a_edge20_Node000004_Node000004"><a xlink:title=" ">
<path fill="none" stroke="#63b8ff" d="M485.76,-177.94C483.77,-181.81 478.48,-184.53 469.88,-184.53 454.14,-184.53 449.47,-175.43 455.86,-166.82"/>
<polygon fill="#63b8ff" stroke="#63b8ff" points="489.25,-177.59 484.14,-168.31 482.35,-178.76 489.25,-177.59"/>
</a>
</g>
</g>
<!-- Node5 -->
<g id="Node000005" class="node">
<title>Node5</title>
<g id="a_Node000005"><a xlink:href="clear_8c.html#ae683fe63c33c388e9ba1c6392dd477eb" target="_top" xlink:title="Clears the terminal screen and moves the cursor to the home position.">
<polygon fill="white" stroke="#666666" points="398.12,-261.53 361.12,-261.53 361.12,-242.28 398.12,-242.28 398.12,-261.53"/>
<text xml:space="preserve" text-anchor="middle" x="379.62" y="-248.03" font-family="Helvetica,sans-Serif" font-size="10.00">clear</text>
</a>
</g>
</g>
<!-- Node4&#45;&gt;Node5 -->
<g id="edge4_Node000004_Node000005" class="edge">
<title>Node4&#45;&gt;Node5</title>
<g id="a_edge4_Node000004_Node000005"><a xlink:title=" ">
<path fill="none" stroke="#63b8ff" d="M456.66,-176.22C446.57,-191.29 431.32,-212.23 415,-227.91 409.65,-233.05 403.1,-237.91 397.17,-241.89"/>
<polygon fill="#63b8ff" stroke="#63b8ff" points="459.4,-178.42 461.93,-168.13 453.54,-174.59 459.4,-178.42"/>
</a>
</g>
</g>
<!-- Node6 -->
<g id="Node000006" class="node">
<title>Node6</title>
<g id="a_Node000006"><a xlink:href="kernel_8c.html#a6b8fb674fb359f6ae53dc9c4fb7fc6be" target="_top" xlink:title=" ">
<polygon fill="white" stroke="#666666" points="179.38,-185.53 110.88,-185.53 110.88,-166.28 179.38,-166.28 179.38,-185.53"/>
<text xml:space="preserve" text-anchor="middle" x="145.12" y="-172.03" font-family="Helvetica,sans-Serif" font-size="10.00">kernel_main</text>
</a>
</g>
</g>
<!-- Node4&#45;&gt;Node6 -->
<g id="edge10_Node000004_Node000006" class="edge">
<title>Node4&#45;&gt;Node6</title>
<g id="a_edge10_Node000004_Node000006"><a xlink:title=" ">
<path fill="none" stroke="#63b8ff" d="M450.13,-174.47C440.43,-182.36 427.93,-190.81 415,-194.91 333.37,-220.8 231.05,-199.97 179.33,-185.98"/>
<polygon fill="#63b8ff" stroke="#63b8ff" points="452.41,-177.13 457.67,-167.94 447.82,-171.84 452.41,-177.13"/>
</a>
</g>
</g>
<!-- Node7 -->
<g id="Node000007" class="node">
<title>Node7</title>
<g id="a_Node000007"><a xlink:href="printf_8c.html#a7880ed31ba841d890680635d6b83fcb7" target="_top" xlink:title=" ">
<polygon fill="white" stroke="#666666" points="404.5,-185.53 354.75,-185.53 354.75,-166.28 404.5,-166.28 404.5,-185.53"/>
<text xml:space="preserve" text-anchor="middle" x="379.62" y="-172.03" font-family="Helvetica,sans-Serif" font-size="10.00">getlines</text>
</a>
</g>
</g>
<!-- Node4&#45;&gt;Node7 -->
<g id="edge6_Node000004_Node000007" class="edge">
<title>Node4&#45;&gt;Node7</title>
<g id="a_edge6_Node000004_Node000007"><a xlink:title=" ">
<path fill="none" stroke="#63b8ff" d="M439.55,-163.22C428.31,-165.64 415.63,-168.37 404.92,-170.68"/>
<polygon fill="#63b8ff" stroke="#63b8ff" points="440.07,-166.69 449.11,-161.16 438.6,-159.85 440.07,-166.69"/>
</a>
</g>
</g>
<!-- Node8 -->
<g id="Node000008" class="node">
<title>Node8</title>
<g id="a_Node000008"><a xlink:href="kernel_8c.html#a5f7f5591859a697cdeb5faafdf0ce822" target="_top" xlink:title=" ">
<polygon fill="white" stroke="#666666" points="308.25,-147.53 234.5,-147.53 234.5,-128.28 308.25,-128.28 308.25,-147.53"/>
<text xml:space="preserve" text-anchor="middle" x="271.38" y="-134.03" font-family="Helvetica,sans-Serif" font-size="10.00">init_message</text>
</a>
</g>
</g>
<!-- Node4&#45;&gt;Node8 -->
<g id="edge8_Node000004_Node000008" class="edge">
<title>Node4&#45;&gt;Node8</title>
<g id="a_edge8_Node000004_Node000008"><a xlink:title=" ">
<path fill="none" stroke="#63b8ff" d="M439.44,-154.06C404.53,-150.69 346.34,-145.06 308.67,-141.42"/>
<polygon fill="#63b8ff" stroke="#63b8ff" points="438.94,-157.53 449.23,-155.01 439.62,-150.56 438.94,-157.53"/>
</a>
</g>
</g>
<!-- Node9 -->
<g id="Node000009" class="node">
<title>Node9</title>
<g id="a_Node000009"><a xlink:href="panic_8c.html#ac3d3e7674c5f1ad62a44afce2ff9a0ca" target="_top" xlink:title="Print a panic message and halt the CPU.">
<polygon fill="white" stroke="#666666" points="415,-91.53 344.25,-91.53 344.25,-72.28 415,-72.28 415,-91.53"/>
<text xml:space="preserve" text-anchor="middle" x="379.62" y="-78.03" font-family="Helvetica,sans-Serif" font-size="10.00">kernel_panic</text>
</a>
</g>
</g>
<!-- Node4&#45;&gt;Node9 -->
<g id="edge11_Node000004_Node000009" class="edge">
<title>Node4&#45;&gt;Node9</title>
<g id="a_edge11_Node000004_Node000009"><a xlink:title=" ">
<path fill="none" stroke="#63b8ff" d="M448.6,-139.68C431.18,-124.88 406.67,-104.05 392.34,-91.86"/>
<polygon fill="#63b8ff" stroke="#63b8ff" points="445.93,-142 455.82,-145.81 450.47,-136.67 445.93,-142"/>
</a>
</g>
</g>
<!-- Node12 -->
<g id="Node000012" class="node">
<title>Node12</title>
<g id="a_Node000012"><a xlink:href="kernel_8c.html#a8a11654fcf5bd5fcf10f118ad5f79904" target="_top" xlink:title=" ">
<polygon fill="white" stroke="#666666" points="55.75,-35.53 0,-35.53 0,-16.28 55.75,-16.28 55.75,-35.53"/>
<text xml:space="preserve" text-anchor="middle" x="27.88" y="-22.03" font-family="Helvetica,sans-Serif" font-size="10.00">not_main</text>
</a>
</g>
</g>
<!-- Node4&#45;&gt;Node12 -->
<g id="edge19_Node000004_Node000012" class="edge">
<title>Node4&#45;&gt;Node12</title>
<g id="a_edge19_Node000004_Node000012"><a xlink:title=" ">
<path fill="none" stroke="#63b8ff" d="M461.95,-136.05C453.88,-114.79 438.56,-82.26 415,-62.91 376.31,-31.12 356.73,-39.43 308.25,-26.91 214.69,-2.74 187.34,7.22 91.75,-6.91 79.79,-8.68 66.96,-12.24 56.02,-15.8"/>
<polygon fill="#63b8ff" stroke="#63b8ff" points="458.63,-137.15 465.28,-145.39 465.22,-134.8 458.63,-137.15"/>
</a>
</g>
</g>
<!-- Node5&#45;&gt;Node6 -->
<g id="edge5_Node000005_Node000006" class="edge">
<title>Node5&#45;&gt;Node6</title>
<g id="a_edge5_Node000005_Node000006"><a xlink:title=" ">
<path fill="none" stroke="#63b8ff" d="M349.58,-250.2C319.9,-247.74 272.85,-241.84 234.5,-227.91 205.89,-217.52 176.07,-197.81 159.42,-185.86"/>
<polygon fill="#63b8ff" stroke="#63b8ff" points="349.05,-253.67 359.28,-250.92 349.57,-246.69 349.05,-253.67"/>
</a>
</g>
</g>
<!-- Node7&#45;&gt;Node6 -->
<g id="edge7_Node000007_Node000006" class="edge">
<title>Node7&#45;&gt;Node6</title>
<g id="a_edge7_Node000007_Node000006"><a xlink:title=" ">
<path fill="none" stroke="#63b8ff" d="M343.24,-175.91C298.83,-175.91 223.23,-175.91 179.69,-175.91"/>
<polygon fill="#63b8ff" stroke="#63b8ff" points="343.11,-179.41 353.11,-175.91 343.11,-172.41 343.11,-179.41"/>
</a>
</g>
</g>
<!-- Node8&#45;&gt;Node6 -->
<g id="edge9_Node000008_Node000006" class="edge">
<title>Node8&#45;&gt;Node6</title>
<g id="a_edge9_Node000008_Node000006"><a xlink:title=" ">
<path fill="none" stroke="#63b8ff" d="M226.82,-151.23C211.04,-156.06 193.5,-161.42 178.82,-165.91"/>
<polygon fill="#63b8ff" stroke="#63b8ff" points="227.42,-154.71 235.96,-148.43 225.37,-148.01 227.42,-154.71"/>
</a>
</g>
</g>
<!-- Node10 -->
<g id="Node000010" class="node">
<title>Node10</title>
<g id="a_Node000010"><a xlink:href="math_8h.html#a97fbf4adb8a31d415775bdbd5c30c468" target="_top" xlink:title="Unsigned 32&#45;bit integer division: n / d.">
<polygon fill="white" stroke="#666666" points="296.25,-73.53 246.5,-73.53 246.5,-54.28 296.25,-54.28 296.25,-73.53"/>
<text xml:space="preserve" text-anchor="middle" x="271.38" y="-60.03" font-family="Helvetica,sans-Serif" font-size="10.00">_udiv32</text>
</a>
</g>
</g>
<!-- Node9&#45;&gt;Node10 -->
<g id="edge12_Node000009_Node000010" class="edge">
<title>Node9&#45;&gt;Node10</title>
<g id="a_edge12_Node000009_Node000010"><a xlink:title=" ">
<path fill="none" stroke="#63b8ff" d="M332.63,-74.12C320.18,-72.01 307.2,-69.81 296.48,-67.99"/>
<polygon fill="#63b8ff" stroke="#63b8ff" points="331.9,-77.54 342.34,-75.76 333.07,-70.64 331.9,-77.54"/>
</a>
</g>
</g>
<!-- Node13 -->
<g id="Node000013" class="node">
<title>Node13</title>
<g id="a_Node000013"><a xlink:href="memory_8c.html#a87d8585002a620e687d68b38ab387a0e" target="_top" xlink:title=" ">
<polygon fill="white" stroke="#666666" points="170,-35.53 120.25,-35.53 120.25,-16.28 170,-16.28 170,-35.53"/>
<text xml:space="preserve" text-anchor="middle" x="145.12" y="-22.03" font-family="Helvetica,sans-Serif" font-size="10.00">kmalloc</text>
</a>
</g>
</g>
<!-- Node9&#45;&gt;Node13 -->
<g id="edge15_Node000009_Node000013" class="edge">
<title>Node9&#45;&gt;Node13</title>
<g id="a_edge15_Node000009_Node000013"><a xlink:title=" ">
<path fill="none" stroke="#63b8ff" d="M353.78,-65.96C340.72,-58.35 324.17,-49.84 308.25,-44.91 260.88,-30.24 202.51,-26.74 170.32,-26"/>
<polygon fill="#63b8ff" stroke="#63b8ff" points="351.75,-68.83 362.12,-71.01 355.37,-62.84 351.75,-68.83"/>
</a>
</g>
</g>
<!-- Node14 -->
<g id="Node000014" class="node">
<title>Node14</title>
<g id="a_Node000014"><a xlink:href="memory_8c.html#ae8d09a66c8495a0c2ff5c54f1309fd6a" target="_top" xlink:title=" ">
<polygon fill="white" stroke="#666666" points="305.25,-110.53 237.5,-110.53 237.5,-91.28 305.25,-91.28 305.25,-110.53"/>
<text xml:space="preserve" text-anchor="middle" x="271.38" y="-97.03" font-family="Helvetica,sans-Serif" font-size="10.00">kmalloc_init</text>
</a>
</g>
</g>
<!-- Node9&#45;&gt;Node14 -->
<g id="edge17_Node000009_Node000014" class="edge">
<title>Node9&#45;&gt;Node14</title>
<g id="a_edge17_Node000009_Node000014"><a xlink:title=" ">
<path fill="none" stroke="#63b8ff" d="M332.52,-90.15C323.41,-91.78 314.01,-93.46 305.44,-95"/>
<polygon fill="#63b8ff" stroke="#63b8ff" points="333.12,-93.6 342.34,-88.4 331.88,-86.71 333.12,-93.6"/>
</a>
</g>
</g>
<!-- Node11 -->
<g id="Node000011" class="node">
<title>Node11</title>
<g id="a_Node000011"><a xlink:href="interrupt_8c.html#a2a778647bb8df60e6c3238b29eb2fca2" target="_top" xlink:title="VersatilePB SP804 timer clock is typically 1 MHz (can be overridden)">
<polygon fill="white" stroke="#666666" points="198.5,-73.53 91.75,-73.53 91.75,-54.28 198.5,-54.28 198.5,-73.53"/>
<text xml:space="preserve" text-anchor="middle" x="145.12" y="-60.03" font-family="Helvetica,sans-Serif" font-size="10.00">interrupts_init_timer0</text>
</a>
</g>
</g>
<!-- Node10&#45;&gt;Node11 -->
<g id="edge13_Node000010_Node000011" class="edge">
<title>Node10&#45;&gt;Node11</title>
<g id="a_edge13_Node000010_Node000011"><a xlink:title=" ">
<path fill="none" stroke="#63b8ff" d="M234.65,-63.91C223.49,-63.91 210.93,-63.91 198.85,-63.91"/>
<polygon fill="#63b8ff" stroke="#63b8ff" points="234.61,-67.41 244.61,-63.91 234.61,-60.41 234.61,-67.41"/>
</a>
</g>
</g>
<!-- Node11&#45;&gt;Node12 -->
<g id="edge14_Node000011_Node000012" class="edge">
<title>Node11&#45;&gt;Node12</title>
<g id="a_edge14_Node000011_Node000012"><a xlink:title=" ">
<path fill="none" stroke="#63b8ff" d="M102.63,-50.23C87.13,-45.12 69.94,-39.45 56.06,-34.87"/>
<polygon fill="#63b8ff" stroke="#63b8ff" points="101.51,-53.54 112.11,-53.35 103.7,-46.9 101.51,-53.54"/>
</a>
</g>
</g>
<!-- Node13&#45;&gt;Node12 -->
<g id="edge16_Node000013_Node000012" class="edge">
<title>Node13&#45;&gt;Node12</title>
<g id="a_edge16_Node000013_Node000012"><a xlink:title=" ">
<path fill="none" stroke="#63b8ff" d="M108.83,-25.91C91.92,-25.91 71.98,-25.91 56.24,-25.91"/>
<polygon fill="#63b8ff" stroke="#63b8ff" points="108.45,-29.41 118.45,-25.91 108.45,-22.41 108.45,-29.41"/>
</a>
</g>
</g>
<!-- Node14&#45;&gt;Node6 -->
<g id="edge18_Node000014_Node000006" class="edge">
<title>Node14&#45;&gt;Node6</title>
<g id="a_edge18_Node000014_Node000006"><a xlink:title=" ">
<path fill="none" stroke="#63b8ff" d="M239.5,-116.13C237.8,-117.05 236.12,-117.98 234.5,-118.91 207.71,-134.21 177.77,-154.15 160.52,-165.94"/>
<polygon fill="#63b8ff" stroke="#63b8ff" points="240.72,-119.44 247.97,-111.71 237.48,-113.23 240.72,-119.44"/>
</a>
</g>
</g>
<!-- Node15&#45;&gt;Node3 -->
<g id="edge22_Node000015_Node000003" class="edge">
<title>Node15&#45;&gt;Node3</title>
<g id="a_edge22_Node000015_Node000003"><a xlink:title=" ">
<path fill="none" stroke="#63b8ff" d="M631.08,-132.65C617.34,-137.36 602.23,-142.55 589.52,-146.91"/>
<polygon fill="#63b8ff" stroke="#63b8ff" points="631.98,-136.04 640.31,-129.48 629.71,-129.42 631.98,-136.04"/>
</a>
</g>
</g>
</g>
</svg>
