<?xml version="1.0" encoding="UTF-8" standalone="no"?>
<!DOCTYPE svg PUBLIC "-//W3C//DTD SVG 1.1//EN"
 "http://www.w3.org/Graphics/SVG/1.1/DTD/svg11.dtd">
<!-- Generated by graphviz version 14.0.0 (20250921.2048)
 -->
<!-- Title: printf Pages: 1 -->
<svg width="607pt" height="433pt"
 viewBox="0.00 0.00 607.00 433.00" xmlns="http://www.w3.org/2000/svg" xmlns:xlink="http://www.w3.org/1999/xlink">
<g id="graph0" class="graph" transform="scale(1 1) rotate(0) translate(4 428.62)">
<title>printf</title>
<!-- Node1 -->
<g id="Node000001" class="node">
<title>Node1</title>
<g id="a_Node000001"><a xlink:title="Kernel printf implementation using UART output.">
<polygon fill="#999999" stroke="#666666" points="598.5,-292.62 560.75,-292.62 560.75,-273.38 598.5,-273.38 598.5,-292.62"/>
<text xml:space="preserve" text-anchor="middle" x="579.62" y="-279.12" font-family="Helvetica,sans-Serif" font-size="10.00">printf</text>
</a>
</g>
</g>
<!-- Node2 -->
<g id="Node000002" class="node">
<title>Node2</title>
<g id="a_Node000002"><a xlink:href="clear_8c.html#ae683fe63c33c388e9ba1c6392dd477eb" target="_top" xlink:title="Clears the terminal screen and moves the cursor to the home position.">
<polygon fill="white" stroke="#666666" points="506.38,-424.62 469.38,-424.62 469.38,-405.38 506.38,-405.38 506.38,-424.62"/>
<text xml:space="preserve" text-anchor="middle" x="487.88" y="-411.12" font-family="Helvetica,sans-Serif" font-size="10.00">clear</text>
</a>
</g>
</g>
<!-- Node1&#45;&gt;Node2 -->
<g id="edge1_Node000001_Node000002" class="edge">
<title>Node1&#45;&gt;Node2</title>
<g id="a_edge1_Node000001_Node000002"><a xlink:title=" ">
<path fill="none" stroke="#63b8ff" d="M573.05,-303.93C565.58,-328.55 550.23,-369.43 524.75,-396 519.78,-401.19 513.07,-405.26 506.8,-408.28"/>
<polygon fill="#63b8ff" stroke="#63b8ff" points="576.37,-305.02 575.75,-294.44 569.64,-303.1 576.37,-305.02"/>
</a>
</g>
</g>
<!-- Node3 -->
<g id="Node000003" class="node">
<title>Node3</title>
<g id="a_Node000003"><a xlink:href="kernel_8c.html#a6b8fb674fb359f6ae53dc9c4fb7fc6be" target="_top" xlink:title=" ">
<polygon fill="white" stroke="#666666" points="292.12,-349.62 223.62,-349.62 223.62,-330.38 292.12,-330.38 292.12,-349.62"/>
<text xml:space="preserve" text-anchor="middle" x="257.88" y="-336.12" font-family="Helvetica,sans-Serif" font-size="10.00">kernel_main</text>
</a>
</g>
</g>
<!-- Node1&#45;&gt;Node3 -->
<g id="edge7_Node000001_Node000003" class="edge">
<title>Node1&#45;&gt;Node3</title>
<g id="a_edge7_Node000001_Node000003"><a xlink:title=" ">
<path fill="none" stroke="#63b8ff" d="M549.35,-288.22C489.93,-298.81 355.47,-322.78 292.54,-334"/>
<polygon fill="#63b8ff" stroke="#63b8ff" points="549.8,-291.69 559.03,-286.49 548.57,-284.8 549.8,-291.69"/>
</a>
</g>
</g>
<!-- Node4 -->
<g id="Node000004" class="node">
<title>Node4</title>
<g id="a_Node000004"><a xlink:href="printf_8c.html#a7880ed31ba841d890680635d6b83fcb7" target="_top" xlink:title="Read a line of text from UART with basic editing support.">
<polygon fill="white" stroke="#666666" points="512.75,-386.62 463,-386.62 463,-367.38 512.75,-367.38 512.75,-386.62"/>
<text xml:space="preserve" text-anchor="middle" x="487.88" y="-373.12" font-family="Helvetica,sans-Serif" font-size="10.00">getlines</text>
</a>
</g>
</g>
<!-- Node1&#45;&gt;Node4 -->
<g id="edge3_Node000001_Node000004" class="edge">
<title>Node1&#45;&gt;Node4</title>
<g id="a_edge3_Node000001_Node000004"><a xlink:title=" ">
<path fill="none" stroke="#63b8ff" d="M568.21,-302.86C558.68,-319.53 543.27,-343.1 524.75,-359 521.26,-362 517.19,-364.64 513.06,-366.92"/>
<polygon fill="#63b8ff" stroke="#63b8ff" points="571.12,-304.83 572.87,-294.38 564.98,-301.46 571.12,-304.83"/>
</a>
</g>
</g>
<!-- Node5 -->
<g id="Node000005" class="node">
<title>Node5</title>
<g id="a_Node000005"><a xlink:href="kernel_8c.html#a5f7f5591859a697cdeb5faafdf0ce822" target="_top" xlink:title=" ">
<polygon fill="white" stroke="#666666" points="524.75,-349.62 451,-349.62 451,-330.38 524.75,-330.38 524.75,-349.62"/>
<text xml:space="preserve" text-anchor="middle" x="487.88" y="-336.12" font-family="Helvetica,sans-Serif" font-size="10.00">init_message</text>
</a>
</g>
</g>
<!-- Node1&#45;&gt;Node5 -->
<g id="edge5_Node000001_Node000005" class="edge">
<title>Node1&#45;&gt;Node5</title>
<g id="a_edge5_Node000001_Node000005"><a xlink:title=" ">
<path fill="none" stroke="#63b8ff" d="M553.38,-299.03C537.73,-308.98 518.1,-321.44 504.63,-329.99"/>
<polygon fill="#63b8ff" stroke="#63b8ff" points="555.15,-302.06 561.71,-293.74 551.4,-296.15 555.15,-302.06"/>
</a>
</g>
</g>
<!-- Node6 -->
<g id="Node000006" class="node">
<title>Node6</title>
<g id="a_Node000006"><a xlink:href="panic_8c.html#ac3d3e7674c5f1ad62a44afce2ff9a0ca" target="_top" xlink:title="Print a panic message and halt the CPU.">
<polygon fill="white" stroke="#666666" points="523.25,-178.62 452.5,-178.62 452.5,-159.38 523.25,-159.38 523.25,-178.62"/>
<text xml:space="preserve" text-anchor="middle" x="487.88" y="-165.12" font-family="Helvetica,sans-Serif" font-size="10.00">kernel_panic</text>
</a>
</g>
</g>
<!-- Node1&#45;&gt;Node6 -->
<g id="edge8_Node000001_Node000006" class="edge">
<title>Node1&#45;&gt;Node6</title>
<g id="a_edge8_Node000001_Node000006"><a xlink:title=" ">
<path fill="none" stroke="#63b8ff" d="M563.79,-264.16C544.54,-239.7 511.65,-197.93 496.69,-178.93"/>
<polygon fill="#63b8ff" stroke="#63b8ff" points="560.79,-266 569.72,-271.69 566.29,-261.67 560.79,-266"/>
</a>
</g>
</g>
<!-- Node14 -->
<g id="Node000014" class="node">
<title>Node14</title>
<g id="a_Node000014"><a xlink:href="kernel_8c.html#a8a11654fcf5bd5fcf10f118ad5f79904" target="_top" xlink:title=" ">
<polygon fill="white" stroke="#666666" points="164.75,-197.62 109,-197.62 109,-178.38 164.75,-178.38 164.75,-197.62"/>
<text xml:space="preserve" text-anchor="middle" x="136.88" y="-184.12" font-family="Helvetica,sans-Serif" font-size="10.00">not_main</text>
</a>
</g>
</g>
<!-- Node1&#45;&gt;Node14 -->
<g id="edge24_Node000001_Node000014" class="edge">
<title>Node1&#45;&gt;Node14</title>
<g id="a_edge24_Node000001_Node000014"><a xlink:title=" ">
<path fill="none" stroke="#63b8ff" d="M549.22,-279.11C505.11,-273.06 419.28,-260.46 347.25,-245 283.06,-231.22 267.79,-224.45 204.5,-207 191.51,-203.42 177.14,-199.34 165.07,-195.87"/>
<polygon fill="#63b8ff" stroke="#63b8ff" points="548.63,-282.56 559.01,-280.43 549.57,-275.62 548.63,-282.56"/>
</a>
</g>
</g>
<!-- Node2&#45;&gt;Node3 -->
<g id="edge2_Node000002_Node000003" class="edge">
<title>Node2&#45;&gt;Node3</title>
<g id="a_edge2_Node000002_Node000003"><a xlink:title=" ">
<path fill="none" stroke="#63b8ff" d="M458.36,-407.36C429.99,-399.59 385.32,-386.89 347.25,-374 325.45,-366.62 301.06,-357.14 283.44,-350.07"/>
<polygon fill="#63b8ff" stroke="#63b8ff" points="457.07,-410.64 467.64,-409.88 458.91,-403.88 457.07,-410.64"/>
</a>
</g>
</g>
<!-- Node4&#45;&gt;Node3 -->
<g id="edge4_Node000004_Node000003" class="edge">
<title>Node4&#45;&gt;Node3</title>
<g id="a_edge4_Node000004_Node000003"><a xlink:title=" ">
<path fill="none" stroke="#63b8ff" d="M451.77,-371.3C408.39,-364.26 335.09,-352.37 292.43,-345.45"/>
<polygon fill="#63b8ff" stroke="#63b8ff" points="450.98,-374.72 461.41,-372.87 452.1,-367.81 450.98,-374.72"/>
</a>
</g>
</g>
<!-- Node5&#45;&gt;Node3 -->
<g id="edge6_Node000005_Node000003" class="edge">
<title>Node5&#45;&gt;Node3</title>
<g id="a_edge6_Node000005_Node000003"><a xlink:title=" ">
<path fill="none" stroke="#63b8ff" d="M439.5,-340C395.63,-340 331.48,-340 292.6,-340"/>
<polygon fill="#63b8ff" stroke="#63b8ff" points="439.23,-343.5 449.23,-340 439.23,-336.5 439.23,-343.5"/>
</a>
</g>
</g>
<!-- Node7 -->
<g id="Node000007" class="node">
<title>Node7</title>
<g id="a_Node000007"><a xlink:href="printf_8c.html#a694b6d27273027eb96424e52b798c391" target="_top" xlink:title=" ">
<polygon fill="white" stroke="#666666" points="400.75,-122.62 361.5,-122.62 361.5,-103.38 400.75,-103.38 400.75,-122.62"/>
<text xml:space="preserve" text-anchor="middle" x="381.12" y="-109.12" font-family="Helvetica,sans-Serif" font-size="10.00">_bdiv</text>
</a>
</g>
</g>
<!-- Node6&#45;&gt;Node7 -->
<g id="edge9_Node000006_Node000007" class="edge">
<title>Node6&#45;&gt;Node7</title>
<g id="a_edge9_Node000006_Node000007"><a xlink:title=" ">
<path fill="none" stroke="#63b8ff" d="M458.09,-153.61C439.91,-143.89 416.94,-131.61 401.04,-123.11"/>
<polygon fill="#63b8ff" stroke="#63b8ff" points="456.34,-156.65 466.81,-158.27 459.64,-150.47 456.34,-156.65"/>
</a>
</g>
</g>
<!-- Node8 -->
<g id="Node000008" class="node">
<title>Node8</title>
<g id="a_Node000008"><a xlink:href="printf_8c.html#a96a30e819fcbfa9a0251f71f14ff79bc" target="_top" xlink:title="Perform division and return quotient and remainder.">
<polygon fill="white" stroke="#666666" points="407.5,-85.62 354.75,-85.62 354.75,-66.38 407.5,-66.38 407.5,-85.62"/>
<text xml:space="preserve" text-anchor="middle" x="381.12" y="-72.12" font-family="Helvetica,sans-Serif" font-size="10.00">_divmod</text>
</a>
</g>
</g>
<!-- Node6&#45;&gt;Node8 -->
<g id="edge10_Node000006_Node000008" class="edge">
<title>Node6&#45;&gt;Node8</title>
<g id="a_edge10_Node000006_Node000008"><a xlink:title=" ">
<path fill="none" stroke="#63b8ff" d="M471.96,-150.49C458.29,-134.29 436.9,-110.78 415,-94 411.28,-91.15 407.05,-88.48 402.9,-86.11"/>
<polygon fill="#63b8ff" stroke="#63b8ff" points="469.03,-152.44 478.1,-157.91 474.43,-147.98 469.03,-152.44"/>
</a>
</g>
</g>
<!-- Node12 -->
<g id="Node000012" class="node">
<title>Node12</title>
<g id="a_Node000012"><a xlink:href="math_8h.html#a97fbf4adb8a31d415775bdbd5c30c468" target="_top" xlink:title="Unsigned 32&#45;bit integer division: n / d.">
<polygon fill="white" stroke="#666666" points="406,-159.62 356.25,-159.62 356.25,-140.38 406,-140.38 406,-159.62"/>
<text xml:space="preserve" text-anchor="middle" x="381.12" y="-146.12" font-family="Helvetica,sans-Serif" font-size="10.00">_udiv32</text>
</a>
</g>
</g>
<!-- Node6&#45;&gt;Node12 -->
<g id="edge17_Node000006_Node000012" class="edge">
<title>Node6&#45;&gt;Node12</title>
<g id="a_edge17_Node000006_Node000012"><a xlink:title=" ">
<path fill="none" stroke="#63b8ff" d="M441.07,-160.69C429.13,-158.53 416.74,-156.28 406.41,-154.4"/>
<polygon fill="#63b8ff" stroke="#63b8ff" points="440.33,-164.11 450.8,-162.46 441.58,-157.23 440.33,-164.11"/>
</a>
</g>
</g>
<!-- Node15 -->
<g id="Node000015" class="node">
<title>Node15</title>
<g id="a_Node000015"><a xlink:href="memory_8c.html#a87d8585002a620e687d68b38ab387a0e" target="_top" xlink:title=" ">
<polygon fill="white" stroke="#666666" points="282.75,-197.62 233,-197.62 233,-178.38 282.75,-178.38 282.75,-197.62"/>
<text xml:space="preserve" text-anchor="middle" x="257.88" y="-184.12" font-family="Helvetica,sans-Serif" font-size="10.00">kmalloc</text>
</a>
</g>
</g>
<!-- Node6&#45;&gt;Node15 -->
<g id="edge20_Node000006_Node000015" class="edge">
<title>Node6&#45;&gt;Node15</title>
<g id="a_edge20_Node000006_Node000015"><a xlink:title=" ">
<path fill="none" stroke="#63b8ff" d="M440.99,-172.82C393.28,-176.8 320.43,-182.87 282.97,-185.99"/>
<polygon fill="#63b8ff" stroke="#63b8ff" points="441.06,-176.33 450.74,-172.01 440.48,-169.35 441.06,-176.33"/>
</a>
</g>
</g>
<!-- Node16 -->
<g id="Node000016" class="node">
<title>Node16</title>
<g id="a_Node000016"><a xlink:href="memory_8c.html#ae8d09a66c8495a0c2ff5c54f1309fd6a" target="_top" xlink:title=" ">
<polygon fill="white" stroke="#666666" points="415,-235.62 347.25,-235.62 347.25,-216.38 415,-216.38 415,-235.62"/>
<text xml:space="preserve" text-anchor="middle" x="381.12" y="-222.12" font-family="Helvetica,sans-Serif" font-size="10.00">kmalloc_init</text>
</a>
</g>
</g>
<!-- Node6&#45;&gt;Node16 -->
<g id="edge22_Node000006_Node000016" class="edge">
<title>Node6&#45;&gt;Node16</title>
<g id="a_edge22_Node000006_Node000016"><a xlink:title=" ">
<path fill="none" stroke="#63b8ff" d="M458.71,-184.33C440.23,-194.38 416.61,-207.24 400.51,-215.99"/>
<polygon fill="#63b8ff" stroke="#63b8ff" points="460.19,-187.51 467.3,-179.65 456.84,-181.36 460.19,-187.51"/>
</a>
</g>
</g>
<!-- Node9 -->
<g id="Node000009" class="node">
<title>Node9</title>
<g id="a_Node000009"><a xlink:href="printf_8c.html#ab97c3c9e783c1402d4007ceafdb197c1" target="_top" xlink:title="Print an unsigned integer in the given base.">
<polygon fill="white" stroke="#666666" points="294.75,-66.62 221,-66.62 221,-47.38 294.75,-47.38 294.75,-66.62"/>
<text xml:space="preserve" text-anchor="middle" x="257.88" y="-53.12" font-family="Helvetica,sans-Serif" font-size="10.00">put_unsigned</text>
</a>
</g>
</g>
<!-- Node8&#45;&gt;Node9 -->
<g id="edge11_Node000008_Node000009" class="edge">
<title>Node8&#45;&gt;Node9</title>
<g id="a_edge11_Node000008_Node000009"><a xlink:title=" ">
<path fill="none" stroke="#63b8ff" d="M343.28,-70.23C328.01,-67.83 310.34,-65.06 295.13,-62.68"/>
<polygon fill="#63b8ff" stroke="#63b8ff" points="342.49,-73.65 352.92,-71.74 343.58,-66.73 342.49,-73.65"/>
</a>
</g>
</g>
<!-- Node9&#45;&gt;Node1 -->
<g id="edge12_Node000009_Node000001" class="edge">
<title>Node9&#45;&gt;Node1</title>
<g id="a_edge12_Node000009_Node000001"><a xlink:title=" ">
<path fill="none" stroke="#63b8ff" d="M306.32,-48.69C338.05,-45.11 380.21,-44.24 415,-57 475.03,-79.01 487.27,-98.2 524.75,-150 554.25,-190.77 570.74,-250.01 576.38,-273.19"/>
<polygon fill="#63b8ff" stroke="#63b8ff" points="306.11,-45.19 296.63,-49.92 307,-52.13 306.11,-45.19"/>
</a>
</g>
</g>
<!-- Node10 -->
<g id="Node000010" class="node">
<title>Node10</title>
<g id="a_Node000010"><a xlink:href="printf_8c.html#ac3154a3597888cf112e4e7bf6a5f1846" target="_top" xlink:title="Format and print an integer based on format control.">
<polygon fill="white" stroke="#666666" points="69.25,-47.62 0,-47.62 0,-28.38 69.25,-28.38 69.25,-47.62"/>
<text xml:space="preserve" text-anchor="middle" x="34.62" y="-34.12" font-family="Helvetica,sans-Serif" font-size="10.00">put_integers</text>
</a>
</g>
</g>
<!-- Node9&#45;&gt;Node10 -->
<g id="edge13_Node000009_Node000010" class="edge">
<title>Node9&#45;&gt;Node10</title>
<g id="a_edge13_Node000009_Node000010"><a xlink:title=" ">
<path fill="none" stroke="#63b8ff" d="M209.14,-60.24C179.18,-61.47 139.8,-61.63 105.25,-57 92.09,-55.24 77.89,-51.68 65.77,-48.11"/>
<polygon fill="#63b8ff" stroke="#63b8ff" points="209.21,-63.74 219.03,-59.77 208.88,-56.75 209.21,-63.74"/>
</a>
</g>
</g>
<!-- Node11 -->
<g id="Node000011" class="node">
<title>Node11</title>
<g id="a_Node000011"><a xlink:href="printf_8c.html#a2e8c688dfa078a9a7f1f02d4126f466a" target="_top" xlink:title="Print a signed integer in decimal form.">
<polygon fill="white" stroke="#666666" points="168.5,-47.62 105.25,-47.62 105.25,-28.38 168.5,-28.38 168.5,-47.62"/>
<text xml:space="preserve" text-anchor="middle" x="136.88" y="-34.12" font-family="Helvetica,sans-Serif" font-size="10.00">put_signed</text>
</a>
</g>
</g>
<!-- Node9&#45;&gt;Node11 -->
<g id="edge15_Node000009_Node000011" class="edge">
<title>Node9&#45;&gt;Node11</title>
<g id="a_edge15_Node000009_Node000011"><a xlink:title=" ">
<path fill="none" stroke="#63b8ff" d="M209.33,-49.41C195.68,-47.23 181.15,-44.91 168.79,-42.94"/>
<polygon fill="#63b8ff" stroke="#63b8ff" points="208.6,-52.84 219.03,-50.96 209.71,-45.92 208.6,-52.84"/>
</a>
</g>
</g>
<!-- Node10&#45;&gt;Node1 -->
<g id="edge14_Node000010_Node000001" class="edge">
<title>Node10&#45;&gt;Node1</title>
<g id="a_edge14_Node000010_Node000001"><a xlink:title=" ">
<path fill="none" stroke="#63b8ff" d="M79.55,-25C88.03,-22.78 96.87,-20.66 105.25,-19 171.87,-5.8 188.96,0 256.88,0 0,-75 0,-75 382.12,0 452.54,0 480.29,-14.4 524.75,-69 576.76,-132.87 579.41,-240.4 578.92,-273.21"/>
<polygon fill="#63b8ff" stroke="#63b8ff" points="78.88,-21.56 70.15,-27.55 80.72,-28.31 78.88,-21.56"/>
</a>
</g>
</g>
<!-- Node11&#45;&gt;Node10 -->
<g id="edge16_Node000011_Node000010" class="edge">
<title>Node11&#45;&gt;Node10</title>
<g id="a_edge16_Node000011_Node000010"><a xlink:title=" ">
<path fill="none" stroke="#63b8ff" d="M93.6,-38C85.64,-38 77.41,-38 69.74,-38"/>
<polygon fill="#63b8ff" stroke="#63b8ff" points="93.47,-41.5 103.47,-38 93.47,-34.5 93.47,-41.5"/>
</a>
</g>
</g>
<!-- Node13 -->
<g id="Node000013" class="node">
<title>Node13</title>
<g id="a_Node000013"><a xlink:href="interrupt_8c.html#a2a778647bb8df60e6c3238b29eb2fca2" target="_top" xlink:title="VersatilePB SP804 timer clock is typically 1 MHz (can be overridden)">
<polygon fill="white" stroke="#666666" points="311.25,-159.62 204.5,-159.62 204.5,-140.38 311.25,-140.38 311.25,-159.62"/>
<text xml:space="preserve" text-anchor="middle" x="257.88" y="-146.12" font-family="Helvetica,sans-Serif" font-size="10.00">interrupts_init_timer0</text>
</a>
</g>
</g>
<!-- Node12&#45;&gt;Node13 -->
<g id="edge18_Node000012_Node000013" class="edge">
<title>Node12&#45;&gt;Node13</title>
<g id="a_edge18_Node000012_Node000013"><a xlink:title=" ">
<path fill="none" stroke="#63b8ff" d="M344.44,-150C334.16,-150 322.72,-150 311.64,-150"/>
<polygon fill="#63b8ff" stroke="#63b8ff" points="344.37,-153.5 354.37,-150 344.37,-146.5 344.37,-153.5"/>
</a>
</g>
</g>
<!-- Node13&#45;&gt;Node14 -->
<g id="edge19_Node000013_Node000014" class="edge">
<title>Node13&#45;&gt;Node14</title>
<g id="a_edge19_Node000013_Node000014"><a xlink:title=" ">
<path fill="none" stroke="#63b8ff" d="M214.8,-163.44C198.3,-168.7 179.85,-174.6 165.15,-179.29"/>
<polygon fill="#63b8ff" stroke="#63b8ff" points="215.39,-166.92 223.86,-160.54 213.26,-160.25 215.39,-166.92"/>
</a>
</g>
</g>
<!-- Node15&#45;&gt;Node14 -->
<g id="edge21_Node000015_Node000014" class="edge">
<title>Node15&#45;&gt;Node14</title>
<g id="a_edge21_Node000015_Node000014"><a xlink:title=" ">
<path fill="none" stroke="#63b8ff" d="M221.01,-188C203.07,-188 181.7,-188 165.12,-188"/>
<polygon fill="#63b8ff" stroke="#63b8ff" points="220.99,-191.5 230.99,-188 220.99,-184.5 220.99,-191.5"/>
</a>
</g>
</g>
<!-- Node16&#45;&gt;Node3 -->
<g id="edge23_Node000016_Node000003" class="edge">
<title>Node16&#45;&gt;Node3</title>
<g id="a_edge23_Node000016_Node000003"><a xlink:title=" ">
<path fill="none" stroke="#63b8ff" d="M361.11,-243.88C335.26,-268.18 289.91,-310.82 269.44,-330.07"/>
<polygon fill="#63b8ff" stroke="#63b8ff" points="363.37,-246.55 368.26,-237.15 358.58,-241.45 363.37,-246.55"/>
</a>
</g>
</g>
</g>
</svg>
