<?xml version="1.0" encoding="UTF-8" standalone="no"?>
<!DOCTYPE svg PUBLIC "-//W3C//DTD SVG 1.1//EN"
 "http://www.w3.org/Graphics/SVG/1.1/DTD/svg11.dtd">
<!-- Generated by graphviz version 14.0.0 (20250921.2048)
 -->
<!-- Title: put_unsigned Pages: 1 -->
<svg width="808pt" height="324pt"
 viewBox="0.00 0.00 808.00 324.00" xmlns="http://www.w3.org/2000/svg" xmlns:xlink="http://www.w3.org/1999/xlink">
<g id="graph0" class="graph" transform="scale(1 1) rotate(0) translate(4 319.78)">
<title>put_unsigned</title>
<!-- Node1 -->
<g id="Node000001" class="node">
<title>Node1</title>
<g id="a_Node000001"><a xlink:title="Print an unsigned integer in the given base.">
<polygon fill="#999999" stroke="#666666" points="800,-188.25 726.25,-188.25 726.25,-169 800,-169 800,-188.25"/>
<text xml:space="preserve" text-anchor="middle" x="763.12" y="-174.75" font-family="Helvetica,sans-Serif" font-size="10.00">put_unsigned</text>
</a>
</g>
</g>
<!-- Node2 -->
<g id="Node000002" class="node">
<title>Node2</title>
<g id="a_Node000002"><a xlink:href="printf_8c.html#a0aff7311d684a0e0ef33125616a73385" target="_top" xlink:title="Kernel printf implementation using UART output.">
<polygon fill="white" stroke="#666666" points="485.75,-245.25 448,-245.25 448,-226 485.75,-226 485.75,-245.25"/>
<text xml:space="preserve" text-anchor="middle" x="466.88" y="-231.75" font-family="Helvetica,sans-Serif" font-size="10.00">printf</text>
</a>
</g>
</g>
<!-- Node1&#45;&gt;Node2 -->
<g id="edge1_Node000001_Node000002" class="edge">
<title>Node1&#45;&gt;Node2</title>
<g id="a_edge1_Node000001_Node000002"><a xlink:title=" ">
<path fill="none" stroke="#63b8ff" d="M725.18,-192.34C714.07,-196.09 701.77,-199.87 690.25,-202.62 615.66,-220.47 524.56,-230.36 486.24,-234"/>
<polygon fill="#63b8ff" stroke="#63b8ff" points="726.1,-195.72 734.39,-189.14 723.8,-189.11 726.1,-195.72"/>
</a>
</g>
</g>
<!-- Node15 -->
<g id="Node000015" class="node">
<title>Node15</title>
<g id="a_Node000015"><a xlink:href="printf_8c.html#ac3154a3597888cf112e4e7bf6a5f1846" target="_top" xlink:title="Format and print an integer based on format control.">
<polygon fill="white" stroke="#666666" points="591,-207.25 521.75,-207.25 521.75,-188 591,-188 591,-207.25"/>
<text xml:space="preserve" text-anchor="middle" x="556.38" y="-193.75" font-family="Helvetica,sans-Serif" font-size="10.00">put_integers</text>
</a>
</g>
</g>
<!-- Node1&#45;&gt;Node15 -->
<g id="edge21_Node000001_Node000015" class="edge">
<title>Node1&#45;&gt;Node15</title>
<g id="a_edge21_Node000001_Node000015"><a xlink:title=" ">
<path fill="none" stroke="#63b8ff" d="M714.78,-183.02C677.06,-186.52 625.16,-191.33 591.45,-194.46"/>
<polygon fill="#63b8ff" stroke="#63b8ff" points="714.85,-186.53 724.48,-182.12 714.2,-179.56 714.85,-186.53"/>
</a>
</g>
</g>
<!-- Node16 -->
<g id="Node000016" class="node">
<title>Node16</title>
<g id="a_Node000016"><a xlink:href="printf_8c.html#a2e8c688dfa078a9a7f1f02d4126f466a" target="_top" xlink:title="Print a signed integer in decimal form.">
<polygon fill="white" stroke="#666666" points="690.25,-169.25 627,-169.25 627,-150 690.25,-150 690.25,-169.25"/>
<text xml:space="preserve" text-anchor="middle" x="658.62" y="-155.75" font-family="Helvetica,sans-Serif" font-size="10.00">put_signed</text>
</a>
</g>
</g>
<!-- Node1&#45;&gt;Node16 -->
<g id="edge23_Node000001_Node000016" class="edge">
<title>Node1&#45;&gt;Node16</title>
<g id="a_edge23_Node000001_Node000016"><a xlink:title=" ">
<path fill="none" stroke="#63b8ff" d="M714.93,-169.88C706.7,-168.35 698.33,-166.8 690.68,-165.38"/>
<polygon fill="#63b8ff" stroke="#63b8ff" points="714.03,-173.27 724.5,-171.65 715.3,-166.39 714.03,-173.27"/>
</a>
</g>
</g>
<!-- Node3 -->
<g id="Node000003" class="node">
<title>Node3</title>
<g id="a_Node000003"><a xlink:href="clear_8c.html#ae683fe63c33c388e9ba1c6392dd477eb" target="_top" xlink:title="Clears the terminal screen and moves the cursor to the home position.">
<polygon fill="white" stroke="#666666" points="393.62,-283.25 356.62,-283.25 356.62,-264 393.62,-264 393.62,-283.25"/>
<text xml:space="preserve" text-anchor="middle" x="375.12" y="-269.75" font-family="Helvetica,sans-Serif" font-size="10.00">clear</text>
</a>
</g>
</g>
<!-- Node2&#45;&gt;Node3 -->
<g id="edge2_Node000002_Node000003" class="edge">
<title>Node2&#45;&gt;Node3</title>
<g id="a_edge2_Node000002_Node000003"><a xlink:title=" ">
<path fill="none" stroke="#63b8ff" d="M437.43,-247.67C423.18,-253.7 406.37,-260.82 393.95,-266.08"/>
<polygon fill="#63b8ff" stroke="#63b8ff" points="438.48,-251.03 446.32,-243.9 435.75,-244.58 438.48,-251.03"/>
</a>
</g>
</g>
<!-- Node4 -->
<g id="Node000004" class="node">
<title>Node4</title>
<g id="a_Node000004"><a xlink:href="kernel_8c.html#a6b8fb674fb359f6ae53dc9c4fb7fc6be" target="_top" xlink:title=" ">
<polygon fill="white" stroke="#666666" points="179.38,-245.25 110.88,-245.25 110.88,-226 179.38,-226 179.38,-245.25"/>
<text xml:space="preserve" text-anchor="middle" x="145.12" y="-231.75" font-family="Helvetica,sans-Serif" font-size="10.00">kernel_main</text>
</a>
</g>
</g>
<!-- Node2&#45;&gt;Node4 -->
<g id="edge8_Node000002_Node000004" class="edge">
<title>Node2&#45;&gt;Node4</title>
<g id="a_edge8_Node000002_Node000004"><a xlink:title=" ">
<path fill="none" stroke="#63b8ff" d="M453.87,-254.96C444.36,-268.31 429.74,-284.98 412,-292.62 322.69,-331.1 204.95,-270.75 162.37,-245.7"/>
<polygon fill="#63b8ff" stroke="#63b8ff" points="456.64,-257.12 459.28,-246.86 450.81,-253.24 456.64,-257.12"/>
</a>
</g>
</g>
<!-- Node5 -->
<g id="Node000005" class="node">
<title>Node5</title>
<g id="a_Node000005"><a xlink:href="printf_8c.html#a7880ed31ba841d890680635d6b83fcb7" target="_top" xlink:title="Read a line of text from UART with basic editing support.">
<polygon fill="white" stroke="#666666" points="400,-245.25 350.25,-245.25 350.25,-226 400,-226 400,-245.25"/>
<text xml:space="preserve" text-anchor="middle" x="375.12" y="-231.75" font-family="Helvetica,sans-Serif" font-size="10.00">getlines</text>
</a>
</g>
</g>
<!-- Node2&#45;&gt;Node5 -->
<g id="edge4_Node000002_Node000005" class="edge">
<title>Node2&#45;&gt;Node5</title>
<g id="a_edge4_Node000002_Node000005"><a xlink:title=" ">
<path fill="none" stroke="#63b8ff" d="M436.3,-235.62C424.66,-235.62 411.45,-235.62 400.39,-235.62"/>
<polygon fill="#63b8ff" stroke="#63b8ff" points="436.2,-239.13 446.2,-235.63 436.2,-232.13 436.2,-239.13"/>
</a>
</g>
</g>
<!-- Node6 -->
<g id="Node000006" class="node">
<title>Node6</title>
<g id="a_Node000006"><a xlink:href="kernel_8c.html#a5f7f5591859a697cdeb5faafdf0ce822" target="_top" xlink:title=" ">
<polygon fill="white" stroke="#666666" points="412,-207.25 338.25,-207.25 338.25,-188 412,-188 412,-207.25"/>
<text xml:space="preserve" text-anchor="middle" x="375.12" y="-193.75" font-family="Helvetica,sans-Serif" font-size="10.00">init_message</text>
</a>
</g>
</g>
<!-- Node2&#45;&gt;Node6 -->
<g id="edge6_Node000002_Node000006" class="edge">
<title>Node2&#45;&gt;Node6</title>
<g id="a_edge6_Node000002_Node000006"><a xlink:title=" ">
<path fill="none" stroke="#63b8ff" d="M437.23,-223.5C425.13,-218.37 411.21,-212.48 399.72,-207.61"/>
<polygon fill="#63b8ff" stroke="#63b8ff" points="435.75,-226.67 446.32,-227.35 438.48,-220.22 435.75,-226.67"/>
</a>
</g>
</g>
<!-- Node7 -->
<g id="Node000007" class="node">
<title>Node7</title>
<g id="a_Node000007"><a xlink:href="panic_8c.html#ac3d3e7674c5f1ad62a44afce2ff9a0ca" target="_top" xlink:title="Print a panic message and halt the CPU.">
<polygon fill="white" stroke="#666666" points="410.5,-114.25 339.75,-114.25 339.75,-95 410.5,-95 410.5,-114.25"/>
<text xml:space="preserve" text-anchor="middle" x="375.12" y="-100.75" font-family="Helvetica,sans-Serif" font-size="10.00">kernel_panic</text>
</a>
</g>
</g>
<!-- Node2&#45;&gt;Node7 -->
<g id="edge9_Node000002_Node000007" class="edge">
<title>Node2&#45;&gt;Node7</title>
<g id="a_edge9_Node000002_Node000007"><a xlink:title=" ">
<path fill="none" stroke="#63b8ff" d="M452.8,-216.54C433.44,-188.28 397.84,-136.31 382.95,-114.59"/>
<polygon fill="#63b8ff" stroke="#63b8ff" points="449.73,-218.26 458.27,-224.53 455.51,-214.3 449.73,-218.26"/>
</a>
</g>
</g>
<!-- Node12 -->
<g id="Node000012" class="node">
<title>Node12</title>
<g id="a_Node000012"><a xlink:href="kernel_8c.html#a8a11654fcf5bd5fcf10f118ad5f79904" target="_top" xlink:title=" ">
<polygon fill="white" stroke="#666666" points="55.75,-132.25 0,-132.25 0,-113 55.75,-113 55.75,-132.25"/>
<text xml:space="preserve" text-anchor="middle" x="27.88" y="-118.75" font-family="Helvetica,sans-Serif" font-size="10.00">not_main</text>
</a>
</g>
</g>
<!-- Node2&#45;&gt;Node12 -->
<g id="edge20_Node000002_Node000012" class="edge">
<title>Node2&#45;&gt;Node12</title>
<g id="a_edge20_Node000002_Node000012"><a xlink:title=" ">
<path fill="none" stroke="#63b8ff" d="M458.06,-256.1C449.76,-274.65 434.66,-300.82 412,-312.62 394.13,-321.93 242.08,-307.2 234.5,-305.62 168.54,-291.89 141.74,-299.79 91.75,-254.62 53.33,-219.91 36.21,-156.7 30.85,-132.45"/>
<polygon fill="#63b8ff" stroke="#63b8ff" points="461.29,-257.46 461.88,-246.88 454.82,-254.78 461.29,-257.46"/>
</a>
</g>
</g>
<!-- Node3&#45;&gt;Node4 -->
<g id="edge3_Node000003_Node000004" class="edge">
<title>Node3&#45;&gt;Node4</title>
<g id="a_edge3_Node000003_Node000004"><a xlink:title=" ">
<path fill="none" stroke="#63b8ff" d="M345.09,-268.79C302.85,-261.75 224.62,-248.71 179.87,-241.25"/>
<polygon fill="#63b8ff" stroke="#63b8ff" points="344.3,-272.2 354.74,-270.39 345.45,-265.3 344.3,-272.2"/>
</a>
</g>
</g>
<!-- Node5&#45;&gt;Node4 -->
<g id="edge5_Node000005_Node000004" class="edge">
<title>Node5&#45;&gt;Node4</title>
<g id="a_edge5_Node000005_Node000004"><a xlink:title=" ">
<path fill="none" stroke="#63b8ff" d="M338.75,-235.62C295.33,-235.62 222.25,-235.62 179.68,-235.62"/>
<polygon fill="#63b8ff" stroke="#63b8ff" points="338.64,-239.13 348.64,-235.63 338.64,-232.13 338.64,-239.13"/>
</a>
</g>
</g>
<!-- Node6&#45;&gt;Node4 -->
<g id="edge7_Node000006_Node000004" class="edge">
<title>Node6&#45;&gt;Node4</title>
<g id="a_edge7_Node000006_Node000004"><a xlink:title=" ">
<path fill="none" stroke="#63b8ff" d="M326.75,-205.52C282.88,-212.83 218.73,-223.52 179.85,-230"/>
<polygon fill="#63b8ff" stroke="#63b8ff" points="327.22,-208.99 336.5,-203.9 326.07,-202.09 327.22,-208.99"/>
</a>
</g>
</g>
<!-- Node8 -->
<g id="Node000008" class="node">
<title>Node8</title>
<g id="a_Node000008"><a xlink:href="printf_8c.html#a694b6d27273027eb96424e52b798c391" target="_top" xlink:title=" ">
<polygon fill="white" stroke="#666666" points="288,-95.25 248.75,-95.25 248.75,-76 288,-76 288,-95.25"/>
<text xml:space="preserve" text-anchor="middle" x="268.38" y="-81.75" font-family="Helvetica,sans-Serif" font-size="10.00">_bdiv</text>
</a>
</g>
</g>
<!-- Node7&#45;&gt;Node8 -->
<g id="edge10_Node000007_Node000008" class="edge">
<title>Node7&#45;&gt;Node8</title>
<g id="a_edge10_Node000007_Node000008"><a xlink:title=" ">
<path fill="none" stroke="#63b8ff" d="M328.45,-96.34C314.35,-93.78 299.59,-91.11 288.35,-89.07"/>
<polygon fill="#63b8ff" stroke="#63b8ff" points="327.58,-99.74 338.05,-98.08 328.83,-92.85 327.58,-99.74"/>
</a>
</g>
</g>
<!-- Node9 -->
<g id="Node000009" class="node">
<title>Node9</title>
<g id="a_Node000009"><a xlink:href="printf_8c.html#a96a30e819fcbfa9a0251f71f14ff79bc" target="_top" xlink:title="Perform division and return quotient and remainder.">
<polygon fill="white" stroke="#666666" points="294.75,-19.25 242,-19.25 242,0 294.75,0 294.75,-19.25"/>
<text xml:space="preserve" text-anchor="middle" x="268.38" y="-5.75" font-family="Helvetica,sans-Serif" font-size="10.00">_divmod</text>
</a>
</g>
</g>
<!-- Node7&#45;&gt;Node9 -->
<g id="edge11_Node000007_Node000009" class="edge">
<title>Node7&#45;&gt;Node9</title>
<g id="a_edge11_Node000007_Node000009"><a xlink:title=" ">
<path fill="none" stroke="#63b8ff" d="M356.93,-86.18C342.79,-71.38 321.94,-50.38 302.25,-33.62 296.54,-28.77 289.93,-23.82 284.13,-19.69"/>
<polygon fill="#63b8ff" stroke="#63b8ff" points="354.34,-88.54 363.76,-93.4 359.43,-83.73 354.34,-88.54"/>
</a>
</g>
</g>
<!-- Node10 -->
<g id="Node000010" class="node">
<title>Node10</title>
<g id="a_Node000010"><a xlink:href="math_8h.html#a97fbf4adb8a31d415775bdbd5c30c468" target="_top" xlink:title="Unsigned 32&#45;bit integer division: n / d.">
<polygon fill="white" stroke="#666666" points="293.25,-132.25 243.5,-132.25 243.5,-113 293.25,-113 293.25,-132.25"/>
<text xml:space="preserve" text-anchor="middle" x="268.38" y="-118.75" font-family="Helvetica,sans-Serif" font-size="10.00">_udiv32</text>
</a>
</g>
</g>
<!-- Node7&#45;&gt;Node10 -->
<g id="edge13_Node000007_Node000010" class="edge">
<title>Node7&#45;&gt;Node10</title>
<g id="a_edge13_Node000007_Node000010"><a xlink:title=" ">
<path fill="none" stroke="#63b8ff" d="M328.32,-112.5C316.38,-114.55 303.99,-116.68 293.66,-118.45"/>
<polygon fill="#63b8ff" stroke="#63b8ff" points="328.78,-115.97 338.04,-110.83 327.6,-109.07 328.78,-115.97"/>
</a>
</g>
</g>
<!-- Node13 -->
<g id="Node000013" class="node">
<title>Node13</title>
<g id="a_Node000013"><a xlink:href="memory_8c.html#a87d8585002a620e687d68b38ab387a0e" target="_top" xlink:title=" ">
<polygon fill="white" stroke="#666666" points="170,-76.25 120.25,-76.25 120.25,-57 170,-57 170,-76.25"/>
<text xml:space="preserve" text-anchor="middle" x="145.12" y="-62.75" font-family="Helvetica,sans-Serif" font-size="10.00">kmalloc</text>
</a>
</g>
</g>
<!-- Node7&#45;&gt;Node13 -->
<g id="edge16_Node000007_Node000013" class="edge">
<title>Node7&#45;&gt;Node13</title>
<g id="a_edge16_Node000007_Node000013"><a xlink:title=" ">
<path fill="none" stroke="#63b8ff" d="M350.67,-88.47C337.17,-80.17 319.5,-70.9 302.25,-66.62 256.74,-55.33 201.44,-59.3 170.37,-63.06"/>
<polygon fill="#63b8ff" stroke="#63b8ff" points="348.53,-91.26 358.83,-93.72 352.32,-85.37 348.53,-91.26"/>
</a>
</g>
</g>
<!-- Node14 -->
<g id="Node000014" class="node">
<title>Node14</title>
<g id="a_Node000014"><a xlink:href="memory_8c.html#ae8d09a66c8495a0c2ff5c54f1309fd6a" target="_top" xlink:title=" ">
<polygon fill="white" stroke="#666666" points="302.25,-169.25 234.5,-169.25 234.5,-150 302.25,-150 302.25,-169.25"/>
<text xml:space="preserve" text-anchor="middle" x="268.38" y="-155.75" font-family="Helvetica,sans-Serif" font-size="10.00">kmalloc_init</text>
</a>
</g>
</g>
<!-- Node7&#45;&gt;Node14 -->
<g id="edge18_Node000007_Node000014" class="edge">
<title>Node7&#45;&gt;Node14</title>
<g id="a_edge18_Node000007_Node000014"><a xlink:title=" ">
<path fill="none" stroke="#63b8ff" d="M344.91,-119.97C326.86,-129.44 304.23,-141.32 288.47,-149.6"/>
<polygon fill="#63b8ff" stroke="#63b8ff" points="346.35,-123.16 353.57,-115.42 343.09,-116.97 346.35,-123.16"/>
</a>
</g>
</g>
<!-- Node9&#45;&gt;Node1 -->
<g id="edge12_Node000009_Node000001" class="edge">
<title>Node9&#45;&gt;Node1</title>
<g id="a_edge12_Node000009_Node000001"><a xlink:title=" ">
<path fill="none" stroke="#63b8ff" d="M306.19,-15.62C345.58,-21.51 409.97,-29.62 465.88,-29.62 0,-120.62 0,-120.62 557.38,-29.62 652.33,-29.62 732.81,-135.7 755.65,-168.85"/>
<polygon fill="#63b8ff" stroke="#63b8ff" points="306.95,-12.2 296.54,-14.14 305.89,-19.12 306.95,-12.2"/>
</a>
</g>
</g>
<!-- Node11 -->
<g id="Node000011" class="node">
<title>Node11</title>
<g id="a_Node000011"><a xlink:href="interrupt_8c.html#a2a778647bb8df60e6c3238b29eb2fca2" target="_top" xlink:title="VersatilePB SP804 timer clock is typically 1 MHz (can be overridden)">
<polygon fill="white" stroke="#666666" points="198.5,-132.25 91.75,-132.25 91.75,-113 198.5,-113 198.5,-132.25"/>
<text xml:space="preserve" text-anchor="middle" x="145.12" y="-118.75" font-family="Helvetica,sans-Serif" font-size="10.00">interrupts_init_timer0</text>
</a>
</g>
</g>
<!-- Node10&#45;&gt;Node11 -->
<g id="edge14_Node000010_Node000011" class="edge">
<title>Node10&#45;&gt;Node11</title>
<g id="a_edge14_Node000010_Node000011"><a xlink:title=" ">
<path fill="none" stroke="#63b8ff" d="M231.69,-122.62C221.41,-122.62 209.97,-122.62 198.89,-122.62"/>
<polygon fill="#63b8ff" stroke="#63b8ff" points="231.62,-126.13 241.62,-122.63 231.62,-119.13 231.62,-126.13"/>
</a>
</g>
</g>
<!-- Node11&#45;&gt;Node12 -->
<g id="edge15_Node000011_Node000012" class="edge">
<title>Node11&#45;&gt;Node12</title>
<g id="a_edge15_Node000011_Node000012"><a xlink:title=" ">
<path fill="none" stroke="#63b8ff" d="M80.07,-122.62C71.68,-122.62 63.48,-122.62 56.18,-122.62"/>
<polygon fill="#63b8ff" stroke="#63b8ff" points="80.05,-126.13 90.05,-122.63 80.05,-119.13 80.05,-126.13"/>
</a>
</g>
</g>
<!-- Node13&#45;&gt;Node12 -->
<g id="edge17_Node000013_Node000012" class="edge">
<title>Node13&#45;&gt;Node12</title>
<g id="a_edge17_Node000013_Node000012"><a xlink:title=" ">
<path fill="none" stroke="#63b8ff" d="M113.29,-81.61C93.16,-91.39 67.43,-103.89 49.69,-112.51"/>
<polygon fill="#63b8ff" stroke="#63b8ff" points="114.69,-84.82 122.16,-77.3 111.64,-78.52 114.69,-84.82"/>
</a>
</g>
</g>
<!-- Node14&#45;&gt;Node4 -->
<g id="edge19_Node000014_Node000004" class="edge">
<title>Node14&#45;&gt;Node4</title>
<g id="a_edge19_Node000014_Node000004"><a xlink:title=" ">
<path fill="none" stroke="#63b8ff" d="M241.69,-175.73C217.54,-190.86 182.15,-213.04 161.91,-225.73"/>
<polygon fill="#63b8ff" stroke="#63b8ff" points="243.38,-178.8 249.99,-170.52 239.66,-172.87 243.38,-178.8"/>
</a>
</g>
</g>
<!-- Node15&#45;&gt;Node2 -->
<g id="edge22_Node000015_Node000002" class="edge">
<title>Node15&#45;&gt;Node2</title>
<g id="a_edge22_Node000015_Node000002"><a xlink:title=" ">
<path fill="none" stroke="#63b8ff" d="M522.04,-212.1C509.81,-217.41 496.42,-223.23 486.02,-227.74"/>
<polygon fill="#63b8ff" stroke="#63b8ff" points="523.22,-215.41 531,-208.21 520.43,-208.99 523.22,-215.41"/>
</a>
</g>
</g>
<!-- Node16&#45;&gt;Node15 -->
<g id="edge24_Node000016_Node000015" class="edge">
<title>Node16&#45;&gt;Node15</title>
<g id="a_edge24_Node000016_Node000015"><a xlink:title=" ">
<path fill="none" stroke="#63b8ff" d="M620.27,-173.79C608.13,-178.39 594.92,-183.39 583.75,-187.63"/>
<polygon fill="#63b8ff" stroke="#63b8ff" points="621.5,-177.06 629.61,-170.25 619.02,-170.52 621.5,-177.06"/>
</a>
</g>
</g>
</g>
</svg>
