<?xml version="1.0" encoding="UTF-8" standalone="no"?>
<!DOCTYPE svg PUBLIC "-//W3C//DTD SVG 1.1//EN"
 "http://www.w3.org/Graphics/SVG/1.1/DTD/svg11.dtd">
<!-- Generated by graphviz version 14.0.0 (20250921.2048)
 -->
<!-- Title: _puthexcapital Pages: 1 -->
<svg width="290pt" height="64pt"
 viewBox="0.00 0.00 290.00 64.00" xmlns="http://www.w3.org/2000/svg" xmlns:xlink="http://www.w3.org/1999/xlink">
<g id="graph0" class="graph" transform="scale(1 1) rotate(0) translate(4 60.25)">
<title>_puthexcapital</title>
<!-- Node1 -->
<g id="Node000001" class="node">
<title>Node1</title>
<g id="a_Node000001"><a xlink:title=" ">
<polygon fill="#999999" stroke="#666666" points="79,-37.25 0,-37.25 0,-18 79,-18 79,-37.25"/>
<text xml:space="preserve" text-anchor="middle" x="39.5" y="-23.75" font-family="Helvetica,sans-Serif" font-size="10.00">_puthexcapital</text>
</a>
</g>
</g>
<!-- Node2 -->
<g id="Node000002" class="node">
<title>Node2</title>
<g id="a_Node000002"><a xlink:href="printf_8c.html#a59d8819db32c6b5c7365aad05b0778b5" target="_top" xlink:title=" ">
<polygon fill="white" stroke="#666666" points="206.75,-37.25 115,-37.25 115,-18 206.75,-18 206.75,-37.25"/>
<text xml:space="preserve" text-anchor="middle" x="160.88" y="-23.75" font-family="Helvetica,sans-Serif" font-size="10.00">_putunsignedlong</text>
</a>
</g>
</g>
<!-- Node1&#45;&gt;Node2 -->
<g id="edge1_Node000001_Node000002" class="edge">
<title>Node1&#45;&gt;Node2</title>
<g id="a_edge1_Node000001_Node000002"><a xlink:title=" ">
<path fill="none" stroke="#63b8ff" d="M79.26,-27.62C86.94,-27.62 95.15,-27.62 103.28,-27.62"/>
<polygon fill="#63b8ff" stroke="#63b8ff" points="103.16,-31.13 113.16,-27.63 103.16,-24.13 103.16,-31.13"/>
</a>
</g>
</g>
<!-- Node3 -->
<g id="Node000003" class="node">
<title>Node3</title>
<g id="a_Node000003"><a xlink:href="printf_8c.html#a694b6d27273027eb96424e52b798c391" target="_top" xlink:title=" ">
<polygon fill="white" stroke="#666666" points="282,-56.25 242.75,-56.25 242.75,-37 282,-37 282,-56.25"/>
<text xml:space="preserve" text-anchor="middle" x="262.38" y="-42.75" font-family="Helvetica,sans-Serif" font-size="10.00">_bdiv</text>
</a>
</g>
</g>
<!-- Node2&#45;&gt;Node3 -->
<g id="edge2_Node000002_Node000003" class="edge">
<title>Node2&#45;&gt;Node3</title>
<g id="a_edge2_Node000002_Node000003"><a xlink:title=" ">
<path fill="none" stroke="#63b8ff" d="M206.97,-36.24C215.2,-37.81 223.61,-39.41 231.27,-40.88"/>
<polygon fill="#63b8ff" stroke="#63b8ff" points="230.61,-44.31 241.09,-42.75 231.92,-37.44 230.61,-44.31"/>
</a>
</g>
</g>
<!-- Node4 -->
<g id="Node000004" class="node">
<title>Node4</title>
<g id="a_Node000004"><a xlink:href="printf_8c.html#a9bdf0418571456c566aa2f329b5f8350" target="_top" xlink:title=" ">
<polygon fill="white" stroke="#666666" points="279.75,-19.25 245,-19.25 245,0 279.75,0 279.75,-19.25"/>
<text xml:space="preserve" text-anchor="middle" x="262.38" y="-5.75" font-family="Helvetica,sans-Serif" font-size="10.00">putc</text>
</a>
</g>
</g>
<!-- Node2&#45;&gt;Node4 -->
<g id="edge3_Node000002_Node000004" class="edge">
<title>Node2&#45;&gt;Node4</title>
<g id="a_edge3_Node000002_Node000004"><a xlink:title=" ">
<path fill="none" stroke="#63b8ff" d="M206.97,-19.47C215.95,-17.84 225.14,-16.18 233.34,-14.7"/>
<polygon fill="#63b8ff" stroke="#63b8ff" points="233.82,-18.17 243.03,-12.94 232.57,-11.28 233.82,-18.17"/>
</a>
</g>
</g>
</g>
</svg>
