<?xml version="1.0" encoding="UTF-8" standalone="no"?>
<!DOCTYPE svg PUBLIC "-//W3C//DTD SVG 1.1//EN"
 "http://www.w3.org/Graphics/SVG/1.1/DTD/svg11.dtd">
<!-- Generated by graphviz version 14.0.0 (20250921.2048)
 -->
<!-- Title: divmod Pages: 1 -->
<svg width="892pt" height="309pt"
 viewBox="0.00 0.00 892.00 309.00" xmlns="http://www.w3.org/2000/svg" xmlns:xlink="http://www.w3.org/1999/xlink">
<g id="graph0" class="graph" transform="scale(1 1) rotate(0) translate(4 305.26)">
<title>divmod</title>
<!-- Node1 -->
<g id="Node000001" class="node">
<title>Node1</title>
<g id="a_Node000001"><a xlink:title="Perform division and return quotient and remainder.">
<polygon fill="#999999" stroke="#666666" points="883.5,-187.26 836,-187.26 836,-168.01 883.5,-168.01 883.5,-187.26"/>
<text xml:space="preserve" text-anchor="middle" x="859.75" y="-173.76" font-family="Helvetica,sans-Serif" font-size="10.00">divmod</text>
</a>
</g>
</g>
<!-- Node2 -->
<g id="Node000002" class="node">
<title>Node2</title>
<g id="a_Node000002"><a xlink:href="printf_8c.html#ab97c3c9e783c1402d4007ceafdb197c1" target="_top" xlink:title="Print an unsigned integer in the given base.">
<polygon fill="white" stroke="#666666" points="800,-187.26 726.25,-187.26 726.25,-168.01 800,-168.01 800,-187.26"/>
<text xml:space="preserve" text-anchor="middle" x="763.12" y="-173.76" font-family="Helvetica,sans-Serif" font-size="10.00">put_unsigned</text>
</a>
</g>
</g>
<!-- Node1&#45;&gt;Node2 -->
<g id="edge1_Node000001_Node000002" class="edge">
<title>Node1&#45;&gt;Node2</title>
<g id="a_edge1_Node000001_Node000002"><a xlink:title=" ">
<path fill="none" stroke="#63b8ff" d="M824.51,-177.64C816.7,-177.64 808.37,-177.64 800.48,-177.64"/>
<polygon fill="#63b8ff" stroke="#63b8ff" points="824.33,-181.14 834.33,-177.64 824.33,-174.14 824.33,-181.14"/>
</a>
</g>
</g>
<!-- Node3 -->
<g id="Node000003" class="node">
<title>Node3</title>
<g id="a_Node000003"><a xlink:href="printf_8c.html#a0aff7311d684a0e0ef33125616a73385" target="_top" xlink:title="Kernel printf implementation using UART output.">
<polygon fill="white" stroke="#666666" points="485.75,-206.26 448,-206.26 448,-187.01 485.75,-187.01 485.75,-206.26"/>
<text xml:space="preserve" text-anchor="middle" x="466.88" y="-192.76" font-family="Helvetica,sans-Serif" font-size="10.00">printf</text>
</a>
</g>
</g>
<!-- Node2&#45;&gt;Node3 -->
<g id="edge2_Node000002_Node000003" class="edge">
<title>Node2&#45;&gt;Node3</title>
<g id="a_edge2_Node000002_Node000003"><a xlink:title=" ">
<path fill="none" stroke="#63b8ff" d="M714.8,-187.84C706.65,-189.32 698.23,-190.66 690.25,-191.64 614.93,-200.82 524.22,-198.85 486.12,-197.44"/>
<polygon fill="#63b8ff" stroke="#63b8ff" points="715.43,-191.29 724.6,-185.98 714.12,-184.41 715.43,-191.29"/>
</a>
</g>
</g>
<!-- Node15 -->
<g id="Node000015" class="node">
<title>Node15</title>
<g id="a_Node000015"><a xlink:href="printf_8c.html#ac3154a3597888cf112e4e7bf6a5f1846" target="_top" xlink:title="Format and print an integer based on format control.">
<polygon fill="white" stroke="#666666" points="591,-187.26 521.75,-187.26 521.75,-168.01 591,-168.01 591,-187.26"/>
<text xml:space="preserve" text-anchor="middle" x="556.38" y="-173.76" font-family="Helvetica,sans-Serif" font-size="10.00">put_integers</text>
</a>
</g>
</g>
<!-- Node2&#45;&gt;Node15 -->
<g id="edge20_Node000002_Node000015" class="edge">
<title>Node2&#45;&gt;Node15</title>
<g id="a_edge20_Node000002_Node000015"><a xlink:title=" ">
<path fill="none" stroke="#63b8ff" d="M714.78,-177.64C677.06,-177.64 625.16,-177.64 591.45,-177.64"/>
<polygon fill="#63b8ff" stroke="#63b8ff" points="714.48,-181.14 724.48,-177.64 714.48,-174.14 714.48,-181.14"/>
</a>
</g>
</g>
<!-- Node16 -->
<g id="Node000016" class="node">
<title>Node16</title>
<g id="a_Node000016"><a xlink:href="printf_8c.html#a2e8c688dfa078a9a7f1f02d4126f466a" target="_top" xlink:title="Print a signed integer in decimal form.">
<polygon fill="white" stroke="#666666" points="690.25,-149.26 627,-149.26 627,-130.01 690.25,-130.01 690.25,-149.26"/>
<text xml:space="preserve" text-anchor="middle" x="658.62" y="-135.76" font-family="Helvetica,sans-Serif" font-size="10.00">put_signed</text>
</a>
</g>
</g>
<!-- Node2&#45;&gt;Node16 -->
<g id="edge22_Node000002_Node000016" class="edge">
<title>Node2&#45;&gt;Node16</title>
<g id="a_edge22_Node000002_Node000016"><a xlink:title=" ">
<path fill="none" stroke="#63b8ff" d="M724.31,-163.62C711.79,-158.98 698.13,-153.91 686.6,-149.64"/>
<polygon fill="#63b8ff" stroke="#63b8ff" points="722.91,-166.83 733.51,-167.03 725.35,-160.27 722.91,-166.83"/>
</a>
</g>
</g>
<!-- Node4 -->
<g id="Node000004" class="node">
<title>Node4</title>
<g id="a_Node000004"><a xlink:href="clear_8c.html#ae683fe63c33c388e9ba1c6392dd477eb" target="_top" xlink:title="Clears the terminal screen and moves the cursor to the home position.">
<polygon fill="white" stroke="#666666" points="393.62,-301.26 356.62,-301.26 356.62,-282.01 393.62,-282.01 393.62,-301.26"/>
<text xml:space="preserve" text-anchor="middle" x="375.12" y="-287.76" font-family="Helvetica,sans-Serif" font-size="10.00">clear</text>
</a>
</g>
</g>
<!-- Node3&#45;&gt;Node4 -->
<g id="edge3_Node000003_Node000004" class="edge">
<title>Node3&#45;&gt;Node4</title>
<g id="a_edge3_Node000003_Node000004"><a xlink:title=" ">
<path fill="none" stroke="#63b8ff" d="M453.74,-216.04C443.71,-231.16 428.47,-252.12 412,-267.64 406.44,-272.88 399.61,-277.75 393.41,-281.72"/>
<polygon fill="#63b8ff" stroke="#63b8ff" points="456.5,-218.21 458.99,-207.92 450.62,-214.42 456.5,-218.21"/>
</a>
</g>
</g>
<!-- Node5 -->
<g id="Node000005" class="node">
<title>Node5</title>
<g id="a_Node000005"><a xlink:href="kernel_8c.html#a6b8fb674fb359f6ae53dc9c4fb7fc6be" target="_top" xlink:title=" ">
<polygon fill="white" stroke="#666666" points="179.38,-225.26 110.88,-225.26 110.88,-206.01 179.38,-206.01 179.38,-225.26"/>
<text xml:space="preserve" text-anchor="middle" x="145.12" y="-211.76" font-family="Helvetica,sans-Serif" font-size="10.00">kernel_main</text>
</a>
</g>
</g>
<!-- Node3&#45;&gt;Node5 -->
<g id="edge9_Node000003_Node000005" class="edge">
<title>Node3&#45;&gt;Node5</title>
<g id="a_edge9_Node000003_Node000005"><a xlink:title=" ">
<path fill="none" stroke="#63b8ff" d="M447.13,-214.2C437.43,-222.09 424.93,-230.54 412,-234.64 331.5,-260.17 230.65,-239.64 179.38,-225.75"/>
<polygon fill="#63b8ff" stroke="#63b8ff" points="449.41,-216.86 454.67,-207.67 444.82,-211.57 449.41,-216.86"/>
</a>
</g>
</g>
<!-- Node6 -->
<g id="Node000006" class="node">
<title>Node6</title>
<g id="a_Node000006"><a xlink:href="printf_8c.html#a7880ed31ba841d890680635d6b83fcb7" target="_top" xlink:title="Read a line of text from UART with basic editing support.">
<polygon fill="white" stroke="#666666" points="400,-225.26 350.25,-225.26 350.25,-206.01 400,-206.01 400,-225.26"/>
<text xml:space="preserve" text-anchor="middle" x="375.12" y="-211.76" font-family="Helvetica,sans-Serif" font-size="10.00">getlines</text>
</a>
</g>
</g>
<!-- Node3&#45;&gt;Node6 -->
<g id="edge5_Node000003_Node000006" class="edge">
<title>Node3&#45;&gt;Node6</title>
<g id="a_edge5_Node000003_Node000006"><a xlink:title=" ">
<path fill="none" stroke="#63b8ff" d="M436.67,-202.82C424.94,-205.3 411.57,-208.13 400.39,-210.5"/>
<polygon fill="#63b8ff" stroke="#63b8ff" points="437.17,-206.29 446.23,-200.8 435.72,-199.44 437.17,-206.29"/>
</a>
</g>
</g>
<!-- Node7 -->
<g id="Node000007" class="node">
<title>Node7</title>
<g id="a_Node000007"><a xlink:href="kernel_8c.html#a5f7f5591859a697cdeb5faafdf0ce822" target="_top" xlink:title=" ">
<polygon fill="white" stroke="#666666" points="412,-187.26 338.25,-187.26 338.25,-168.01 412,-168.01 412,-187.26"/>
<text xml:space="preserve" text-anchor="middle" x="375.12" y="-173.76" font-family="Helvetica,sans-Serif" font-size="10.00">init_message</text>
</a>
</g>
</g>
<!-- Node3&#45;&gt;Node7 -->
<g id="edge7_Node000003_Node000007" class="edge">
<title>Node3&#45;&gt;Node7</title>
<g id="a_edge7_Node000003_Node000007"><a xlink:title=" ">
<path fill="none" stroke="#63b8ff" d="M436.66,-190.45C428.93,-188.82 420.49,-187.03 412.43,-185.32"/>
<polygon fill="#63b8ff" stroke="#63b8ff" points="435.72,-193.83 446.23,-192.48 437.17,-186.98 435.72,-193.83"/>
</a>
</g>
</g>
<!-- Node8 -->
<g id="Node000008" class="node">
<title>Node8</title>
<g id="a_Node000008"><a xlink:href="panic_8c.html#ac3d3e7674c5f1ad62a44afce2ff9a0ca" target="_top" xlink:title="Print a panic message and halt the CPU.">
<polygon fill="white" stroke="#666666" points="410.5,-112.26 339.75,-112.26 339.75,-93.01 410.5,-93.01 410.5,-112.26"/>
<text xml:space="preserve" text-anchor="middle" x="375.12" y="-98.76" font-family="Helvetica,sans-Serif" font-size="10.00">kernel_panic</text>
</a>
</g>
</g>
<!-- Node3&#45;&gt;Node8 -->
<g id="edge10_Node000003_Node000008" class="edge">
<title>Node3&#45;&gt;Node8</title>
<g id="a_edge10_Node000003_Node000008"><a xlink:title=" ">
<path fill="none" stroke="#63b8ff" d="M448.48,-178.42C429.74,-158.79 400.6,-128.27 385.66,-112.62"/>
<polygon fill="#63b8ff" stroke="#63b8ff" points="445.79,-180.67 455.22,-185.48 450.85,-175.83 445.79,-180.67"/>
</a>
</g>
</g>
<!-- Node12 -->
<g id="Node000012" class="node">
<title>Node12</title>
<g id="a_Node000012"><a xlink:href="kernel_8c.html#a8a11654fcf5bd5fcf10f118ad5f79904" target="_top" xlink:title=" ">
<polygon fill="white" stroke="#666666" points="55.75,-37.26 0,-37.26 0,-18.01 55.75,-18.01 55.75,-37.26"/>
<text xml:space="preserve" text-anchor="middle" x="27.88" y="-23.76" font-family="Helvetica,sans-Serif" font-size="10.00">not_main</text>
</a>
</g>
</g>
<!-- Node3&#45;&gt;Node12 -->
<g id="edge19_Node000003_Node000012" class="edge">
<title>Node3&#45;&gt;Node12</title>
<g id="a_edge19_Node000003_Node000012"><a xlink:title=" ">
<path fill="none" stroke="#63b8ff" d="M460.33,-175.67C452.9,-151.02 437.58,-110.11 412,-83.64 373.8,-44.11 354.33,-44.21 302.25,-26.64 213.28,3.38 184.64,5.09 91.75,-8.64 79.79,-10.4 66.96,-13.97 56.02,-17.53"/>
<polygon fill="#63b8ff" stroke="#63b8ff" points="456.93,-176.51 463.02,-185.17 463.66,-174.6 456.93,-176.51"/>
</a>
</g>
</g>
<!-- Node4&#45;&gt;Node5 -->
<g id="edge4_Node000004_Node000005" class="edge">
<title>Node4&#45;&gt;Node5</title>
<g id="a_edge4_Node000004_Node000005"><a xlink:title=" ">
<path fill="none" stroke="#63b8ff" d="M345.13,-289.72C316.33,-287.1 271.28,-281.11 234.5,-267.64 205.92,-257.17 176.09,-237.48 159.43,-225.57"/>
<polygon fill="#63b8ff" stroke="#63b8ff" points="344.65,-293.19 354.9,-290.52 345.22,-286.21 344.65,-293.19"/>
</a>
</g>
</g>
<!-- Node6&#45;&gt;Node5 -->
<g id="edge6_Node000006_Node000005" class="edge">
<title>Node6&#45;&gt;Node5</title>
<g id="a_edge6_Node000006_Node000005"><a xlink:title=" ">
<path fill="none" stroke="#63b8ff" d="M338.75,-215.64C295.33,-215.64 222.25,-215.64 179.68,-215.64"/>
<polygon fill="#63b8ff" stroke="#63b8ff" points="338.64,-219.14 348.64,-215.64 338.64,-212.14 338.64,-219.14"/>
</a>
</g>
</g>
<!-- Node7&#45;&gt;Node5 -->
<g id="edge8_Node000007_Node000005" class="edge">
<title>Node7&#45;&gt;Node5</title>
<g id="a_edge8_Node000007_Node000005"><a xlink:title=" ">
<path fill="none" stroke="#63b8ff" d="M326.75,-185.53C282.88,-192.84 218.73,-203.54 179.85,-210.02"/>
<polygon fill="#63b8ff" stroke="#63b8ff" points="327.22,-189 336.5,-183.91 326.07,-182.1 327.22,-189"/>
</a>
</g>
</g>
<!-- Node9 -->
<g id="Node000009" class="node">
<title>Node9</title>
<g id="a_Node000009"><a xlink:href="printf_8c.html#a694b6d27273027eb96424e52b798c391" target="_top" xlink:title=" ">
<polygon fill="white" stroke="#666666" points="288,-149.26 248.75,-149.26 248.75,-130.01 288,-130.01 288,-149.26"/>
<text xml:space="preserve" text-anchor="middle" x="268.38" y="-135.76" font-family="Helvetica,sans-Serif" font-size="10.00">_bdiv</text>
</a>
</g>
</g>
<!-- Node8&#45;&gt;Node9 -->
<g id="edge11_Node000008_Node000009" class="edge">
<title>Node8&#45;&gt;Node9</title>
<g id="a_edge11_Node000008_Node000009"><a xlink:title=" ">
<path fill="none" stroke="#63b8ff" d="M334.85,-116.51C318.95,-122.13 301.33,-128.35 288.37,-132.93"/>
<polygon fill="#63b8ff" stroke="#63b8ff" points="335.81,-119.88 344.07,-113.25 333.48,-113.28 335.81,-119.88"/>
</a>
</g>
</g>
<!-- Node10 -->
<g id="Node000010" class="node">
<title>Node10</title>
<g id="a_Node000010"><a xlink:href="math_8h.html#a97fbf4adb8a31d415775bdbd5c30c468" target="_top" xlink:title="Unsigned 32&#45;bit integer division: n / d.">
<polygon fill="white" stroke="#666666" points="293.25,-75.26 243.5,-75.26 243.5,-56.01 293.25,-56.01 293.25,-75.26"/>
<text xml:space="preserve" text-anchor="middle" x="268.38" y="-61.76" font-family="Helvetica,sans-Serif" font-size="10.00">_udiv32</text>
</a>
</g>
</g>
<!-- Node8&#45;&gt;Node10 -->
<g id="edge12_Node000008_Node000010" class="edge">
<title>Node8&#45;&gt;Node10</title>
<g id="a_edge12_Node000008_Node000010"><a xlink:title=" ">
<path fill="none" stroke="#63b8ff" d="M334.79,-88.74C321,-83.87 305.91,-78.54 293.7,-74.23"/>
<polygon fill="#63b8ff" stroke="#63b8ff" points="333.48,-91.99 344.07,-92.02 335.81,-85.39 333.48,-91.99"/>
</a>
</g>
</g>
<!-- Node13 -->
<g id="Node000013" class="node">
<title>Node13</title>
<g id="a_Node000013"><a xlink:href="memory_8c.html#a87d8585002a620e687d68b38ab387a0e" target="_top" xlink:title=" ">
<polygon fill="white" stroke="#666666" points="170,-37.26 120.25,-37.26 120.25,-18.01 170,-18.01 170,-37.26"/>
<text xml:space="preserve" text-anchor="middle" x="145.12" y="-23.76" font-family="Helvetica,sans-Serif" font-size="10.00">kmalloc</text>
</a>
</g>
</g>
<!-- Node8&#45;&gt;Node13 -->
<g id="edge15_Node000008_Node000013" class="edge">
<title>Node8&#45;&gt;Node13</title>
<g id="a_edge15_Node000008_Node000013"><a xlink:title=" ">
<path fill="none" stroke="#63b8ff" d="M357.09,-84.95C343.52,-72.05 323.36,-55.35 302.25,-46.64 258.33,-28.51 201.99,-26.25 170.4,-26.66"/>
<polygon fill="#63b8ff" stroke="#63b8ff" points="354.34,-87.16 363.92,-91.7 359.26,-82.18 354.34,-87.16"/>
</a>
</g>
</g>
<!-- Node14 -->
<g id="Node000014" class="node">
<title>Node14</title>
<g id="a_Node000014"><a xlink:href="memory_8c.html#ae8d09a66c8495a0c2ff5c54f1309fd6a" target="_top" xlink:title=" ">
<polygon fill="white" stroke="#666666" points="302.25,-112.26 234.5,-112.26 234.5,-93.01 302.25,-93.01 302.25,-112.26"/>
<text xml:space="preserve" text-anchor="middle" x="268.38" y="-98.76" font-family="Helvetica,sans-Serif" font-size="10.00">kmalloc_init</text>
</a>
</g>
</g>
<!-- Node8&#45;&gt;Node14 -->
<g id="edge17_Node000008_Node000014" class="edge">
<title>Node8&#45;&gt;Node14</title>
<g id="a_edge17_Node000008_Node000014"><a xlink:title=" ">
<path fill="none" stroke="#63b8ff" d="M328.04,-102.64C319.44,-102.64 310.62,-102.64 302.51,-102.64"/>
<polygon fill="#63b8ff" stroke="#63b8ff" points="328.02,-106.14 338.02,-102.64 328.02,-99.14 328.02,-106.14"/>
</a>
</g>
</g>
<!-- Node11 -->
<g id="Node000011" class="node">
<title>Node11</title>
<g id="a_Node000011"><a xlink:href="interrupt_8c.html#a2a778647bb8df60e6c3238b29eb2fca2" target="_top" xlink:title="VersatilePB SP804 timer clock is typically 1 MHz (can be overridden)">
<polygon fill="white" stroke="#666666" points="198.5,-75.26 91.75,-75.26 91.75,-56.01 198.5,-56.01 198.5,-75.26"/>
<text xml:space="preserve" text-anchor="middle" x="145.12" y="-61.76" font-family="Helvetica,sans-Serif" font-size="10.00">interrupts_init_timer0</text>
</a>
</g>
</g>
<!-- Node10&#45;&gt;Node11 -->
<g id="edge13_Node000010_Node000011" class="edge">
<title>Node10&#45;&gt;Node11</title>
<g id="a_edge13_Node000010_Node000011"><a xlink:title=" ">
<path fill="none" stroke="#63b8ff" d="M231.69,-65.64C221.41,-65.64 209.97,-65.64 198.89,-65.64"/>
<polygon fill="#63b8ff" stroke="#63b8ff" points="231.62,-69.14 241.62,-65.64 231.62,-62.14 231.62,-69.14"/>
</a>
</g>
</g>
<!-- Node11&#45;&gt;Node12 -->
<g id="edge14_Node000011_Node000012" class="edge">
<title>Node11&#45;&gt;Node12</title>
<g id="a_edge14_Node000011_Node000012"><a xlink:title=" ">
<path fill="none" stroke="#63b8ff" d="M102.63,-51.95C87.13,-46.84 69.94,-41.18 56.06,-36.6"/>
<polygon fill="#63b8ff" stroke="#63b8ff" points="101.51,-55.27 112.11,-55.08 103.7,-48.62 101.51,-55.27"/>
</a>
</g>
</g>
<!-- Node13&#45;&gt;Node12 -->
<g id="edge16_Node000013_Node000012" class="edge">
<title>Node13&#45;&gt;Node12</title>
<g id="a_edge16_Node000013_Node000012"><a xlink:title=" ">
<path fill="none" stroke="#63b8ff" d="M108.83,-27.64C91.92,-27.64 71.98,-27.64 56.24,-27.64"/>
<polygon fill="#63b8ff" stroke="#63b8ff" points="108.45,-31.14 118.45,-27.64 108.45,-24.14 108.45,-31.14"/>
</a>
</g>
</g>
<!-- Node14&#45;&gt;Node5 -->
<g id="edge18_Node000014_Node000005" class="edge">
<title>Node14&#45;&gt;Node5</title>
<g id="a_edge18_Node000014_Node000005"><a xlink:title=" ">
<path fill="none" stroke="#63b8ff" d="M237,-118.78C236.14,-119.39 235.31,-120.01 234.5,-120.64 200.37,-147.2 167.72,-187.35 153.53,-205.77"/>
<polygon fill="#63b8ff" stroke="#63b8ff" points="238.72,-121.83 245.29,-113.52 234.97,-115.92 238.72,-121.83"/>
</a>
</g>
</g>
<!-- Node15&#45;&gt;Node3 -->
<g id="edge21_Node000015_Node000003" class="edge">
<title>Node15&#45;&gt;Node3</title>
<g id="a_edge21_Node000015_Node000003"><a xlink:title=" ">
<path fill="none" stroke="#63b8ff" d="M510.06,-187.48C501.47,-189.34 492.96,-191.19 485.86,-192.73"/>
<polygon fill="#63b8ff" stroke="#63b8ff" points="510.79,-190.9 519.82,-185.36 509.3,-184.06 510.79,-190.9"/>
</a>
</g>
</g>
<!-- Node16&#45;&gt;Node15 -->
<g id="edge23_Node000016_Node000015" class="edge">
<title>Node16&#45;&gt;Node15</title>
<g id="a_edge23_Node000016_Node000015"><a xlink:title=" ">
<path fill="none" stroke="#63b8ff" d="M620.27,-153.8C608.13,-158.4 594.92,-163.41 583.75,-167.64"/>
<polygon fill="#63b8ff" stroke="#63b8ff" points="621.5,-157.07 629.61,-150.26 619.02,-150.53 621.5,-157.07"/>
</a>
</g>
</g>
</g>
</svg>
