<?xml version="1.0" encoding="UTF-8" standalone="no"?>
<!DOCTYPE svg PUBLIC "-//W3C//DTD SVG 1.1//EN"
 "http://www.w3.org/Graphics/SVG/1.1/DTD/svg11.dtd">
<!-- Generated by graphviz version 14.0.0 (20250921.2048)
 -->
<!-- Title: printf Pages: 1 -->
<svg width="534pt" height="217pt"
 viewBox="0.00 0.00 534.00 217.00" xmlns="http://www.w3.org/2000/svg" xmlns:xlink="http://www.w3.org/1999/xlink">
<g id="graph0" class="graph" transform="scale(1 1) rotate(0) translate(4 213.25)">
<title>printf</title>
<!-- Node1 -->
<g id="Node000001" class="node">
<title>Node1</title>
<g id="a_Node000001"><a xlink:title=" ">
<polygon fill="#999999" stroke="#666666" points="41.57,-57.25 3.82,-57.25 3.82,-38 41.57,-38 41.57,-57.25"/>
<text xml:space="preserve" text-anchor="middle" x="22.7" y="-43.75" font-family="Helvetica,sans-Serif" font-size="10.00">printf</text>
</a>
</g>
</g>
<!-- Node1&#45;&gt;Node1 -->
<g id="edge11_Node000001_Node000001" class="edge">
<title>Node1&#45;&gt;Node1</title>
<g id="a_edge11_Node000001_Node000001"><a xlink:title=" ">
<path fill="none" stroke="#63b8ff" d="M3.93,-57.54C-4.63,-66.15 1.63,-75.25 22.7,-75.25 34.22,-75.25 41.31,-72.53 43.98,-68.65"/>
<polygon fill="#63b8ff" stroke="#63b8ff" points="47.42,-68 41.8,-59.01 40.59,-69.54 47.42,-68"/>
</a>
</g>
</g>
<!-- Node2 -->
<g id="Node000002" class="node">
<title>Node2</title>
<g id="a_Node000002"><a xlink:href="printf_8c.html#a229f3a914ff741b54897f96250dbf980" target="_top" xlink:title=" ">
<polygon fill="white" stroke="#666666" points="177.2,-133.25 107.95,-133.25 107.95,-114 177.2,-114 177.2,-133.25"/>
<text xml:space="preserve" text-anchor="middle" x="142.57" y="-119.75" font-family="Helvetica,sans-Serif" font-size="10.00">_putintegers</text>
</a>
</g>
</g>
<!-- Node1&#45;&gt;Node2 -->
<g id="edge1_Node000001_Node000002" class="edge">
<title>Node1&#45;&gt;Node2</title>
<g id="a_edge1_Node000001_Node000002"><a xlink:title=" ">
<path fill="none" stroke="#63b8ff" d="M39.11,-57.56C58.79,-70.25 93.09,-92.37 116.54,-107.49"/>
<polygon fill="#63b8ff" stroke="#63b8ff" points="114.59,-110.39 124.89,-112.87 118.38,-104.51 114.59,-110.39"/>
</a>
</g>
</g>
<!-- Node6 -->
<g id="Node000006" class="node">
<title>Node6</title>
<g id="a_Node000006"><a xlink:href="printf_8c.html#a9bdf0418571456c566aa2f329b5f8350" target="_top" xlink:title=" ">
<polygon fill="white" stroke="#666666" points="523.32,-95.25 488.57,-95.25 488.57,-76 523.32,-76 523.32,-95.25"/>
<text xml:space="preserve" text-anchor="middle" x="505.95" y="-81.75" font-family="Helvetica,sans-Serif" font-size="10.00">putc</text>
</a>
</g>
</g>
<!-- Node1&#45;&gt;Node6 -->
<g id="edge12_Node000001_Node000006" class="edge">
<title>Node1&#45;&gt;Node6</title>
<g id="a_edge12_Node000001_Node000006"><a xlink:title=" ">
<path fill="none" stroke="#63b8ff" d="M41.98,-49.07C115.27,-54.86 388.23,-76.41 476.92,-83.41"/>
<polygon fill="#63b8ff" stroke="#63b8ff" points="476.41,-86.88 486.66,-84.18 476.97,-79.9 476.41,-86.88"/>
</a>
</g>
</g>
<!-- Node8 -->
<g id="Node000008" class="node">
<title>Node8</title>
<g id="a_Node000008"><a xlink:href="printf_8c.html#aa332bc15fee7dec7b84879bcdb096f91" target="_top" xlink:title=" ">
<polygon fill="white" stroke="#666666" points="207.57,-19.25 77.57,-19.25 77.57,0 207.57,0 207.57,-19.25"/>
<text xml:space="preserve" text-anchor="middle" x="142.57" y="-5.75" font-family="Helvetica,sans-Serif" font-size="10.00">_validate_format_specifier</text>
</a>
</g>
</g>
<!-- Node1&#45;&gt;Node8 -->
<g id="edge10_Node000001_Node000008" class="edge">
<title>Node1&#45;&gt;Node8</title>
<g id="a_edge10_Node000001_Node000008"><a xlink:title=" ">
<path fill="none" stroke="#63b8ff" d="M41.86,-41.77C57.15,-36.84 79.63,-29.59 99.38,-23.23"/>
<polygon fill="#63b8ff" stroke="#63b8ff" points="100.42,-26.57 108.87,-20.17 98.28,-19.91 100.42,-26.57"/>
</a>
</g>
</g>
<!-- Node3 -->
<g id="Node000003" class="node">
<title>Node3</title>
<g id="a_Node000003"><a xlink:href="printf_8c.html#ad22af70967959054d79902aec3721d14" target="_top" xlink:title=" ">
<polygon fill="white" stroke="#666666" points="322.57,-209.25 243.57,-209.25 243.57,-190 322.57,-190 322.57,-209.25"/>
<text xml:space="preserve" text-anchor="middle" x="283.07" y="-195.75" font-family="Helvetica,sans-Serif" font-size="10.00">_puthexcapital</text>
</a>
</g>
</g>
<!-- Node2&#45;&gt;Node3 -->
<g id="edge2_Node000002_Node000003" class="edge">
<title>Node2&#45;&gt;Node3</title>
<g id="a_edge2_Node000002_Node000003"><a xlink:title=" ">
<path fill="none" stroke="#63b8ff" d="M161.96,-133.72C185.58,-146.68 226.8,-169.29 254.26,-184.36"/>
<polygon fill="#63b8ff" stroke="#63b8ff" points="252.27,-187.26 262.72,-189 255.63,-181.13 252.27,-187.26"/>
</a>
</g>
</g>
<!-- Node4 -->
<g id="Node000004" class="node">
<title>Node4</title>
<g id="a_Node000004"><a xlink:href="printf_8c.html#a59d8819db32c6b5c7365aad05b0778b5" target="_top" xlink:title=" ">
<polygon fill="white" stroke="#666666" points="450.32,-152.25 358.57,-152.25 358.57,-133 450.32,-133 450.32,-152.25"/>
<text xml:space="preserve" text-anchor="middle" x="404.45" y="-138.75" font-family="Helvetica,sans-Serif" font-size="10.00">_putunsignedlong</text>
</a>
</g>
</g>
<!-- Node2&#45;&gt;Node4 -->
<g id="edge8_Node000002_Node000004" class="edge">
<title>Node2&#45;&gt;Node4</title>
<g id="a_edge8_Node000002_Node000004"><a xlink:title=" ">
<path fill="none" stroke="#63b8ff" d="M177.59,-131.73C196.83,-135.9 221.4,-140.54 243.57,-142.62 277.75,-145.84 316.23,-145.95 346.87,-145.2"/>
<polygon fill="#63b8ff" stroke="#63b8ff" points="346.8,-148.71 356.69,-144.92 346.6,-141.71 346.8,-148.71"/>
</a>
</g>
</g>
<!-- Node2&#45;&gt;Node6 -->
<g id="edge9_Node000002_Node000006" class="edge">
<title>Node2&#45;&gt;Node6</title>
<g id="a_edge9_Node000002_Node000006"><a xlink:title=" ">
<path fill="none" stroke="#63b8ff" d="M177.66,-116.14C196.92,-112.16 221.49,-107.52 243.57,-104.62 328.23,-93.54 429.23,-88.5 477.11,-86.59"/>
<polygon fill="#63b8ff" stroke="#63b8ff" points="476.99,-90.1 486.85,-86.22 476.73,-83.11 476.99,-90.1"/>
</a>
</g>
</g>
<!-- Node7 -->
<g id="Node000007" class="node">
<title>Node7</title>
<g id="a_Node000007"><a xlink:href="printf_8c.html#a6ff3a4f52ca94cf220df24b61b7bd106" target="_top" xlink:title=" ">
<polygon fill="white" stroke="#666666" points="319.95,-133.25 246.2,-133.25 246.2,-114 319.95,-114 319.95,-133.25"/>
<text xml:space="preserve" text-anchor="middle" x="283.07" y="-119.75" font-family="Helvetica,sans-Serif" font-size="10.00">_puthexsmall</text>
</a>
</g>
</g>
<!-- Node2&#45;&gt;Node7 -->
<g id="edge6_Node000002_Node000007" class="edge">
<title>Node2&#45;&gt;Node7</title>
<g id="a_edge6_Node000002_Node000007"><a xlink:title=" ">
<path fill="none" stroke="#63b8ff" d="M177.45,-123.62C194.7,-123.62 215.94,-123.62 234.77,-123.62"/>
<polygon fill="#63b8ff" stroke="#63b8ff" points="234.61,-127.13 244.61,-123.63 234.61,-120.13 234.61,-127.13"/>
</a>
</g>
</g>
<!-- Node3&#45;&gt;Node4 -->
<g id="edge3_Node000003_Node000004" class="edge">
<title>Node3&#45;&gt;Node4</title>
<g id="a_edge3_Node000003_Node000004"><a xlink:title=" ">
<path fill="none" stroke="#63b8ff" d="M305.14,-189.57C323.81,-180.65 351.3,-167.52 372.48,-157.41"/>
<polygon fill="#63b8ff" stroke="#63b8ff" points="373.71,-160.7 381.23,-153.24 370.69,-154.39 373.71,-160.7"/>
</a>
</g>
</g>
<!-- Node5 -->
<g id="Node000005" class="node">
<title>Node5</title>
<g id="a_Node000005"><a xlink:href="printf_8c.html#a694b6d27273027eb96424e52b798c391" target="_top" xlink:title=" ">
<polygon fill="white" stroke="#666666" points="525.57,-152.25 486.32,-152.25 486.32,-133 525.57,-133 525.57,-152.25"/>
<text xml:space="preserve" text-anchor="middle" x="505.95" y="-138.75" font-family="Helvetica,sans-Serif" font-size="10.00">_bdiv</text>
</a>
</g>
</g>
<!-- Node4&#45;&gt;Node5 -->
<g id="edge4_Node000004_Node000005" class="edge">
<title>Node4&#45;&gt;Node5</title>
<g id="a_edge4_Node000004_Node000005"><a xlink:title=" ">
<path fill="none" stroke="#63b8ff" d="M450.54,-142.62C458.77,-142.62 467.18,-142.62 474.84,-142.62"/>
<polygon fill="#63b8ff" stroke="#63b8ff" points="474.63,-146.13 484.63,-142.63 474.63,-139.13 474.63,-146.13"/>
</a>
</g>
</g>
<!-- Node4&#45;&gt;Node6 -->
<g id="edge5_Node000004_Node000006" class="edge">
<title>Node4&#45;&gt;Node6</title>
<g id="a_edge5_Node000004_Node000006"><a xlink:title=" ">
<path fill="none" stroke="#63b8ff" d="M422.78,-132.7C438.14,-123.9 460.8,-110.92 478.44,-100.81"/>
<polygon fill="#63b8ff" stroke="#63b8ff" points="479.9,-104.01 486.83,-96 476.42,-97.94 479.9,-104.01"/>
</a>
</g>
</g>
<!-- Node7&#45;&gt;Node4 -->
<g id="edge7_Node000007_Node000004" class="edge">
<title>Node7&#45;&gt;Node4</title>
<g id="a_edge7_Node000007_Node000004"><a xlink:title=" ">
<path fill="none" stroke="#63b8ff" d="M320.21,-129.38C328.61,-130.71 337.74,-132.17 346.79,-133.61"/>
<polygon fill="#63b8ff" stroke="#63b8ff" points="346.21,-137.06 356.63,-135.17 347.31,-130.15 346.21,-137.06"/>
</a>
</g>
</g>
</g>
</svg>
