<?xml version="1.0" encoding="UTF-8" standalone="no"?>
<!DOCTYPE svg PUBLIC "-//W3C//DTD SVG 1.1//EN"
 "http://www.w3.org/Graphics/SVG/1.1/DTD/svg11.dtd">
<!-- Generated by graphviz version 14.0.0 (20250921.2048)
 -->
<!-- Title: _putunsignedint Pages: 1 -->
<svg width="295pt" height="64pt"
 viewBox="0.00 0.00 295.00 64.00" xmlns="http://www.w3.org/2000/svg" xmlns:xlink="http://www.w3.org/1999/xlink">
<g id="graph0" class="graph" transform="scale(1 1) rotate(0) translate(4 60.25)">
<title>_putunsignedint</title>
<!-- Node1 -->
<g id="Node000001" class="node">
<title>Node1</title>
<g id="a_Node000001"><a xlink:title=" ">
<polygon fill="#999999" stroke="#666666" points="84.25,-37.25 0,-37.25 0,-18 84.25,-18 84.25,-37.25"/>
<text xml:space="preserve" text-anchor="middle" x="42.12" y="-23.75" font-family="Helvetica,sans-Serif" font-size="10.00">_putunsignedint</text>
</a>
</g>
</g>
<!-- Node2 -->
<g id="Node000002" class="node">
<title>Node2</title>
<g id="a_Node000002"><a xlink:href="printf_8c.html#a59d8819db32c6b5c7365aad05b0778b5" target="_top" xlink:title=" ">
<polygon fill="white" stroke="#666666" points="212,-37.25 120.25,-37.25 120.25,-18 212,-18 212,-37.25"/>
<text xml:space="preserve" text-anchor="middle" x="166.12" y="-23.75" font-family="Helvetica,sans-Serif" font-size="10.00">_putunsignedlong</text>
</a>
</g>
</g>
<!-- Node1&#45;&gt;Node2 -->
<g id="edge1_Node000001_Node000002" class="edge">
<title>Node1&#45;&gt;Node2</title>
<g id="a_edge1_Node000001_Node000002"><a xlink:title=" ">
<path fill="none" stroke="#63b8ff" d="M84.43,-27.62C92.23,-27.62 100.51,-27.62 108.68,-27.62"/>
<polygon fill="#63b8ff" stroke="#63b8ff" points="108.58,-31.13 118.58,-27.63 108.58,-24.13 108.58,-31.13"/>
</a>
</g>
</g>
<!-- Node3 -->
<g id="Node000003" class="node">
<title>Node3</title>
<g id="a_Node000003"><a xlink:href="printf_8c.html#a694b6d27273027eb96424e52b798c391" target="_top" xlink:title=" ">
<polygon fill="white" stroke="#666666" points="287.25,-56.25 248,-56.25 248,-37 287.25,-37 287.25,-56.25"/>
<text xml:space="preserve" text-anchor="middle" x="267.62" y="-42.75" font-family="Helvetica,sans-Serif" font-size="10.00">_bdiv</text>
</a>
</g>
</g>
<!-- Node2&#45;&gt;Node3 -->
<g id="edge2_Node000002_Node000003" class="edge">
<title>Node2&#45;&gt;Node3</title>
<g id="a_edge2_Node000002_Node000003"><a xlink:title=" ">
<path fill="none" stroke="#63b8ff" d="M212.22,-36.24C220.45,-37.81 228.86,-39.41 236.52,-40.88"/>
<polygon fill="#63b8ff" stroke="#63b8ff" points="235.86,-44.31 246.34,-42.75 237.17,-37.44 235.86,-44.31"/>
</a>
</g>
</g>
<!-- Node4 -->
<g id="Node000004" class="node">
<title>Node4</title>
<g id="a_Node000004"><a xlink:href="printf_8c.html#a9bdf0418571456c566aa2f329b5f8350" target="_top" xlink:title=" ">
<polygon fill="white" stroke="#666666" points="285,-19.25 250.25,-19.25 250.25,0 285,0 285,-19.25"/>
<text xml:space="preserve" text-anchor="middle" x="267.62" y="-5.75" font-family="Helvetica,sans-Serif" font-size="10.00">putc</text>
</a>
</g>
</g>
<!-- Node2&#45;&gt;Node4 -->
<g id="edge3_Node000002_Node000004" class="edge">
<title>Node2&#45;&gt;Node4</title>
<g id="a_edge3_Node000002_Node000004"><a xlink:title=" ">
<path fill="none" stroke="#63b8ff" d="M212.22,-19.47C221.2,-17.84 230.39,-16.18 238.59,-14.7"/>
<polygon fill="#63b8ff" stroke="#63b8ff" points="239.07,-18.17 248.28,-12.94 237.82,-11.28 239.07,-18.17"/>
</a>
</g>
</g>
</g>
</svg>
