<?xml version="1.0" encoding="UTF-8" standalone="no"?>
<!DOCTYPE svg PUBLIC "-//W3C//DTD SVG 1.1//EN"
 "http://www.w3.org/Graphics/SVG/1.1/DTD/svg11.dtd">
<!-- Generated by graphviz version 14.0.0 (20250921.2048)
 -->
<!-- Title: puts Pages: 1 -->
<svg width="729pt" height="469pt"
 viewBox="0.00 0.00 729.00 469.00" xmlns="http://www.w3.org/2000/svg" xmlns:xlink="http://www.w3.org/1999/xlink">
<g id="graph0" class="graph" transform="scale(1 1) rotate(0) translate(4 464.62)">
<title>puts</title>
<!-- Node1 -->
<g id="Node000001" class="node">
<title>Node1</title>
<g id="a_Node000001"><a xlink:title="Transmit a null&#45;terminated string.">
<polygon fill="#999999" stroke="#666666" points="721,-149.25 686.25,-149.25 686.25,-130 721,-130 721,-149.25"/>
<text xml:space="preserve" text-anchor="middle" x="703.62" y="-135.75" font-family="Helvetica,sans-Serif" font-size="10.00">puts</text>
</a>
</g>
</g>
<!-- Node2 -->
<g id="Node000002" class="node">
<title>Node2</title>
<g id="a_Node000002"><a xlink:href="printf_8c.html#a7880ed31ba841d890680635d6b83fcb7" target="_top" xlink:title="Read a line of text from UART with basic editing support.">
<polygon fill="white" stroke="#666666" points="512.75,-19.25 463,-19.25 463,0 512.75,0 512.75,-19.25"/>
<text xml:space="preserve" text-anchor="middle" x="487.88" y="-5.75" font-family="Helvetica,sans-Serif" font-size="10.00">getlines</text>
</a>
</g>
</g>
<!-- Node1&#45;&gt;Node2 -->
<g id="edge1_Node000001_Node000002" class="edge">
<title>Node1&#45;&gt;Node2</title>
<g id="a_edge1_Node000001_Node000002"><a xlink:title=" ">
<path fill="none" stroke="#63b8ff" d="M693.45,-119.63C684.64,-102.5 669.79,-78.33 650.25,-63.62 608.23,-32 546.63,-18.25 512.99,-12.8"/>
<polygon fill="#63b8ff" stroke="#63b8ff" points="690.17,-120.89 697.7,-128.34 696.46,-117.82 690.17,-120.89"/>
</a>
</g>
</g>
<!-- Node4 -->
<g id="Node000004" class="node">
<title>Node4</title>
<g id="a_Node000004"><a xlink:href="kernel_8c.html#a5f7f5591859a697cdeb5faafdf0ce822" target="_top" xlink:title=" ">
<polygon fill="white" stroke="#666666" points="524.75,-56.25 451,-56.25 451,-37 524.75,-37 524.75,-56.25"/>
<text xml:space="preserve" text-anchor="middle" x="487.88" y="-42.75" font-family="Helvetica,sans-Serif" font-size="10.00">init_message</text>
</a>
</g>
</g>
<!-- Node1&#45;&gt;Node4 -->
<g id="edge3_Node000001_Node000004" class="edge">
<title>Node1&#45;&gt;Node4</title>
<g id="a_edge3_Node000001_Node000004"><a xlink:title=" ">
<path fill="none" stroke="#63b8ff" d="M681.91,-122.96C672.62,-116.02 661.27,-108.29 650.25,-102.62 609.23,-81.55 558.5,-65.42 524.99,-56"/>
<polygon fill="#63b8ff" stroke="#63b8ff" points="679.51,-125.52 689.56,-128.85 683.78,-119.97 679.51,-125.52"/>
</a>
</g>
</g>
<!-- Node5 -->
<g id="Node000005" class="node">
<title>Node5</title>
<g id="a_Node000005"><a xlink:href="kernel_8c.html#a7e3f35a711eee12e3d4bbc0a276fcf0c" target="_top" xlink:title=" ">
<polygon fill="white" stroke="#666666" points="650.25,-168.25 560.75,-168.25 560.75,-149 650.25,-149 650.25,-168.25"/>
<text xml:space="preserve" text-anchor="middle" x="605.5" y="-154.75" font-family="Helvetica,sans-Serif" font-size="10.00">irq_sanity_check</text>
</a>
</g>
</g>
<!-- Node1&#45;&gt;Node5 -->
<g id="edge5_Node000001_Node000005" class="edge">
<title>Node1&#45;&gt;Node5</title>
<g id="a_edge5_Node000001_Node000005"><a xlink:title=" ">
<path fill="none" stroke="#63b8ff" d="M674.84,-145.12C667.29,-146.61 658.93,-148.26 650.72,-149.88"/>
<polygon fill="#63b8ff" stroke="#63b8ff" points="675.26,-148.6 684.4,-143.23 673.91,-141.73 675.26,-148.6"/>
</a>
</g>
</g>
<!-- Node6 -->
<g id="Node000006" class="node">
<title>Node6</title>
<g id="a_Node000006"><a xlink:href="memory_8c.html#ae8d09a66c8495a0c2ff5c54f1309fd6a" target="_top" xlink:title=" ">
<polygon fill="white" stroke="#666666" points="415,-207.25 347.25,-207.25 347.25,-188 415,-188 415,-207.25"/>
<text xml:space="preserve" text-anchor="middle" x="381.12" y="-193.75" font-family="Helvetica,sans-Serif" font-size="10.00">kmalloc_init</text>
</a>
</g>
</g>
<!-- Node1&#45;&gt;Node6 -->
<g id="edge6_Node000001_Node000006" class="edge">
<title>Node1&#45;&gt;Node6</title>
<g id="a_edge6_Node000001_Node000006"><a xlink:title=" ">
<path fill="none" stroke="#63b8ff" d="M683.99,-157.07C674.59,-164.78 662.59,-173.1 650.25,-177.62 569.82,-207.08 466.93,-204.59 415.11,-200.81"/>
<polygon fill="#63b8ff" stroke="#63b8ff" points="686.03,-159.93 691.28,-150.72 681.44,-154.65 686.03,-159.93"/>
</a>
</g>
</g>
<!-- Node7 -->
<g id="Node000007" class="node">
<title>Node7</title>
<g id="a_Node000007"><a xlink:href="kernel_8c.html#a8a11654fcf5bd5fcf10f118ad5f79904" target="_top" xlink:title=" ">
<polygon fill="white" stroke="#666666" points="164.75,-403.25 109,-403.25 109,-384 164.75,-384 164.75,-403.25"/>
<text xml:space="preserve" text-anchor="middle" x="136.88" y="-389.75" font-family="Helvetica,sans-Serif" font-size="10.00">not_main</text>
</a>
</g>
</g>
<!-- Node1&#45;&gt;Node7 -->
<g id="edge8_Node000001_Node000007" class="edge">
<title>Node1&#45;&gt;Node7</title>
<g id="a_edge8_Node000001_Node000007"><a xlink:title=" ">
<path fill="none" stroke="#63b8ff" d="M699.2,-160.66C686.25,-232.04 633.52,-460.62 488.88,-460.62 0,-82.62 0,-82.62 380.12,-460.62 295.69,-460.62 200.49,-422.35 159.04,-403.66"/>
<polygon fill="#63b8ff" stroke="#63b8ff" points="702.6,-161.53 700.85,-151.08 695.7,-160.33 702.6,-161.53"/>
</a>
</g>
</g>
<!-- Node8 -->
<g id="Node000008" class="node">
<title>Node8</title>
<g id="a_Node000008"><a xlink:href="printf_8c.html#a0aff7311d684a0e0ef33125616a73385" target="_top" xlink:title="Kernel printf implementation using UART output.">
<polygon fill="white" stroke="#666666" points="624.38,-131.25 586.62,-131.25 586.62,-112 624.38,-112 624.38,-131.25"/>
<text xml:space="preserve" text-anchor="middle" x="605.5" y="-117.75" font-family="Helvetica,sans-Serif" font-size="10.00">printf</text>
</a>
</g>
</g>
<!-- Node1&#45;&gt;Node8 -->
<g id="edge9_Node000001_Node000008" class="edge">
<title>Node1&#45;&gt;Node8</title>
<g id="a_edge9_Node000001_Node000008"><a xlink:title=" ">
<path fill="none" stroke="#63b8ff" d="M674.92,-134.44C658.77,-131.41 638.86,-127.68 624.69,-125.03"/>
<polygon fill="#63b8ff" stroke="#63b8ff" points="673.92,-137.81 684.39,-136.21 675.21,-130.93 673.92,-137.81"/>
</a>
</g>
</g>
<!-- Node3 -->
<g id="Node000003" class="node">
<title>Node3</title>
<g id="a_Node000003"><a xlink:href="kernel_8c.html#a6b8fb674fb359f6ae53dc9c4fb7fc6be" target="_top" xlink:title=" ">
<polygon fill="white" stroke="#666666" points="292.12,-93.25 223.62,-93.25 223.62,-74 292.12,-74 292.12,-93.25"/>
<text xml:space="preserve" text-anchor="middle" x="257.88" y="-79.75" font-family="Helvetica,sans-Serif" font-size="10.00">kernel_main</text>
</a>
</g>
</g>
<!-- Node2&#45;&gt;Node3 -->
<g id="edge2_Node000002_Node000003" class="edge">
<title>Node2&#45;&gt;Node3</title>
<g id="a_edge2_Node000002_Node000003"><a xlink:title=" ">
<path fill="none" stroke="#63b8ff" d="M451.73,-20.9C423.48,-29.97 382.8,-43.06 347.25,-54.62 328.05,-60.87 306.53,-67.93 289.54,-73.52"/>
<polygon fill="#63b8ff" stroke="#63b8ff" points="452.75,-24.24 461.21,-17.85 450.62,-17.58 452.75,-24.24"/>
</a>
</g>
</g>
<!-- Node4&#45;&gt;Node3 -->
<g id="edge4_Node000004_Node000003" class="edge">
<title>Node4&#45;&gt;Node3</title>
<g id="a_edge4_Node000004_Node000003"><a xlink:title=" ">
<path fill="none" stroke="#63b8ff" d="M439.5,-54.31C395.63,-61.43 331.48,-71.84 292.6,-78.15"/>
<polygon fill="#63b8ff" stroke="#63b8ff" points="439.94,-57.79 449.25,-52.73 438.82,-50.88 439.94,-57.79"/>
</a>
</g>
</g>
<!-- Node6&#45;&gt;Node3 -->
<g id="edge7_Node000006_Node000003" class="edge">
<title>Node6&#45;&gt;Node3</title>
<g id="a_edge7_Node000006_Node000003"><a xlink:title=" ">
<path fill="none" stroke="#63b8ff" d="M361.11,-179.74C335.26,-155.44 289.91,-112.81 269.44,-93.56"/>
<polygon fill="#63b8ff" stroke="#63b8ff" points="358.58,-182.17 368.26,-186.47 363.37,-177.07 358.58,-182.17"/>
</a>
</g>
</g>
<!-- Node8&#45;&gt;Node2 -->
<g id="edge12_Node000008_Node000002" class="edge">
<title>Node8&#45;&gt;Node2</title>
<g id="a_edge12_Node000008_Node000002"><a xlink:title=" ">
<path fill="none" stroke="#63b8ff" d="M591.76,-102.43C577.39,-81.89 552.39,-49.35 524.75,-27.62 520.91,-24.61 516.49,-21.9 512.1,-19.55"/>
<polygon fill="#63b8ff" stroke="#63b8ff" points="588.71,-104.17 597.24,-110.45 594.49,-100.22 588.71,-104.17"/>
</a>
</g>
</g>
<!-- Node8&#45;&gt;Node3 -->
<g id="edge14_Node000008_Node000003" class="edge">
<title>Node8&#45;&gt;Node3</title>
<g id="a_edge14_Node000008_Node000003"><a xlink:title=" ">
<path fill="none" stroke="#63b8ff" d="M575.04,-119.49C527.16,-115.89 429.54,-107.97 347.25,-97.62 329.06,-95.34 308.87,-92.19 292.38,-89.45"/>
<polygon fill="#63b8ff" stroke="#63b8ff" points="574.63,-122.97 584.86,-120.22 575.14,-115.99 574.63,-122.97"/>
</a>
</g>
</g>
<!-- Node8&#45;&gt;Node4 -->
<g id="edge13_Node000008_Node000004" class="edge">
<title>Node8&#45;&gt;Node4</title>
<g id="a_edge13_Node000008_Node000004"><a xlink:title=" ">
<path fill="none" stroke="#63b8ff" d="M581.95,-104.91C562.55,-90.64 535.97,-71.39 524.75,-64.62 520.1,-61.82 514.95,-59.05 510.04,-56.56"/>
<polygon fill="#63b8ff" stroke="#63b8ff" points="579.71,-107.61 589.84,-110.73 583.87,-101.98 579.71,-107.61"/>
</a>
</g>
</g>
<!-- Node8&#45;&gt;Node7 -->
<g id="edge30_Node000008_Node000007" class="edge">
<title>Node8&#45;&gt;Node7</title>
<g id="a_edge30_Node000008_Node000007"><a xlink:title=" ">
<path fill="none" stroke="#63b8ff" d="M575.77,-129.03C570.17,-131.61 564.79,-135.04 560.75,-139.62 520.26,-185.57 559.31,-222.07 524.75,-272.62 490.54,-322.67 469.24,-326.54 415,-353.62 331.28,-395.43 216.77,-396.98 165.12,-395.18"/>
<polygon fill="#63b8ff" stroke="#63b8ff" points="576.93,-132.34 585.11,-125.6 574.52,-125.77 576.93,-132.34"/>
</a>
</g>
</g>
<!-- Node9 -->
<g id="Node000009" class="node">
<title>Node9</title>
<g id="a_Node000009"><a xlink:href="clear_8c.html#ae683fe63c33c388e9ba1c6392dd477eb" target="_top" xlink:title="Clears the terminal screen and moves the cursor to the home position.">
<polygon fill="white" stroke="#666666" points="506.38,-93.25 469.38,-93.25 469.38,-74 506.38,-74 506.38,-93.25"/>
<text xml:space="preserve" text-anchor="middle" x="487.88" y="-79.75" font-family="Helvetica,sans-Serif" font-size="10.00">clear</text>
</a>
</g>
</g>
<!-- Node8&#45;&gt;Node9 -->
<g id="edge10_Node000008_Node000009" class="edge">
<title>Node8&#45;&gt;Node9</title>
<g id="a_edge10_Node000008_Node000009"><a xlink:title=" ">
<path fill="none" stroke="#63b8ff" d="M575.33,-112.04C553.74,-104.94 525.02,-95.5 506.73,-89.49"/>
<polygon fill="#63b8ff" stroke="#63b8ff" points="574.15,-115.33 584.74,-115.13 576.33,-108.68 574.15,-115.33"/>
</a>
</g>
</g>
<!-- Node10 -->
<g id="Node000010" class="node">
<title>Node10</title>
<g id="a_Node000010"><a xlink:href="panic_8c.html#ac3d3e7674c5f1ad62a44afce2ff9a0ca" target="_top" xlink:title="Print a panic message and halt the CPU.">
<polygon fill="white" stroke="#666666" points="523.25,-263.25 452.5,-263.25 452.5,-244 523.25,-244 523.25,-263.25"/>
<text xml:space="preserve" text-anchor="middle" x="487.88" y="-249.75" font-family="Helvetica,sans-Serif" font-size="10.00">kernel_panic</text>
</a>
</g>
</g>
<!-- Node8&#45;&gt;Node10 -->
<g id="edge15_Node000008_Node000010" class="edge">
<title>Node8&#45;&gt;Node10</title>
<g id="a_edge15_Node000008_Node000010"><a xlink:title=" ">
<path fill="none" stroke="#63b8ff" d="M576.18,-130.26C570.7,-132.74 565.27,-135.82 560.75,-139.62 525.12,-169.59 501.45,-221.86 492.68,-243.64"/>
<polygon fill="#63b8ff" stroke="#63b8ff" points="577.07,-133.67 585.12,-126.79 574.53,-127.15 577.07,-133.67"/>
</a>
</g>
</g>
<!-- Node9&#45;&gt;Node3 -->
<g id="edge11_Node000009_Node000003" class="edge">
<title>Node9&#45;&gt;Node3</title>
<g id="a_edge11_Node000009_Node000003"><a xlink:title=" ">
<path fill="none" stroke="#63b8ff" d="M457.57,-83.62C415.26,-83.62 337.28,-83.62 292.62,-83.62"/>
<polygon fill="#63b8ff" stroke="#63b8ff" points="457.47,-87.13 467.47,-83.63 457.47,-80.13 457.47,-87.13"/>
</a>
</g>
</g>
<!-- Node10&#45;&gt;Node6 -->
<g id="edge29_Node000010_Node000006" class="edge">
<title>Node10&#45;&gt;Node6</title>
<g id="a_edge29_Node000010_Node000006"><a xlink:title=" ">
<path fill="none" stroke="#63b8ff" d="M458.09,-238.24C439.91,-228.52 416.94,-216.24 401.04,-207.74"/>
<polygon fill="#63b8ff" stroke="#63b8ff" points="456.34,-241.27 466.81,-242.9 459.64,-235.1 456.34,-241.27"/>
</a>
</g>
</g>
<!-- Node11 -->
<g id="Node000011" class="node">
<title>Node11</title>
<g id="a_Node000011"><a xlink:href="printf_8c.html#a694b6d27273027eb96424e52b798c391" target="_top" xlink:title=" ">
<polygon fill="white" stroke="#666666" points="400.75,-281.25 361.5,-281.25 361.5,-262 400.75,-262 400.75,-281.25"/>
<text xml:space="preserve" text-anchor="middle" x="381.12" y="-267.75" font-family="Helvetica,sans-Serif" font-size="10.00">_bdiv</text>
</a>
</g>
</g>
<!-- Node10&#45;&gt;Node11 -->
<g id="edge16_Node000010_Node000011" class="edge">
<title>Node10&#45;&gt;Node11</title>
<g id="a_edge16_Node000010_Node000011"><a xlink:title=" ">
<path fill="none" stroke="#63b8ff" d="M441.2,-261.47C427.1,-263.9 412.34,-266.43 401.1,-268.36"/>
<polygon fill="#63b8ff" stroke="#63b8ff" points="441.53,-264.97 450.79,-259.83 440.35,-258.07 441.53,-264.97"/>
</a>
</g>
</g>
<!-- Node12 -->
<g id="Node000012" class="node">
<title>Node12</title>
<g id="a_Node000012"><a xlink:href="printf_8c.html#a96a30e819fcbfa9a0251f71f14ff79bc" target="_top" xlink:title="Perform division and return quotient and remainder.">
<polygon fill="white" stroke="#666666" points="407.5,-244.25 354.75,-244.25 354.75,-225 407.5,-225 407.5,-244.25"/>
<text xml:space="preserve" text-anchor="middle" x="381.12" y="-230.75" font-family="Helvetica,sans-Serif" font-size="10.00">_divmod</text>
</a>
</g>
</g>
<!-- Node10&#45;&gt;Node12 -->
<g id="edge17_Node000010_Node000012" class="edge">
<title>Node10&#45;&gt;Node12</title>
<g id="a_edge17_Node000010_Node000012"><a xlink:title=" ">
<path fill="none" stroke="#63b8ff" d="M441.07,-245.32C429.64,-243.24 417.78,-241.09 407.72,-239.27"/>
<polygon fill="#63b8ff" stroke="#63b8ff" points="440.33,-248.74 450.8,-247.08 441.58,-241.85 440.33,-248.74"/>
</a>
</g>
</g>
<!-- Node16 -->
<g id="Node000016" class="node">
<title>Node16</title>
<g id="a_Node000016"><a xlink:href="math_8h.html#a97fbf4adb8a31d415775bdbd5c30c468" target="_top" xlink:title="Unsigned 32&#45;bit integer division: n / d.">
<polygon fill="white" stroke="#666666" points="406,-318.25 356.25,-318.25 356.25,-299 406,-299 406,-318.25"/>
<text xml:space="preserve" text-anchor="middle" x="381.12" y="-304.75" font-family="Helvetica,sans-Serif" font-size="10.00">_udiv32</text>
</a>
</g>
</g>
<!-- Node10&#45;&gt;Node16 -->
<g id="edge24_Node000010_Node000016" class="edge">
<title>Node10&#45;&gt;Node16</title>
<g id="a_edge24_Node000010_Node000016"><a xlink:title=" ">
<path fill="none" stroke="#63b8ff" d="M457.66,-268.97C439.61,-278.44 416.98,-290.32 401.22,-298.6"/>
<polygon fill="#63b8ff" stroke="#63b8ff" points="459.1,-272.16 466.32,-264.42 455.84,-265.97 459.1,-272.16"/>
</a>
</g>
</g>
<!-- Node18 -->
<g id="Node000018" class="node">
<title>Node18</title>
<g id="a_Node000018"><a xlink:href="memory_8c.html#a87d8585002a620e687d68b38ab387a0e" target="_top" xlink:title=" ">
<polygon fill="white" stroke="#666666" points="282.75,-375.25 233,-375.25 233,-356 282.75,-356 282.75,-375.25"/>
<text xml:space="preserve" text-anchor="middle" x="257.88" y="-361.75" font-family="Helvetica,sans-Serif" font-size="10.00">kmalloc</text>
</a>
</g>
</g>
<!-- Node10&#45;&gt;Node18 -->
<g id="edge27_Node000010_Node000018" class="edge">
<title>Node10&#45;&gt;Node18</title>
<g id="a_edge27_Node000010_Node000018"><a xlink:title=" ">
<path fill="none" stroke="#63b8ff" d="M473.3,-272.77C460.27,-289.74 439.04,-313.88 415,-327.62 372.62,-351.85 315.22,-360.72 283.15,-363.9"/>
<polygon fill="#63b8ff" stroke="#63b8ff" points="475.95,-275.08 479.09,-264.97 470.33,-270.91 475.95,-275.08"/>
</a>
</g>
</g>
<!-- Node13 -->
<g id="Node000013" class="node">
<title>Node13</title>
<g id="a_Node000013"><a xlink:href="printf_8c.html#ab97c3c9e783c1402d4007ceafdb197c1" target="_top" xlink:title="Print an unsigned integer in the given base.">
<polygon fill="white" stroke="#666666" points="294.75,-244.25 221,-244.25 221,-225 294.75,-225 294.75,-244.25"/>
<text xml:space="preserve" text-anchor="middle" x="257.88" y="-230.75" font-family="Helvetica,sans-Serif" font-size="10.00">put_unsigned</text>
</a>
</g>
</g>
<!-- Node12&#45;&gt;Node13 -->
<g id="edge18_Node000012_Node000013" class="edge">
<title>Node12&#45;&gt;Node13</title>
<g id="a_edge18_Node000012_Node000013"><a xlink:title=" ">
<path fill="none" stroke="#63b8ff" d="M343.28,-234.62C328.01,-234.62 310.34,-234.62 295.13,-234.62"/>
<polygon fill="#63b8ff" stroke="#63b8ff" points="342.9,-238.13 352.9,-234.63 342.9,-231.13 342.9,-238.13"/>
</a>
</g>
</g>
<!-- Node13&#45;&gt;Node8 -->
<g id="edge19_Node000013_Node000008" class="edge">
<title>Node13&#45;&gt;Node8</title>
<g id="a_edge19_Node000013_Node000008"><a xlink:title=" ">
<path fill="none" stroke="#63b8ff" d="M280.72,-217.74C297.92,-205.22 322.97,-188.65 347.25,-178.62 432.67,-143.37 543.45,-128.26 586.39,-123.46"/>
<polygon fill="#63b8ff" stroke="#63b8ff" points="278.7,-214.88 272.77,-223.66 282.88,-220.49 278.7,-214.88"/>
</a>
</g>
</g>
<!-- Node14 -->
<g id="Node000014" class="node">
<title>Node14</title>
<g id="a_Node000014"><a xlink:href="printf_8c.html#ac3154a3597888cf112e4e7bf6a5f1846" target="_top" xlink:title="Format and print an integer based on format control.">
<polygon fill="white" stroke="#666666" points="69.25,-282.25 0,-282.25 0,-263 69.25,-263 69.25,-282.25"/>
<text xml:space="preserve" text-anchor="middle" x="34.62" y="-268.75" font-family="Helvetica,sans-Serif" font-size="10.00">put_integers</text>
</a>
</g>
</g>
<!-- Node13&#45;&gt;Node14 -->
<g id="edge20_Node000013_Node000014" class="edge">
<title>Node13&#45;&gt;Node14</title>
<g id="a_edge20_Node000013_Node000014"><a xlink:title=" ">
<path fill="none" stroke="#63b8ff" d="M209.38,-238.83C179.35,-241.92 139.83,-246.78 105.25,-253.62 93.2,-256.01 80.18,-259.35 68.69,-262.57"/>
<polygon fill="#63b8ff" stroke="#63b8ff" points="209.69,-242.32 219.3,-237.84 209,-235.35 209.69,-242.32"/>
</a>
</g>
</g>
<!-- Node15 -->
<g id="Node000015" class="node">
<title>Node15</title>
<g id="a_Node000015"><a xlink:href="printf_8c.html#a2e8c688dfa078a9a7f1f02d4126f466a" target="_top" xlink:title="Print a signed integer in decimal form.">
<polygon fill="white" stroke="#666666" points="168.5,-282.25 105.25,-282.25 105.25,-263 168.5,-263 168.5,-282.25"/>
<text xml:space="preserve" text-anchor="middle" x="136.88" y="-268.75" font-family="Helvetica,sans-Serif" font-size="10.00">put_signed</text>
</a>
</g>
</g>
<!-- Node13&#45;&gt;Node15 -->
<g id="edge22_Node000013_Node000015" class="edge">
<title>Node13&#45;&gt;Node15</title>
<g id="a_edge22_Node000013_Node000015"><a xlink:title=" ">
<path fill="none" stroke="#63b8ff" d="M214.64,-248.11C199.51,-252.94 182.76,-258.29 168.78,-262.76"/>
<polygon fill="#63b8ff" stroke="#63b8ff" points="215.39,-251.55 223.86,-245.17 213.26,-244.88 215.39,-251.55"/>
</a>
</g>
</g>
<!-- Node14&#45;&gt;Node8 -->
<g id="edge21_Node000014_Node000008" class="edge">
<title>Node14&#45;&gt;Node8</title>
<g id="a_edge21_Node000014_Node000008"><a xlink:title=" ">
<path fill="none" stroke="#63b8ff" d="M39.01,-293.57C45.47,-325.75 62.88,-386.37 105.25,-412.62 183.8,-461.29 221.55,-406.77 311.25,-384.62 415.28,-358.94 464.28,-361.08 524.75,-272.62 559.31,-222.07 520.26,-185.57 560.75,-139.62 567.38,-132.11 577.62,-127.67 586.53,-125.08"/>
<polygon fill="#63b8ff" stroke="#63b8ff" points="42.49,-293.11 37.26,-283.9 35.6,-294.36 42.49,-293.11"/>
</a>
</g>
</g>
<!-- Node15&#45;&gt;Node14 -->
<g id="edge23_Node000015_Node000014" class="edge">
<title>Node15&#45;&gt;Node14</title>
<g id="a_edge23_Node000015_Node000014"><a xlink:title=" ">
<path fill="none" stroke="#63b8ff" d="M93.6,-272.62C85.64,-272.62 77.41,-272.62 69.74,-272.62"/>
<polygon fill="#63b8ff" stroke="#63b8ff" points="93.47,-276.13 103.47,-272.63 93.47,-269.13 93.47,-276.13"/>
</a>
</g>
</g>
<!-- Node17 -->
<g id="Node000017" class="node">
<title>Node17</title>
<g id="a_Node000017"><a xlink:href="interrupt_8c.html#a2a778647bb8df60e6c3238b29eb2fca2" target="_top" xlink:title="VersatilePB SP804 timer clock is typically 1 MHz (can be overridden)">
<polygon fill="white" stroke="#666666" points="311.25,-328.25 204.5,-328.25 204.5,-309 311.25,-309 311.25,-328.25"/>
<text xml:space="preserve" text-anchor="middle" x="257.88" y="-314.75" font-family="Helvetica,sans-Serif" font-size="10.00">interrupts_init_timer0</text>
</a>
</g>
</g>
<!-- Node16&#45;&gt;Node17 -->
<g id="edge25_Node000016_Node000017" class="edge">
<title>Node16&#45;&gt;Node17</title>
<g id="a_edge25_Node000016_Node000017"><a xlink:title=" ">
<path fill="none" stroke="#63b8ff" d="M344.44,-311.57C334.16,-312.42 322.72,-313.36 311.64,-314.27"/>
<polygon fill="#63b8ff" stroke="#63b8ff" points="344.69,-315.06 354.37,-310.75 344.12,-308.08 344.69,-315.06"/>
</a>
</g>
</g>
<!-- Node17&#45;&gt;Node7 -->
<g id="edge26_Node000017_Node000007" class="edge">
<title>Node17&#45;&gt;Node7</title>
<g id="a_edge26_Node000017_Node000007"><a xlink:title=" ">
<path fill="none" stroke="#63b8ff" d="M226.66,-333.96C219.31,-337.91 211.54,-342.28 204.5,-346.62 185.34,-358.44 164.28,-373.71 151.07,-383.58"/>
<polygon fill="#63b8ff" stroke="#63b8ff" points="228.1,-337.16 235.31,-329.4 224.83,-330.97 228.1,-337.16"/>
</a>
</g>
</g>
<!-- Node18&#45;&gt;Node7 -->
<g id="edge28_Node000018_Node000007" class="edge">
<title>Node18&#45;&gt;Node7</title>
<g id="a_edge28_Node000018_Node000007"><a xlink:title=" ">
<path fill="none" stroke="#63b8ff" d="M221.53,-373.94C203.48,-378.19 181.86,-383.28 165.12,-387.21"/>
<polygon fill="#63b8ff" stroke="#63b8ff" points="222.1,-377.4 231.03,-371.71 220.5,-370.59 222.1,-377.4"/>
</a>
</g>
</g>
</g>
</svg>
