<?xml version="1.0" encoding="UTF-8" standalone="no"?>
<!DOCTYPE svg PUBLIC "-//W3C//DTD SVG 1.1//EN"
 "http://www.w3.org/Graphics/SVG/1.1/DTD/svg11.dtd">
<!-- Generated by graphviz version 14.0.0 (20250921.2048)
 -->
<!-- Title: put_integers Pages: 1 -->
<svg width="723pt" height="160pt"
 viewBox="0.00 0.00 723.00 160.00" xmlns="http://www.w3.org/2000/svg" xmlns:xlink="http://www.w3.org/1999/xlink">
<g id="graph0" class="graph" transform="scale(1 1) rotate(0) translate(4 156)">
<title>put_integers</title>
<!-- Node1 -->
<g id="Node000001" class="node">
<title>Node1</title>
<g id="a_Node000001"><a xlink:title="Format and print an integer based on format control.">
<polygon fill="#999999" stroke="#666666" points="69.25,-104.62 0,-104.62 0,-85.38 69.25,-85.38 69.25,-104.62"/>
<text xml:space="preserve" text-anchor="middle" x="34.62" y="-91.12" font-family="Helvetica,sans-Serif" font-size="10.00">put_integers</text>
</a>
</g>
</g>
<!-- Node2 -->
<g id="Node000002" class="node">
<title>Node2</title>
<g id="a_Node000002"><a xlink:href="printf_8c.html#a2e8c688dfa078a9a7f1f02d4126f466a" target="_top" xlink:title="Print a signed integer in decimal form.">
<polygon fill="white" stroke="#666666" points="168.5,-66.62 105.25,-66.62 105.25,-47.38 168.5,-47.38 168.5,-66.62"/>
<text xml:space="preserve" text-anchor="middle" x="136.88" y="-53.12" font-family="Helvetica,sans-Serif" font-size="10.00">put_signed</text>
</a>
</g>
</g>
<!-- Node1&#45;&gt;Node2 -->
<g id="edge1_Node000001_Node000002" class="edge">
<title>Node1&#45;&gt;Node2</title>
<g id="a_edge1_Node000001_Node000002"><a xlink:title=" ">
<path fill="none" stroke="#63b8ff" d="M62.23,-84.92C73.42,-80.67 86.63,-75.67 98.76,-71.07"/>
<polygon fill="#63b8ff" stroke="#63b8ff" points="99.97,-74.35 108.08,-67.54 97.49,-67.81 99.97,-74.35"/>
</a>
</g>
</g>
<!-- Node3 -->
<g id="Node000003" class="node">
<title>Node3</title>
<g id="a_Node000003"><a xlink:href="printf_8c.html#ab97c3c9e783c1402d4007ceafdb197c1" target="_top" xlink:title="Print an unsigned integer in the given base.">
<polygon fill="white" stroke="#666666" points="278.25,-85.62 204.5,-85.62 204.5,-66.38 278.25,-66.38 278.25,-85.62"/>
<text xml:space="preserve" text-anchor="middle" x="241.38" y="-72.12" font-family="Helvetica,sans-Serif" font-size="10.00">put_unsigned</text>
</a>
</g>
</g>
<!-- Node1&#45;&gt;Node3 -->
<g id="edge14_Node000001_Node000003" class="edge">
<title>Node1&#45;&gt;Node3</title>
<g id="a_edge14_Node000001_Node000003"><a xlink:title=" ">
<path fill="none" stroke="#63b8ff" d="M69.44,-91.86C103.1,-88.74 155.06,-83.92 192.86,-80.41"/>
<polygon fill="#63b8ff" stroke="#63b8ff" points="192.96,-83.92 202.59,-79.51 192.31,-76.95 192.96,-83.92"/>
</a>
</g>
</g>
<!-- Node2&#45;&gt;Node3 -->
<g id="edge2_Node000002_Node000003" class="edge">
<title>Node2&#45;&gt;Node3</title>
<g id="a_edge2_Node000002_Node000003"><a xlink:title=" ">
<path fill="none" stroke="#63b8ff" d="M168.91,-62.75C176.44,-64.15 184.66,-65.67 192.76,-67.17"/>
<polygon fill="#63b8ff" stroke="#63b8ff" points="192.09,-70.61 202.56,-68.99 193.36,-63.73 192.09,-70.61"/>
</a>
</g>
</g>
<!-- Node8 -->
<g id="Node000008" class="node">
<title>Node8</title>
<g id="a_Node000008"><a xlink:href="printf_8c.html#a9bdf0418571456c566aa2f329b5f8350" target="_top" xlink:title="Send a single character over UART, waiting if the FIFO is full.">
<polygon fill="white" stroke="#666666" points="714.5,-66.62 679.75,-66.62 679.75,-47.38 714.5,-47.38 714.5,-66.62"/>
<text xml:space="preserve" text-anchor="middle" x="697.12" y="-53.12" font-family="Helvetica,sans-Serif" font-size="10.00">putc</text>
</a>
</g>
</g>
<!-- Node2&#45;&gt;Node8 -->
<g id="edge13_Node000002_Node000008" class="edge">
<title>Node2&#45;&gt;Node8</title>
<g id="a_edge13_Node000002_Node000008"><a xlink:title=" ">
<path fill="none" stroke="#63b8ff" d="M158.82,-46.94C194.88,-30.58 271.38,0 339.62,0 714.5,-37 714.5,-37 542.38,0 590.04,0 641.13,-24.38 670.77,-41.25"/>
<polygon fill="#63b8ff" stroke="#63b8ff" points="668.97,-44.26 679.37,-46.3 672.52,-38.22 668.97,-44.26"/>
</a>
</g>
</g>
<!-- Node4 -->
<g id="Node000004" class="node">
<title>Node4</title>
<g id="a_Node000004"><a xlink:href="printf_8c.html#a96a30e819fcbfa9a0251f71f14ff79bc" target="_top" xlink:title="Perform division and return quotient and remainder.">
<polygon fill="white" stroke="#666666" points="367,-85.62 314.25,-85.62 314.25,-66.38 367,-66.38 367,-85.62"/>
<text xml:space="preserve" text-anchor="middle" x="340.62" y="-72.12" font-family="Helvetica,sans-Serif" font-size="10.00">_divmod</text>
</a>
</g>
</g>
<!-- Node3&#45;&gt;Node4 -->
<g id="edge3_Node000003_Node000004" class="edge">
<title>Node3&#45;&gt;Node4</title>
<g id="a_edge3_Node000003_Node000004"><a xlink:title=" ">
<path fill="none" stroke="#63b8ff" d="M278.59,-76C286.41,-76 294.68,-76 302.53,-76"/>
<polygon fill="#63b8ff" stroke="#63b8ff" points="302.49,-79.5 312.49,-76 302.49,-72.5 302.49,-79.5"/>
</a>
</g>
</g>
<!-- Node3&#45;&gt;Node8 -->
<g id="edge12_Node000003_Node000008" class="edge">
<title>Node3&#45;&gt;Node8</title>
<g id="a_edge12_Node000003_Node000008"><a xlink:title=" ">
<path fill="none" stroke="#63b8ff" d="M274.1,-65.92C312.38,-54.66 378.91,-38 437.38,-38 714.5,-37 714.5,-37 542.38,-38 586.78,-38 637.85,-45.9 668.52,-51.51"/>
<polygon fill="#63b8ff" stroke="#63b8ff" points="667.64,-54.91 678.11,-53.32 668.93,-48.03 667.64,-54.91"/>
</a>
</g>
</g>
<!-- Node5 -->
<g id="Node000005" class="node">
<title>Node5</title>
<g id="a_Node000005"><a xlink:href="panic_8c.html#ac3d3e7674c5f1ad62a44afce2ff9a0ca" target="_top" xlink:title="Print a panic message and halt the CPU.">
<polygon fill="white" stroke="#666666" points="473.75,-85.62 403,-85.62 403,-66.38 473.75,-66.38 473.75,-85.62"/>
<text xml:space="preserve" text-anchor="middle" x="438.38" y="-72.12" font-family="Helvetica,sans-Serif" font-size="10.00">kernel_panic</text>
</a>
</g>
</g>
<!-- Node4&#45;&gt;Node5 -->
<g id="edge4_Node000004_Node000005" class="edge">
<title>Node4&#45;&gt;Node5</title>
<g id="a_edge4_Node000004_Node000005"><a xlink:title=" ">
<path fill="none" stroke="#63b8ff" d="M367.28,-76C374.66,-76 382.95,-76 391.17,-76"/>
<polygon fill="#63b8ff" stroke="#63b8ff" points="391.13,-79.5 401.13,-76 391.13,-72.5 391.13,-79.5"/>
</a>
</g>
</g>
<!-- Node6 -->
<g id="Node000006" class="node">
<title>Node6</title>
<g id="a_Node000006"><a xlink:href="panic_8c.html#a830ea0b31f5cecec34c74c8a4c2f8192" target="_top" xlink:title="Halt the CPU indefinitely.">
<polygon fill="white" stroke="#666666" points="573,-85.62 509.75,-85.62 509.75,-66.38 573,-66.38 573,-85.62"/>
<text xml:space="preserve" text-anchor="middle" x="541.38" y="-72.12" font-family="Helvetica,sans-Serif" font-size="10.00">kernel_halt</text>
</a>
</g>
</g>
<!-- Node5&#45;&gt;Node6 -->
<g id="edge5_Node000005_Node000006" class="edge">
<title>Node5&#45;&gt;Node6</title>
<g id="a_edge5_Node000005_Node000006"><a xlink:title=" ">
<path fill="none" stroke="#63b8ff" d="M474.13,-76C481.8,-76 490.01,-76 497.94,-76"/>
<polygon fill="#63b8ff" stroke="#63b8ff" points="497.76,-79.5 507.76,-76 497.76,-72.5 497.76,-79.5"/>
</a>
</g>
</g>
<!-- Node7 -->
<g id="Node000007" class="node">
<title>Node7</title>
<g id="a_Node000007"><a xlink:href="printf_8c.html#a0aff7311d684a0e0ef33125616a73385" target="_top" xlink:title="Kernel printf implementation using UART output.">
<polygon fill="white" stroke="#666666" points="560.25,-123.62 522.5,-123.62 522.5,-104.38 560.25,-104.38 560.25,-123.62"/>
<text xml:space="preserve" text-anchor="middle" x="541.38" y="-110.12" font-family="Helvetica,sans-Serif" font-size="10.00">printf</text>
</a>
</g>
</g>
<!-- Node5&#45;&gt;Node7 -->
<g id="edge6_Node000005_Node000007" class="edge">
<title>Node5&#45;&gt;Node7</title>
<g id="a_edge6_Node000005_Node000007"><a xlink:title=" ">
<path fill="none" stroke="#63b8ff" d="M466.18,-86.08C480.1,-91.32 497.14,-97.73 511.37,-103.09"/>
<polygon fill="#63b8ff" stroke="#63b8ff" points="510.07,-106.34 520.66,-106.58 512.53,-99.78 510.07,-106.34"/>
</a>
</g>
</g>
<!-- Node7&#45;&gt;Node1 -->
<g id="edge7_Node000007_Node000001" class="edge">
<title>Node7&#45;&gt;Node1</title>
<g id="a_edge7_Node000007_Node000001"><a xlink:title=" ">
<path fill="none" stroke="#63b8ff" d="M522.24,-119.85C487.55,-130.51 409.25,-152 341.62,-152 714.5,-37 714.5,-37 240.38,-152 177.14,-152 106.8,-126.45 67.22,-109.56"/>
<polygon fill="#63b8ff" stroke="#63b8ff" points="68.85,-106.46 58.29,-105.66 66.05,-112.87 68.85,-106.46"/>
</a>
</g>
</g>
<!-- Node7&#45;&gt;Node3 -->
<g id="edge8_Node000007_Node000003" class="edge">
<title>Node7&#45;&gt;Node3</title>
<g id="a_edge8_Node000007_Node000003"><a xlink:title=" ">
<path fill="none" stroke="#63b8ff" d="M522.07,-113.54C483.41,-112.34 390.73,-108.22 314.25,-95 305.31,-93.45 295.86,-91.32 286.85,-89.05"/>
<polygon fill="#63b8ff" stroke="#63b8ff" points="287.77,-85.67 277.21,-86.51 285.99,-92.44 287.77,-85.67"/>
</a>
</g>
</g>
<!-- Node7&#45;&gt;Node8 -->
<g id="edge9_Node000007_Node000008" class="edge">
<title>Node7&#45;&gt;Node8</title>
<g id="a_edge9_Node000007_Node000008"><a xlink:title=" ">
<path fill="none" stroke="#63b8ff" d="M560.65,-112.99C581.51,-111.31 616.28,-106.82 643.75,-95 655.54,-89.92 667.25,-81.81 676.59,-74.37"/>
<polygon fill="#63b8ff" stroke="#63b8ff" points="678.78,-77.1 684.21,-68 674.3,-71.73 678.78,-77.1"/>
</a>
</g>
</g>
<!-- Node9 -->
<g id="Node000009" class="node">
<title>Node9</title>
<g id="a_Node000009"><a xlink:href="printf_8c.html#a299d0f9cb9e7b14e1278a4ed21e4d76f" target="_top" xlink:title="Transmit a null&#45;terminated string.">
<polygon fill="white" stroke="#666666" points="643.75,-85.62 609,-85.62 609,-66.38 643.75,-66.38 643.75,-85.62"/>
<text xml:space="preserve" text-anchor="middle" x="626.38" y="-72.12" font-family="Helvetica,sans-Serif" font-size="10.00">puts</text>
</a>
</g>
</g>
<!-- Node7&#45;&gt;Node9 -->
<g id="edge10_Node000007_Node000009" class="edge">
<title>Node7&#45;&gt;Node9</title>
<g id="a_edge10_Node000007_Node000009"><a xlink:title=" ">
<path fill="none" stroke="#63b8ff" d="M560.38,-105.75C571.45,-100.69 585.83,-94.1 598.25,-88.42"/>
<polygon fill="#63b8ff" stroke="#63b8ff" points="599.52,-91.69 607.16,-84.34 596.61,-85.32 599.52,-91.69"/>
</a>
</g>
</g>
<!-- Node9&#45;&gt;Node8 -->
<g id="edge11_Node000009_Node000008" class="edge">
<title>Node9&#45;&gt;Node8</title>
<g id="a_edge11_Node000009_Node000008"><a xlink:title=" ">
<path fill="none" stroke="#63b8ff" d="M644.02,-71.4C651.45,-69.35 660.4,-66.87 668.78,-64.56"/>
<polygon fill="#63b8ff" stroke="#63b8ff" points="669.47,-68 678.18,-61.96 667.61,-61.25 669.47,-68"/>
</a>
</g>
</g>
</g>
</svg>
