<?xml version="1.0" encoding="UTF-8" standalone="no"?>
<!DOCTYPE svg PUBLIC "-//W3C//DTD SVG 1.1//EN"
 "http://www.w3.org/Graphics/SVG/1.1/DTD/svg11.dtd">
<!-- Generated by graphviz version 14.0.0 (20250921.2048)
 -->
<!-- Title: put_unsigned Pages: 1 -->
<svg width="652pt" height="162pt"
 viewBox="0.00 0.00 652.00 162.00" xmlns="http://www.w3.org/2000/svg" xmlns:xlink="http://www.w3.org/1999/xlink">
<g id="graph0" class="graph" transform="scale(1 1) rotate(0) translate(4 157.79)">
<title>put_unsigned</title>
<!-- Node1 -->
<g id="Node000001" class="node">
<title>Node1</title>
<g id="a_Node000001"><a xlink:title="Print an unsigned integer in the given base.">
<polygon fill="#999999" stroke="#666666" points="73.75,-86.62 0,-86.62 0,-67.38 73.75,-67.38 73.75,-86.62"/>
<text xml:space="preserve" text-anchor="middle" x="36.88" y="-73.12" font-family="Helvetica,sans-Serif" font-size="10.00">put_unsigned</text>
</a>
</g>
</g>
<!-- Node2 -->
<g id="Node000002" class="node">
<title>Node2</title>
<g id="a_Node000002"><a xlink:href="printf_8c.html#a96a30e819fcbfa9a0251f71f14ff79bc" target="_top" xlink:title="Perform division and return quotient and remainder.">
<polygon fill="white" stroke="#666666" points="162.5,-124.62 109.75,-124.62 109.75,-105.38 162.5,-105.38 162.5,-124.62"/>
<text xml:space="preserve" text-anchor="middle" x="136.12" y="-111.12" font-family="Helvetica,sans-Serif" font-size="10.00">_divmod</text>
</a>
</g>
</g>
<!-- Node1&#45;&gt;Node2 -->
<g id="edge1_Node000001_Node000002" class="edge">
<title>Node1&#45;&gt;Node2</title>
<g id="a_edge1_Node000001_Node000002"><a xlink:title=" ">
<path fill="none" stroke="#63b8ff" d="M63.68,-87.08C74.54,-91.33 87.36,-96.33 99.12,-100.93"/>
<polygon fill="#63b8ff" stroke="#63b8ff" points="97.54,-104.07 108.13,-104.45 100.09,-97.55 97.54,-104.07"/>
</a>
</g>
</g>
<!-- Node8 -->
<g id="Node000008" class="node">
<title>Node8</title>
<g id="a_Node000008"><a xlink:href="printf_8c.html#a9bdf0418571456c566aa2f329b5f8350" target="_top" xlink:title="Send a single character over UART, waiting if the FIFO is full.">
<polygon fill="white" stroke="#666666" points="643.75,-105.62 609,-105.62 609,-86.38 643.75,-86.38 643.75,-105.62"/>
<text xml:space="preserve" text-anchor="middle" x="626.38" y="-92.12" font-family="Helvetica,sans-Serif" font-size="10.00">putc</text>
</a>
</g>
</g>
<!-- Node1&#45;&gt;Node8 -->
<g id="edge14_Node000001_Node000008" class="edge">
<title>Node1&#45;&gt;Node8</title>
<g id="a_edge14_Node000001_Node000008"><a xlink:title=" ">
<path fill="none" stroke="#63b8ff" d="M47.02,-86.93C59.72,-100.05 84.06,-122.78 109.75,-134 160.49,-156.16 177.51,-153 232.88,-153 643.75,0 643.75,0 440.12,-153 498.68,-153 563.21,-126.67 598.55,-109.8"/>
<polygon fill="#63b8ff" stroke="#63b8ff" points="599.74,-113.11 607.18,-105.57 596.66,-106.83 599.74,-113.11"/>
</a>
</g>
</g>
<!-- Node3 -->
<g id="Node000003" class="node">
<title>Node3</title>
<g id="a_Node000003"><a xlink:href="panic_8c.html#ac3d3e7674c5f1ad62a44afce2ff9a0ca" target="_top" xlink:title="Print a panic message and halt the CPU.">
<polygon fill="white" stroke="#666666" points="269.25,-124.62 198.5,-124.62 198.5,-105.38 269.25,-105.38 269.25,-124.62"/>
<text xml:space="preserve" text-anchor="middle" x="233.88" y="-111.12" font-family="Helvetica,sans-Serif" font-size="10.00">kernel_panic</text>
</a>
</g>
</g>
<!-- Node2&#45;&gt;Node3 -->
<g id="edge2_Node000002_Node000003" class="edge">
<title>Node2&#45;&gt;Node3</title>
<g id="a_edge2_Node000002_Node000003"><a xlink:title=" ">
<path fill="none" stroke="#63b8ff" d="M162.78,-115C170.16,-115 178.45,-115 186.67,-115"/>
<polygon fill="#63b8ff" stroke="#63b8ff" points="186.63,-118.5 196.63,-115 186.63,-111.5 186.63,-118.5"/>
</a>
</g>
</g>
<!-- Node4 -->
<g id="Node000004" class="node">
<title>Node4</title>
<g id="a_Node000004"><a xlink:href="panic_8c.html#a830ea0b31f5cecec34c74c8a4c2f8192" target="_top" xlink:title="Halt the CPU indefinitely.">
<polygon fill="white" stroke="#666666" points="368.5,-124.62 305.25,-124.62 305.25,-105.38 368.5,-105.38 368.5,-124.62"/>
<text xml:space="preserve" text-anchor="middle" x="336.88" y="-111.12" font-family="Helvetica,sans-Serif" font-size="10.00">kernel_halt</text>
</a>
</g>
</g>
<!-- Node3&#45;&gt;Node4 -->
<g id="edge3_Node000003_Node000004" class="edge">
<title>Node3&#45;&gt;Node4</title>
<g id="a_edge3_Node000003_Node000004"><a xlink:title=" ">
<path fill="none" stroke="#63b8ff" d="M269.63,-115C277.3,-115 285.51,-115 293.44,-115"/>
<polygon fill="#63b8ff" stroke="#63b8ff" points="293.26,-118.5 303.26,-115 293.26,-111.5 293.26,-118.5"/>
</a>
</g>
</g>
<!-- Node5 -->
<g id="Node000005" class="node">
<title>Node5</title>
<g id="a_Node000005"><a xlink:href="printf_8c.html#a0aff7311d684a0e0ef33125616a73385" target="_top" xlink:title="Kernel printf implementation using UART output.">
<polygon fill="white" stroke="#666666" points="355.75,-86.62 318,-86.62 318,-67.38 355.75,-67.38 355.75,-86.62"/>
<text xml:space="preserve" text-anchor="middle" x="336.88" y="-73.12" font-family="Helvetica,sans-Serif" font-size="10.00">printf</text>
</a>
</g>
</g>
<!-- Node3&#45;&gt;Node5 -->
<g id="edge4_Node000003_Node000005" class="edge">
<title>Node3&#45;&gt;Node5</title>
<g id="a_edge4_Node000003_Node000005"><a xlink:title=" ">
<path fill="none" stroke="#63b8ff" d="M261.68,-104.92C275.6,-99.68 292.64,-93.27 306.87,-87.91"/>
<polygon fill="#63b8ff" stroke="#63b8ff" points="308.03,-91.22 316.16,-84.42 305.57,-84.66 308.03,-91.22"/>
</a>
</g>
</g>
<!-- Node5&#45;&gt;Node1 -->
<g id="edge10_Node000005_Node000001" class="edge">
<title>Node5&#45;&gt;Node1</title>
<g id="a_edge10_Node000005_Node000001"><a xlink:title=" ">
<path fill="none" stroke="#63b8ff" d="M317.83,-77C272.47,-77 152.47,-77 85.23,-77"/>
<polygon fill="#63b8ff" stroke="#63b8ff" points="85.63,-73.5 75.63,-77 85.63,-80.5 85.63,-73.5"/>
</a>
</g>
</g>
<!-- Node6 -->
<g id="Node000006" class="node">
<title>Node6</title>
<g id="a_Node000006"><a xlink:href="printf_8c.html#ac3154a3597888cf112e4e7bf6a5f1846" target="_top" xlink:title="Format and print an integer based on format control.">
<polygon fill="white" stroke="#666666" points="473.75,-48.62 404.5,-48.62 404.5,-29.38 473.75,-29.38 473.75,-48.62"/>
<text xml:space="preserve" text-anchor="middle" x="439.12" y="-35.12" font-family="Helvetica,sans-Serif" font-size="10.00">put_integers</text>
</a>
</g>
</g>
<!-- Node5&#45;&gt;Node6 -->
<g id="edge5_Node000005_Node000006" class="edge">
<title>Node5&#45;&gt;Node6</title>
<g id="a_edge5_Node000005_Node000006"><a xlink:title=" ">
<path fill="none" stroke="#63b8ff" d="M355.8,-70.21C368.43,-65.42 385.79,-58.84 401.31,-52.95"/>
<polygon fill="#63b8ff" stroke="#63b8ff" points="402.16,-56.38 410.27,-49.56 399.68,-49.83 402.16,-56.38"/>
</a>
</g>
</g>
<!-- Node5&#45;&gt;Node8 -->
<g id="edge11_Node000005_Node000008" class="edge">
<title>Node5&#45;&gt;Node8</title>
<g id="a_edge11_Node000005_Node000008"><a xlink:title=" ">
<path fill="none" stroke="#63b8ff" d="M356.12,-81.66C369.44,-84.85 387.97,-88.88 404.5,-91 473.41,-99.82 555.37,-98.66 597.43,-97.23"/>
<polygon fill="#63b8ff" stroke="#63b8ff" points="597.29,-100.74 607.15,-96.86 597.02,-93.74 597.29,-100.74"/>
</a>
</g>
</g>
<!-- Node9 -->
<g id="Node000009" class="node">
<title>Node9</title>
<g id="a_Node000009"><a xlink:href="printf_8c.html#a299d0f9cb9e7b14e1278a4ed21e4d76f" target="_top" xlink:title="Transmit a null&#45;terminated string.">
<polygon fill="white" stroke="#666666" points="558.75,-86.62 524,-86.62 524,-67.38 558.75,-67.38 558.75,-86.62"/>
<text xml:space="preserve" text-anchor="middle" x="541.38" y="-73.12" font-family="Helvetica,sans-Serif" font-size="10.00">puts</text>
</a>
</g>
</g>
<!-- Node5&#45;&gt;Node9 -->
<g id="edge12_Node000005_Node000009" class="edge">
<title>Node5&#45;&gt;Node9</title>
<g id="a_edge12_Node000005_Node000009"><a xlink:title=" ">
<path fill="none" stroke="#63b8ff" d="M356.2,-77C391.74,-77 470.19,-77 512.33,-77"/>
<polygon fill="#63b8ff" stroke="#63b8ff" points="512.15,-80.5 522.15,-77 512.15,-73.5 512.15,-80.5"/>
</a>
</g>
</g>
<!-- Node6&#45;&gt;Node1 -->
<g id="edge9_Node000006_Node000001" class="edge">
<title>Node6&#45;&gt;Node1</title>
<g id="a_edge9_Node000006_Node000001"><a xlink:title=" ">
<path fill="none" stroke="#63b8ff" d="M404.26,-42.22C333.02,-48.98 167.49,-64.69 85.56,-72.47"/>
<polygon fill="#63b8ff" stroke="#63b8ff" points="85.23,-68.99 75.61,-73.42 85.89,-75.96 85.23,-68.99"/>
</a>
</g>
</g>
<!-- Node7 -->
<g id="Node000007" class="node">
<title>Node7</title>
<g id="a_Node000007"><a xlink:href="printf_8c.html#a2e8c688dfa078a9a7f1f02d4126f466a" target="_top" xlink:title="Print a signed integer in decimal form.">
<polygon fill="white" stroke="#666666" points="573,-48.62 509.75,-48.62 509.75,-29.38 573,-29.38 573,-48.62"/>
<text xml:space="preserve" text-anchor="middle" x="541.38" y="-35.12" font-family="Helvetica,sans-Serif" font-size="10.00">put_signed</text>
</a>
</g>
</g>
<!-- Node6&#45;&gt;Node7 -->
<g id="edge6_Node000006_Node000007" class="edge">
<title>Node6&#45;&gt;Node7</title>
<g id="a_edge6_Node000006_Node000007"><a xlink:title=" ">
<path fill="none" stroke="#63b8ff" d="M474.07,-39C481.77,-39 490.06,-39 498.06,-39"/>
<polygon fill="#63b8ff" stroke="#63b8ff" points="497.99,-42.5 507.99,-39 497.99,-35.5 497.99,-42.5"/>
</a>
</g>
</g>
<!-- Node7&#45;&gt;Node1 -->
<g id="edge7_Node000007_Node000001" class="edge">
<title>Node7&#45;&gt;Node1</title>
<g id="a_edge7_Node000007_Node000001"><a xlink:title=" ">
<path fill="none" stroke="#63b8ff" d="M509.42,-29.2C498.26,-25.93 485.52,-22.49 473.75,-20 414.09,-7.39 398.85,-1 337.88,-1 643.75,0 643.75,0 232.88,-1 167.4,-1 97.47,-38.66 61.81,-60.96"/>
<polygon fill="#63b8ff" stroke="#63b8ff" points="60.09,-57.9 53.56,-66.25 63.87,-63.8 60.09,-57.9"/>
</a>
</g>
</g>
<!-- Node7&#45;&gt;Node8 -->
<g id="edge8_Node000007_Node000008" class="edge">
<title>Node7&#45;&gt;Node8</title>
<g id="a_edge8_Node000007_Node000008"><a xlink:title=" ">
<path fill="none" stroke="#63b8ff" d="M559.04,-49.04C563.61,-51.87 568.53,-55 573,-58 583,-64.72 593.81,-72.47 603,-79.22"/>
<polygon fill="#63b8ff" stroke="#63b8ff" points="600.88,-82.01 611,-85.15 605.05,-76.38 600.88,-82.01"/>
</a>
</g>
</g>
<!-- Node9&#45;&gt;Node8 -->
<g id="edge13_Node000009_Node000008" class="edge">
<title>Node9&#45;&gt;Node8</title>
<g id="a_edge13_Node000009_Node000008"><a xlink:title=" ">
<path fill="none" stroke="#63b8ff" d="M559.17,-80.84C570.2,-83.37 584.88,-86.73 597.62,-89.65"/>
<polygon fill="#63b8ff" stroke="#63b8ff" points="596.6,-93 607.13,-91.82 598.16,-86.18 596.6,-93"/>
</a>
</g>
</g>
</g>
</svg>
