<?xml version="1.0" encoding="UTF-8" standalone="no"?>
<!DOCTYPE svg PUBLIC "-//W3C//DTD SVG 1.1//EN"
 "http://www.w3.org/Graphics/SVG/1.1/DTD/svg11.dtd">
<!-- Generated by graphviz version 14.0.0 (20250921.2048)
 -->
<!-- Title: _divmod Pages: 1 -->
<svg width="897pt" height="317pt"
 viewBox="0.00 0.00 897.00 317.00" xmlns="http://www.w3.org/2000/svg" xmlns:xlink="http://www.w3.org/1999/xlink">
<g id="graph0" class="graph" transform="scale(1 1) rotate(0) translate(4 313.16)">
<title>_divmod</title>
<!-- Node1 -->
<g id="Node000001" class="node">
<title>Node1</title>
<g id="a_Node000001"><a xlink:title="Perform division and return quotient and remainder.">
<polygon fill="#999999" stroke="#666666" points="888.75,-136.25 836,-136.25 836,-117 888.75,-117 888.75,-136.25"/>
<text xml:space="preserve" text-anchor="middle" x="862.38" y="-122.75" font-family="Helvetica,sans-Serif" font-size="10.00">_divmod</text>
</a>
</g>
</g>
<!-- Node2 -->
<g id="Node000002" class="node">
<title>Node2</title>
<g id="a_Node000002"><a xlink:href="printf_8c.html#ab97c3c9e783c1402d4007ceafdb197c1" target="_top" xlink:title="Print an unsigned integer in the given base.">
<polygon fill="white" stroke="#666666" points="800,-183.25 726.25,-183.25 726.25,-164 800,-164 800,-183.25"/>
<text xml:space="preserve" text-anchor="middle" x="763.12" y="-169.75" font-family="Helvetica,sans-Serif" font-size="10.00">put_unsigned</text>
</a>
</g>
</g>
<!-- Node1&#45;&gt;Node2 -->
<g id="edge1_Node000001_Node000002" class="edge">
<title>Node1&#45;&gt;Node2</title>
<g id="a_edge1_Node000001_Node000002"><a xlink:title=" ">
<path fill="none" stroke="#63b8ff" d="M830.5,-141.54C815.68,-148.71 798.31,-157.1 785.05,-163.51"/>
<polygon fill="#63b8ff" stroke="#63b8ff" points="831.91,-144.75 839.39,-137.25 828.86,-138.45 831.91,-144.75"/>
</a>
</g>
</g>
<!-- Node3 -->
<g id="Node000003" class="node">
<title>Node3</title>
<g id="a_Node000003"><a xlink:href="printf_8c.html#a0aff7311d684a0e0ef33125616a73385" target="_top" xlink:title="Kernel printf implementation using UART output.">
<polygon fill="white" stroke="#666666" points="485.75,-206.25 448,-206.25 448,-187 485.75,-187 485.75,-206.25"/>
<text xml:space="preserve" text-anchor="middle" x="466.88" y="-192.75" font-family="Helvetica,sans-Serif" font-size="10.00">printf</text>
</a>
</g>
</g>
<!-- Node2&#45;&gt;Node3 -->
<g id="edge2_Node000002_Node000003" class="edge">
<title>Node2&#45;&gt;Node3</title>
<g id="a_edge2_Node000002_Node000003"><a xlink:title=" ">
<path fill="none" stroke="#63b8ff" d="M714.48,-169.94C665.66,-167.22 587.78,-165.76 521.75,-177.62 509.45,-179.84 496.21,-184.47 485.93,-188.61"/>
<polygon fill="#63b8ff" stroke="#63b8ff" points="714.23,-173.44 724.43,-170.55 714.66,-166.45 714.23,-173.44"/>
</a>
</g>
</g>
<!-- Node15 -->
<g id="Node000015" class="node">
<title>Node15</title>
<g id="a_Node000015"><a xlink:href="printf_8c.html#ac3154a3597888cf112e4e7bf6a5f1846" target="_top" xlink:title="Format and print an integer based on format control.">
<polygon fill="white" stroke="#666666" points="591,-206.25 521.75,-206.25 521.75,-187 591,-187 591,-206.25"/>
<text xml:space="preserve" text-anchor="middle" x="556.38" y="-192.75" font-family="Helvetica,sans-Serif" font-size="10.00">put_integers</text>
</a>
</g>
</g>
<!-- Node2&#45;&gt;Node15 -->
<g id="edge21_Node000002_Node000015" class="edge">
<title>Node2&#45;&gt;Node15</title>
<g id="a_edge21_Node000002_Node000015"><a xlink:title=" ">
<path fill="none" stroke="#63b8ff" d="M714.78,-178.94C677.06,-183.18 625.16,-189.01 591.45,-192.8"/>
<polygon fill="#63b8ff" stroke="#63b8ff" points="714.94,-182.45 724.49,-177.85 714.16,-175.49 714.94,-182.45"/>
</a>
</g>
</g>
<!-- Node16 -->
<g id="Node000016" class="node">
<title>Node16</title>
<g id="a_Node000016"><a xlink:href="printf_8c.html#a2e8c688dfa078a9a7f1f02d4126f466a" target="_top" xlink:title="Print a signed integer in decimal form.">
<polygon fill="white" stroke="#666666" points="690.25,-240.25 627,-240.25 627,-221 690.25,-221 690.25,-240.25"/>
<text xml:space="preserve" text-anchor="middle" x="658.62" y="-226.75" font-family="Helvetica,sans-Serif" font-size="10.00">put_signed</text>
</a>
</g>
</g>
<!-- Node2&#45;&gt;Node16 -->
<g id="edge23_Node000002_Node000016" class="edge">
<title>Node2&#45;&gt;Node16</title>
<g id="a_edge23_Node000002_Node000016"><a xlink:title=" ">
<path fill="none" stroke="#63b8ff" d="M734.31,-189.09C716.27,-199.12 693.29,-211.9 677.62,-220.62"/>
<polygon fill="#63b8ff" stroke="#63b8ff" points="735.91,-192.21 742.95,-184.29 732.51,-186.09 735.91,-192.21"/>
</a>
</g>
</g>
<!-- Node4 -->
<g id="Node000004" class="node">
<title>Node4</title>
<g id="a_Node000004"><a xlink:href="clear_8c.html#ae683fe63c33c388e9ba1c6392dd477eb" target="_top" xlink:title="Clears the terminal screen and moves the cursor to the home position.">
<polygon fill="white" stroke="#666666" points="393.62,-282.25 356.62,-282.25 356.62,-263 393.62,-263 393.62,-282.25"/>
<text xml:space="preserve" text-anchor="middle" x="375.12" y="-268.75" font-family="Helvetica,sans-Serif" font-size="10.00">clear</text>
</a>
</g>
</g>
<!-- Node3&#45;&gt;Node4 -->
<g id="edge3_Node000003_Node000004" class="edge">
<title>Node3&#45;&gt;Node4</title>
<g id="a_edge3_Node000003_Node000004"><a xlink:title=" ">
<path fill="none" stroke="#63b8ff" d="M449.05,-214.38C438.78,-224.84 425.12,-238.04 412,-248.62 405.82,-253.61 398.6,-258.58 392.27,-262.7"/>
<polygon fill="#63b8ff" stroke="#63b8ff" points="451.32,-217.07 455.76,-207.45 446.29,-212.21 451.32,-217.07"/>
</a>
</g>
</g>
<!-- Node5 -->
<g id="Node000005" class="node">
<title>Node5</title>
<g id="a_Node000005"><a xlink:href="kernel_8c.html#a6b8fb674fb359f6ae53dc9c4fb7fc6be" target="_top" xlink:title=" ">
<polygon fill="white" stroke="#666666" points="179.38,-206.25 110.88,-206.25 110.88,-187 179.38,-187 179.38,-206.25"/>
<text xml:space="preserve" text-anchor="middle" x="145.12" y="-192.75" font-family="Helvetica,sans-Serif" font-size="10.00">kernel_main</text>
</a>
</g>
</g>
<!-- Node3&#45;&gt;Node5 -->
<g id="edge9_Node000003_Node000005" class="edge">
<title>Node3&#45;&gt;Node5</title>
<g id="a_edge9_Node000003_Node000005"><a xlink:title=" ">
<path fill="none" stroke="#63b8ff" d="M437.18,-208.76C429.17,-211.59 420.37,-214.19 412,-215.62 329.21,-229.8 230.17,-214.32 179.54,-204.12"/>
<polygon fill="#63b8ff" stroke="#63b8ff" points="438.31,-212.08 446.42,-205.25 435.83,-205.53 438.31,-212.08"/>
</a>
</g>
</g>
<!-- Node6 -->
<g id="Node000006" class="node">
<title>Node6</title>
<g id="a_Node000006"><a xlink:href="printf_8c.html#a7880ed31ba841d890680635d6b83fcb7" target="_top" xlink:title="Read a line of text from UART with basic editing support.">
<polygon fill="white" stroke="#666666" points="400,-206.25 350.25,-206.25 350.25,-187 400,-187 400,-206.25"/>
<text xml:space="preserve" text-anchor="middle" x="375.12" y="-192.75" font-family="Helvetica,sans-Serif" font-size="10.00">getlines</text>
</a>
</g>
</g>
<!-- Node3&#45;&gt;Node6 -->
<g id="edge5_Node000003_Node000006" class="edge">
<title>Node3&#45;&gt;Node6</title>
<g id="a_edge5_Node000003_Node000006"><a xlink:title=" ">
<path fill="none" stroke="#63b8ff" d="M436.3,-196.62C424.66,-196.62 411.45,-196.62 400.39,-196.62"/>
<polygon fill="#63b8ff" stroke="#63b8ff" points="436.2,-200.13 446.2,-196.63 436.2,-193.13 436.2,-200.13"/>
</a>
</g>
</g>
<!-- Node7 -->
<g id="Node000007" class="node">
<title>Node7</title>
<g id="a_Node000007"><a xlink:href="kernel_8c.html#a5f7f5591859a697cdeb5faafdf0ce822" target="_top" xlink:title=" ">
<polygon fill="white" stroke="#666666" points="412,-168.25 338.25,-168.25 338.25,-149 412,-149 412,-168.25"/>
<text xml:space="preserve" text-anchor="middle" x="375.12" y="-154.75" font-family="Helvetica,sans-Serif" font-size="10.00">init_message</text>
</a>
</g>
</g>
<!-- Node3&#45;&gt;Node7 -->
<g id="edge7_Node000003_Node000007" class="edge">
<title>Node3&#45;&gt;Node7</title>
<g id="a_edge7_Node000003_Node000007"><a xlink:title=" ">
<path fill="none" stroke="#63b8ff" d="M437.23,-184.5C425.13,-179.37 411.21,-173.48 399.72,-168.61"/>
<polygon fill="#63b8ff" stroke="#63b8ff" points="435.75,-187.67 446.32,-188.35 438.48,-181.22 435.75,-187.67"/>
</a>
</g>
</g>
<!-- Node8 -->
<g id="Node000008" class="node">
<title>Node8</title>
<g id="a_Node000008"><a xlink:href="panic_8c.html#ac3d3e7674c5f1ad62a44afce2ff9a0ca" target="_top" xlink:title="Print a panic message and halt the CPU.">
<polygon fill="white" stroke="#666666" points="410.5,-112.25 339.75,-112.25 339.75,-93 410.5,-93 410.5,-112.25"/>
<text xml:space="preserve" text-anchor="middle" x="375.12" y="-98.75" font-family="Helvetica,sans-Serif" font-size="10.00">kernel_panic</text>
</a>
</g>
</g>
<!-- Node3&#45;&gt;Node8 -->
<g id="edge10_Node000003_Node000008" class="edge">
<title>Node3&#45;&gt;Node8</title>
<g id="a_edge10_Node000003_Node000008"><a xlink:title=" ">
<path fill="none" stroke="#63b8ff" d="M449.08,-178.74C438.48,-167.48 424.48,-152.66 412,-139.62 403.21,-130.45 393.14,-120.07 385.9,-112.64"/>
<polygon fill="#63b8ff" stroke="#63b8ff" points="446.32,-180.92 455.72,-185.8 451.42,-176.12 446.32,-180.92"/>
</a>
</g>
</g>
<!-- Node12 -->
<g id="Node000012" class="node">
<title>Node12</title>
<g id="a_Node000012"><a xlink:href="kernel_8c.html#a8a11654fcf5bd5fcf10f118ad5f79904" target="_top" xlink:title=" ">
<polygon fill="white" stroke="#666666" points="55.75,-56.25 0,-56.25 0,-37 55.75,-37 55.75,-56.25"/>
<text xml:space="preserve" text-anchor="middle" x="27.88" y="-42.75" font-family="Helvetica,sans-Serif" font-size="10.00">not_main</text>
</a>
</g>
</g>
<!-- Node3&#45;&gt;Node12 -->
<g id="edge20_Node000003_Node000012" class="edge">
<title>Node3&#45;&gt;Node12</title>
<g id="a_edge20_Node000003_Node000012"><a xlink:title=" ">
<path fill="none" stroke="#63b8ff" d="M460.79,-217.31C453.95,-240.12 439.36,-275.69 412,-291.62 343.36,-331.61 310.76,-292.86 234.5,-270.62 169.23,-251.59 139.55,-263.98 91.75,-215.62 45.53,-168.87 32.83,-85.1 29.76,-56.51"/>
<polygon fill="#63b8ff" stroke="#63b8ff" points="464.1,-218.47 463.35,-207.9 457.35,-216.63 464.1,-218.47"/>
</a>
</g>
</g>
<!-- Node4&#45;&gt;Node5 -->
<g id="edge4_Node000004_Node000005" class="edge">
<title>Node4&#45;&gt;Node5</title>
<g id="a_edge4_Node000004_Node000005"><a xlink:title=" ">
<path fill="none" stroke="#63b8ff" d="M345.13,-270.7C316.33,-268.09 271.28,-262.09 234.5,-248.62 205.92,-238.16 176.09,-218.47 159.43,-206.55"/>
<polygon fill="#63b8ff" stroke="#63b8ff" points="344.65,-274.18 354.9,-271.5 345.22,-267.2 344.65,-274.18"/>
</a>
</g>
</g>
<!-- Node6&#45;&gt;Node5 -->
<g id="edge6_Node000006_Node000005" class="edge">
<title>Node6&#45;&gt;Node5</title>
<g id="a_edge6_Node000006_Node000005"><a xlink:title=" ">
<path fill="none" stroke="#63b8ff" d="M338.75,-196.62C295.33,-196.62 222.25,-196.62 179.68,-196.62"/>
<polygon fill="#63b8ff" stroke="#63b8ff" points="338.64,-200.13 348.64,-196.63 338.64,-193.13 338.64,-200.13"/>
</a>
</g>
</g>
<!-- Node7&#45;&gt;Node5 -->
<g id="edge8_Node000007_Node000005" class="edge">
<title>Node7&#45;&gt;Node5</title>
<g id="a_edge8_Node000007_Node000005"><a xlink:title=" ">
<path fill="none" stroke="#63b8ff" d="M326.75,-166.52C282.88,-173.83 218.73,-184.52 179.85,-191"/>
<polygon fill="#63b8ff" stroke="#63b8ff" points="327.22,-169.99 336.5,-164.9 326.07,-163.09 327.22,-169.99"/>
</a>
</g>
</g>
<!-- Node8&#45;&gt;Node1 -->
<g id="edge12_Node000008_Node000001" class="edge">
<title>Node8&#45;&gt;Node1</title>
<g id="a_edge12_Node000008_Node000001"><a xlink:title=" ">
<path fill="none" stroke="#63b8ff" d="M422,-104.61C458.21,-106 510.01,-107.62 555.38,-107.62 0,-119.62 0,-119.62 659.62,-107.62 723.13,-107.62 797.38,-117.07 835.65,-122.64"/>
<polygon fill="#63b8ff" stroke="#63b8ff" points="422.46,-101.12 412.33,-104.23 422.18,-108.12 422.46,-101.12"/>
</a>
</g>
</g>
<!-- Node9 -->
<g id="Node000009" class="node">
<title>Node9</title>
<g id="a_Node000009"><a xlink:href="printf_8c.html#a694b6d27273027eb96424e52b798c391" target="_top" xlink:title=" ">
<polygon fill="white" stroke="#666666" points="288,-130.25 248.75,-130.25 248.75,-111 288,-111 288,-130.25"/>
<text xml:space="preserve" text-anchor="middle" x="268.38" y="-116.75" font-family="Helvetica,sans-Serif" font-size="10.00">_bdiv</text>
</a>
</g>
</g>
<!-- Node8&#45;&gt;Node9 -->
<g id="edge11_Node000008_Node000009" class="edge">
<title>Node8&#45;&gt;Node9</title>
<g id="a_edge11_Node000008_Node000009"><a xlink:title=" ">
<path fill="none" stroke="#63b8ff" d="M328.45,-110.47C314.35,-112.9 299.59,-115.43 288.35,-117.36"/>
<polygon fill="#63b8ff" stroke="#63b8ff" points="328.78,-113.97 338.04,-108.83 327.6,-107.07 328.78,-113.97"/>
</a>
</g>
</g>
<!-- Node10 -->
<g id="Node000010" class="node">
<title>Node10</title>
<g id="a_Node000010"><a xlink:href="math_8h.html#a97fbf4adb8a31d415775bdbd5c30c468" target="_top" xlink:title="Unsigned 32&#45;bit integer division: n / d.">
<polygon fill="white" stroke="#666666" points="293.25,-56.25 243.5,-56.25 243.5,-37 293.25,-37 293.25,-56.25"/>
<text xml:space="preserve" text-anchor="middle" x="268.38" y="-42.75" font-family="Helvetica,sans-Serif" font-size="10.00">_udiv32</text>
</a>
</g>
</g>
<!-- Node8&#45;&gt;Node10 -->
<g id="edge13_Node000008_Node000010" class="edge">
<title>Node8&#45;&gt;Node10</title>
<g id="a_edge13_Node000008_Node000010"><a xlink:title=" ">
<path fill="none" stroke="#63b8ff" d="M345.34,-87.24C327.16,-77.52 304.19,-65.24 288.29,-56.74"/>
<polygon fill="#63b8ff" stroke="#63b8ff" points="343.59,-90.27 354.06,-91.9 346.89,-84.1 343.59,-90.27"/>
</a>
</g>
</g>
<!-- Node13 -->
<g id="Node000013" class="node">
<title>Node13</title>
<g id="a_Node000013"><a xlink:href="memory_8c.html#a87d8585002a620e687d68b38ab387a0e" target="_top" xlink:title=" ">
<polygon fill="white" stroke="#666666" points="170,-19.25 120.25,-19.25 120.25,0 170,0 170,-19.25"/>
<text xml:space="preserve" text-anchor="middle" x="145.12" y="-5.75" font-family="Helvetica,sans-Serif" font-size="10.00">kmalloc</text>
</a>
</g>
</g>
<!-- Node8&#45;&gt;Node13 -->
<g id="edge16_Node000008_Node000013" class="edge">
<title>Node8&#45;&gt;Node13</title>
<g id="a_edge16_Node000008_Node000013"><a xlink:title=" ">
<path fill="none" stroke="#63b8ff" d="M361.61,-83.35C348.94,-65.62 327.64,-40.23 302.25,-27.62 259.48,-6.4 202.23,-5.78 170.28,-7.51"/>
<polygon fill="#63b8ff" stroke="#63b8ff" points="358.65,-85.22 367.18,-91.5 364.43,-81.27 358.65,-85.22"/>
</a>
</g>
</g>
<!-- Node14 -->
<g id="Node000014" class="node">
<title>Node14</title>
<g id="a_Node000014"><a xlink:href="memory_8c.html#ae8d09a66c8495a0c2ff5c54f1309fd6a" target="_top" xlink:title=" ">
<polygon fill="white" stroke="#666666" points="302.25,-93.25 234.5,-93.25 234.5,-74 302.25,-74 302.25,-93.25"/>
<text xml:space="preserve" text-anchor="middle" x="268.38" y="-79.75" font-family="Helvetica,sans-Serif" font-size="10.00">kmalloc_init</text>
</a>
</g>
</g>
<!-- Node8&#45;&gt;Node14 -->
<g id="edge18_Node000008_Node000014" class="edge">
<title>Node8&#45;&gt;Node14</title>
<g id="a_edge18_Node000008_Node000014"><a xlink:title=" ">
<path fill="none" stroke="#63b8ff" d="M328.34,-94.32C319.65,-92.74 310.71,-91.12 302.51,-89.63"/>
<polygon fill="#63b8ff" stroke="#63b8ff" points="327.58,-97.74 338.05,-96.08 328.83,-90.85 327.58,-97.74"/>
</a>
</g>
</g>
<!-- Node11 -->
<g id="Node000011" class="node">
<title>Node11</title>
<g id="a_Node000011"><a xlink:href="interrupt_8c.html#a2a778647bb8df60e6c3238b29eb2fca2" target="_top" xlink:title="VersatilePB SP804 timer clock is typically 1 MHz (can be overridden)">
<polygon fill="white" stroke="#666666" points="198.5,-56.25 91.75,-56.25 91.75,-37 198.5,-37 198.5,-56.25"/>
<text xml:space="preserve" text-anchor="middle" x="145.12" y="-42.75" font-family="Helvetica,sans-Serif" font-size="10.00">interrupts_init_timer0</text>
</a>
</g>
</g>
<!-- Node10&#45;&gt;Node11 -->
<g id="edge14_Node000010_Node000011" class="edge">
<title>Node10&#45;&gt;Node11</title>
<g id="a_edge14_Node000010_Node000011"><a xlink:title=" ">
<path fill="none" stroke="#63b8ff" d="M231.69,-46.62C221.41,-46.62 209.97,-46.62 198.89,-46.62"/>
<polygon fill="#63b8ff" stroke="#63b8ff" points="231.62,-50.13 241.62,-46.63 231.62,-43.13 231.62,-50.13"/>
</a>
</g>
</g>
<!-- Node11&#45;&gt;Node12 -->
<g id="edge15_Node000011_Node000012" class="edge">
<title>Node11&#45;&gt;Node12</title>
<g id="a_edge15_Node000011_Node000012"><a xlink:title=" ">
<path fill="none" stroke="#63b8ff" d="M80.07,-46.62C71.68,-46.62 63.48,-46.62 56.18,-46.62"/>
<polygon fill="#63b8ff" stroke="#63b8ff" points="80.05,-50.13 90.05,-46.63 80.05,-43.13 80.05,-50.13"/>
</a>
</g>
</g>
<!-- Node13&#45;&gt;Node12 -->
<g id="edge17_Node000013_Node000012" class="edge">
<title>Node13&#45;&gt;Node12</title>
<g id="a_edge17_Node000013_Node000012"><a xlink:title=" ">
<path fill="none" stroke="#63b8ff" d="M109.32,-20.8C92.31,-26.26 72.13,-32.74 56.24,-37.84"/>
<polygon fill="#63b8ff" stroke="#63b8ff" points="110.07,-24.23 118.52,-17.84 107.93,-17.57 110.07,-24.23"/>
</a>
</g>
</g>
<!-- Node14&#45;&gt;Node5 -->
<g id="edge19_Node000014_Node000005" class="edge">
<title>Node14&#45;&gt;Node5</title>
<g id="a_edge19_Node000014_Node000005"><a xlink:title=" ">
<path fill="none" stroke="#63b8ff" d="M237,-99.77C236.14,-100.38 235.31,-101 234.5,-101.62 200.37,-128.18 167.72,-168.34 153.53,-186.76"/>
<polygon fill="#63b8ff" stroke="#63b8ff" points="238.72,-102.82 245.29,-94.51 234.97,-96.91 238.72,-102.82"/>
</a>
</g>
</g>
<!-- Node15&#45;&gt;Node3 -->
<g id="edge22_Node000015_Node000003" class="edge">
<title>Node15&#45;&gt;Node3</title>
<g id="a_edge22_Node000015_Node000003"><a xlink:title=" ">
<path fill="none" stroke="#63b8ff" d="M510.06,-196.62C501.47,-196.62 492.96,-196.62 485.86,-196.62"/>
<polygon fill="#63b8ff" stroke="#63b8ff" points="509.78,-200.13 519.78,-196.63 509.78,-193.13 509.78,-200.13"/>
</a>
</g>
</g>
<!-- Node16&#45;&gt;Node15 -->
<g id="edge24_Node000016_Node000015" class="edge">
<title>Node16&#45;&gt;Node15</title>
<g id="a_edge24_Node000016_Node000015"><a xlink:title=" ">
<path fill="none" stroke="#63b8ff" d="M617.14,-216.89C607.02,-213.46 596.36,-209.85 586.89,-206.64"/>
<polygon fill="#63b8ff" stroke="#63b8ff" points="615.79,-220.13 626.38,-220.03 618.04,-213.5 615.79,-220.13"/>
</a>
</g>
</g>
</g>
</svg>
