<?xml version="1.0" encoding="UTF-8" standalone="no"?>
<!DOCTYPE svg PUBLIC "-//W3C//DTD SVG 1.1//EN"
 "http://www.w3.org/Graphics/SVG/1.1/DTD/svg11.dtd">
<!-- Generated by graphviz version 14.0.0 (20250921.2048)
 -->
<!-- Title: put_integers Pages: 1 -->
<svg width="607pt" height="452pt"
 viewBox="0.00 0.00 607.00 452.00" xmlns="http://www.w3.org/2000/svg" xmlns:xlink="http://www.w3.org/1999/xlink">
<g id="graph0" class="graph" transform="scale(1 1) rotate(0) translate(4 448.29)">
<title>put_integers</title>
<!-- Node1 -->
<g id="Node000001" class="node">
<title>Node1</title>
<g id="a_Node000001"><a xlink:title="Format and print an integer based on format control.">
<polygon fill="#999999" stroke="#666666" points="598.5,-47.62 529.25,-47.62 529.25,-28.38 598.5,-28.38 598.5,-47.62"/>
<text xml:space="preserve" text-anchor="middle" x="563.88" y="-34.12" font-family="Helvetica,sans-Serif" font-size="10.00">put_integers</text>
</a>
</g>
</g>
<!-- Node2 -->
<g id="Node000002" class="node">
<title>Node2</title>
<g id="a_Node000002"><a xlink:href="printf_8c.html#a0aff7311d684a0e0ef33125616a73385" target="_top" xlink:title="Kernel printf implementation using UART output.">
<polygon fill="white" stroke="#666666" points="493.25,-330.62 455.5,-330.62 455.5,-311.38 493.25,-311.38 493.25,-330.62"/>
<text xml:space="preserve" text-anchor="middle" x="474.38" y="-317.12" font-family="Helvetica,sans-Serif" font-size="10.00">printf</text>
</a>
</g>
</g>
<!-- Node1&#45;&gt;Node2 -->
<g id="edge1_Node000001_Node000002" class="edge">
<title>Node1&#45;&gt;Node2</title>
<g id="a_edge1_Node000001_Node000002"><a xlink:title=" ">
<path fill="none" stroke="#63b8ff" d="M556.43,-58.85C538.94,-115.42 491.06,-270.27 478.45,-311.05"/>
<polygon fill="#63b8ff" stroke="#63b8ff" points="559.7,-60.11 559.31,-49.52 553.02,-58.04 559.7,-60.11"/>
</a>
</g>
</g>
<!-- Node3 -->
<g id="Node000003" class="node">
<title>Node3</title>
<g id="a_Node000003"><a xlink:href="clear_8c.html#ae683fe63c33c388e9ba1c6392dd477eb" target="_top" xlink:title="Clears the terminal screen and moves the cursor to the home position.">
<polygon fill="white" stroke="#666666" points="401.12,-349.62 364.12,-349.62 364.12,-330.38 401.12,-330.38 401.12,-349.62"/>
<text xml:space="preserve" text-anchor="middle" x="382.62" y="-336.12" font-family="Helvetica,sans-Serif" font-size="10.00">clear</text>
</a>
</g>
</g>
<!-- Node2&#45;&gt;Node3 -->
<g id="edge2_Node000002_Node000003" class="edge">
<title>Node2&#45;&gt;Node3</title>
<g id="a_edge2_Node000002_Node000003"><a xlink:title=" ">
<path fill="none" stroke="#63b8ff" d="M444.09,-327.2C430.02,-330.18 413.62,-333.65 401.45,-336.23"/>
<polygon fill="#63b8ff" stroke="#63b8ff" points="444.67,-330.65 453.73,-325.16 443.22,-323.81 444.67,-330.65"/>
</a>
</g>
</g>
<!-- Node4 -->
<g id="Node000004" class="node">
<title>Node4</title>
<g id="a_Node000004"><a xlink:href="kernel_8c.html#a6b8fb674fb359f6ae53dc9c4fb7fc6be" target="_top" xlink:title=" ">
<polygon fill="white" stroke="#666666" points="186.88,-349.62 118.38,-349.62 118.38,-330.38 186.88,-330.38 186.88,-349.62"/>
<text xml:space="preserve" text-anchor="middle" x="152.62" y="-336.12" font-family="Helvetica,sans-Serif" font-size="10.00">kernel_main</text>
</a>
</g>
</g>
<!-- Node2&#45;&gt;Node4 -->
<g id="edge8_Node000002_Node000004" class="edge">
<title>Node2&#45;&gt;Node4</title>
<g id="a_edge8_Node000002_Node000004"><a xlink:title=" ">
<path fill="none" stroke="#63b8ff" d="M443.92,-320.18C418.04,-319.65 379.37,-319.34 345.75,-321 290.01,-323.75 225.51,-330.96 187.22,-335.67"/>
<polygon fill="#63b8ff" stroke="#63b8ff" points="443.59,-323.67 453.67,-320.4 443.76,-316.67 443.59,-323.67"/>
</a>
</g>
</g>
<!-- Node5 -->
<g id="Node000005" class="node">
<title>Node5</title>
<g id="a_Node000005"><a xlink:href="printf_8c.html#a7880ed31ba841d890680635d6b83fcb7" target="_top" xlink:title="Read a line of text from UART with basic editing support.">
<polygon fill="white" stroke="#666666" points="407.5,-425.62 357.75,-425.62 357.75,-406.38 407.5,-406.38 407.5,-425.62"/>
<text xml:space="preserve" text-anchor="middle" x="382.62" y="-412.12" font-family="Helvetica,sans-Serif" font-size="10.00">getlines</text>
</a>
</g>
</g>
<!-- Node2&#45;&gt;Node5 -->
<g id="edge4_Node000002_Node000005" class="edge">
<title>Node2&#45;&gt;Node5</title>
<g id="a_edge4_Node000002_Node000005"><a xlink:title=" ">
<path fill="none" stroke="#63b8ff" d="M462.87,-340.76C453.28,-357.36 437.84,-380.89 419.5,-397 415.58,-400.44 410.93,-403.48 406.3,-406.06"/>
<polygon fill="#63b8ff" stroke="#63b8ff" points="465.76,-342.76 467.56,-332.32 459.64,-339.36 465.76,-342.76"/>
</a>
</g>
</g>
<!-- Node6 -->
<g id="Node000006" class="node">
<title>Node6</title>
<g id="a_Node000006"><a xlink:href="kernel_8c.html#a5f7f5591859a697cdeb5faafdf0ce822" target="_top" xlink:title=" ">
<polygon fill="white" stroke="#666666" points="419.5,-387.62 345.75,-387.62 345.75,-368.38 419.5,-368.38 419.5,-387.62"/>
<text xml:space="preserve" text-anchor="middle" x="382.62" y="-374.12" font-family="Helvetica,sans-Serif" font-size="10.00">init_message</text>
</a>
</g>
</g>
<!-- Node2&#45;&gt;Node6 -->
<g id="edge6_Node000002_Node000006" class="edge">
<title>Node2&#45;&gt;Node6</title>
<g id="a_edge6_Node000002_Node000006"><a xlink:title=" ">
<path fill="none" stroke="#63b8ff" d="M451.22,-337.58C441.65,-344.49 430.21,-352.42 419.5,-359 414.45,-362.1 408.86,-365.21 403.62,-367.99"/>
<polygon fill="#63b8ff" stroke="#63b8ff" points="453.19,-340.48 459.19,-331.74 449.05,-334.83 453.19,-340.48"/>
</a>
</g>
</g>
<!-- Node7 -->
<g id="Node000007" class="node">
<title>Node7</title>
<g id="a_Node000007"><a xlink:href="panic_8c.html#ac3d3e7674c5f1ad62a44afce2ff9a0ca" target="_top" xlink:title="Print a panic message and halt the CPU.">
<polygon fill="white" stroke="#666666" points="418,-216.62 347.25,-216.62 347.25,-197.38 418,-197.38 418,-216.62"/>
<text xml:space="preserve" text-anchor="middle" x="382.62" y="-203.12" font-family="Helvetica,sans-Serif" font-size="10.00">kernel_panic</text>
</a>
</g>
</g>
<!-- Node2&#45;&gt;Node7 -->
<g id="edge9_Node000002_Node000007" class="edge">
<title>Node2&#45;&gt;Node7</title>
<g id="a_edge9_Node000002_Node000007"><a xlink:title=" ">
<path fill="none" stroke="#63b8ff" d="M458.54,-302.16C439.29,-277.7 406.4,-235.93 391.44,-216.93"/>
<polygon fill="#63b8ff" stroke="#63b8ff" points="455.54,-304 464.47,-309.69 461.04,-299.67 455.54,-304"/>
</a>
</g>
</g>
<!-- Node14 -->
<g id="Node000014" class="node">
<title>Node14</title>
<g id="a_Node000014"><a xlink:href="kernel_8c.html#a8a11654fcf5bd5fcf10f118ad5f79904" target="_top" xlink:title=" ">
<polygon fill="white" stroke="#666666" points="59.5,-235.62 3.75,-235.62 3.75,-216.38 59.5,-216.38 59.5,-235.62"/>
<text xml:space="preserve" text-anchor="middle" x="31.62" y="-222.12" font-family="Helvetica,sans-Serif" font-size="10.00">not_main</text>
</a>
</g>
</g>
<!-- Node2&#45;&gt;Node14 -->
<g id="edge24_Node000002_Node000014" class="edge">
<title>Node2&#45;&gt;Node14</title>
<g id="a_edge24_Node000002_Node000014"><a xlink:title=" ">
<path fill="none" stroke="#63b8ff" d="M470.27,-342.14C465.06,-369.08 451.75,-414.57 419.5,-435 391.81,-452.54 378.16,-439.88 345.75,-435 232.38,-417.92 186.73,-433.1 99.25,-359 59.05,-324.95 40.61,-260.71 34.78,-236.02"/>
<polygon fill="#63b8ff" stroke="#63b8ff" points="473.7,-342.86 471.93,-332.41 466.8,-341.68 473.7,-342.86"/>
</a>
</g>
</g>
<!-- Node3&#45;&gt;Node4 -->
<g id="edge3_Node000003_Node000004" class="edge">
<title>Node3&#45;&gt;Node4</title>
<g id="a_edge3_Node000003_Node000004"><a xlink:title=" ">
<path fill="none" stroke="#63b8ff" d="M352.32,-340C310.01,-340 232.03,-340 187.37,-340"/>
<polygon fill="#63b8ff" stroke="#63b8ff" points="352.22,-343.5 362.22,-340 352.22,-336.5 352.22,-343.5"/>
</a>
</g>
</g>
<!-- Node5&#45;&gt;Node4 -->
<g id="edge5_Node000005_Node000004" class="edge">
<title>Node5&#45;&gt;Node4</title>
<g id="a_edge5_Node000005_Node000004"><a xlink:title=" ">
<path fill="none" stroke="#63b8ff" d="M346.47,-406.64C318.06,-398.84 277.17,-387.1 242,-375 219.84,-367.38 195.07,-357.44 177.41,-350.11"/>
<polygon fill="#63b8ff" stroke="#63b8ff" points="345.42,-409.98 355.99,-409.23 347.26,-403.22 345.42,-409.98"/>
</a>
</g>
</g>
<!-- Node6&#45;&gt;Node4 -->
<g id="edge7_Node000006_Node000004" class="edge">
<title>Node6&#45;&gt;Node4</title>
<g id="a_edge7_Node000006_Node000004"><a xlink:title=" ">
<path fill="none" stroke="#63b8ff" d="M334.25,-370.1C290.38,-362.79 226.23,-352.1 187.35,-345.62"/>
<polygon fill="#63b8ff" stroke="#63b8ff" points="333.57,-373.54 344,-371.73 334.72,-366.63 333.57,-373.54"/>
</a>
</g>
</g>
<!-- Node8 -->
<g id="Node000008" class="node">
<title>Node8</title>
<g id="a_Node000008"><a xlink:href="printf_8c.html#a694b6d27273027eb96424e52b798c391" target="_top" xlink:title=" ">
<polygon fill="white" stroke="#666666" points="295.5,-197.62 256.25,-197.62 256.25,-178.38 295.5,-178.38 295.5,-197.62"/>
<text xml:space="preserve" text-anchor="middle" x="275.88" y="-184.12" font-family="Helvetica,sans-Serif" font-size="10.00">_bdiv</text>
</a>
</g>
</g>
<!-- Node7&#45;&gt;Node8 -->
<g id="edge10_Node000007_Node000008" class="edge">
<title>Node7&#45;&gt;Node8</title>
<g id="a_edge10_Node000007_Node000008"><a xlink:title=" ">
<path fill="none" stroke="#63b8ff" d="M335.95,-198.72C321.85,-196.16 307.09,-193.48 295.85,-191.44"/>
<polygon fill="#63b8ff" stroke="#63b8ff" points="335.08,-202.11 345.55,-200.46 336.33,-195.23 335.08,-202.11"/>
</a>
</g>
</g>
<!-- Node9 -->
<g id="Node000009" class="node">
<title>Node9</title>
<g id="a_Node000009"><a xlink:href="printf_8c.html#a96a30e819fcbfa9a0251f71f14ff79bc" target="_top" xlink:title="Perform division and return quotient and remainder.">
<polygon fill="white" stroke="#666666" points="302.25,-123.62 249.5,-123.62 249.5,-104.38 302.25,-104.38 302.25,-123.62"/>
<text xml:space="preserve" text-anchor="middle" x="275.88" y="-110.12" font-family="Helvetica,sans-Serif" font-size="10.00">_divmod</text>
</a>
</g>
</g>
<!-- Node7&#45;&gt;Node9 -->
<g id="edge11_Node000007_Node000009" class="edge">
<title>Node7&#45;&gt;Node9</title>
<g id="a_edge11_Node000007_Node000009"><a xlink:title=" ">
<path fill="none" stroke="#63b8ff" d="M366.71,-188.49C353.04,-172.29 331.65,-148.78 309.75,-132 306.03,-129.15 301.8,-126.48 297.65,-124.11"/>
<polygon fill="#63b8ff" stroke="#63b8ff" points="363.78,-190.44 372.85,-195.91 369.18,-185.98 363.78,-190.44"/>
</a>
</g>
</g>
<!-- Node12 -->
<g id="Node000012" class="node">
<title>Node12</title>
<g id="a_Node000012"><a xlink:href="math_8h.html#a97fbf4adb8a31d415775bdbd5c30c468" target="_top" xlink:title="Unsigned 32&#45;bit integer division: n / d.">
<polygon fill="white" stroke="#666666" points="300.75,-160.62 251,-160.62 251,-141.38 300.75,-141.38 300.75,-160.62"/>
<text xml:space="preserve" text-anchor="middle" x="275.88" y="-147.12" font-family="Helvetica,sans-Serif" font-size="10.00">_udiv32</text>
</a>
</g>
</g>
<!-- Node7&#45;&gt;Node12 -->
<g id="edge17_Node000007_Node000012" class="edge">
<title>Node7&#45;&gt;Node12</title>
<g id="a_edge17_Node000007_Node000012"><a xlink:title=" ">
<path fill="none" stroke="#63b8ff" d="M352.84,-191.61C334.66,-181.89 311.69,-169.61 295.79,-161.11"/>
<polygon fill="#63b8ff" stroke="#63b8ff" points="351.09,-194.65 361.56,-196.27 354.39,-188.47 351.09,-194.65"/>
</a>
</g>
</g>
<!-- Node15 -->
<g id="Node000015" class="node">
<title>Node15</title>
<g id="a_Node000015"><a xlink:href="memory_8c.html#a87d8585002a620e687d68b38ab387a0e" target="_top" xlink:title=" ">
<polygon fill="white" stroke="#666666" points="177.5,-235.62 127.75,-235.62 127.75,-216.38 177.5,-216.38 177.5,-235.62"/>
<text xml:space="preserve" text-anchor="middle" x="152.62" y="-222.12" font-family="Helvetica,sans-Serif" font-size="10.00">kmalloc</text>
</a>
</g>
</g>
<!-- Node7&#45;&gt;Node15 -->
<g id="edge20_Node000007_Node000015" class="edge">
<title>Node7&#45;&gt;Node15</title>
<g id="a_edge20_Node000007_Node000015"><a xlink:title=" ">
<path fill="none" stroke="#63b8ff" d="M335.74,-210.82C288.03,-214.8 215.18,-220.87 177.72,-223.99"/>
<polygon fill="#63b8ff" stroke="#63b8ff" points="335.81,-214.33 345.49,-210.01 335.23,-207.35 335.81,-214.33"/>
</a>
</g>
</g>
<!-- Node16 -->
<g id="Node000016" class="node">
<title>Node16</title>
<g id="a_Node000016"><a xlink:href="memory_8c.html#ae8d09a66c8495a0c2ff5c54f1309fd6a" target="_top" xlink:title=" ">
<polygon fill="white" stroke="#666666" points="309.75,-273.62 242,-273.62 242,-254.38 309.75,-254.38 309.75,-273.62"/>
<text xml:space="preserve" text-anchor="middle" x="275.88" y="-260.12" font-family="Helvetica,sans-Serif" font-size="10.00">kmalloc_init</text>
</a>
</g>
</g>
<!-- Node7&#45;&gt;Node16 -->
<g id="edge22_Node000007_Node000016" class="edge">
<title>Node7&#45;&gt;Node16</title>
<g id="a_edge22_Node000007_Node000016"><a xlink:title=" ">
<path fill="none" stroke="#63b8ff" d="M353.46,-222.33C334.98,-232.38 311.36,-245.24 295.26,-253.99"/>
<polygon fill="#63b8ff" stroke="#63b8ff" points="354.94,-225.51 362.05,-217.65 351.59,-219.36 354.94,-225.51"/>
</a>
</g>
</g>
<!-- Node10 -->
<g id="Node000010" class="node">
<title>Node10</title>
<g id="a_Node000010"><a xlink:href="printf_8c.html#ab97c3c9e783c1402d4007ceafdb197c1" target="_top" xlink:title="Print an unsigned integer in the given base.">
<polygon fill="white" stroke="#666666" points="189.5,-66.62 115.75,-66.62 115.75,-47.38 189.5,-47.38 189.5,-66.62"/>
<text xml:space="preserve" text-anchor="middle" x="152.62" y="-53.12" font-family="Helvetica,sans-Serif" font-size="10.00">put_unsigned</text>
</a>
</g>
</g>
<!-- Node9&#45;&gt;Node10 -->
<g id="edge12_Node000009_Node000010" class="edge">
<title>Node9&#45;&gt;Node10</title>
<g id="a_edge12_Node000009_Node000010"><a xlink:title=" ">
<path fill="none" stroke="#63b8ff" d="M243.17,-99.1C221.62,-88.97 193.7,-75.84 174.81,-66.96"/>
<polygon fill="#63b8ff" stroke="#63b8ff" points="241.57,-102.21 252.11,-103.3 244.55,-95.87 241.57,-102.21"/>
</a>
</g>
</g>
<!-- Node10&#45;&gt;Node1 -->
<g id="edge14_Node000010_Node000001" class="edge">
<title>Node10&#45;&gt;Node1</title>
<g id="a_edge14_Node000010_Node000001"><a xlink:title=" ">
<path fill="none" stroke="#63b8ff" d="M201.28,-54.79C284.96,-50.9 456.32,-42.95 529.04,-39.57"/>
<polygon fill="#63b8ff" stroke="#63b8ff" points="201.17,-51.29 191.35,-55.25 201.5,-58.28 201.17,-51.29"/>
</a>
</g>
</g>
<!-- Node10&#45;&gt;Node2 -->
<g id="edge13_Node000010_Node000002" class="edge">
<title>Node10&#45;&gt;Node2</title>
<g id="a_edge13_Node000010_Node000002"><a xlink:title=" ">
<path fill="none" stroke="#63b8ff" d="M201.28,-62.74C233.28,-67.98 275.65,-77.64 309.75,-95 366.73,-124 382.02,-136.2 419.5,-188 449,-228.77 465.49,-288.01 471.13,-311.19"/>
<polygon fill="#63b8ff" stroke="#63b8ff" points="201.91,-59.3 191.49,-61.24 200.84,-66.22 201.91,-59.3"/>
</a>
</g>
</g>
<!-- Node11 -->
<g id="Node000011" class="node">
<title>Node11</title>
<g id="a_Node000011"><a xlink:href="printf_8c.html#a2e8c688dfa078a9a7f1f02d4126f466a" target="_top" xlink:title="Print a signed integer in decimal form.">
<polygon fill="white" stroke="#666666" points="63.25,-38.62 0,-38.62 0,-19.38 63.25,-19.38 63.25,-38.62"/>
<text xml:space="preserve" text-anchor="middle" x="31.62" y="-25.12" font-family="Helvetica,sans-Serif" font-size="10.00">put_signed</text>
</a>
</g>
</g>
<!-- Node10&#45;&gt;Node11 -->
<g id="edge15_Node000010_Node000011" class="edge">
<title>Node10&#45;&gt;Node11</title>
<g id="a_edge15_Node000010_Node000011"><a xlink:title=" ">
<path fill="none" stroke="#63b8ff" d="M104.08,-45.81C90.43,-42.6 75.9,-39.18 63.54,-36.27"/>
<polygon fill="#63b8ff" stroke="#63b8ff" points="103.27,-49.22 113.8,-48.1 104.87,-42.4 103.27,-49.22"/>
</a>
</g>
</g>
<!-- Node11&#45;&gt;Node1 -->
<g id="edge16_Node000011_Node000001" class="edge">
<title>Node11&#45;&gt;Node1</title>
<g id="a_edge16_Node000011_Node000001"><a xlink:title=" ">
<path fill="none" stroke="#63b8ff" d="M74.67,-20.88C122.84,-12.3 204.24,0 274.88,0 0,-113 0,-113 383.62,0 437.55,0 498.64,-16.66 533.78,-27.92"/>
<polygon fill="#63b8ff" stroke="#63b8ff" points="74.16,-17.42 64.95,-22.65 75.41,-24.31 74.16,-17.42"/>
</a>
</g>
</g>
<!-- Node13 -->
<g id="Node000013" class="node">
<title>Node13</title>
<g id="a_Node000013"><a xlink:href="interrupt_8c.html#a2a778647bb8df60e6c3238b29eb2fca2" target="_top" xlink:title="VersatilePB SP804 timer clock is typically 1 MHz (can be overridden)">
<polygon fill="white" stroke="#666666" points="206,-179.62 99.25,-179.62 99.25,-160.38 206,-160.38 206,-179.62"/>
<text xml:space="preserve" text-anchor="middle" x="152.62" y="-166.12" font-family="Helvetica,sans-Serif" font-size="10.00">interrupts_init_timer0</text>
</a>
</g>
</g>
<!-- Node12&#45;&gt;Node13 -->
<g id="edge18_Node000012_Node000013" class="edge">
<title>Node12&#45;&gt;Node13</title>
<g id="a_edge18_Node000012_Node000013"><a xlink:title=" ">
<path fill="none" stroke="#63b8ff" d="M239.52,-156.54C229.16,-158.16 217.59,-159.98 206.39,-161.73"/>
<polygon fill="#63b8ff" stroke="#63b8ff" points="239.8,-160.04 249.13,-155.03 238.71,-153.12 239.8,-160.04"/>
</a>
</g>
</g>
<!-- Node13&#45;&gt;Node14 -->
<g id="edge19_Node000013_Node000014" class="edge">
<title>Node13&#45;&gt;Node14</title>
<g id="a_edge19_Node000013_Node000014"><a xlink:title=" ">
<path fill="none" stroke="#63b8ff" d="M120.07,-184.85C99.25,-194.65 72.51,-207.23 54.12,-215.89"/>
<polygon fill="#63b8ff" stroke="#63b8ff" points="121.42,-188.08 128.98,-180.66 118.44,-181.75 121.42,-188.08"/>
</a>
</g>
</g>
<!-- Node15&#45;&gt;Node14 -->
<g id="edge21_Node000015_Node000014" class="edge">
<title>Node15&#45;&gt;Node14</title>
<g id="a_edge21_Node000015_Node000014"><a xlink:title=" ">
<path fill="none" stroke="#63b8ff" d="M115.76,-226C97.82,-226 76.45,-226 59.87,-226"/>
<polygon fill="#63b8ff" stroke="#63b8ff" points="115.74,-229.5 125.74,-226 115.74,-222.5 115.74,-229.5"/>
</a>
</g>
</g>
<!-- Node16&#45;&gt;Node4 -->
<g id="edge23_Node000016_Node000004" class="edge">
<title>Node16&#45;&gt;Node4</title>
<g id="a_edge23_Node000016_Node000004"><a xlink:title=" ">
<path fill="none" stroke="#63b8ff" d="M249.19,-280.1C225.04,-295.24 189.65,-317.42 169.41,-330.11"/>
<polygon fill="#63b8ff" stroke="#63b8ff" points="250.88,-283.17 257.49,-274.9 247.16,-277.24 250.88,-283.17"/>
</a>
</g>
</g>
</g>
</svg>
