<?xml version="1.0" encoding="UTF-8" standalone="no"?>
<!DOCTYPE svg PUBLIC "-//W3C//DTD SVG 1.1//EN"
 "http://www.w3.org/Graphics/SVG/1.1/DTD/svg11.dtd">
<!-- Generated by graphviz version 14.0.0 (20250921.2048)
 -->
<!-- Title: _putunsignedlong Pages: 1 -->
<svg width="175pt" height="64pt"
 viewBox="0.00 0.00 175.00 64.00" xmlns="http://www.w3.org/2000/svg" xmlns:xlink="http://www.w3.org/1999/xlink">
<g id="graph0" class="graph" transform="scale(1 1) rotate(0) translate(4 60.25)">
<title>_putunsignedlong</title>
<!-- Node1 -->
<g id="Node000001" class="node">
<title>Node1</title>
<g id="a_Node000001"><a xlink:title=" ">
<polygon fill="#999999" stroke="#666666" points="91.75,-37.25 0,-37.25 0,-18 91.75,-18 91.75,-37.25"/>
<text xml:space="preserve" text-anchor="middle" x="45.88" y="-23.75" font-family="Helvetica,sans-Serif" font-size="10.00">_putunsignedlong</text>
</a>
</g>
</g>
<!-- Node2 -->
<g id="Node000002" class="node">
<title>Node2</title>
<g id="a_Node000002"><a xlink:href="printf_8c.html#a694b6d27273027eb96424e52b798c391" target="_top" xlink:title=" ">
<polygon fill="white" stroke="#666666" points="167,-56.25 127.75,-56.25 127.75,-37 167,-37 167,-56.25"/>
<text xml:space="preserve" text-anchor="middle" x="147.38" y="-42.75" font-family="Helvetica,sans-Serif" font-size="10.00">_bdiv</text>
</a>
</g>
</g>
<!-- Node1&#45;&gt;Node2 -->
<g id="edge1_Node000001_Node000002" class="edge">
<title>Node1&#45;&gt;Node2</title>
<g id="a_edge1_Node000001_Node000002"><a xlink:title=" ">
<path fill="none" stroke="#63b8ff" d="M91.97,-36.24C100.2,-37.81 108.61,-39.41 116.27,-40.88"/>
<polygon fill="#63b8ff" stroke="#63b8ff" points="115.61,-44.31 126.09,-42.75 116.92,-37.44 115.61,-44.31"/>
</a>
</g>
</g>
<!-- Node3 -->
<g id="Node000003" class="node">
<title>Node3</title>
<g id="a_Node000003"><a xlink:href="printf_8c.html#a9bdf0418571456c566aa2f329b5f8350" target="_top" xlink:title=" ">
<polygon fill="white" stroke="#666666" points="164.75,-19.25 130,-19.25 130,0 164.75,0 164.75,-19.25"/>
<text xml:space="preserve" text-anchor="middle" x="147.38" y="-5.75" font-family="Helvetica,sans-Serif" font-size="10.00">putc</text>
</a>
</g>
</g>
<!-- Node1&#45;&gt;Node3 -->
<g id="edge2_Node000001_Node000003" class="edge">
<title>Node1&#45;&gt;Node3</title>
<g id="a_edge2_Node000001_Node000003"><a xlink:title=" ">
<path fill="none" stroke="#63b8ff" d="M91.97,-19.47C100.95,-17.84 110.14,-16.18 118.34,-14.7"/>
<polygon fill="#63b8ff" stroke="#63b8ff" points="118.82,-18.17 128.03,-12.94 117.57,-11.28 118.82,-18.17"/>
</a>
</g>
</g>
</g>
</svg>
