<?xml version="1.0" encoding="UTF-8" standalone="no"?>
<!DOCTYPE svg PUBLIC "-//W3C//DTD SVG 1.1//EN"
 "http://www.w3.org/Graphics/SVG/1.1/DTD/svg11.dtd">
<!-- Generated by graphviz version 14.0.0 (20250921.2048)
 -->
<!-- Title: getlines Pages: 1 -->
<svg width="741pt" height="237pt"
 viewBox="0.00 0.00 741.00 237.00" xmlns="http://www.w3.org/2000/svg" xmlns:xlink="http://www.w3.org/1999/xlink">
<g id="graph0" class="graph" transform="scale(1 1) rotate(0) translate(4 233)">
<title>getlines</title>
<!-- Node1 -->
<g id="Node000001" class="node">
<title>Node1</title>
<g id="a_Node000001"><a xlink:title="Read a line of text from UART with basic editing support.">
<polygon fill="#999999" stroke="#666666" points="49.75,-67.62 0,-67.62 0,-48.38 49.75,-48.38 49.75,-67.62"/>
<text xml:space="preserve" text-anchor="middle" x="24.88" y="-54.12" font-family="Helvetica,sans-Serif" font-size="10.00">getlines</text>
</a>
</g>
</g>
<!-- Node2 -->
<g id="Node000002" class="node">
<title>Node2</title>
<g id="a_Node000002"><a xlink:href="printf_8c.html#a0e65feb118c1ee30820c142aeb5a5145" target="_top" xlink:title="Blocking UART character input.">
<polygon fill="white" stroke="#666666" points="122,-123.62 87.25,-123.62 87.25,-104.38 122,-104.38 122,-123.62"/>
<text xml:space="preserve" text-anchor="middle" x="104.62" y="-110.12" font-family="Helvetica,sans-Serif" font-size="10.00">getc</text>
</a>
</g>
</g>
<!-- Node1&#45;&gt;Node2 -->
<g id="edge1_Node000001_Node000002" class="edge">
<title>Node1&#45;&gt;Node2</title>
<g id="a_edge1_Node000001_Node000002"><a xlink:title=" ">
<path fill="none" stroke="#63b8ff" d="M39.78,-68.01C51.09,-76.16 67.31,-87.84 80.56,-97.39"/>
<polygon fill="#63b8ff" stroke="#63b8ff" points="78.19,-100 88.35,-103 82.29,-94.32 78.19,-100"/>
</a>
</g>
</g>
<!-- Node3 -->
<g id="Node000003" class="node">
<title>Node3</title>
<g id="a_Node000003"><a xlink:href="printf_8c.html#a0aff7311d684a0e0ef33125616a73385" target="_top" xlink:title="Kernel printf implementation using UART output.">
<polygon fill="white" stroke="#666666" points="123.5,-86.62 85.75,-86.62 85.75,-67.38 123.5,-67.38 123.5,-86.62"/>
<text xml:space="preserve" text-anchor="middle" x="104.62" y="-73.12" font-family="Helvetica,sans-Serif" font-size="10.00">printf</text>
</a>
</g>
</g>
<!-- Node1&#45;&gt;Node3 -->
<g id="edge2_Node000001_Node000003" class="edge">
<title>Node1&#45;&gt;Node3</title>
<g id="a_edge2_Node000001_Node000003"><a xlink:title=" ">
<path fill="none" stroke="#63b8ff" d="M50.05,-63.91C57.72,-65.78 66.28,-67.87 74.27,-69.83"/>
<polygon fill="#63b8ff" stroke="#63b8ff" points="73.38,-73.21 83.93,-72.19 75.04,-66.41 73.38,-73.21"/>
</a>
</g>
</g>
<!-- Node10 -->
<g id="Node000010" class="node">
<title>Node10</title>
<g id="a_Node000010"><a xlink:href="printf_8c.html#a9bdf0418571456c566aa2f329b5f8350" target="_top" xlink:title="Send a single character over UART, waiting if the FIFO is full.">
<polygon fill="white" stroke="#666666" points="517.5,-86.62 482.75,-86.62 482.75,-67.38 517.5,-67.38 517.5,-86.62"/>
<text xml:space="preserve" text-anchor="middle" x="500.12" y="-73.12" font-family="Helvetica,sans-Serif" font-size="10.00">putc</text>
</a>
</g>
</g>
<!-- Node1&#45;&gt;Node10 -->
<g id="edge17_Node000001_Node000010" class="edge">
<title>Node1&#45;&gt;Node10</title>
<g id="a_edge17_Node000001_Node000010"><a xlink:title=" ">
<path fill="none" stroke="#63b8ff" d="M42.8,-48.07C72.29,-31.74 135.45,-1 193.12,-1 732.5,0 732.5,0 297.38,-1 365.12,-1 437.91,-38.99 474.76,-61.25"/>
<polygon fill="#63b8ff" stroke="#63b8ff" points="472.53,-63.98 482.87,-66.27 476.21,-58.03 472.53,-63.98"/>
</a>
</g>
</g>
<!-- Node11 -->
<g id="Node000011" class="node">
<title>Node11</title>
<g id="a_Node000011"><a xlink:href="printf_8c.html#a299d0f9cb9e7b14e1278a4ed21e4d76f" target="_top" xlink:title="Transmit a null&#45;terminated string.">
<polygon fill="white" stroke="#666666" points="211.5,-48.62 176.75,-48.62 176.75,-29.38 211.5,-29.38 211.5,-48.62"/>
<text xml:space="preserve" text-anchor="middle" x="194.12" y="-35.12" font-family="Helvetica,sans-Serif" font-size="10.00">puts</text>
</a>
</g>
</g>
<!-- Node1&#45;&gt;Node11 -->
<g id="edge18_Node000001_Node000011" class="edge">
<title>Node1&#45;&gt;Node11</title>
<g id="a_edge18_Node000001_Node000011"><a xlink:title=" ">
<path fill="none" stroke="#63b8ff" d="M50.19,-55.24C80.72,-51.77 132.97,-45.83 165.13,-42.18"/>
<polygon fill="#63b8ff" stroke="#63b8ff" points="165.34,-45.68 174.88,-41.07 164.55,-38.72 165.34,-45.68"/>
</a>
</g>
</g>
<!-- Node4 -->
<g id="Node000004" class="node">
<title>Node4</title>
<g id="a_Node000004"><a xlink:href="printf_8c.html#ac3154a3597888cf112e4e7bf6a5f1846" target="_top" xlink:title="Format and print an integer based on format control.">
<polygon fill="white" stroke="#666666" points="228.75,-124.62 159.5,-124.62 159.5,-105.38 228.75,-105.38 228.75,-124.62"/>
<text xml:space="preserve" text-anchor="middle" x="194.12" y="-111.12" font-family="Helvetica,sans-Serif" font-size="10.00">put_integers</text>
</a>
</g>
</g>
<!-- Node3&#45;&gt;Node4 -->
<g id="edge3_Node000003_Node000004" class="edge">
<title>Node3&#45;&gt;Node4</title>
<g id="a_edge3_Node000003_Node000004"><a xlink:title=" ">
<path fill="none" stroke="#63b8ff" d="M123.76,-84.87C134.13,-89.38 147.48,-95.18 159.68,-100.48"/>
<polygon fill="#63b8ff" stroke="#63b8ff" points="158.06,-103.59 168.63,-104.36 160.85,-97.17 158.06,-103.59"/>
</a>
</g>
</g>
<!-- Node6 -->
<g id="Node000006" class="node">
<title>Node6</title>
<g id="a_Node000006"><a xlink:href="printf_8c.html#ab97c3c9e783c1402d4007ceafdb197c1" target="_top" xlink:title="Print an unsigned integer in the given base.">
<polygon fill="white" stroke="#666666" points="437.75,-162.62 364,-162.62 364,-143.38 437.75,-143.38 437.75,-162.62"/>
<text xml:space="preserve" text-anchor="middle" x="400.88" y="-149.12" font-family="Helvetica,sans-Serif" font-size="10.00">put_unsigned</text>
</a>
</g>
</g>
<!-- Node3&#45;&gt;Node6 -->
<g id="edge13_Node000003_Node000006" class="edge">
<title>Node3&#45;&gt;Node6</title>
<g id="a_edge13_Node000003_Node000006"><a xlink:title=" ">
<path fill="none" stroke="#63b8ff" d="M115.52,-86.84C118.14,-89.47 120.94,-92.33 123.5,-95 139.81,-112.04 138.82,-122.65 159.5,-134 219.76,-167.08 301.62,-165.54 352.57,-160.18"/>
<polygon fill="#63b8ff" stroke="#63b8ff" points="352.85,-163.67 362.38,-159.05 352.05,-156.72 352.85,-163.67"/>
</a>
</g>
</g>
<!-- Node3&#45;&gt;Node10 -->
<g id="edge14_Node000003_Node000010" class="edge">
<title>Node3&#45;&gt;Node10</title>
<g id="a_edge14_Node000003_Node000010"><a xlink:title=" ">
<path fill="none" stroke="#63b8ff" d="M123.82,-77C186.67,-77 395.01,-77 471.04,-77"/>
<polygon fill="#63b8ff" stroke="#63b8ff" points="470.95,-80.5 480.95,-77 470.95,-73.5 470.95,-80.5"/>
</a>
</g>
</g>
<!-- Node3&#45;&gt;Node11 -->
<g id="edge15_Node000003_Node000011" class="edge">
<title>Node3&#45;&gt;Node11</title>
<g id="a_edge15_Node000003_Node000011"><a xlink:title=" ">
<path fill="none" stroke="#63b8ff" d="M123.76,-69.13C136,-63.81 152.38,-56.7 166.15,-50.72"/>
<polygon fill="#63b8ff" stroke="#63b8ff" points="167.33,-54.02 175.11,-46.82 164.54,-47.6 167.33,-54.02"/>
</a>
</g>
</g>
<!-- Node5 -->
<g id="Node000005" class="node">
<title>Node5</title>
<g id="a_Node000005"><a xlink:href="printf_8c.html#a2e8c688dfa078a9a7f1f02d4126f466a" target="_top" xlink:title="Print a signed integer in decimal form.">
<polygon fill="white" stroke="#666666" points="328,-124.62 264.75,-124.62 264.75,-105.38 328,-105.38 328,-124.62"/>
<text xml:space="preserve" text-anchor="middle" x="296.38" y="-111.12" font-family="Helvetica,sans-Serif" font-size="10.00">put_signed</text>
</a>
</g>
</g>
<!-- Node4&#45;&gt;Node5 -->
<g id="edge4_Node000004_Node000005" class="edge">
<title>Node4&#45;&gt;Node5</title>
<g id="a_edge4_Node000004_Node000005"><a xlink:title=" ">
<path fill="none" stroke="#63b8ff" d="M229.07,-115C236.77,-115 245.06,-115 253.06,-115"/>
<polygon fill="#63b8ff" stroke="#63b8ff" points="252.99,-118.5 262.99,-115 252.99,-111.5 252.99,-118.5"/>
</a>
</g>
</g>
<!-- Node4&#45;&gt;Node6 -->
<g id="edge12_Node000004_Node000006" class="edge">
<title>Node4&#45;&gt;Node6</title>
<g id="a_edge12_Node000004_Node000006"><a xlink:title=" ">
<path fill="none" stroke="#63b8ff" d="M228.56,-125.05C239.97,-128.23 252.85,-131.55 264.75,-134 293.52,-139.92 326.13,-144.57 352.1,-147.78"/>
<polygon fill="#63b8ff" stroke="#63b8ff" points="351.68,-151.25 362.03,-148.97 352.52,-144.3 351.68,-151.25"/>
</a>
</g>
</g>
<!-- Node5&#45;&gt;Node6 -->
<g id="edge5_Node000005_Node000006" class="edge">
<title>Node5&#45;&gt;Node6</title>
<g id="a_edge5_Node000005_Node000006"><a xlink:title=" ">
<path fill="none" stroke="#63b8ff" d="M324.57,-125.08C336.13,-129.37 349.8,-134.44 362.3,-139.07"/>
<polygon fill="#63b8ff" stroke="#63b8ff" points="360.89,-142.28 371.49,-142.48 363.33,-135.72 360.89,-142.28"/>
</a>
</g>
</g>
<!-- Node5&#45;&gt;Node10 -->
<g id="edge11_Node000005_Node000010" class="edge">
<title>Node5&#45;&gt;Node10</title>
<g id="a_edge11_Node000005_Node000010"><a xlink:title=" ">
<path fill="none" stroke="#63b8ff" d="M328.41,-110.2C356.92,-105.66 400.29,-98.47 437.75,-91 448.81,-88.8 460.92,-86.09 471.44,-83.65"/>
<polygon fill="#63b8ff" stroke="#63b8ff" points="472.1,-87.09 481.03,-81.4 470.5,-80.28 472.1,-87.09"/>
</a>
</g>
</g>
<!-- Node7 -->
<g id="Node000007" class="node">
<title>Node7</title>
<g id="a_Node000007"><a xlink:href="printf_8c.html#a96a30e819fcbfa9a0251f71f14ff79bc" target="_top" xlink:title="Perform division and return quotient and remainder.">
<polygon fill="white" stroke="#666666" points="526.5,-181.62 473.75,-181.62 473.75,-162.38 526.5,-162.38 526.5,-181.62"/>
<text xml:space="preserve" text-anchor="middle" x="500.12" y="-168.12" font-family="Helvetica,sans-Serif" font-size="10.00">_divmod</text>
</a>
</g>
</g>
<!-- Node6&#45;&gt;Node7 -->
<g id="edge6_Node000006_Node000007" class="edge">
<title>Node6&#45;&gt;Node7</title>
<g id="a_edge6_Node000006_Node000007"><a xlink:title=" ">
<path fill="none" stroke="#63b8ff" d="M438.09,-160.07C446,-161.62 454.38,-163.26 462.31,-164.81"/>
<polygon fill="#63b8ff" stroke="#63b8ff" points="461.54,-168.22 472.02,-166.7 462.88,-161.35 461.54,-168.22"/>
</a>
</g>
</g>
<!-- Node6&#45;&gt;Node10 -->
<g id="edge10_Node000006_Node000010" class="edge">
<title>Node6&#45;&gt;Node10</title>
<g id="a_edge10_Node000006_Node000010"><a xlink:title=" ">
<path fill="none" stroke="#63b8ff" d="M417.5,-143.1C423.89,-138.91 431.29,-133.87 437.75,-129 452.18,-118.12 467.7,-104.95 479.53,-94.59"/>
<polygon fill="#63b8ff" stroke="#63b8ff" points="481.83,-97.23 486.99,-87.98 477.19,-91.99 481.83,-97.23"/>
</a>
</g>
</g>
<!-- Node8 -->
<g id="Node000008" class="node">
<title>Node8</title>
<g id="a_Node000008"><a xlink:href="panic_8c.html#ac3d3e7674c5f1ad62a44afce2ff9a0ca" target="_top" xlink:title="Print a panic message and halt the CPU.">
<polygon fill="white" stroke="#666666" points="633.25,-219.62 562.5,-219.62 562.5,-200.38 633.25,-200.38 633.25,-219.62"/>
<text xml:space="preserve" text-anchor="middle" x="597.88" y="-206.12" font-family="Helvetica,sans-Serif" font-size="10.00">kernel_panic</text>
</a>
</g>
</g>
<!-- Node7&#45;&gt;Node8 -->
<g id="edge7_Node000007_Node000008" class="edge">
<title>Node7&#45;&gt;Node8</title>
<g id="a_edge7_Node000007_Node000008"><a xlink:title=" ">
<path fill="none" stroke="#63b8ff" d="M526.53,-182.08C537.11,-186.28 549.59,-191.23 561.07,-195.79"/>
<polygon fill="#63b8ff" stroke="#63b8ff" points="559.69,-199.01 570.27,-199.44 562.27,-192.5 559.69,-199.01"/>
</a>
</g>
</g>
<!-- Node8&#45;&gt;Node3 -->
<g id="edge9_Node000008_Node000003" class="edge">
<title>Node8&#45;&gt;Node3</title>
<g id="a_edge9_Node000008_Node000003"><a xlink:title=" ">
<path fill="none" stroke="#63b8ff" d="M562.1,-215.44C523.18,-221.06 458.17,-229 401.88,-229 732.5,0 732.5,0 295.38,-229 227.44,-229 208.41,-206.15 159.5,-159 138.21,-138.47 142.1,-123.97 123.05,-95.98"/>
<polygon fill="#63b8ff" stroke="#63b8ff" points="125.97,-94.05 117.24,-88.06 120.33,-98.19 125.97,-94.05"/>
</a>
</g>
</g>
<!-- Node9 -->
<g id="Node000009" class="node">
<title>Node9</title>
<g id="a_Node000009"><a xlink:href="panic_8c.html#a830ea0b31f5cecec34c74c8a4c2f8192" target="_top" xlink:title="Halt the CPU indefinitely.">
<polygon fill="white" stroke="#666666" points="732.5,-219.62 669.25,-219.62 669.25,-200.38 732.5,-200.38 732.5,-219.62"/>
<text xml:space="preserve" text-anchor="middle" x="700.88" y="-206.12" font-family="Helvetica,sans-Serif" font-size="10.00">kernel_halt</text>
</a>
</g>
</g>
<!-- Node8&#45;&gt;Node9 -->
<g id="edge8_Node000008_Node000009" class="edge">
<title>Node8&#45;&gt;Node9</title>
<g id="a_edge8_Node000008_Node000009"><a xlink:title=" ">
<path fill="none" stroke="#63b8ff" d="M633.63,-210C641.3,-210 649.51,-210 657.44,-210"/>
<polygon fill="#63b8ff" stroke="#63b8ff" points="657.26,-213.5 667.26,-210 657.26,-206.5 657.26,-213.5"/>
</a>
</g>
</g>
<!-- Node11&#45;&gt;Node10 -->
<g id="edge16_Node000011_Node000010" class="edge">
<title>Node11&#45;&gt;Node10</title>
<g id="a_edge16_Node000011_Node000010"><a xlink:title=" ">
<path fill="none" stroke="#63b8ff" d="M211.99,-39.94C251.59,-42.29 353.57,-49.29 437.75,-63 448.8,-64.8 460.84,-67.4 471.3,-69.87"/>
<polygon fill="#63b8ff" stroke="#63b8ff" points="470.29,-73.23 480.83,-72.2 471.95,-66.43 470.29,-73.23"/>
</a>
</g>
</g>
</g>
</svg>
