<?xml version="1.0" encoding="UTF-8" standalone="no"?>
<!DOCTYPE svg PUBLIC "-//W3C//DTD SVG 1.1//EN"
 "http://www.w3.org/Graphics/SVG/1.1/DTD/svg11.dtd">
<!-- Generated by graphviz version 14.0.0 (20250921.2048)
 -->
<!-- Title: _putintegers Pages: 1 -->
<svg width="395pt" height="125pt"
 viewBox="0.00 0.00 395.00 125.00" xmlns="http://www.w3.org/2000/svg" xmlns:xlink="http://www.w3.org/1999/xlink">
<g id="graph0" class="graph" transform="scale(1 1) rotate(0) translate(4 121.41)">
<title>_putintegers</title>
<!-- Node1 -->
<g id="Node000001" class="node">
<title>Node1</title>
<g id="a_Node000001"><a xlink:title=" ">
<polygon fill="#999999" stroke="#666666" points="69.25,-60.41 0,-60.41 0,-41.16 69.25,-41.16 69.25,-60.41"/>
<text xml:space="preserve" text-anchor="middle" x="34.62" y="-46.91" font-family="Helvetica,sans-Serif" font-size="10.00">_putintegers</text>
</a>
</g>
</g>
<!-- Node2 -->
<g id="Node000002" class="node">
<title>Node2</title>
<g id="a_Node000002"><a xlink:href="printf_8c.html#ad22af70967959054d79902aec3721d14" target="_top" xlink:title=" ">
<polygon fill="white" stroke="#666666" points="184.25,-117.41 105.25,-117.41 105.25,-98.16 184.25,-98.16 184.25,-117.41"/>
<text xml:space="preserve" text-anchor="middle" x="144.75" y="-103.91" font-family="Helvetica,sans-Serif" font-size="10.00">_puthexcapital</text>
</a>
</g>
</g>
<!-- Node1&#45;&gt;Node2 -->
<g id="edge1_Node000001_Node000002" class="edge">
<title>Node1&#45;&gt;Node2</title>
<g id="a_edge1_Node000001_Node000002"><a xlink:title=" ">
<path fill="none" stroke="#63b8ff" d="M54.71,-60.85C71.38,-69.64 95.84,-82.53 114.91,-92.58"/>
<polygon fill="#63b8ff" stroke="#63b8ff" points="113.04,-95.56 123.52,-97.12 116.31,-89.36 113.04,-95.56"/>
</a>
</g>
</g>
<!-- Node3 -->
<g id="Node000003" class="node">
<title>Node3</title>
<g id="a_Node000003"><a xlink:href="printf_8c.html#a59d8819db32c6b5c7365aad05b0778b5" target="_top" xlink:title=" ">
<polygon fill="white" stroke="#666666" points="312,-60.41 220.25,-60.41 220.25,-41.16 312,-41.16 312,-60.41"/>
<text xml:space="preserve" text-anchor="middle" x="266.12" y="-46.91" font-family="Helvetica,sans-Serif" font-size="10.00">_putunsignedlong</text>
</a>
</g>
</g>
<!-- Node1&#45;&gt;Node3 -->
<g id="edge7_Node000001_Node000003" class="edge">
<title>Node1&#45;&gt;Node3</title>
<g id="a_edge7_Node000001_Node000003"><a xlink:title=" ">
<path fill="none" stroke="#63b8ff" d="M69.49,-50.79C106.12,-50.79 165.11,-50.79 208.75,-50.79"/>
<polygon fill="#63b8ff" stroke="#63b8ff" points="208.54,-54.29 218.54,-50.79 208.54,-47.29 208.54,-54.29"/>
</a>
</g>
</g>
<!-- Node5 -->
<g id="Node000005" class="node">
<title>Node5</title>
<g id="a_Node000005"><a xlink:href="printf_8c.html#a9bdf0418571456c566aa2f329b5f8350" target="_top" xlink:title=" ">
<polygon fill="white" stroke="#666666" points="385,-23.41 350.25,-23.41 350.25,-4.16 385,-4.16 385,-23.41"/>
<text xml:space="preserve" text-anchor="middle" x="367.62" y="-9.91" font-family="Helvetica,sans-Serif" font-size="10.00">putc</text>
</a>
</g>
</g>
<!-- Node1&#45;&gt;Node5 -->
<g id="edge8_Node000001_Node000005" class="edge">
<title>Node1&#45;&gt;Node5</title>
<g id="a_edge8_Node000001_Node000005"><a xlink:title=" ">
<path fill="none" stroke="#63b8ff" d="M49.15,-40.71C62.59,-31.38 84.17,-18.17 105.25,-12.79 187.94,8.31 290.19,-2.13 338.64,-9.16"/>
<polygon fill="#63b8ff" stroke="#63b8ff" points="337.85,-12.58 348.26,-10.62 338.9,-5.65 337.85,-12.58"/>
</a>
</g>
</g>
<!-- Node6 -->
<g id="Node000006" class="node">
<title>Node6</title>
<g id="a_Node000006"><a xlink:href="printf_8c.html#a6ff3a4f52ca94cf220df24b61b7bd106" target="_top" xlink:title=" ">
<polygon fill="white" stroke="#666666" points="181.62,-41.41 107.88,-41.41 107.88,-22.16 181.62,-22.16 181.62,-41.41"/>
<text xml:space="preserve" text-anchor="middle" x="144.75" y="-27.91" font-family="Helvetica,sans-Serif" font-size="10.00">_puthexsmall</text>
</a>
</g>
</g>
<!-- Node1&#45;&gt;Node6 -->
<g id="edge5_Node000001_Node000006" class="edge">
<title>Node1&#45;&gt;Node6</title>
<g id="a_edge5_Node000001_Node000006"><a xlink:title=" ">
<path fill="none" stroke="#63b8ff" d="M69.54,-44.83C78.07,-43.33 87.39,-41.69 96.45,-40.1"/>
<polygon fill="#63b8ff" stroke="#63b8ff" points="96.98,-43.56 106.22,-38.38 95.77,-36.67 96.98,-43.56"/>
</a>
</g>
</g>
<!-- Node2&#45;&gt;Node3 -->
<g id="edge2_Node000002_Node000003" class="edge">
<title>Node2&#45;&gt;Node3</title>
<g id="a_edge2_Node000002_Node000003"><a xlink:title=" ">
<path fill="none" stroke="#63b8ff" d="M166.82,-97.73C185.48,-88.81 212.98,-75.68 234.15,-65.58"/>
<polygon fill="#63b8ff" stroke="#63b8ff" points="235.39,-68.87 242.9,-61.4 232.37,-62.55 235.39,-68.87"/>
</a>
</g>
</g>
<!-- Node4 -->
<g id="Node000004" class="node">
<title>Node4</title>
<g id="a_Node000004"><a xlink:href="printf_8c.html#a694b6d27273027eb96424e52b798c391" target="_top" xlink:title=" ">
<polygon fill="white" stroke="#666666" points="387.25,-60.41 348,-60.41 348,-41.16 387.25,-41.16 387.25,-60.41"/>
<text xml:space="preserve" text-anchor="middle" x="367.62" y="-46.91" font-family="Helvetica,sans-Serif" font-size="10.00">_bdiv</text>
</a>
</g>
</g>
<!-- Node3&#45;&gt;Node4 -->
<g id="edge3_Node000003_Node000004" class="edge">
<title>Node3&#45;&gt;Node4</title>
<g id="a_edge3_Node000003_Node000004"><a xlink:title=" ">
<path fill="none" stroke="#63b8ff" d="M312.22,-50.79C320.45,-50.79 328.86,-50.79 336.52,-50.79"/>
<polygon fill="#63b8ff" stroke="#63b8ff" points="336.31,-54.29 346.31,-50.79 336.31,-47.29 336.31,-54.29"/>
</a>
</g>
</g>
<!-- Node3&#45;&gt;Node5 -->
<g id="edge4_Node000003_Node000005" class="edge">
<title>Node3&#45;&gt;Node5</title>
<g id="a_edge4_Node000003_Node000005"><a xlink:title=" ">
<path fill="none" stroke="#63b8ff" d="M294.31,-40.68C308.3,-35.48 325.3,-29.15 339.3,-23.95"/>
<polygon fill="#63b8ff" stroke="#63b8ff" points="340.2,-27.35 348.36,-20.58 337.76,-20.79 340.2,-27.35"/>
</a>
</g>
</g>
<!-- Node6&#45;&gt;Node3 -->
<g id="edge6_Node000006_Node000003" class="edge">
<title>Node6&#45;&gt;Node3</title>
<g id="a_edge6_Node000006_Node000003"><a xlink:title=" ">
<path fill="none" stroke="#63b8ff" d="M181.89,-37.54C190.29,-38.88 199.42,-40.33 208.46,-41.77"/>
<polygon fill="#63b8ff" stroke="#63b8ff" points="207.89,-45.22 218.31,-43.34 208.99,-38.31 207.89,-45.22"/>
</a>
</g>
</g>
</g>
</svg>
