<?xml version="1.0" encoding="UTF-8" standalone="no"?>
<!DOCTYPE svg PUBLIC "-//W3C//DTD SVG 1.1//EN"
 "http://www.w3.org/Graphics/SVG/1.1/DTD/svg11.dtd">
<!-- Generated by graphviz version 14.0.0 (20250921.2048)
 -->
<!-- Title: src/user/string.c Pages: 1 -->
<svg width="95pt" height="138pt"
 viewBox="0.00 0.00 95.00 138.00" xmlns="http://www.w3.org/2000/svg" xmlns:xlink="http://www.w3.org/1999/xlink">
<g id="graph0" class="graph" transform="scale(1 1) rotate(0) translate(4 133.75)">
<title>src/user/string.c</title>
<!-- Node1 -->
<g id="Node000001" class="node">
<title>Node1</title>
<g id="a_Node000001"><a xlink:title=" ">
<polygon fill="#999999" stroke="#666666" points="86.5,-129.75 0,-129.75 0,-110.5 86.5,-110.5 86.5,-129.75"/>
<text xml:space="preserve" text-anchor="middle" x="43.25" y="-116.25" font-family="Helvetica,sans-Serif" font-size="10.00">src/user/string.c</text>
</a>
</g>
</g>
<!-- Node2 -->
<g id="Node000002" class="node">
<title>Node2</title>
<g id="a_Node000002"><a xlink:href="string_8h.html" target="_top" xlink:title=" ">
<polygon fill="white" stroke="#666666" points="67.38,-74.5 19.12,-74.5 19.12,-55.25 67.38,-55.25 67.38,-74.5"/>
<text xml:space="preserve" text-anchor="middle" x="43.25" y="-61" font-family="Helvetica,sans-Serif" font-size="10.00">string.h</text>
</a>
</g>
</g>
<!-- Node1&#45;&gt;Node2 -->
<g id="edge1_Node000001_Node000002" class="edge">
<title>Node1&#45;&gt;Node2</title>
<g id="a_edge1_Node000001_Node000002"><a xlink:title=" ">
<path fill="none" stroke="#63b8ff" d="M43.25,-110.33C43.25,-103.82 43.25,-94.67 43.25,-86.37"/>
<polygon fill="#63b8ff" stroke="#63b8ff" points="46.75,-86.37 43.25,-76.37 39.75,-86.37 46.75,-86.37"/>
</a>
</g>
</g>
<!-- Node3 -->
<g id="Node000003" class="node">
<title>Node3</title>
<g id="a_Node000003"><a xlink:title=" ">
<polygon fill="#e0e0e0" stroke="#999999" points="68.88,-19.25 17.62,-19.25 17.62,0 68.88,0 68.88,-19.25"/>
<text xml:space="preserve" text-anchor="middle" x="43.25" y="-5.75" font-family="Helvetica,sans-Serif" font-size="10.00">stddef.h</text>
</a>
</g>
</g>
<!-- Node2&#45;&gt;Node3 -->
<g id="edge2_Node000002_Node000003" class="edge">
<title>Node2&#45;&gt;Node3</title>
<g id="a_edge2_Node000002_Node000003"><a xlink:title=" ">
<path fill="none" stroke="#63b8ff" d="M43.25,-55.08C43.25,-48.57 43.25,-39.42 43.25,-31.12"/>
<polygon fill="#63b8ff" stroke="#63b8ff" points="46.75,-31.12 43.25,-21.12 39.75,-31.12 46.75,-31.12"/>
</a>
</g>
</g>
</g>
</svg>
