<?xml version="1.0" encoding="UTF-8" standalone="no"?>
<!DOCTYPE svg PUBLIC "-//W3C//DTD SVG 1.1//EN"
 "http://www.w3.org/Graphics/SVG/1.1/DTD/svg11.dtd">
<!-- Generated by graphviz version 14.0.0 (20250921.2048)
 -->
<!-- Title: include/string.h Pages: 1 -->
<svg width="208pt" height="83pt"
 viewBox="0.00 0.00 208.00 83.00" xmlns="http://www.w3.org/2000/svg" xmlns:xlink="http://www.w3.org/1999/xlink">
<g id="graph0" class="graph" transform="scale(1 1) rotate(0) translate(4 78.5)">
<title>include/string.h</title>
<!-- Node1 -->
<g id="Node000001" class="node">
<title>Node1</title>
<g id="a_Node000001"><a xlink:title=" ">
<polygon fill="#999999" stroke="#666666" points="143.12,-74.5 61.12,-74.5 61.12,-55.25 143.12,-55.25 143.12,-74.5"/>
<text xml:space="preserve" text-anchor="middle" x="102.12" y="-61" font-family="Helvetica,sans-Serif" font-size="10.00">include/string.h</text>
</a>
</g>
</g>
<!-- Node2 -->
<g id="Node000002" class="node">
<title>Node2</title>
<g id="a_Node000002"><a xlink:href="kernel_8c.html" target="_top" xlink:title=" ">
<polygon fill="white" stroke="#666666" points="96.25,-19.25 0,-19.25 0,0 96.25,0 96.25,-19.25"/>
<text xml:space="preserve" text-anchor="middle" x="48.12" y="-5.75" font-family="Helvetica,sans-Serif" font-size="10.00">src/kernel/kernel.c</text>
</a>
</g>
</g>
<!-- Node1&#45;&gt;Node2 -->
<g id="edge1_Node000001_Node000002" class="edge">
<title>Node1&#45;&gt;Node2</title>
<g id="a_edge1_Node000001_Node000002"><a xlink:title=" ">
<path fill="none" stroke="#63b8ff" d="M85.09,-47.07C75.86,-37.98 64.83,-27.1 57.24,-19.61"/>
<polygon fill="#63b8ff" stroke="#63b8ff" points="82.55,-49.49 92.13,-54.02 87.47,-44.51 82.55,-49.49"/>
</a>
</g>
</g>
<!-- Node3 -->
<g id="Node000003" class="node">
<title>Node3</title>
<g id="a_Node000003"><a xlink:href="string_8c.html" target="_top" xlink:title=" ">
<polygon fill="white" stroke="#666666" points="200.38,-19.25 113.88,-19.25 113.88,0 200.38,0 200.38,-19.25"/>
<text xml:space="preserve" text-anchor="middle" x="157.12" y="-5.75" font-family="Helvetica,sans-Serif" font-size="10.00">src/user/string.c</text>
</a>
</g>
</g>
<!-- Node1&#45;&gt;Node3 -->
<g id="edge2_Node000001_Node000003" class="edge">
<title>Node1&#45;&gt;Node3</title>
<g id="a_edge2_Node000001_Node000003"><a xlink:title=" ">
<path fill="none" stroke="#63b8ff" d="M119.48,-47.07C128.87,-37.98 140.11,-27.1 147.85,-19.61"/>
<polygon fill="#63b8ff" stroke="#63b8ff" points="117.04,-44.56 112.29,-54.03 121.91,-49.59 117.04,-44.56"/>
</a>
</g>
</g>
</g>
</svg>
